<?xml version="1.0" standalone="no"?>
<!DOCTYPE svg PUBLIC "-//W3C//DTD SVG 1.1//EN" "http://www.w3.org/Graphics/SVG/1.1/DTD/svg11.dtd" >
<svg>
<metadata>
Created by FontForge 20090914 at Thu May 20 20:00:13 2021
 By www-data
Copyright 2017 The Exo Project Authors (https://github.com/NDISCOVER/Exo-1.0)
</metadata>
<defs>
<font id="Exo-Medium" horiz-adv-x="590" >
  <font-face 
    font-family="Exo Medium"
    font-weight="500"
    font-stretch="normal"
    units-per-em="1000"
    panose-1="0 0 0 0 0 0 0 0 0 0"
    ascent="800"
    descent="-200"
    x-height="535"
    cap-height="737"
    bbox="-514 -270 1337 1108"
    underline-thickness="50"
    underline-position="-75"
    unicode-range="U+000D-U+FB05"
  />
<missing-glyph horiz-adv-x="655" 
d="M55 539h544v-544h-544v544zM451 100l-123 123l-123 -123l-44 44l123 123l-123 123l44 44l123 -123l123 123l44 -44l-123 -123l123 -123zM548 47v441h-441v-441h441z" />
    <glyph glyph-name="f_f" unicode="ff" horiz-adv-x="774" 
d="M97 0l0.00195312 452.996h-80v65l80 17v67c0 38.667 5 70.334 15 95.001s26.167 42.834 48.5 54.501s51.833 17.5 88.5 17.5c26 0 49 -1.5 69 -4.5s37 -6.5 51 -10.5v-73c-12.667 2 -26.834 3.33301 -42.501 4s-30.834 1 -45.501 1c-22 0 -39 -3.66699 -51 -11
s-20.333 -18.166 -25 -32.499s-7 -32.166 -7 -53.499v-54h340v-82h-340v-453h-101zM489.002 -0.00390625l-0.00195312 453h-80v65l80 17v53c0 40 5 73.5 15 100.5s26.667 47.167 50 60.5s55.333 20 96 20c23.333 0 43.5 -1.33301 60.5 -4l44.5 -7v-72h-87
c-21.333 0 -37.666 -3.33301 -48.999 -10s-19.166 -17 -23.499 -31s-6.5 -31.333 -6.5 -52v-58h157v-82h-157v-453h-100z" />
    <glyph glyph-name="fi" unicode="fi" horiz-adv-x="627" 
d="M97 0l0.00195312 452.996h-80v65l80 17v67c0 38.667 5 70.334 15 95.001s26.167 42.834 48.5 54.501s51.833 17.5 88.5 17.5c26 0 49 -1.5 69 -4.5s37 -6.5 51 -10.5v-73c-12.667 2 -26.834 3.33301 -42.501 4s-30.834 1 -45.501 1c-22 0 -39 -3.66699 -51 -11
s-20.333 -18.166 -25 -32.499s-7 -32.166 -7 -53.499v-54h307v-82h-307v-453h-101zM457.002 -0.00390625v535h100v-535h-100zM471.002 624.996c-12 0 -18 5.66602 -18 16.999v84c0 12 6 18 18 18h74c5.33301 0 9.33301 -1.66699 12 -5s4 -7.66602 4 -12.999v-84
c0 -11.333 -5.33301 -17 -16 -17h-74z" />
    <glyph glyph-name="fl" unicode="fl" horiz-adv-x="687" 
d="M97 0v452.999h-80v65l80 17v58c0 41.333 6.66699 75 20 101s34.666 45 63.999 57s68 18 116 18c35.333 0 69 -1.16699 101 -3.5s61.5 -5.33301 88.5 -9s50.5 -7.16699 70.5 -10.5v-68c-21.333 1.33301 -46.333 2.66602 -75 3.99902s-57.667 2.33301 -87 3
s-57.333 1 -84 1c-30 0 -53.167 -3.66699 -69.5 -11s-27.666 -18.166 -33.999 -32.499s-9.5 -32.166 -9.5 -53.499v-54h156v-82h-156v-453h-101zM606 -0.000976562c-32.667 0 -60.167 5.66895 -82.5 17.002s-39 29.666 -50 54.999s-16.5 59 -16.5 101v557h100v-543
c0 -28.667 2.83301 -50.334 8.5 -65.001s13.667 -25.167 24 -31.5s22.5 -10.5 36.5 -12.5l50 -6v-72h-70z" />
    <glyph glyph-name="f_f_i" unicode="ffi" horiz-adv-x="1014" 
d="M97 0l0.00195312 452.996h-80v65l80 17v67c0 38.667 5 70.334 15 95.001s26.167 42.834 48.5 54.501s51.833 17.5 88.5 17.5c26 0 49 -1.5 69 -4.5s37 -6.5 51 -10.5v-73c-12.667 2 -26.834 3.33301 -42.501 4s-30.834 1 -45.501 1c-22 0 -39 -3.66699 -51 -11
s-20.333 -18.166 -25 -32.499s-7 -32.166 -7 -53.499v-54h336v-82h-336v-453h-101zM844.002 -0.00390625v535h100v-535h-100zM858.002 624.996c-12 0 -18 5.66602 -18 16.999v84c0 12 6 18 18 18h74c5.33301 0 9.33301 -1.66699 12 -5s4 -7.66602 4 -12.999v-84
c0 -11.333 -5.33301 -17 -16 -17h-74zM484.002 -0.00488281l0.00195312 452.996h-80v65l80 17v67c0 38.667 5 70.334 15 95.001s26.167 42.834 48.5 54.501s51.833 17.5 88.5 17.5c26 0 49 -1.5 69 -4.5s37 -6.5 51 -10.5v-73c-12.667 2 -26.834 3.33301 -42.501 4
s-30.834 1 -45.501 1c-22 0 -39 -3.66699 -51 -11s-20.333 -18.166 -25 -32.499s-7 -32.166 -7 -53.499v-54h307v-82h-307v-453h-101z" />
    <glyph glyph-name="f_f_l" unicode="ffl" horiz-adv-x="1074" 
d="M97 0l0.00195312 452.996h-80v65l80 17v67c0 38.667 5 70.334 15 95.001s26.167 42.834 48.5 54.501s51.833 17.5 88.5 17.5c26 0 49 -1.5 69 -4.5s37 -6.5 51 -10.5v-73c-12.667 2 -26.834 3.33301 -42.501 4s-30.834 1 -45.501 1c-22 0 -39 -3.66699 -51 -11
s-20.333 -18.166 -25 -32.499s-7 -32.166 -7 -53.499v-54h338v-82h-338v-453h-101zM484.002 -0.00390625l-0.000976562 452.999h-80v65l80 17v58c0 41.333 6.66699 75 20 101s34.833 45 64.5 57s68.167 18 115.5 18c35.333 0 69 -1.16699 101 -3.5s61.5 -5.33301 88.5 -9
s50.5 -7.16699 70.5 -10.5v-68c-21.333 1.33301 -46.333 2.66602 -75 3.99902s-57.667 2.33301 -87 3s-57.333 1 -84 1c-30 0 -53.167 -3.66699 -69.5 -11s-27.666 -18.166 -33.999 -32.499s-9.5 -32.166 -9.5 -53.499v-54h156v-82h-156v-453h-101zM993.001 -0.00488281
c-32.667 0 -60.167 5.66895 -82.5 17.002s-39 29.666 -50 54.999s-16.5 59 -16.5 101v557h100v-543c0 -28.667 2.83301 -50.334 8.5 -65.001s13.667 -25.167 24 -31.5s22.5 -10.5 36.5 -12.5l50 -6v-72h-70z" />
    <glyph glyph-name=".notdef" horiz-adv-x="655" 
d="M55 539h544v-544h-544v544zM451 100l-123 123l-123 -123l-44 44l123 123l-123 123l44 44l123 -123l123 123l44 -44l-123 -123l123 -123zM548 47v441h-441v-441h441z" />
    <glyph glyph-name="CR" unicode="&#xd;" horiz-adv-x="266" 
 />
    <glyph glyph-name="space" unicode=" " horiz-adv-x="266" 
 />
    <glyph glyph-name="exclam" unicode="!" horiz-adv-x="268" 
d="M95 201l-13 535h101l-15 -535h-73zM103 -1c-12 0 -17.999 5.66699 -17.999 17v87c0 12 6 18 18 18h57c12 0 18 -6 18 -18v-87c0 -6 -1.83301 -10.333 -5.5 -13s-7.83398 -4 -12.501 -4h-57z" />
    <glyph glyph-name="quotedbl" unicode="&#x22;" horiz-adv-x="320" 
d="M47 504l-9 178v67h97v-67l-8 -178h-80zM190 504l-9 178v67h97v-67l-8 -178h-80z" />
    <glyph glyph-name="numbersign" unicode="#" horiz-adv-x="697" 
d="M143 0l39 223h-162l10 66h164l25 152h-165l11 66h167l39 225h66l-39 -225h142l38 225h66l-38 -225h173l-10 -66h-174l-24 -152h173l-9 -66h-179l-38 -223h-66l38 223h-142l-38 -223h-67zM261 289h144l24 152h-144z" />
    <glyph glyph-name="dollar" unicode="$" horiz-adv-x="609" 
d="M270 726l-10 48l49 50l10 -48zM260 -89v96h59v-96h-59zM286 -6c-16 0 -34.167 0.496094 -54.5 1.49609s-41 2.5 -62 4.5s-41 4 -60 6s-35.167 4.66699 -48.5 8v78c17.333 -1.33301 38.166 -2.66602 62.499 -3.99902s50.333 -2.33301 78 -3s54.5 -1 80.5 -1
c28.667 0 54.167 2.66699 76.5 8s40 15.333 53 30s19.5 35.334 19.5 62.001v43c0 30 -8.16699 53 -24.5 69s-41.166 24 -74.499 24h-75c-64 0 -113.5 14 -148.5 42s-52.5 76 -52.5 144v40c0 70.667 19.167 121.167 57.5 151.5s92.833 45.5 163.5 45.5
c23.333 0 48.333 -1.16699 75 -3.5s52.667 -5.16602 78 -8.49902s46.333 -6.66602 63 -9.99902v-78l-100.5 6.5c-37 2.33301 -71.833 3.5 -104.5 3.5c-28 0 -52.167 -3.16699 -72.5 -9.5s-36 -17.5 -47 -33.5s-16.5 -38.667 -16.5 -68v-30c0 -36 9.66699 -61 29 -75
s46.333 -21 81 -21h81c42 0 76.5 -7.66699 103.5 -23s47.167 -36.333 60.5 -63s20 -57 20 -91v-52c0 -52 -10.667 -92 -32 -120s-50 -47.167 -86 -57.5s-77 -15.5 -123 -15.5z" />
    <glyph glyph-name="percent" unicode="%" horiz-adv-x="960" 
d="M219 0l446 732h67l-442 -732h-71zM174 349c-48.667 0 -82.833 11 -102.5 33s-29.5 54.333 -29.5 97v123c0 42.667 9.66699 75 29 97s54.333 33 105 33h101c49.333 0 83.5 -11 102.5 -33s28.5 -54.333 28.5 -97v-123c0 -42.667 -9.5 -75 -28.5 -97s-53.833 -33 -104.5 -33
h-101zM185.001 414l77.999 0.00292969c29.333 0 50 5.66699 62 17s18 31.666 18 60.999v97c0 29.333 -5.5 49.666 -16.5 60.999s-31.5 17 -61.5 17h-78c-26.667 0 -46.667 -4.83301 -60 -14.5s-20 -30.834 -20 -63.501v-97c0 -28 5.83301 -48 17.5 -60
s31.834 -18 60.501 -18zM684 3.00293c-48.667 0 -82.667 11 -102 33s-29 54.333 -29 97v123c0 42.667 9.5 75 28.5 97s53.833 33 104.5 33h102c49.333 0 83.5 -11 102.5 -33s28.5 -54.333 28.5 -97v-123c0 -42.667 -9.5 -75 -28.5 -97s-53.833 -33 -104.5 -33h-102z
M696 68.0029l77.998 0.00292969c29.333 0 50 5.66699 62 17s18 31.666 18 60.999v97c0 29.333 -5.66699 49.666 -17 60.999s-31.666 17 -60.999 17h-78c-26.667 0 -46.667 -4.83301 -60 -14.5s-20 -30.834 -20 -63.501v-97c0 -28 5.83301 -48 17.5 -60
s31.834 -18 60.501 -18z" />
    <glyph glyph-name="ampersand" unicode="&#x26;" horiz-adv-x="681" 
d="M233 -6c-36.667 0 -69.8311 8.16602 -99.498 24.499s-52.834 39.333 -69.501 69s-25 63.834 -25 102.501c0 35.333 7.66699 68.833 23 100.5s38.666 61.167 69.999 88.5l64 54l-17 25c-20.667 30 -34 56.167 -40 78.5s-9 42.833 -9 61.5c0 33.333 8 60.166 24 80.499
s37.333 34.833 64 43.5s56 13 88 13c26 0 50 -0.833008 72 -2.5s41.667 -3.66699 59 -6s33 -4.83301 47 -7.5v-73h-160c-28 0 -50.5 -5.33301 -67.5 -16s-25.5 -28.334 -25.5 -53.001c0 -15.333 3.83301 -31.166 11.5 -47.499s20.167 -36.5 37.5 -60.5l180 -246l147 136
l37 -44l-68 -96l-65 -62l117 -157h-106l-76 99l-35 -30c-30 -27.333 -58.833 -46.666 -86.5 -57.999s-58.167 -17 -91.5 -17zM249.003 86.999c19.333 0 37.8311 3.66699 55.498 11s36.834 21 57.501 41l29 28l-146 197l-48 -42c-23.333 -20 -39.5 -40 -48.5 -60
s-13.5 -40.333 -13.5 -61c0 -34 10.333 -61.5 31 -82.5s48.334 -31.5 83.001 -31.5z" />
    <glyph glyph-name="quotesingle" unicode="'" horiz-adv-x="177" 
d="M47 504l-9 178v67h97v-67l-8 -178h-80z" />
    <glyph glyph-name="parenleft" unicode="(" horiz-adv-x="359" 
d="M247 -210c-32.667 48 -62.002 98.501 -88.002 151.501s-46.667 111 -62 174s-23 133.167 -23 210.5c0 74.667 8 143.5 24 206.5s37 121.667 63 176s54.667 104.833 86 151.5h92c-30 -51.333 -57.333 -104.833 -82 -160.5s-44.5 -114.334 -59.5 -176.001
s-22.5 -127.5 -22.5 -197.5s6.83301 -135 20.5 -195s32.834 -117.667 57.501 -173s53.334 -111.333 86.001 -168h-92z" />
    <glyph glyph-name="parenright" unicode=")" horiz-adv-x="359" 
d="M20 -210c32 53.333 60.333 107.834 85 163.501s44 114 58 175s21 126.5 21 196.5s-6.5 134.333 -19.5 193s-31.667 115.834 -56 171.501s-53.833 112.5 -88.5 170.5h92c34 -48.667 64 -99.667 90 -153s46.167 -111 60.5 -173s21.5 -131.667 21.5 -209
c0 -74.667 -7.33301 -143.334 -22 -206.001s-35 -120.834 -61 -174.501s-55.667 -105.167 -89 -154.5h-92z" />
    <glyph glyph-name="asterisk" unicode="*" horiz-adv-x="446" 
d="M296 517l-37 44l115 82l23 -33zM153 401l-37 12l29 136l55 -13zM193 575l-143 5v40l141 10zM333 410l-122 69l29 48l116 -86zM233 589l-49 134l37 12l65 -125z" />
    <glyph glyph-name="plus" unicode="+" horiz-adv-x="609" 
d="M263 132v448h82v-448h-82zM80 315v82h448v-82h-448z" />
    <glyph glyph-name="comma" unicode="," horiz-adv-x="210" 
d="M95 -82c-8.66699 0 -16.166 0.832031 -22.499 2.49902l-9.5 2.5v31c8 0 13.833 1.33301 17.5 4s5.5 7.33398 5.5 14.001v34h-9c-4.66699 0 -8.66699 1.66699 -12 5s-5 8 -5 14v76c0 13.333 5.66699 20 17 20h56c6.66699 0 11.167 -1.83301 13.5 -5.5s3.5 -8.5 3.5 -14.5
v-126c0 -16 -2.83301 -28.167 -8.5 -36.5s-12.834 -13.833 -21.501 -16.5s-17 -4 -25 -4z" />
    <glyph glyph-name="hyphen" unicode="-" horiz-adv-x="345" 
d="M24 249v82h297v-82h-297z" />
    <glyph glyph-name="period" unicode="." horiz-adv-x="210" 
d="M77 -1c-11.333 0 -17.001 5.66699 -17.001 17v87c0 12 5.66699 18 17 18h57c12 0 18 -6 18 -18v-87c0 -6 -1.66699 -10.333 -5 -13s-7.66602 -4 -12.999 -4h-57z" />
    <glyph glyph-name="slash" unicode="/" horiz-adv-x="421" 
d="M20 -72l281 842h100l-281 -842h-100z" />
    <glyph glyph-name="zero" unicode="0" horiz-adv-x="653" 
d="M256 -3c-37.333 0 -69.998 6.49902 -97.998 19.499s-49.667 32.833 -65 59.5s-23 60.334 -23 101.001v381c0 40.667 7.66699 74.667 23 102s37.166 48 65.499 62s60.833 21 97.5 21h147c41.333 0 75.166 -7.66699 101.499 -23s46 -36.666 59 -63.999s19.5 -60 19.5 -98
v-381c0 -60.667 -16.167 -105.834 -48.5 -135.501s-76.5 -44.5 -132.5 -44.5h-146zM277.002 87.999h101c36.667 0 63.167 9 79.5 27s24.5 43.333 24.5 76v358c0 36 -8.66699 62.333 -26 79s-42 25 -74 25h-108c-32 0 -57.333 -9 -76 -27s-28 -43.667 -28 -77v-358
c0 -34.667 9.5 -60.5 28.5 -77.5s45.167 -25.5 78.5 -25.5z" />
    <glyph glyph-name="one" unicode="1" horiz-adv-x="365" 
d="M185 0v646l-145 -33v64l155 67h91v-744h-101z" />
    <glyph glyph-name="two" unicode="2" horiz-adv-x="591" 
d="M52 0l-0.000976562 80.999l264 257c25.333 24 45.666 46.333 60.999 67s26.5 41.5 33.5 62.5s10.5 43.833 10.5 68.5c0 22 -4.16699 41.5 -12.5 58.5s-22.833 30.167 -43.5 39.5s-50 14 -88 14h-202v78c30.667 4 64.834 7.83301 102.501 11.5s77.834 5.5 120.501 5.5
c56.667 0 101.167 -7.83301 133.5 -23.5s55.333 -38 69 -67s20.5 -63.167 20.5 -102.5c0 -34 -4.5 -65.167 -13.5 -93.5s-22.833 -55.666 -41.5 -81.999s-42.667 -53.833 -72 -82.5l-207 -200h360v-92h-495z" />
    <glyph glyph-name="three" unicode="3" horiz-adv-x="583" 
d="M314 -6c-53.333 0 -103.17 1.33105 -149.503 3.99805s-87.166 6.33398 -122.499 11.001v79h236c28.667 0 53.334 2.83301 74.001 8.5s36.834 15.5 48.501 29.5s17.5 34.333 17.5 61v43c0 24 -5.66699 42.833 -17 56.5s-26 23.5 -44 29.5s-37 9.33301 -57 10l-187 8v75
l183 8c34 2 61.333 9.33301 82 22s31 34.334 31 65.001v42c0 32.667 -11.167 57.834 -33.5 75.501s-56.833 26.5 -103.5 26.5h-208v79c32.667 4.66699 69.667 8.66699 111 12s86.666 4.66602 135.999 3.99902c44 0 80.5 -7.16699 109.5 -21.5s50.833 -34.666 65.5 -60.999
s22 -57.5 22 -93.5v-60c0 -22 -3.16699 -40.833 -9.5 -56.5s-14.666 -29 -24.999 -40s-21.5 -19.5 -33.5 -25.5s-23.333 -10.667 -34 -14c12 -2.66699 24.5 -7.83398 37.5 -15.501s25.333 -17.667 37 -30s21.167 -27.5 28.5 -45.5s11 -38.667 11 -62v-48
c0 -57.333 -18.167 -101 -54.5 -131s-86.833 -45 -151.5 -45z" />
    <glyph glyph-name="four" unicode="4" horiz-adv-x="602" 
d="M386 1v177h-340l-21 52l266 507h103l-251 -473h243v181l21 73h80v-254h93v-69l-93 -17v-177h-101z" />
    <glyph glyph-name="five" unicode="5" horiz-adv-x="623" 
d="M330 -5c-43.333 0 -87.332 1.16797 -131.999 3.50098s-85.334 5.16602 -122.001 8.49902v79h257c28 0 51.833 4.5 71.5 13.5s34.667 21.833 45 38.5s15.5 35.667 15.5 57v72c0 30.667 -8.83301 54.834 -26.5 72.501s-45.167 26.5 -82.5 26.5h-72
c-27.333 0 -49 -6 -65 -18s-26.333 -30.667 -31 -56h-95l21 445h426v-90h-339l-11 -242c8.66699 12.667 22.667 23.667 42 33s43.333 14 72 14h85c38.667 0 71 -7.33301 97 -22s45.667 -34.667 59 -60s20 -54 20 -86v-109c0 -40.667 -9.5 -74.334 -28.5 -101.001
s-46 -46.5 -81 -59.5s-76.833 -19.5 -125.5 -19.5z" />
    <glyph glyph-name="six" unicode="6" horiz-adv-x="618" 
d="M274 -3c-32.667 0 -62.002 5.49707 -88.002 16.4971s-48 30 -66 57s-31.667 64.5 -41 112.5s-14 108.667 -14 182c0 68.667 6 126.834 18 174.501s29.5 86.667 52.5 117s50.833 52.333 83.5 66s70 20.5 112 20.5c29.333 0 61 -1.16699 95 -3.5s64 -5.16602 90 -8.49902
v-78h-179c-55.333 0 -97.666 -20 -126.999 -60s-44 -100.333 -44 -181c18.667 3.33301 39 6 61 8s44.333 3.33301 67 4s44 1 64 1c45.333 0 83 -5.66699 113 -17s52.333 -28.666 67 -51.999s22 -53.333 22 -90v-104c0 -40.667 -7.66699 -73 -23 -97
s-36.166 -41.333 -62.499 -52s-55.833 -16 -88.5 -16h-112zM291.998 86.9971l72.999 0.000976562c18 0 34.167 2.66699 48.5 8s25.666 14.666 33.999 27.999s12.5 32 12.5 56v69c0 25.333 -4.83301 44.5 -14.5 57.5s-24 21.833 -43 26.5s-42.5 7 -70.5 7h-166
c0 -50 2.66699 -91.5 8 -124.5s13.333 -58.667 24 -77s23.834 -31.333 39.501 -39s33.834 -11.5 54.501 -11.5z" />
    <glyph glyph-name="seven" unicode="7" horiz-adv-x="547" 
d="M137 0l246 636h-353v101h452l29 -48l-261 -689h-113z" />
    <glyph glyph-name="eight" unicode="8" horiz-adv-x="638" 
d="M258 -3c-26 0 -50.1621 2.50488 -72.4951 7.50488s-41.833 13.333 -58.5 25s-29.667 27.167 -39 46.5s-14 43.333 -14 72v104c0 22.667 4.5 42.5 13.5 59.5s20.333 30.833 34 41.5s28.167 17.667 43.5 21c-20.667 9.33301 -36.5 20.833 -47.5 34.5s-18.5 28.667 -22.5 45
s-6 33.166 -6 50.499v85c0 36.667 7.33301 66.334 22 89.001s34.667 39 60 49s53 15 83 15h139c31.333 0 58.666 -5 81.999 -15s41.666 -26.333 54.999 -49s20 -52.334 20 -89.001v-85c0 -10.667 -1.33301 -22.167 -4 -34.5s-6.83398 -24.333 -12.501 -36
s-13.167 -21.834 -22.5 -30.501s-20.333 -14.667 -33 -18c22 -4.66699 39.167 -13.834 51.5 -27.501s21.166 -29.334 26.499 -47.001s8 -35.5 8 -53.5v-109c0 -38 -7.33301 -67.833 -22 -89.5s-34.834 -37.334 -60.501 -47.001s-55.167 -14.5 -88.5 -14.5h-135z
M274.005 83.0049l98.001 -0.00195312c32.667 0 56.167 6.83301 70.5 20.5s21.5 33.834 21.5 60.501v84c0 30 -7.33301 51.667 -22 65s-39 20 -73 20h-95c-10 0 -20.833 -1.5 -32.5 -4.5s-22.5 -7.83301 -32.5 -14.5s-18.167 -15.5 -24.5 -26.5s-9.5 -24.167 -9.5 -39.5v-84
c0 -29.333 9.16699 -50.166 27.5 -62.499s42.166 -18.5 71.499 -18.5zM274.006 419.003l94.001 -0.00195312c21.333 0 38 4.16699 50 12.5s20.667 19 26 32s8 26.167 8 39.5v63c0 34.667 -6.83301 58.334 -20.5 71.001s-33.5 19 -59.5 19h-98
c-30.667 0 -52.834 -6.66699 -66.501 -20s-20.5 -36.666 -20.5 -69.999v-63c0 -26 7 -46.5 21 -61.5s36 -22.5 66 -22.5z" />
    <glyph glyph-name="nine" unicode="9" horiz-adv-x="618" 
d="M289 -5c-30 0 -61.666 1.16797 -94.999 3.50098s-63.333 5.16602 -90 8.49902v79h179c55.333 0 97.666 19.833 126.999 59.5s44 99.834 44 180.501c-18 -3.33301 -38.167 -6 -60.5 -8s-44.833 -3.33301 -67.5 -4s-44 -1 -64 -1c-45.333 0 -83 5.66699 -113 17
s-52.333 28.666 -67 51.999s-22 53.333 -22 90v105c0 40 7.66699 72 23 96s36.166 41.333 62.499 52s55.833 16 88.5 16h112c32.667 0 62 -5.5 88 -16.5s47.833 -30 65.5 -57s31.334 -64.5 41.001 -112.5s14.5 -108.667 14.5 -182c0 -68 -6 -126 -18 -174
s-29.5 -87.167 -52.5 -117.5s-50.833 -52.333 -83.5 -66s-70 -20.5 -112 -20.5zM287.001 399.001l167.001 -0.000976562c0 50 -2.66699 91.5 -8 124.5s-13.333 58.667 -24 77s-23.834 31.333 -39.501 39s-33.834 11.5 -54.501 11.5h-73c-18 0 -34.167 -2.66699 -48.5 -8
s-25.666 -14.666 -33.999 -27.999s-12.5 -32 -12.5 -56v-69c0 -25.333 5 -44.333 15 -57s24.5 -21.5 43.5 -26.5s41.833 -7.5 68.5 -7.5z" />
    <glyph glyph-name="colon" unicode=":" horiz-adv-x="210" 
d="M77 -1c-11.333 0 -17.001 5.66699 -17.001 17v87c0 12 5.66699 18 17 18h57c12 0 18 -6 18 -18v-87c0 -6 -1.66699 -10.333 -5 -13s-7.66602 -4 -12.999 -4h-57zM76.999 414c-11.333 0 -17.001 5.66699 -17.001 17v87c0 12 5.66699 18 17 18h57c12 0 18 -6 18 -18v-87
c0 -6 -1.66699 -10.333 -5 -13s-7.66602 -4 -12.999 -4h-57z" />
    <glyph glyph-name="semicolon" unicode=";" horiz-adv-x="210" 
d="M77 414c-11.333 0 -17.001 5.66699 -17.001 17v87c0 12 5.66699 18 17 18h57c12 0 18 -6 18 -18v-87c0 -6 -1.66699 -10.333 -5 -13s-7.66602 -4 -12.999 -4h-57zM94.999 -82c-8.66699 0 -16.166 0.832031 -22.499 2.49902l-9.5 2.5v31c8 0 13.833 1.33301 17.5 4
s5.5 7.33398 5.5 14.001v34h-9c-4.66699 0 -8.66699 1.66699 -12 5s-5 8 -5 14v76c0 13.333 5.66699 20 17 20h56c6.66699 0 11.167 -1.83301 13.5 -5.5s3.5 -8.5 3.5 -14.5v-126c0 -16 -2.83301 -28.167 -8.5 -36.5s-12.834 -13.833 -21.501 -16.5s-17 -4 -25 -4z" />
    <glyph glyph-name="less" unicode="&#x3c;" horiz-adv-x="609" 
d="M511 168l-415 136v90l415 134v-88l-318 -89l318 -95v-88z" />
    <glyph glyph-name="equal" unicode="=" horiz-adv-x="609" 
d="M80 195v82h448v-82h-448zM80 435v82h448v-82h-448z" />
    <glyph glyph-name="greater" unicode="&#x3e;" horiz-adv-x="609" 
d="M98 168v88l318 94l-318 90v88l415 -134v-90z" />
    <glyph glyph-name="question" unicode="?" horiz-adv-x="530" 
d="M163 200l0.000976562 170h56c48 0 83.167 7.33301 105.5 22s33.5 42 33.5 82v51c0 45.333 -10.5 77.333 -31.5 96s-53.5 28 -97.5 28c-32.667 0 -63.5 -3.16699 -92.5 -9.5s-59.833 -15.5 -92.5 -27.5v72c29.333 18 61.666 31.5 96.999 40.5s73.666 13.833 114.999 14.5
c48 0.666992 86.833 -7.33301 116.5 -24s51.334 -40 65.001 -70s20.5 -65.333 20.5 -106v-67c0 -60 -17.167 -105 -51.5 -135s-89.833 -45 -166.5 -45v-92h-77zM173.001 -1c-12 0 -18 5.66699 -18 17v87c0 12 6 18 18 18h57c11.333 0 17 -6 17 -18v-87
c0 -6 -1.66699 -10.333 -5 -13s-7.33301 -4 -12 -4h-57z" />
    <glyph glyph-name="at" unicode="@" horiz-adv-x="876" 
d="M265 -171c-28 0 -54.0049 4.00586 -78.0049 12.0059s-45.167 20.167 -63.5 36.5s-32.666 37.5 -42.999 63.5s-15.5 57.333 -15.5 94v311c0 16 1.5 32.5 4.5 49.5s8.5 34 16.5 51s19.5 32.333 34.5 46s34.167 24.5 57.5 32.5s52.333 12 87 12h187
c20.667 0 41.167 -1.83301 61.5 -5.5s38.833 -10.834 55.5 -21.501s29.834 -26.167 39.501 -46.5s14.5 -46.833 14.5 -79.5v-359h-62l-14 60c-0.666992 0 -6.33398 -3.5 -17.001 -10.5s-24.667 -15 -42 -24s-37 -17 -59 -24s-44.333 -10.5 -67 -10.5
c-28 0 -51.5 6.16699 -70.5 18.5s-33.333 28.5 -43 48.5s-14.5 41.333 -14.5 64v44c0 40.667 12.5 72 37.5 94s59.833 33 104.5 33h169v59c0 30.667 -8.16699 52 -24.5 64s-38.833 18 -67.5 18h-188c-23.333 0 -44.166 -3.33301 -62.499 -10s-32.833 -18.334 -43.5 -35.001
s-16 -40.667 -16 -72v-298c0 -35.333 6.33301 -62.833 19 -82.5s28.334 -33.334 47.001 -41.001s37.334 -11.5 56.001 -11.5h319c46.667 0 80 11.667 100 35s30 56.666 30 99.999v466c0 44 -11.167 79 -33.5 105s-54.5 39 -96.5 39h-396v61
c16 3.33301 39.833 6.33301 71.5 9s67.334 4.66699 107.001 6s80.5 2 122.5 2h95c27.333 0 53.5 -4 78.5 -12s47.333 -20.833 67 -38.5s35 -40.5 46 -68.5s16.5 -62.333 16.5 -103v-466c0 -46.667 -7.16699 -85.834 -21.5 -117.501s-36.5 -55.834 -66.5 -72.501
s-68.667 -25 -116 -25h-323zM392.995 95.0059c15.333 0 32.667 2.33203 52 6.99902s38 10.834 56 18.501s32.667 15.5 44 23.5v120l-151 -8c-12 -0.666992 -24 -2.5 -36 -5.5s-22 -8.83301 -30 -17.5s-12 -22 -12 -40v-31c0 -20.667 6.66699 -37 20 -49s32.333 -18 57 -18z
" />
    <glyph glyph-name="A" unicode="A" horiz-adv-x="678" 
d="M29 0l246 737h128l246 -737h-105l-65 193h-282l-64 -193h-104zM221 284h233l-116 365z" />
    <glyph glyph-name="B" unicode="B" horiz-adv-x="611" 
d="M73 0v736.999h274c66 0 115.167 -16 147.5 -48s48.5 -79.333 48.5 -142c0 -30.667 -4.5 -57.167 -13.5 -79.5s-21.333 -40.666 -37 -54.999s-33.167 -24.166 -52.5 -29.499c14 -4 28.5 -10 43.5 -18s29 -19.167 42 -33.5s23.5 -32 31.5 -53s12 -45.833 12 -74.5
c0 -51.333 -8.5 -91.833 -25.5 -121.5s-41.167 -50.834 -72.5 -63.501s-69 -19 -113 -19h-285zM174 89.999l181.001 -0.000976562c24 0 44.667 4 62 12s31 21.333 41 40s15 45 15 79c0 24.667 -5.33301 45.834 -16 63.501s-24.834 31.167 -42.501 40.5s-37.5 14 -59.5 14
h-181v-249zM174.001 416.998h175.998c28.667 0 51.834 10.5 69.501 31.5s26.834 48.5 27.501 82.5c1.33301 43.333 -7.66699 73.5 -27 90.5s-44 25.5 -74 25.5h-172v-230z" />
    <glyph glyph-name="C" unicode="C" horiz-adv-x="582" 
d="M317 -6c-44 0 -82.3311 4.99707 -114.998 14.9971s-60 28.167 -82 54.5s-38.333 64.333 -49 114s-16 114.167 -16 193.5c0 74.667 5.5 136.334 16.5 185.001s27.667 86.667 50 114s50.166 46.333 83.499 57s72 16 116 16c24.667 0 50.167 -1.33301 76.5 -4
s51.666 -6.16699 75.999 -10.5s46.166 -9.16602 65.499 -14.499v-76c-12 2 -28.333 4.16699 -49 6.5s-44 4.33301 -70 6s-53 2.5 -81 2.5c-33.333 0 -61.666 -3.83301 -84.999 -11.5s-42.333 -21.667 -57 -42s-25.334 -49 -32.001 -86s-10 -84.833 -10 -143.5
c0 -59.333 3.16699 -107.833 9.5 -145.5s16.5 -66.667 30.5 -87s32.667 -34.333 56 -42s52.333 -11.5 87 -11.5c50 0 91 1.33301 123 4s58 5.33398 78 8.00098v-77c-20 -4.66699 -42 -9 -66 -13s-49.167 -7 -75.5 -9s-53.166 -3 -80.499 -3z" />
    <glyph glyph-name="D" unicode="D" horiz-adv-x="673" 
d="M73 0l0.00195312 737.004h298c46 0 84.667 -8.33301 116 -25s56.666 -40.834 75.999 -72.501s33.333 -70.334 42 -116.001s13 -97.5 13 -155.5c0 -78.667 -9.16699 -145.334 -27.5 -200.001s-45.833 -96.334 -82.5 -125.001s-82.334 -43 -137.001 -43h-298z
M174.002 90.0039l188 -0.00195312c36.667 0 66.334 11.167 89.001 33.5s39.334 54.333 50.001 96s16 91.167 16 148.5c0 52.667 -3 96.834 -9 132.501s-15.333 64.334 -28 86.001s-28.834 37.167 -48.501 46.5s-42.834 14 -69.501 14h-188v-557z" />
    <glyph glyph-name="E" unicode="E" 
d="M237 -4c-16.667 0 -34.3311 1.5 -52.998 4.5s-36.5 9.33301 -53.5 19s-30.833 24.5 -41.5 44.5s-16 47 -16 81v438c0 29.333 4.5 54 13.5 74s20.833 35.833 35.5 47.5s31.167 20 49.5 25s36.5 7.5 54.5 7.5c43.333 -0.666992 83.166 -1.5 119.499 -2.5
s70.166 -2.16699 101.499 -3.5l90 -4v-83h-284c-24.667 0 -44 -6.33301 -58 -19s-21 -32.667 -21 -60v-153l318 -6v-78l-318 -7v-151c0 -22.667 3.83301 -39.667 11.5 -51s17.667 -19 30 -23s25.5 -6 39.5 -6h282v-83c-30.667 -2 -63 -3.83301 -97 -5.5
s-68.167 -3 -102.5 -4s-67.833 -1.5 -100.5 -1.5z" />
    <glyph glyph-name="F" unicode="F" horiz-adv-x="572" 
d="M73 0l-0.000976562 582.997c0 29.333 4.5 54 13.5 74s20.833 35.833 35.5 47.5s31.167 20 49.5 25s36.5 7.5 54.5 7.5c27.333 -0.666992 58.333 -1.16699 93 -1.5s70.834 -1.16602 108.501 -2.49902s74.167 -3.66602 109.5 -6.99902v-82h-286
c-24.667 0 -43.667 -6.66699 -57 -20s-20 -32.666 -20 -57.999v-171l318 -6v-78l-318 -6v-305h-101z" />
    <glyph glyph-name="G" unicode="G" horiz-adv-x="657" 
d="M289 -5c-46.667 -0.666992 -85.167 7 -115.5 23s-54.166 39.667 -71.499 71s-29.5 70.5 -36.5 117.5s-10.5 101.5 -10.5 163.5c0 61.333 3.83301 115.333 11.5 162s20.834 85.667 39.501 117s44.834 54.833 78.501 70.5s75.834 23.5 126.501 23.5c28.667 0 57 -1 85 -3
s55.167 -5.16699 81.5 -9.5s51.166 -9.16602 74.499 -14.499v-77c-13.333 2 -32 4 -56 6s-50.5 3.83301 -79.5 5.5s-58.5 2.5 -88.5 2.5c-46.667 0 -82.334 -9.16699 -107.001 -27.5s-41.834 -48.333 -51.501 -90s-14.5 -97.167 -14.5 -166.5
c0 -55.333 2.66699 -101.166 8 -137.499s14 -65 26 -86s28.5 -36 49.5 -45s47.5 -13.5 79.5 -13.5c30.667 0 61.167 3.66699 91.5 11s56.166 14.666 77.499 21.999v195h-164v77c13.333 2 29.166 3.66699 47.499 5s37.666 2.5 57.999 3.5s40.833 1.5 61.5 1.5
c18.667 0 35.834 -0.333008 51.501 -1s29.834 -1.66699 42.501 -3v-398h-75l-15 51c-22 -11.333 -51.333 -23.333 -88 -36s-75.667 -19.334 -117 -20.001z" />
    <glyph glyph-name="H" unicode="H" horiz-adv-x="688" 
d="M73 0v737h101v-331h341v331h100v-737h-100v316h-341v-316h-101z" />
    <glyph glyph-name="I" unicode="I" horiz-adv-x="247" 
d="M73 0v737h101v-737h-101z" />
    <glyph glyph-name="J" unicode="J" horiz-adv-x="391" 
d="M143 -6c-20 0 -40.833 2.16797 -62.5 6.50098s-39.5 9.5 -53.5 15.5v79c14 -2.66699 29.667 -5.16699 47 -7.5s33.333 -3.5 48 -3.5c20 0 37 3 51 9s24.833 15.833 32.5 29.5s11.5 33.167 11.5 58.5v556h100v-569c0 -41.333 -6.16699 -74.833 -18.5 -100.5
s-31.333 -44.334 -57 -56.001s-58.5 -17.5 -98.5 -17.5z" />
    <glyph glyph-name="K" unicode="K" horiz-adv-x="618" 
d="M73 0v737h101v-325h119l187 325h107l-214 -369l218 -368h-108l-190 322h-119v-322h-101z" />
    <glyph glyph-name="L" unicode="L" horiz-adv-x="533" 
d="M229 0c-31.333 0 -58.832 4.83301 -82.499 14.5s-41.834 26 -54.501 49s-19 53.833 -19 92.5v581h101v-566c0 -21.333 3.66699 -37.833 11 -49.5s17 -19.5 29 -23.5s25 -6 39 -6h255v-92h-279z" />
    <glyph glyph-name="M" unicode="M" horiz-adv-x="850" 
d="M53 0l84 737h100l188 -615l185 615h101l86 -737h-97l-72 614l17 -2l-174 -612h-93l-177 612l18 1l-69 -613h-97z" />
    <glyph glyph-name="N" unicode="N" horiz-adv-x="689" 
d="M84 0v737h82l361 -565v565h100v-737h-81l-361 565v-565h-101z" />
    <glyph glyph-name="O" unicode="O" horiz-adv-x="690" 
d="M345 -6c-48 0 -90.168 4.66699 -126.501 14s-66.666 26.666 -90.999 51.999s-42.5 62.666 -54.5 111.999s-18 114 -18 194s6 144.833 18 194.5s30.333 87.667 55 114s55 44.333 91 54s78 14.5 126 14.5c49.333 0 92.166 -4.83301 128.499 -14.5s66.5 -27.667 90.5 -54
s42 -64.333 54 -114s18 -114.5 18 -194.5s-6 -144.667 -18 -194s-30.167 -86.666 -54.5 -111.999s-54.666 -42.666 -90.999 -51.999s-78.833 -14 -127.5 -14zM344.999 84c34.667 0 64.168 3.66699 88.501 11s44 20.833 59 40.5s25.833 48 32.5 85s10 85.5 10 145.5
c0 63.333 -3.5 114 -10.5 152s-17.833 66.667 -32.5 86s-34.167 32.333 -58.5 39s-53.833 10 -88.5 10c-32.667 0 -61 -3.33301 -85 -10s-43.667 -19.667 -59 -39s-26.833 -48 -34.5 -86s-11.5 -88.667 -11.5 -152c0 -60 3.16699 -108.5 9.5 -145.5s17 -65.333 32 -85
s34.667 -33.167 59 -40.5s54.166 -11 89.499 -11z" />
    <glyph glyph-name="P" unicode="P" horiz-adv-x="609" 
d="M73 0l-0.00195312 737.003h299c22 0 44.667 -2.83301 68 -8.5s44.833 -16.667 64.5 -33s35.5 -40.5 47.5 -72.5s18 -74.333 18 -127s-6.16699 -95.334 -18.5 -128.001s-28.5 -57.667 -48.5 -75s-41.667 -29 -65 -35s-45.666 -9 -66.999 -9
c-10.667 0 -25.167 0.333008 -43.5 1s-37.5 1.66699 -57.5 3s-38.667 2.66602 -56 3.99902s-30.666 2.66602 -39.999 3.99902v-261h-101zM173.998 339.003h183c21.333 0 40.5 4.83301 57.5 14.5s30.333 25.667 40 48s14.5 53.5 14.5 93.5c0 39.333 -4.83301 70 -14.5 92
s-22.5 37.5 -38.5 46.5s-33.667 13.5 -53 13.5h-189v-308z" />
    <glyph glyph-name="Q" unicode="Q" horiz-adv-x="690" 
d="M509 -178c-27.333 0 -53.498 5.16602 -78.498 15.499s-46 26 -63 47s-27.167 47.833 -30.5 80.5h69c7.33301 -24 20.5 -41.333 39.5 -52s38.833 -16 59.5 -16c10 0 19.667 0.833008 29 2.5s18.333 3.83398 27 6.50098v-77
c-8.66699 -1.33301 -17.334 -2.83301 -26.001 -4.5s-17.334 -2.5 -26.001 -2.5zM345.002 -6.00098c-48 0 -90.168 4.66699 -126.501 14s-66.666 26.666 -90.999 51.999s-42.5 62.666 -54.5 111.999s-18 114 -18 194s6 144.833 18 194.5s30.333 87.667 55 114
s55 44.333 91 54s78 14.5 126 14.5c49.333 0 92.166 -4.83301 128.499 -14.5s66.5 -27.667 90.5 -54s42 -64.333 54 -114s18 -114.5 18 -194.5s-6 -144.667 -18 -194s-30.167 -86.666 -54.5 -111.999s-54.666 -42.666 -90.999 -51.999s-78.833 -14 -127.5 -14z
M345.001 83.999c34.667 0 64.168 3.66699 88.501 11s44 20.833 59 40.5s25.833 48 32.5 85s10 85.5 10 145.5c0 63.333 -3.5 114 -10.5 152s-17.833 66.667 -32.5 86s-34.167 32.333 -58.5 39s-53.833 10 -88.5 10c-32.667 0 -61 -3.33301 -85 -10s-43.667 -19.667 -59 -39
s-26.833 -48 -34.5 -86s-11.5 -88.667 -11.5 -152c0 -60 3.16699 -108.5 9.5 -145.5s17 -65.333 32 -85s34.667 -33.167 59 -40.5s54.166 -11 89.499 -11z" />
    <glyph glyph-name="R" unicode="R" horiz-adv-x="614" 
d="M73 0l-0.00195312 737h295c25.333 0 49.833 -3 73.5 -9s44.834 -17 63.501 -33s33.334 -38.5 44.001 -67.5s16 -66.833 16 -113.5c0 -38 -4 -69.667 -12 -95s-18.5 -45.5 -31.5 -60.5s-27.333 -26.333 -43 -34s-31.167 -13.5 -46.5 -17.5l147 -307h-102l-136 293
c-10 0 -22.167 0.166992 -36.5 0.5s-29.333 0.5 -45 0.5s-31 0.333008 -46 1s-28.167 1 -39.5 1v-296h-101zM173.998 374l178 0.00195312c16 0 30.667 1.83301 44 5.5s25.166 10.667 35.499 21s18.5 24.666 24.5 42.999s9 41.833 9 70.5c0 28 -3 50.667 -9 68
s-14.333 30.666 -25 39.999s-22.667 15.833 -36 19.5s-27.666 5.5 -42.999 5.5h-178v-273z" />
    <glyph glyph-name="S" unicode="S" horiz-adv-x="582" 
d="M286 -6c-16 0 -34.167 0.496094 -54.5 1.49609s-41 2.5 -62 4.5s-41 4 -60 6s-35.167 4.66699 -48.5 8v78c17.333 -1.33301 38.166 -2.66602 62.499 -3.99902s50.333 -2.33301 78 -3s54.5 -1 80.5 -1c28.667 0 54.167 2.66699 76.5 8s40 15.333 53 30
s19.5 35.334 19.5 62.001v43c0 30 -8.16699 53 -24.5 69s-41.166 24 -74.499 24h-75c-64 0 -113.5 14 -148.5 42s-52.5 76 -52.5 144v40c0 70.667 19.167 121.167 57.5 151.5s92.833 45.5 163.5 45.5c23.333 0 48.333 -1.16699 75 -3.5s52.667 -5.16602 78 -8.49902
s46.333 -6.66602 63 -9.99902v-78l-100.5 6.5c-37 2.33301 -71.833 3.5 -104.5 3.5c-28 0 -52.167 -3.16699 -72.5 -9.5s-36 -17.5 -47 -33.5s-16.5 -38.667 -16.5 -68v-30c0 -36 9.66699 -61 29 -75s46.333 -21 81 -21h81c42 0 76.5 -7.66699 103.5 -23
s47.167 -36.333 60.5 -63s20 -57 20 -91v-52c0 -52 -10.667 -92 -32 -120s-50 -47.167 -86 -57.5s-77 -15.5 -123 -15.5z" />
    <glyph glyph-name="T" unicode="T" horiz-adv-x="573" 
d="M236 0v647h-220v90h541v-90h-220v-647h-101z" />
    <glyph glyph-name="U" unicode="U" horiz-adv-x="679" 
d="M339 -6c-40.667 0 -78 3.66699 -112 11s-63.333 19.833 -88 37.5s-43.5 41.834 -56.5 72.501s-19.5 69.334 -19.5 116.001v506h101v-505c0 -38 6.83301 -67.5 20.5 -88.5s33.667 -36 60 -45s57.833 -13.5 94.5 -13.5c37.333 0 69.166 4.5 95.499 13.5s46.333 24 60 45
s20.5 50.5 20.5 88.5v505h101v-506c0 -46.667 -6.66699 -85.334 -20 -116.001s-32.166 -54.834 -56.499 -72.501s-53.5 -30.167 -87.5 -37.5s-71.667 -11 -113 -11z" />
    <glyph glyph-name="V" unicode="V" horiz-adv-x="678" 
d="M275 0l-246 737h104l206 -630l207 630h103l-246 -737h-128z" />
    <glyph glyph-name="W" unicode="W" horiz-adv-x="991" 
d="M214 0l-185 737h104l146 -594l168 594h98l167 -594l147 594h103l-185 -737h-106l-175 594l-176 -594h-106z" />
    <glyph glyph-name="X" unicode="X" horiz-adv-x="636" 
d="M493 0l-463 737h110l464 -737h-111zM33 0l242 391l51 -85l-183 -306h-110zM360 337l-49 88l184 312h111z" />
    <glyph glyph-name="Y" unicode="Y" horiz-adv-x="621" 
d="M260 0v238l-230 499h105l177 -397l178 397h101l-230 -499v-238h-101z" />
    <glyph glyph-name="Z" unicode="Z" horiz-adv-x="564" 
d="M42 0v81l363 566h-363v90h485v-81l-363 -566h363v-90h-485z" />
    <glyph glyph-name="bracketleft" unicode="[" horiz-adv-x="335" 
d="M248 -210c-35.333 0 -63.998 6.33398 -85.998 19.001s-38.5 29 -49.5 49s-18.333 41.333 -22 64s-5.5 43.667 -5.5 63v671c0 24 2.5 46.833 7.5 68.5s13.5 41.5 25.5 59.5s28.667 32.167 50 42.5s48 15.5 80 15.5h68v-81h-41c-26.667 0 -48.334 -9 -65.001 -27
s-25 -48.333 -25 -91v-654c0 -24 3.16699 -44.833 9.5 -62.5s16.166 -31.334 29.499 -41.001s30.333 -14.5 51 -14.5h41v-81h-68z" />
    <glyph glyph-name="backslash" unicode="\" horiz-adv-x="421" 
d="M301 -72l-281 842h100l281 -842h-100z" />
    <glyph glyph-name="bracketright" unicode="]" horiz-adv-x="335" 
d="M20 -210v80.999h41c20.667 0 37.667 4.83301 51 14.5s23 23.334 29 41.001s9 38.5 9 62.5v654c0 42.667 -8.16699 73 -24.5 91s-37.833 27 -64.5 27h-41v81h68c32 0 58.667 -5.16699 80 -15.5s38 -24.5 50 -42.5s20.5 -37.833 25.5 -59.5s7.5 -44.5 7.5 -68.5v-671
c0 -19.333 -1.83301 -40.333 -5.5 -63s-11.167 -44 -22.5 -64s-27.833 -36.333 -49.5 -49s-50.167 -19 -85.5 -19h-68z" />
    <glyph glyph-name="asciicircum" unicode="^" horiz-adv-x="394" 
d="M50 531l118 135h70l107 -135h-60l-84 86l-91 -86h-60z" />
    <glyph glyph-name="underscore" unicode="_" horiz-adv-x="609" 
d="M0 -173v83h609v-83h-609z" />
    <glyph glyph-name="grave" unicode="`" horiz-adv-x="220" 
d="M142 631l-122 138h83l98 -138h-59z" />
    <glyph glyph-name="a" unicode="a" horiz-adv-x="546" 
d="M177 -6c-39.333 0 -71.8301 11.835 -97.4971 35.502s-38.5 56.5 -38.5 98.5v42c0 41.333 14.167 75.166 42.5 101.499s71.166 39.5 128.499 39.5h167v56c0 20.667 -3.5 38.167 -10.5 52.5s-19.833 25.166 -38.5 32.499s-46.334 11 -83.001 11h-164v59
c24 5.33301 52.167 10 84.5 14s70.166 6.33301 113.499 7c44 0 80.833 -5.5 110.5 -16.5s51.834 -29 66.501 -54s22 -58.167 22 -99.5v-373h-79l-17 59c-4 -2.66699 -12.333 -7.5 -25 -14.5s-28.834 -14.5 -48.501 -22.5s-41 -14.667 -64 -20s-46.167 -8 -69.5 -8z
M223.003 67.002c10 -0.666992 21.8301 0.333008 35.4971 3s27.334 5.83398 41.001 9.50098s26.334 7.5 38.001 11.5s21.334 7.5 29.001 10.5s11.834 4.83301 12.501 5.5v154l-140 -6c-34.667 -2 -59.5 -10.667 -74.5 -26s-22.5 -35.333 -22.5 -60v-24
c0 -19.333 4 -34.833 12 -46.5s18.167 -19.834 30.5 -24.501s25.166 -7 38.499 -7z" />
    <glyph glyph-name="b" unicode="b" horiz-adv-x="580" 
d="M342 -6c-24.667 0 -47.5 3 -68.5 9s-40 13.5 -57 22.5s-32.5 18.167 -46.5 27.5l-18 -53h-82v763h100v-273c24.667 13.333 52.167 25.333 82.5 36s58.5 16 84.5 16c44 0 80 -9.16699 108 -27.5s48.833 -47.833 62.5 -88.5s20.5 -95 20.5 -163
c0 -56.667 -6.33301 -105.167 -19 -145.5s-32.667 -71 -60 -92s-63 -31.5 -107 -31.5zM307 77c26 0 47.833 6.50098 65.5 19.501s31.334 33.667 41.001 62s14.5 64.833 14.5 109.5c0 54.667 -5.33301 95.667 -16 123s-25 45.666 -43 54.999s-38.667 14 -62 14
c-26.667 0 -50.834 -3.83301 -72.501 -11.5s-43.167 -17.167 -64.5 -28.5v-305c18 -9.33301 38.333 -18 61 -26s48 -12 76 -12z" />
    <glyph glyph-name="c" unicode="c" horiz-adv-x="490" 
d="M269 -6c-31.333 0 -60.167 4.16699 -86.5 12.5s-49.333 22.5 -69 42.5s-34.834 47.667 -45.501 83s-16 80 -16 134c0 55.333 5 100.833 15 136.5s24.5 63.667 43.5 84s42.167 34.5 69.5 42.5s58 12 92 12c28 0 57.5 -1.33301 88.5 -4s61.167 -7 90.5 -13v-59h-151
c-32.667 0 -60 -5.16699 -82 -15.5s-38.333 -30 -49 -59s-16 -70.833 -16 -125.5c0 -52.667 5.66699 -93.167 17 -121.5s27.833 -47.5 49.5 -57.5s48.834 -15 81.501 -15h158v-57c-15.333 -4 -33.5 -7.5 -54.5 -10.5s-43 -5.33301 -66 -7s-46.167 -2.5 -69.5 -2.5z" />
    <glyph glyph-name="d" unicode="d" horiz-adv-x="577" 
d="M244 -6c-43.333 0 -79.167 9.33105 -107.5 27.998s-49.5 47.834 -63.5 87.501s-21 90.834 -21 153.501c0 66 6.5 119.5 19.5 160.5s34.167 71 63.5 90s69 28.5 119 28.5c28 0 55.833 -3 83.5 -9s51.834 -12.667 72.501 -20v250h100v-763h-82l-18 53
c-10.667 -9.33301 -25.334 -18.5 -44.001 -27.5s-38.667 -16.5 -60 -22.5s-42 -9 -62 -9zM275.999 75.998c27.333 0 52.1689 4.33203 74.502 12.999s42.166 17.667 59.499 27v325c-20.667 6 -40.834 11.5 -60.501 16.5s-41.5 7.5 -65.5 7.5
c-31.333 0 -56.666 -5.66699 -75.999 -17s-33.333 -31.333 -42 -60s-13 -68.667 -13 -120c0 -47.333 4 -85.166 12 -113.499s21.167 -48.5 39.5 -60.5s42.166 -18 71.499 -18z" />
    <glyph glyph-name="e" unicode="e" horiz-adv-x="540" 
d="M281 -6c-56.667 0 -101.829 8.33105 -135.496 24.998s-57.667 44.834 -72 84.501s-21.5 94.5 -21.5 164.5c0 71.333 7.16699 126.833 21.5 166.5s38.166 67.5 71.499 83.5s78.333 24 135 24c49.333 0 89.166 -5.16699 119.499 -15.5s52.666 -28.666 66.999 -54.999
s21.5 -62.833 21.5 -109.5c0 -32.667 -6.5 -58.667 -19.5 -78s-31.333 -33.333 -55 -42s-51.834 -13 -84.501 -13h-177c0.666992 -38.667 5.16699 -69.5 13.5 -92.5s23.333 -39.667 45 -50s53.5 -15.5 95.5 -15.5h167v-60c-28.667 -4 -58 -7.83301 -88 -11.5
s-64.667 -5.5 -104 -5.5zM151.005 291.998h168.999c26.667 0 46.334 5 59.001 15s19 28.333 19 55s-3.83301 47.667 -11.5 63s-20.167 26.333 -37.5 33s-40.333 10 -69 10c-32.667 0 -58.5 -5 -77.5 -15s-32.333 -27.667 -40 -53s-11.5 -61.333 -11.5 -108z" />
    <glyph glyph-name="f" unicode="f" horiz-adv-x="375" 
d="M102 0l-0.00195312 453h-80v65l80 17v53c0 40 5 73.5 15 100.5s26.667 47.167 50 60.5s55.333 20 96 20c23.333 0 43.5 -1.33301 60.5 -4l44.5 -7v-72h-87c-21.333 0 -37.666 -3.33301 -48.999 -10s-19.166 -17 -23.499 -31s-6.5 -31.333 -6.5 -52v-58h157v-82h-157v-453
h-100z" />
    <glyph glyph-name="g" unicode="g" horiz-adv-x="578" 
d="M203 -246c-34 0 -64.1699 4.83008 -90.5029 14.4971s-47.166 24.334 -62.499 44.001s-23 43.834 -23 72.501v22c0 30 8.5 55.167 25.5 75.5s38.5 35.833 64.5 46.5s53 16 81 16l27 -37c-18 0 -34.833 -2.83301 -50.5 -8.5s-28.334 -14.667 -38.001 -27
s-14.5 -28.166 -14.5 -47.499v-19c0 -28 9.5 -48.333 28.5 -61s45.167 -19 78.5 -19h117c35.333 0 63.333 6.83301 84 20.5s31 34.834 31 63.501v19c0 16 -3.5 30 -10.5 42s-18.167 21.167 -33.5 27.5s-36.333 9.5 -63 9.5h-148c-47.333 0 -83.333 9.66699 -108 29
s-37 43.666 -37 72.999c0 26.667 7.83301 48.167 23.5 64.5s37.834 27.5 66.501 33.5c-24 10.667 -42.833 24.334 -56.5 41.001s-23.167 34.834 -28.5 54.501s-8 39.5 -8 59.5c0 40.667 8.33301 73.667 25 99s40.834 44 72.501 56s69.5 18 113.5 18h288v-57l-109 -11
c8 -6 16.667 -13.833 26 -23.5s17.333 -22.834 24 -39.501s10 -38.667 10 -66c0 -28.667 -6.16699 -55.334 -18.5 -80.001s-32.333 -44.667 -60 -60s-65.167 -23 -112.5 -23h-88c-25.333 0 -45.333 -3.66699 -60 -11s-22 -20.333 -22 -39c0 -15.333 5.66699 -26 17 -32
s23.333 -9 36 -9h169c40.667 0 74.834 -5.33301 102.501 -16s48.5 -27 62.5 -49s21 -50.667 21 -86v-19c0 -50.667 -16.5 -90.167 -49.5 -118.5s-82.833 -42.5 -149.5 -42.5h-153zM246.997 252.997l59 -0.00195312c30 0 52.833 4.5 68.5 13.5s26.5 20.833 32.5 35.5
s9 31 9 49c0 26.667 -4.33301 47.834 -13 63.501s-20.5 27 -35.5 34s-33.167 10.5 -54.5 10.5h-56c-34 0 -60.5 -7.66699 -79.5 -23s-28.5 -41.666 -28.5 -78.999c0 -36.667 8.66699 -63.167 26 -79.5s41.333 -24.5 72 -24.5z" />
    <glyph glyph-name="h" unicode="h" 
d="M70 0l0.00292969 762.998h100v-286c23.333 17.333 51.666 32.833 84.999 46.5s67.666 20.5 102.999 20.5c38.667 0 70.167 -8 94.5 -24s42.166 -37.833 53.499 -65.5s17 -58.834 17 -93.501v-361h-100v349c0 20.667 -4.16699 38.834 -12.5 54.501s-20 27.834 -35 36.501
s-32.833 13 -53.5 13c-20 0 -38.5 -2 -55.5 -6s-33.167 -9.66699 -48.5 -17s-31.333 -15.666 -48 -24.999v-405h-100z" />
    <glyph glyph-name="i" unicode="i" horiz-adv-x="240" 
d="M84 625c-12 0 -18 5.66602 -18 16.999v84c0 12 6 18 18 18h74c5.33301 0 9.33301 -1.66699 12 -5s4 -7.66602 4 -12.999v-84c0 -11.333 -5.33301 -17 -16 -17h-74zM70 -0.000976562v535h100v-535h-100z" />
    <glyph glyph-name="j" unicode="j" horiz-adv-x="240" 
d="M83 625c-11.333 0 -17 5.66602 -17 16.999v84c0 12 5.66699 18 17 18h75c5.33301 0 9.33301 -1.66699 12 -5s4 -7.66602 4 -12.999v-84c0 -11.333 -5.33301 -17 -16 -17h-75zM70 -237.001v772h100v-522c0 -46 -2.33301 -91.5 -7 -136.5s-10.667 -82.833 -18 -113.5h-75z
" />
    <glyph glyph-name="k" unicode="k" horiz-adv-x="521" 
d="M70 0v763h100v-433h73l149 205h104l-179 -250l192 -285h-105l-164 240h-70v-240h-100z" />
    <glyph glyph-name="l" unicode="l" horiz-adv-x="300" 
d="M219 -1c-32.667 0 -60.167 5.66699 -82.5 17s-39 29.5 -50 54.5s-16.5 58.833 -16.5 101.5v591h100v-578c0 -28 2.83301 -49.5 8.5 -64.5s13.667 -25.5 24 -31.5s22.5 -10 36.5 -12l50 -6v-72h-70z" />
    <glyph glyph-name="m" unicode="m" horiz-adv-x="943" 
d="M70 0l0.000976562 534.998h80l20 -58c26 18 54.667 33.667 86 47s67.333 20 108 20c33.333 0 61.666 -7.33301 84.999 -22s41 -33.334 53 -56.001c16 12 35.333 24 58 36s47 22 73 30s51 12 75 12c40 0 72.5 -8.16699 97.5 -24.5s43 -38.666 54 -66.999
s16.5 -60.5 16.5 -96.5v-356h-100v348c0 21.333 -4.16699 39.833 -12.5 55.5s-20 27.834 -35 36.501s-33.167 13 -54.5 13c-26.667 0 -54 -5.16699 -82 -15.5s-53.667 -22.833 -77 -37.5c2.66699 -8.66699 4.66699 -17.5 6 -26.5s2 -17.833 2 -26.5v-347h-100v348
c0 21.333 -4.16699 39.833 -12.5 55.5s-19.833 27.834 -34.5 36.501s-32.667 13 -54 13c-20 0 -38.5 -2 -55.5 -6s-33.167 -9.5 -48.5 -16.5s-31.333 -15.5 -48 -25.5v-405h-100z" />
    <glyph glyph-name="n" unicode="n" 
d="M70 0v534.999h80l20 -58c24 17.333 52.5 32.833 85.5 46.5s67.167 20.5 102.5 20.5c40 0 72.167 -8.5 96.5 -25.5s41.833 -39.5 52.5 -67.5s16 -58.333 16 -91v-360h-100v348c0 21.333 -4.16699 39.833 -12.5 55.5s-19.833 27.834 -34.5 36.501s-32.667 13 -54 13
c-20 0 -38.5 -2 -55.5 -6s-33.167 -9.5 -48.5 -16.5s-31.333 -15.5 -48 -25.5v-405h-100z" />
    <glyph glyph-name="o" unicode="o" horiz-adv-x="576" 
d="M288 -6c-40.667 0 -75.832 4.33496 -105.499 13.002s-54.167 23.167 -73.5 43.5s-33.666 48.166 -42.999 83.499s-14 80 -14 134c0 56 4.66699 101.833 14 137.5s23.666 63.5 42.999 83.5s44 33.833 74 41.5s65 11.5 105 11.5s75 -4 105 -12s54.667 -22 74 -42
s33.666 -47.833 42.999 -83.5s14 -81.167 14 -136.5c0 -54.667 -4.66699 -99.834 -14 -135.501s-23.5 -63.5 -42.5 -83.5s-43.5 -34.167 -73.5 -42.5s-65.333 -12.5 -106 -12.5zM288.002 76.002c22 0 41.5 2 58.5 6s31.167 12.5 42.5 25.5s20 32.5 26 58.5s9 60.333 9 103
s-3 76.834 -9 102.501s-14.667 44.834 -26 57.501s-25.5 21.167 -42.5 25.5s-36.5 6.5 -58.5 6.5c-22.667 0 -42.5 -2.16699 -59.5 -6.5s-31 -12.833 -42 -25.5s-19.333 -31.834 -25 -57.501s-8.5 -59.834 -8.5 -102.501s2.83301 -77 8.5 -103s14 -45.5 25 -58.5
s25 -21.5 42 -25.5s36.833 -6 59.5 -6z" />
    <glyph glyph-name="p" unicode="p" horiz-adv-x="580" 
d="M70 -237v772.002h82l18 -54c12.667 9.33301 27.834 18.666 45.501 27.999s37 17.166 58 23.499s42.167 9.5 63.5 9.5c34 0 63.167 -7 87.5 -21s44.166 -33.5 59.499 -58.5s26.5 -54.167 33.5 -87.5s10.5 -69 10.5 -107c0 -59.333 -6.5 -109.5 -19.5 -150.5
s-33.333 -72 -61 -93s-64.5 -31.5 -110.5 -31.5c-28 0 -56.667 4.16699 -86 12.5s-56.333 19.5 -81 33.5v-276h-100zM307 77.002c22.667 0 42.999 5.66797 60.999 17.001s32.5 30.833 43.5 58.5s16.5 66.167 16.5 115.5c0 46.667 -5.66699 84.167 -17 112.5
s-26 48.666 -44 60.999s-37.667 18.5 -59 18.5c-28 0 -53.5 -4.33301 -76.5 -13s-43.5 -17.667 -61.5 -27v-305c20.667 -11.333 42.834 -20.5 66.501 -27.5s47.167 -10.5 70.5 -10.5z" />
    <glyph glyph-name="q" unicode="q" horiz-adv-x="577" 
d="M410 -237l-0.00292969 290c-23.333 -16.667 -49.833 -30.667 -79.5 -42s-58.5 -17 -86.5 -17c-47.333 0 -85.166 10 -113.499 30s-48.5 50.333 -60.5 91s-18 91.667 -18 153c0 64 7.16699 116.167 21.5 156.5s36.333 70 66 89s67.5 28.5 113.5 28.5
c32 0 63.833 -0.833008 95.5 -2.5s61.334 -3.66699 89.001 -6s51.834 -4.83301 72.501 -7.5v-763h-100zM269.997 76c24 0 48.001 3.66895 72.001 11.002s46.667 17 68 29v349h-130c-32 0 -57.333 -7.83301 -76 -23.5s-31.834 -37.834 -39.501 -66.501
s-11.5 -63.334 -11.5 -104.001c0 -48 4 -86.333 12 -115s20.5 -49.167 37.5 -61.5s39.5 -18.5 67.5 -18.5z" />
    <glyph glyph-name="r" unicode="r" horiz-adv-x="416" 
d="M70 0v535h77l23 -90c22.667 27.333 48 50.333 76 69s60.667 28 98 28c8.66699 0 17 -0.5 25 -1.5s15.667 -2.5 23 -4.5v-103c-9.33301 1.33301 -19 2.5 -29 3.5s-20.333 1.5 -31 1.5c-22.667 0 -43 -2.66699 -61 -8s-35.167 -13.5 -51.5 -24.5s-32.833 -24.5 -49.5 -40.5
v-365h-100z" />
    <glyph glyph-name="s" unicode="s" horiz-adv-x="501" 
d="M257 -6c-14 0 -30.667 0.333008 -50 1s-39.166 1.83398 -59.499 3.50098s-39 3.5 -56 5.5s-30.5 4.33301 -40.5 7v60h225c19.333 0 36 1.5 50 4.5s24.833 9.5 32.5 19.5s11.5 24.667 11.5 44v22c0 20 -6.66699 35.667 -20 47s-35.333 17 -66 17h-78
c-31.333 0 -59.166 4.16699 -83.499 12.5s-43.333 22.5 -57 42.5s-20.5 47 -20.5 81v29c0 34 6.5 62 19.5 84s33.833 38.5 62.5 49.5s66.667 16.5 114 16.5c20 0 42.167 -0.833008 66.5 -2.5s48.166 -3.83398 71.499 -6.50098s42 -5.66699 56 -9v-60h-212
c-29.333 0 -51.833 -5 -67.5 -15s-23.5 -29 -23.5 -57v-20c0 -17.333 3.66699 -30.666 11 -39.999s17.833 -15.333 31.5 -18s29.834 -4 48.501 -4h80c50.667 0 89 -11.833 115 -35.5s39 -56.834 39 -99.501v-41c0 -36 -8.33301 -64 -25 -84s-39.834 -34 -69.501 -42
s-64.834 -12 -105.501 -12z" />
    <glyph glyph-name="t" unicode="t" horiz-adv-x="374" 
d="M255 0c-36 0 -65.833 5.83496 -89.5 17.502s-41 30.5 -52 56.5s-16.167 60.667 -15.5 104l4 275h-85v65l87 17l15 150h79v-150h145v-82h-145v-274c0 -20.667 2 -37.334 6 -50.001s9.66699 -22.334 17 -29.001s15.333 -11.5 24 -14.5s17 -4.83301 25 -5.5l66 -6v-74h-81z
" />
    <glyph glyph-name="u" unicode="u" 
d="M227 -6c-50 0 -88.8301 13.501 -116.497 40.501s-41.5 68.167 -41.5 123.5v377h100v-350c0 -40 9.16699 -67 27.5 -81s44.166 -21 77.499 -21c26.667 0 52.167 4.16699 76.5 12.5s48.166 19.833 71.499 34.5v405h100v-535h-80l-20 57
c-26 -16.667 -55.833 -31.334 -89.5 -44.001s-68.834 -19 -105.501 -19z" />
    <glyph glyph-name="v" unicode="v" horiz-adv-x="545" 
d="M211 0l-194 535h103l151 -442l154 442h103l-201 -535h-116z" />
    <glyph glyph-name="w" unicode="w" horiz-adv-x="806" 
d="M173 0l-156 535h103l117 -442l126 442h85l126 -442l112 442h103l-154 -535h-111l-120 397l-122 -397h-109z" />
    <glyph glyph-name="x" unicode="x" horiz-adv-x="518" 
d="M398 0l-380 535h102l380 -535h-102zM18 0l203 297l37 -92l-138 -205h-102zM296 236l-43 82l145 216l102 1z" />
    <glyph glyph-name="y" unicode="y" horiz-adv-x="550" 
d="M221 -237l64.998 237.001c-21.333 0.666992 -41.666 5.16699 -60.999 13.5s-36.5 22 -51.5 41s-27.167 44.5 -36.5 76.5l-120 404h105l108 -383c6 -18 12.833 -31.667 20.5 -41s15.334 -15.833 23.001 -19.5s14.5 -5.83398 20.5 -6.50098s9.66699 -1 11 -1l125 451h103
l-184 -673l-48 -99h-80z" />
    <glyph glyph-name="z" unicode="z" horiz-adv-x="498" 
d="M49 0v74l291 379h-299v82h416v-75l-292 -379h292v-81h-408z" />
    <glyph glyph-name="braceleft" unicode="{" horiz-adv-x="312" 
d="M292 -210c-40 0 -72.8369 4.33203 -98.5039 12.999s-45.667 20.667 -60 36s-24.333 33.5 -30 54.5s-8.5 43.833 -8.5 68.5v260c0 14 -3.5 26 -10.5 36s-16.167 17.5 -27.5 22.5s-23.666 6.83301 -36.999 5.5v95c11.333 1.33301 22.833 3.83301 34.5 7.5
s21.5 9.83398 29.5 18.501s12 21.334 12 38.001v211c0 35.333 6.16699 67.166 18.5 95.499s32.833 50.5 61.5 66.5s67.334 24 116.001 24v-81c-22 0 -40.167 -4.33301 -54.5 -13s-24.666 -23 -30.999 -43s-9.5 -48.333 -9.5 -85v-191c0 -30 -8.66699 -52.5 -26 -67.5
s-39 -24.167 -65 -27.5c26 -4.66699 47.5 -15 64.5 -31s25.5 -36.333 25.5 -61v-248c0 -46.667 7.33301 -79.5 22 -98.5s39.334 -28.5 74.001 -28.5v-77z" />
    <glyph glyph-name="bar" unicode="|" horiz-adv-x="252" 
d="M85 -72v842h82v-842h-82z" />
    <glyph glyph-name="braceright" unicode="}" horiz-adv-x="312" 
d="M20 -210l0.000976562 77.001c35.333 0 60.166 9.5 74.499 28.5s21.5 51.833 21.5 98.5v248c0 24.667 8.5 45 25.5 61s38.833 26.333 65.5 31c-26.667 3.33301 -48.667 12.5 -66 27.5s-26 37.5 -26 67.5v191c0 36.667 -3.16699 65 -9.5 85s-16.666 34.333 -30.999 43
s-32.5 13 -54.5 13v81c49.333 0 88.166 -8 116.499 -24s48.666 -38.167 60.999 -66.5s18.5 -60.166 18.5 -95.499v-211c0 -16.667 4 -29.334 12 -38.001s18 -14.834 30 -18.501s23.333 -6.16699 34 -7.5v-95c-13.333 1.33301 -25.666 -0.5 -36.999 -5.5
s-20.5 -12.5 -27.5 -22.5s-10.5 -22 -10.5 -36v-260c0 -24.667 -2.83301 -47.5 -8.5 -68.5s-15.667 -39.167 -30 -54.5s-34.333 -27.333 -60 -36s-58.5 -13 -98.5 -13z" />
    <glyph glyph-name="asciitilde" unicode="~" horiz-adv-x="442" 
d="M284 536c-11.333 0 -22.835 3 -34.502 9s-23 12.5 -34 19.5s-21.5 13.333 -31.5 19s-18.667 8.5 -26 8.5c-17.333 0 -33 -4 -47 -12s-29.667 -18.333 -47 -31l-14 35c15.333 16.667 32.333 31.667 51 45s39.667 20 63 20c10.667 0 21.5 -2.83301 32.5 -8.5
s21.833 -12.167 32.5 -19.5s20.834 -13.833 30.501 -19.5s18.167 -8.5 25.5 -8.5c17.333 0 34.333 5.33301 51 16s30.334 21 41.001 31l15 -37c-13.333 -16.667 -29 -32 -47 -46s-38.333 -21 -61 -21z" />
    <glyph glyph-name="uni00A0" unicode="&#xa0;" horiz-adv-x="266" 
 />
    <glyph glyph-name="exclamdown" unicode="&#xa1;" horiz-adv-x="268" 
d="M173 334l13 -535h-101l15 535h73zM165 536c12 0 17.999 -5.66699 17.999 -17v-87c0 -12 -6 -18 -18 -18h-57c-12 0 -18 6 -18 18v87c0 6 1.83301 10.333 5.5 13s7.83398 4 12.501 4h57z" />
    <glyph glyph-name="cent" unicode="&#xa2;" horiz-adv-x="487" 
d="M234 -88l-0.000976562 83.0029c-27.333 0 -52.666 3.83301 -75.999 11.5s-43.833 21.334 -61.5 41.001s-31.5 47.167 -41.5 82.5s-15 80.666 -15 135.999c0 56 4.83301 101.667 14.5 137s23.167 62.666 40.5 81.999s38 32.666 62 39.999s50.333 11 79 11v89h58v-90
c22.667 -2 46.834 -5.5 72.501 -10.5s50.167 -11.5 73.5 -19.5v-59c-15.333 3.33301 -37.333 6.33301 -66 9s-63.334 4 -104.001 4c-21.333 0 -40.166 -2.33301 -56.499 -7s-30 -13.834 -41 -27.501s-19.167 -33.5 -24.5 -59.5s-8 -60 -8 -102
c0 -40 2.83301 -72.5 8.5 -97.5s14 -44.333 25 -58s24.833 -23 41.5 -28s36 -7.5 58 -7.5c28 0 52.667 0.833008 74 2.5s40.166 3.66699 56.499 6s30.833 4.83301 43.5 7.5v-60c-28 -11.333 -53.833 -19.333 -77.5 -24s-49.167 -7.66699 -76.5 -9v-83h-59z" />
    <glyph glyph-name="sterling" unicode="&#xa3;" horiz-adv-x="609" 
d="M62 0l0.000976562 76.001l104 14v238l-104 8v51l104 14v110c0 58.667 8.33301 104.5 25 137.5s41.5 56.5 74.5 70.5s73.5 21 121.5 21c29.333 0 57.666 -1.16699 84.999 -3.5s49.666 -4.83301 66.999 -7.5v-79h-148c-28 0 -51.167 -3.33301 -69.5 -10
s-32.166 -19.334 -41.499 -38.001s-14 -45.667 -14 -81v-120l205 -9v-56l-205 -8v-238h283v-90h-487z" />
    <glyph glyph-name="currency" unicode="&#xa4;" horiz-adv-x="609" 
d="M304 187c-30.667 0 -58.667 7.66699 -84 23s-45.666 35.833 -60.999 61.5s-23 53.834 -23 84.501c0 31.333 7.66699 59.666 23 84.999s35.666 45.666 60.999 60.999s53.333 23 84 23c31.333 0 59.666 -7.66699 84.999 -23s45.666 -35.666 60.999 -60.999
s23 -53.666 23 -84.999c0 -30.667 -7.66699 -58.834 -23 -84.501s-35.666 -46.167 -60.999 -61.5s-53.666 -23 -84.999 -23zM118 125l-45 45l108 108l45 -45zM177 438l-104 104l45 45l104 -104zM490 125l-106 106l45 45l106 -106zM304 243c20.667 0 39.5 5.16699 56.5 15.5
s30.667 24.166 41 41.499s15.5 36 15.5 56c0 20.667 -5.16699 39.5 -15.5 56.5s-24 30.667 -41 41s-35.833 15.5 -56.5 15.5c-20 0 -38.5 -5.16699 -55.5 -15.5s-30.5 -24 -40.5 -41s-15 -35.833 -15 -56.5c0 -20 5 -38.667 15 -56s23.5 -31.166 40.5 -41.499
s35.5 -15.5 55.5 -15.5zM429 436l-45 45l106 106l45 -45z" />
    <glyph glyph-name="yen" unicode="&#xa5;" horiz-adv-x="609" 
d="M79 260v56h451v-56h-451zM79 130v56h451v-56h-451zM244 0v238l-231 499h105l178 -397l177 397h102l-231 -499v-238h-100z" />
    <glyph glyph-name="brokenbar" unicode="&#xa6;" horiz-adv-x="252" 
d="M85 429v341h82v-341h-82zM85 -72v328h82v-328h-82z" />
    <glyph glyph-name="section" unicode="&#xa7;" horiz-adv-x="547" 
d="M316 -6c-15.333 0 -32.998 0.161133 -52.998 0.494141s-40.833 1 -62.5 2s-42.167 2.16699 -61.5 3.5s-35 3 -47 5v70h205c26.667 0 46.834 2.66699 60.501 8s23 12.5 28 21.5s7.5 19.5 7.5 31.5v45c0 12.667 -1.66699 22.5 -5 29.5s-10.166 12 -20.499 15
s-25.833 4.5 -46.5 4.5h-118c-34 0 -62.333 3.33301 -85 10s-39.667 18 -51 34s-17 37.667 -17 65v49c0 30.667 5.66699 52.834 17 66.501s28.666 23.834 51.999 30.501c-23.333 8 -39.166 21.833 -47.499 41.5s-12.5 40.834 -12.5 63.501v60c0 30 6.33301 54.833 19 74.5
s31.334 34.5 56.001 44.5s55.667 15 93 15c14 0 31.5 -0.166992 52.5 -0.5s42.833 -1 65.5 -2s44 -2.33301 64 -4s35.667 -3.5 47 -5.5v-69h-215c-18.667 0 -34.334 -1.83301 -47.001 -5.5s-22.334 -10.334 -29.001 -20.001s-10 -23.5 -10 -41.5v-41
c0 -19.333 5.66699 -32.666 17 -39.999s29.333 -11 54 -11h117c39.333 0 70.166 -3.83301 92.499 -11.5s38.5 -19.667 48.5 -36s15 -38.166 15 -65.499v-48c0 -26 -5 -46.667 -15 -62s-27 -26 -51 -32c15.333 -4 27.166 -10.833 35.499 -20.5s14.166 -21.167 17.499 -34.5
s5 -27.333 5 -42v-59c0 -35.333 -7 -63.166 -21 -83.499s-34.167 -34.666 -60.5 -42.999s-57.5 -12.5 -93.5 -12.5zM225.002 306.994l96 -0.00195312c23.333 0 40.833 1.16699 52.5 3.5s19.5 7.33301 23.5 15s6 20.167 6 37.5v47c0 14.667 -2.33301 26 -7 34
s-13 13.667 -25 17s-28.667 5 -50 5h-96c-30 0 -50.667 -4 -62 -12s-17 -23.333 -17 -46v-46c0 -11.333 2.33301 -21.166 7 -29.499s12.667 -14.666 24 -18.999s27.333 -6.5 48 -6.5z" />
    <glyph glyph-name="dieresis" unicode="&#xa8;" horiz-adv-x="409" 
d="M279 648c-11.333 0 -17 5.66602 -17 16.999v84c0 12 5.66699 18 17 18h47c5.33301 0 9.5 -1.66699 12.5 -5s4.5 -7.66602 4.5 -12.999v-84c0 -11.333 -5.66699 -17 -17 -17h-47zM84 647.999c-12 0 -18 5.66602 -18 16.999v84c0 12 6 18 18 18h46
c6 0 10.333 -1.66699 13 -5s4 -7.66602 4 -12.999v-84c0 -11.333 -5.66699 -17 -17 -17h-46z" />
    <glyph glyph-name="copyright" unicode="&#xa9;" horiz-adv-x="832" 
d="M312 0c-38 0 -71.168 7.16406 -99.501 21.4971s-52.5 33.833 -72.5 58.5s-36.333 52.667 -49 84s-21.834 64.5 -27.501 99.5s-8.5 69.833 -8.5 104.5c0 44 3.66699 87.667 11 131s20.333 82.5 39 117.5s44.834 63 78.501 84s76.5 31.5 128.5 31.5h231
c40 0 73.667 -7.16699 101 -21.5s49.833 -34 67.5 -59s31.334 -53.167 41.001 -84.5s16.167 -64 19.5 -98s5 -67.667 5 -101c0 -55.333 -5.16699 -105.666 -15.5 -150.999s-25.333 -84.166 -45 -116.499s-44 -57.166 -73 -74.499s-62.5 -26 -100.5 -26h-231z
M384.999 146.997c-26.667 0 -51.666 5.83105 -74.999 17.498s-42.166 33.334 -56.499 65.001s-21.5 76.834 -21.5 135.501c0 54 6.5 96.833 19.5 128.5s31 54.5 54 68.5s49.5 21 79.5 21c14 0 31 -0.666992 51 -2s41 -3.5 63 -6.5s42 -6.83301 60 -11.5v-47
c-19.333 3.33301 -39 5.83301 -59 7.5s-38.333 2.83398 -55 3.50098s-30.667 1 -42 1c-24 0 -44.333 -5.16699 -61 -15.5s-29.334 -27.5 -38.001 -51.5s-13 -57 -13 -99c0 -54 8.66699 -94.167 26 -120.5s45.666 -39.5 84.999 -39.5c32 0 61.833 1.5 89.5 4.5
s52.167 6.83301 73.5 11.5v-47c-28.667 -10.667 -57.667 -17.334 -87 -20.001s-60.333 -4 -93 -4zM312 54.9951l225.999 -0.000976562c34.667 0 65.5 10.833 92.5 32.5s48.333 55.667 64 102s23.5 105.833 23.5 178.5c0 40 -2.5 78.5 -7.5 115.5s-13.833 70 -26.5 99
s-30.5 52 -53.5 69s-52.167 25.5 -87.5 25.5h-231c-25.333 0 -49.833 -4.66699 -73.5 -14s-44.667 -25.333 -63 -48s-33.166 -54 -44.499 -94s-17 -91 -17 -153c-0.666992 -39.333 3 -77.666 11 -114.999s20 -71 36 -101s36.667 -53.667 62 -71s55 -26 89 -26z" />
    <glyph glyph-name="ordfeminine" unicode="&#xaa;" horiz-adv-x="409" 
d="M31 261v50h339v-50h-339zM110 468c0 -13.333 2.83301 -23.833 8.5 -31.5s12.667 -13.167 21 -16.5s17.5 -5 27.5 -5c9.33301 0 20 1.16699 32 3.5s23.667 5.33301 35 9l28.5 9.5l11.5 4v106l-99 -5c-23.333 -0.666992 -40 -6.5 -50 -17.5s-15 -24.5 -15 -40.5v-16z
M29 487c0 30 10.334 53.333 31.001 70s51.334 25 92.001 25h122v44c0 20.667 -5.83301 36.334 -17.5 47.001s-37.167 16 -76.5 16h-121v51c18 4.66699 39.333 8.66699 64 12s54 5.33301 88 6c33.333 0 61.166 -4 83.499 -12s39.333 -21.167 51 -39.5s17.5 -43.5 17.5 -75.5
v-271h-70l-15 43c-2.66699 -2.66699 -8.83398 -6.5 -18.501 -11.5s-21.5 -10.333 -35.5 -16s-29.167 -10.334 -45.5 -14.001s-32.5 -5.5 -48.5 -5.5c-29.333 0 -53.5 8.33301 -72.5 25s-28.5 40 -28.5 70v36z" />
    <glyph glyph-name="guillemotleft" unicode="&#xab;" horiz-adv-x="614" 
d="M269 64l-219 217l215 212l52 -52l-163 -160l167 -164zM519 64l-219 217l215 212l52 -52l-163 -160l167 -164z" />
    <glyph glyph-name="logicalnot" unicode="&#xac;" horiz-adv-x="609" 
d="M445 195v272h83v-272h-83zM80 435v82h448v-82h-448z" />
    <glyph glyph-name="uni00AD" unicode="&#xad;" horiz-adv-x="345" 
d="M24 249v82h297v-82h-297z" />
    <glyph glyph-name="registered" unicode="&#xae;" horiz-adv-x="832" 
d="M312 0c-38 0 -71.168 7.16406 -99.501 21.4971s-52.5 33.833 -72.5 58.5s-36.333 52.667 -49 84s-21.834 64.5 -27.501 99.5s-8.5 69.833 -8.5 104.5c0 44 3.66699 87.667 11 131s20.333 82.5 39 117.5s44.834 63 78.501 84s76.5 31.5 128.5 31.5h231
c40 0 73.667 -7.16699 101 -21.5s49.833 -34 67.5 -59s31.334 -53.167 41.001 -84.5s16.167 -64 19.5 -98s5 -67.667 5 -101c0 -55.333 -5.16699 -105.666 -15.5 -150.999s-25.333 -84.166 -45 -116.499s-44 -57.166 -73 -74.499s-62.5 -26 -100.5 -26h-231z
M311.999 54.9971l225.999 -0.000976562c34.667 0 65.5 10.833 92.5 32.5s48.333 55.667 64 102s23.5 105.833 23.5 178.5c0 40 -2.5 78.5 -7.5 115.5s-13.833 70 -26.5 99s-30.5 52 -53.5 69s-52.167 25.5 -87.5 25.5h-231c-25.333 0 -49.833 -4.66699 -73.5 -14
s-44.667 -25.333 -63 -48s-33.166 -54 -44.499 -94s-17 -91 -17 -153c-0.666992 -39.333 3 -77.666 11 -114.999s20 -71 36 -101s36.667 -53.667 62 -71s55 -26 89 -26zM262.998 152.996l0.00195312 427h182c22 0 42.833 -3.5 62.5 -10.5s35.5 -19.833 47.5 -38.5
s18 -46 18 -82c0 -24.667 -2.83301 -44.5 -8.5 -59.5s-12.834 -26.167 -21.501 -33.5s-18.334 -13 -29.001 -17s-20.667 -7 -30 -9l98 -177h-60l-96 178l-104 3v-181h-59zM322 376.996h124c22 0 38.833 4.16699 50.5 12.5s17.5 27.833 17.5 58.5c0 30 -6 50.333 -18 61
s-28.667 16 -50 16h-124v-148z" />
    <glyph glyph-name="macron" unicode="&#xaf;" horiz-adv-x="369" 
d="M50 664v60h270v-60h-270z" />
    <glyph glyph-name="degree" unicode="&#xb0;" horiz-adv-x="326" 
d="M164 492c-38.667 0 -71 12.668 -97 38.001s-39 57.666 -39 96.999c0 27.333 6 51.166 18 71.499s28.167 36.333 48.5 48s43.5 17.5 69.5 17.5c39.333 0 71.5 -12.833 96.5 -38.5s37.5 -58.5 37.5 -98.5c0 -39.333 -12.5 -71.666 -37.5 -96.999s-57.167 -38 -96.5 -38z
M164 539.001c26 0 47 8.33301 63 25s24 37.667 24 63c0 26.667 -8 48.334 -24 65.001s-37 25 -63 25s-47.333 -8.33301 -64 -25s-25 -38.334 -25 -65.001c0 -25.333 8.5 -46.333 25.5 -63s38.167 -25 63.5 -25z" />
    <glyph glyph-name="plusminus" unicode="&#xb1;" horiz-adv-x="609" 
d="M80 115v82h448v-82h-448zM263 282v448h82v-448h-82zM80 465v82h448v-82h-448z" />
    <glyph glyph-name="uni00B2" unicode="&#xb2;" horiz-adv-x="454" 
d="M47 280l-0.00195312 65.998l186 185c26 24.667 44.833 47.834 56.5 69.501s17.5 44.5 17.5 68.5c0 14.667 -2.83301 27.5 -8.5 38.5s-15.5 19.667 -29.5 26s-33.333 9.5 -58 9.5h-148v67c22 3.33301 47 6.5 75 9.5s58.333 4.5 91 4.5c42 0 75.333 -5.83301 100 -17.5
s42.167 -28.167 52.5 -49.5s15.5 -46.666 15.5 -75.999c0 -24.667 -3.16699 -47 -9.5 -67s-16.666 -39.833 -30.999 -59.5s-33.166 -41.167 -56.499 -64.5l-135 -132h250v-78h-368z" />
    <glyph glyph-name="uni00B3" unicode="&#xb3;" horiz-adv-x="454" 
d="M238 276c-38.667 0 -74.5039 1.16992 -107.504 3.50293s-63.167 5.5 -90.5 9.5v67h170c20.667 0 38.334 2 53.001 6s26 10.833 34 20.5s12 23.167 12 40.5v27c0 15.333 -4 27.666 -12 36.999s-18.167 16 -30.5 20s-25.833 6.33301 -40.5 7l-133 5v65l130 7
c24 1.33301 43.167 6.16602 57.5 14.499s21.5 22.166 21.5 41.499v29c0 22 -7.66699 38.667 -23 50s-39.666 17 -72.999 17h-151v68c26 4 54 7.33301 84 10s63.333 3.66699 100 3c48.667 0 85.834 -11.333 111.501 -34s38.5 -54.667 38.5 -96v-43
c0 -20.667 -3.66699 -37.667 -11 -51s-16.5 -23.833 -27.5 -31.5s-22.5 -13.167 -34.5 -16.5c12.667 -3.33301 25.334 -9.5 38.001 -18.5s23.167 -21 31.5 -36s12.5 -33.167 12.5 -54.5v-33c0 -43.333 -14.167 -76.5 -42.5 -99.5s-67.5 -34.5 -117.5 -34.5z" />
    <glyph glyph-name="acute" unicode="&#xb4;" horiz-adv-x="220" 
d="M20 631l97 138h84l-122 -138h-59z" />
    <glyph glyph-name="uni00B5" unicode="&#xb5;" 
d="M260 -6c-26 0 -50.501 4.33496 -73.501 13.002s-43.333 21.334 -61 38.001s-31.5 36.667 -41.5 60s-15 49.666 -15 78.999v351h100v-350c0 -26.667 4.5 -47.334 13.5 -62.001s21.333 -25 37 -31s33.834 -9 54.501 -9c29.333 0 55.5 4.16699 78.5 12.5
s46.167 19.833 69.5 34.5v405h100v-535h-80l-16 57c-20.667 -18.667 -45 -33.834 -73 -45.501s-59 -17.5 -93 -17.5zM68.999 -268.998v504h100v-504h-100z" />
    <glyph glyph-name="paragraph" unicode="&#xb6;" horiz-adv-x="573" 
d="M266 -270l0.000976562 591.999c-4.66699 -3.33301 -13.5 -6.33301 -26.5 -9s-29.833 -4 -50.5 -4c-34.667 0 -63.667 6.83301 -87 20.5s-40.5 31.834 -51.5 54.501s-16.5 47.667 -16.5 75v138c0 32 7.5 58.333 22.5 79s34.667 36 59 46s51.166 15 80.499 15h367v-71h-72
v-666h-69v668h-87v-938h-69zM200.001 377.999l66 -0.000976562v290h-66c-34 0 -58.667 -7.66699 -74 -23s-23 -36.666 -23 -63.999v-112c0 -20.667 3.66699 -37.167 11 -49.5s16.333 -21.5 27 -27.5s21.5 -9.83301 32.5 -11.5s19.833 -2.5 26.5 -2.5z" />
    <glyph glyph-name="periodcentered" unicode="&#xb7;" horiz-adv-x="261" 
d="M102 319c-11.333 0 -17.001 5.66699 -17.001 17v60c0 12 5.66699 18 17 18h57c12 0 18 -6 18 -18v-60c0 -6 -1.66699 -10.333 -5 -13s-7.66602 -4 -12.999 -4h-57z" />
    <glyph glyph-name="cedilla" unicode="&#xb8;" horiz-adv-x="254" 
d="M50 -192v40.998l21 3c16.667 1.33301 29.334 5.33301 38.001 12s13 16.334 13 29.001c0 10.667 -3.83301 19.834 -11.5 27.501s-23.834 12.5 -48.501 14.5l42 12c26.667 0 47.167 -5.33301 61.5 -16s21.5 -27 21.5 -49c0 -23.333 -8.5 -41.5 -25.5 -54.5
s-41.5 -19.5 -73.5 -19.5h-38zM62 -65.002l52 80h46l-51 -80h-47z" />
    <glyph glyph-name="uni00B9" unicode="&#xb9;" horiz-adv-x="454" 
d="M191 280v461l-119 -24v63l128 45h80v-545h-89zM64 280v77h343v-77h-343z" />
    <glyph glyph-name="ordmasculine" unicode="&#xba;" horiz-adv-x="430" 
d="M44 261v50h342v-50h-342zM124 557c0 -40 3.33301 -69.667 10 -89s16.834 -32 30.501 -38s30.5 -9 50.5 -9c19.333 0 35.833 3 49.5 9s24 18.667 31 38s10.5 49 10.5 89c0 40.667 -3.5 70.5 -10.5 89.5s-17.333 31.333 -31 37s-30.167 8.5 -49.5 8.5
c-20 0 -36.833 -2.83301 -50.5 -8.5s-23.834 -18 -30.501 -37s-10 -48.833 -10 -89.5zM36 556c0 54.667 6.16602 96.502 18.499 125.502s31.833 48.833 58.5 59.5s60.667 16 102 16s75.166 -5.5 101.499 -16.5s45.833 -31 58.5 -60s19 -70.5 19 -124.5
c0 -52.667 -6.16699 -93.334 -18.5 -122.001s-31.666 -48.834 -57.999 -60.501s-60.5 -17.5 -102.5 -17.5s-76.167 6 -102.5 18s-45.666 32.5 -57.999 61.5s-18.5 69.167 -18.5 120.5z" />
    <glyph glyph-name="guillemotright" unicode="&#xbb;" horiz-adv-x="614" 
d="M98 64l-50 53l163 161l-166 163l54 52l217 -215zM348 64l-50 53l163 161l-166 163l54 52l217 -215z" />
    <glyph glyph-name="onequarter" unicode="&#xbc;" horiz-adv-x="1275" 
d="M414 0l374 770h72l-374 -770h-72zM1083 1v124h-246l-13 57l184 358h88l-174 -342h161v108l21 72h63v-180h65v-59l-65 -14v-124h-84zM196 280v461l-119 -24v63l128 45h80v-545h-89zM69 280v77h343v-77h-343z" />
    <glyph glyph-name="onehalf" unicode="&#xbd;" horiz-adv-x="1275" 
d="M414 0l374 770h72l-374 -770h-72zM842 0l-0.00195312 65.998l186 185c26 24.667 44.833 47.834 56.5 69.501s17.5 44.5 17.5 68.5c0 14.667 -2.83301 27.5 -8.5 38.5s-15.5 19.667 -29.5 26s-33.333 9.5 -58 9.5h-148v67c22 3.33301 47 6.5 75 9.5s58.333 4.5 91 4.5
c42 0 75.333 -5.83301 100 -17.5s42.167 -28.167 52.5 -49.5s15.5 -46.666 15.5 -75.999c0 -24.667 -3.16699 -47 -9.5 -67s-16.666 -39.833 -30.999 -59.5s-33.166 -41.167 -56.499 -64.5l-135 -132h250v-78h-368zM195.998 279.998v461l-119 -24v63l128 45h80v-545h-89z
M68.998 279.998v77h343v-77h-343z" />
    <glyph glyph-name="threequarters" unicode="&#xbe;" horiz-adv-x="1275" 
d="M414 0l374 770h72l-374 -770h-72zM1083 1v124h-246l-13 57l184 358h88l-174 -342h161v108l21 72h63v-180h65v-59l-65 -14v-124h-84zM248 276c-38.667 0 -74.5039 1.16992 -107.504 3.50293s-63.167 5.5 -90.5 9.5v67h170c20.667 0 38.334 2 53.001 6s26 10.833 34 20.5
s12 23.167 12 40.5v27c0 15.333 -4 27.666 -12 36.999s-18.167 16 -30.5 20s-25.833 6.33301 -40.5 7l-133 5v65l130 7c24 1.33301 43.167 6.16602 57.5 14.499s21.5 22.166 21.5 41.499v29c0 22 -7.66699 38.667 -23 50s-39.666 17 -72.999 17h-151v68
c26 4 54 7.33301 84 10s63.333 3.66699 100 3c48.667 0 85.834 -11.333 111.501 -34s38.5 -54.667 38.5 -96v-43c0 -20.667 -3.66699 -37.667 -11 -51s-16.5 -23.833 -27.5 -31.5s-22.5 -13.167 -34.5 -16.5c12.667 -3.33301 25.334 -9.5 38.001 -18.5s23.167 -21 31.5 -36
s12.5 -33.167 12.5 -54.5v-33c0 -43.333 -14.167 -76.5 -42.5 -99.5s-67.5 -34.5 -117.5 -34.5z" />
    <glyph glyph-name="questiondown" unicode="&#xbf;" horiz-adv-x="530" 
d="M367 335l-0.000976562 -170h-56c-48 0 -83.167 -7.33301 -105.5 -22s-33.5 -42 -33.5 -82v-51c0 -45.333 10.5 -77.333 31.5 -96s53.5 -28 97.5 -28c32.667 0 63.5 3.16699 92.5 9.5s59.833 15.5 92.5 27.5v-72c-29.333 -18 -61.666 -31.5 -96.999 -40.5
s-73.666 -13.833 -114.999 -14.5c-48 -0.666992 -86.833 7.33301 -116.5 24s-51.334 40 -65.001 70s-20.5 65.333 -20.5 106v67c0 60 17.167 105 51.5 135s89.833 45 166.5 45v92h77zM356.999 536c12 0 18 -5.66699 18 -17v-87c0 -12 -6 -18 -18 -18h-57
c-11.333 0 -17 6 -17 18v87c0 6 1.66699 10.333 5 13s7.33301 4 12 4h57z" />
    <glyph glyph-name="Agrave" unicode="&#xc0;" horiz-adv-x="678" 
d="M29 0l246 737h128l246 -737h-105l-65 193h-282l-64 -193h-104zM221 284h233l-116 365zM318 791l-122 138h83l98 -138h-59z" />
    <glyph glyph-name="Aacute" unicode="&#xc1;" horiz-adv-x="678" 
d="M29 0l246 737h128l246 -737h-105l-65 193h-282l-64 -193h-104zM221 284h233l-116 365zM313 791l97 138h84l-122 -138h-59z" />
    <glyph glyph-name="Acircumflex" unicode="&#xc2;" horiz-adv-x="678" 
d="M29 0l246 737h128l246 -737h-105l-65 193h-282l-64 -193h-104zM221 284h233l-116 365zM188 791l118 137h70l107 -137h-60l-84 91l-91 -91h-60z" />
    <glyph glyph-name="Atilde" unicode="&#xc3;" horiz-adv-x="678" 
d="M29 0l246 737h128l246 -737h-105l-65 193h-282l-64 -193h-104zM221 284h233l-116 365zM161 801c1.33301 28.667 6.66504 51.166 15.998 67.499s21.333 28.166 36 35.499s30 11 46 11c16.667 0 31.667 -2.83301 45 -8.5s26 -12.167 38 -19.5s23.5 -13.833 34.5 -19.5
s22.833 -8.5 35.5 -8.5c16 0 29.167 5 39.5 15s15.5 25 15.5 45h51c-1.33301 -38 -10.5 -67 -27.5 -87s-40.833 -30 -71.5 -30c-15.333 0 -29.666 2.83301 -42.999 8.5s-26.166 12.334 -38.499 20.001s-24.333 14.334 -36 20.001s-23.5 8.5 -35.5 8.5
c-14.667 0 -27.167 -4.83301 -37.5 -14.5s-15.833 -24.167 -16.5 -43.5h-51z" />
    <glyph glyph-name="Adieresis" unicode="&#xc4;" horiz-adv-x="678" 
d="M29 0l246 737h128l246 -737h-105l-65 193h-282l-64 -193h-104zM221 284h233l-116 365zM422 808c-12 0 -18 5.66602 -18 16.999v84c0 12 6 18 18 18h46c6 0 10.333 -1.66699 13 -5s4 -7.66602 4 -12.999v-84c0 -11.333 -5.66699 -17 -17 -17h-46zM193 807.999
c-11.333 0 -17 5.66602 -17 16.999v84c0 12 5.66699 18 17 18h47c5.33301 0 9.5 -1.66699 12.5 -5s4.5 -7.66602 4.5 -12.999v-84c0 -11.333 -5.66699 -17 -17 -17h-47z" />
    <glyph glyph-name="Aring" unicode="&#xc5;" horiz-adv-x="678" 
d="M29 0l246 737h128l246 -737h-105l-65 193h-282l-64 -193h-104zM221 284h233l-116 365zM338 765c-36.667 0 -65 7.83301 -85 23.5s-30 44.167 -30 85.5c0 40.667 10 69.167 30 85.5s48.333 24.5 85 24.5c38 0 66.5 -8 85.5 -24s28.5 -44.667 28.5 -86
s-9.5 -69.833 -28.5 -85.5s-47.5 -23.5 -85.5 -23.5zM339 805c22.667 0 39.167 4.83301 49.5 14.5s15.5 27.834 15.5 54.501s-5.16699 45 -15.5 55s-26.833 15 -49.5 15s-39.667 -5 -51 -15s-17 -28.333 -17 -55s5.66699 -44.834 17 -54.501s28.333 -14.5 51 -14.5z" />
    <glyph glyph-name="AE" unicode="&#xc6;" horiz-adv-x="969" 
d="M640 -4c-50 -0.666992 -88.833 7.66895 -116.5 25.002s-43.167 49 -46.5 95v76h-231l-118 -192h-99l339 585c20 36 41.5 65.333 64.5 88s50 39.167 81 49.5s67.167 15.166 108.5 14.499c54 -0.666992 106.333 -2 157 -4s96 -4.33301 136 -7v-82h-278
c-26 0 -44 -5.16699 -54 -15.5s-15 -26.166 -15 -47.499v-169l303 -6v-78l-303 -7v-151c0 -20.667 3.83301 -36.834 11.5 -48.501s18.167 -19.834 31.5 -24.501s29 -7 47 -7h257v-82c-42 -2.66699 -85.667 -5.16699 -131 -7.5s-93.333 -3.83301 -144 -4.5zM291 278.003h186
v320z" />
    <glyph glyph-name="Ccedilla" unicode="&#xc7;" horiz-adv-x="582" 
d="M317 -6c-44 0 -82.3311 4.99707 -114.998 14.9971s-60 28.167 -82 54.5s-38.333 64.333 -49 114s-16 114.167 -16 193.5c0 74.667 5.5 136.334 16.5 185.001s27.667 86.667 50 114s50.166 46.333 83.499 57s72 16 116 16c24.667 0 50.167 -1.33301 76.5 -4
s51.666 -6.16699 75.999 -10.5s46.166 -9.16602 65.499 -14.499v-76c-12 2 -28.333 4.16699 -49 6.5s-44 4.33301 -70 6s-53 2.5 -81 2.5c-33.333 0 -61.666 -3.83301 -84.999 -11.5s-42.333 -21.667 -57 -42s-25.334 -49 -32.001 -86s-10 -84.833 -10 -143.5
c0 -59.333 3.16699 -107.833 9.5 -145.5s16.5 -66.667 30.5 -87s32.667 -34.333 56 -42s52.333 -11.5 87 -11.5c50 0 91 1.33301 123 4s58 5.33398 78 8.00098v-77c-20 -4.66699 -42 -9 -66 -13s-49.167 -7 -75.5 -9s-53.166 -3 -80.499 -3zM264.002 -192.003v40.998l21 3
c16.667 1.33301 29.334 5.33301 38.001 12s13 16.334 13 29.001c0 10.667 -3.83301 19.834 -11.5 27.501s-23.834 12.5 -48.501 14.5l42 12c26.667 0 47.167 -5.33301 61.5 -16s21.5 -27 21.5 -49c0 -23.333 -8.5 -41.5 -25.5 -54.5s-41.5 -19.5 -73.5 -19.5h-38z
M276.002 -65.0049l52 80h46l-51 -80h-47z" />
    <glyph glyph-name="Egrave" unicode="&#xc8;" 
d="M237 -4c-16.667 0 -34.3311 1.5 -52.998 4.5s-36.5 9.33301 -53.5 19s-30.833 24.5 -41.5 44.5s-16 47 -16 81v438c0 29.333 4.5 54 13.5 74s20.833 35.833 35.5 47.5s31.167 20 49.5 25s36.5 7.5 54.5 7.5c43.333 -0.666992 83.166 -1.5 119.499 -2.5
s70.166 -2.16699 101.499 -3.5l90 -4v-83h-284c-24.667 0 -44 -6.33301 -58 -19s-21 -32.667 -21 -60v-153l318 -6v-78l-318 -7v-151c0 -22.667 3.83301 -39.667 11.5 -51s17.667 -19 30 -23s25.5 -6 39.5 -6h282v-83c-30.667 -2 -63 -3.83301 -97 -5.5
s-68.167 -3 -102.5 -4s-67.833 -1.5 -100.5 -1.5zM292.003 791l-122 138h83l98 -138h-59z" />
    <glyph glyph-name="Eacute" unicode="&#xc9;" 
d="M237 -4c-16.667 0 -34.3311 1.5 -52.998 4.5s-36.5 9.33301 -53.5 19s-30.833 24.5 -41.5 44.5s-16 47 -16 81v438c0 29.333 4.5 54 13.5 74s20.833 35.833 35.5 47.5s31.167 20 49.5 25s36.5 7.5 54.5 7.5c43.333 -0.666992 83.166 -1.5 119.499 -2.5
s70.166 -2.16699 101.499 -3.5l90 -4v-83h-284c-24.667 0 -44 -6.33301 -58 -19s-21 -32.667 -21 -60v-153l318 -6v-78l-318 -7v-151c0 -22.667 3.83301 -39.667 11.5 -51s17.667 -19 30 -23s25.5 -6 39.5 -6h282v-83c-30.667 -2 -63 -3.83301 -97 -5.5
s-68.167 -3 -102.5 -4s-67.833 -1.5 -100.5 -1.5zM287.003 791l97 138h84l-122 -138h-59z" />
    <glyph glyph-name="Ecircumflex" unicode="&#xca;" 
d="M237 -4c-16.667 0 -34.3311 1.5 -52.998 4.5s-36.5 9.33301 -53.5 19s-30.833 24.5 -41.5 44.5s-16 47 -16 81v438c0 29.333 4.5 54 13.5 74s20.833 35.833 35.5 47.5s31.167 20 49.5 25s36.5 7.5 54.5 7.5c43.333 -0.666992 83.166 -1.5 119.499 -2.5
s70.166 -2.16699 101.499 -3.5l90 -4v-83h-284c-24.667 0 -44 -6.33301 -58 -19s-21 -32.667 -21 -60v-153l318 -6v-78l-318 -7v-151c0 -22.667 3.83301 -39.667 11.5 -51s17.667 -19 30 -23s25.5 -6 39.5 -6h282v-83c-30.667 -2 -63 -3.83301 -97 -5.5
s-68.167 -3 -102.5 -4s-67.833 -1.5 -100.5 -1.5zM162.003 791l118 137h70l107 -137h-60l-84 91l-91 -91h-60z" />
    <glyph glyph-name="Edieresis" unicode="&#xcb;" 
d="M237 -4c-16.667 0 -34.3311 1.5 -52.998 4.5s-36.5 9.33301 -53.5 19s-30.833 24.5 -41.5 44.5s-16 47 -16 81v438c0 29.333 4.5 54 13.5 74s20.833 35.833 35.5 47.5s31.167 20 49.5 25s36.5 7.5 54.5 7.5c43.333 -0.666992 83.166 -1.5 119.499 -2.5
s70.166 -2.16699 101.499 -3.5l90 -4v-83h-284c-24.667 0 -44 -6.33301 -58 -19s-21 -32.667 -21 -60v-153l318 -6v-78l-318 -7v-151c0 -22.667 3.83301 -39.667 11.5 -51s17.667 -19 30 -23s25.5 -6 39.5 -6h282v-83c-30.667 -2 -63 -3.83301 -97 -5.5
s-68.167 -3 -102.5 -4s-67.833 -1.5 -100.5 -1.5zM396.003 808c-12 0 -18 5.66602 -18 16.999v84c0 12 6 18 18 18h46c6 0 10.333 -1.66699 13 -5s4 -7.66602 4 -12.999v-84c0 -11.333 -5.66699 -17 -17 -17h-46zM167.003 807.999c-11.333 0 -17 5.66602 -17 16.999v84
c0 12 5.66699 18 17 18h47c5.33301 0 9.5 -1.66699 12.5 -5s4.5 -7.66602 4.5 -12.999v-84c0 -11.333 -5.66699 -17 -17 -17h-47z" />
    <glyph glyph-name="Igrave" unicode="&#xcc;" horiz-adv-x="247" 
d="M73 0v737h101v-737h-101zM103 791l-122 138h83l98 -138h-59z" />
    <glyph glyph-name="Iacute" unicode="&#xcd;" horiz-adv-x="247" 
d="M73 0v737h101v-737h-101zM98 791l97 138h84l-122 -138h-59z" />
    <glyph glyph-name="Icircumflex" unicode="&#xce;" horiz-adv-x="247" 
d="M73 0v737h101v-737h-101zM-27 791l118 137h70l107 -137h-60l-84 91l-91 -91h-60z" />
    <glyph glyph-name="Idieresis" unicode="&#xcf;" horiz-adv-x="247" 
d="M73 0v737h101v-737h-101zM207 808c-12 0 -18 5.66602 -18 16.999v84c0 12 6 18 18 18h46c6 0 10.333 -1.66699 13 -5s4 -7.66602 4 -12.999v-84c0 -11.333 -5.66699 -17 -17 -17h-46zM-22 807.999c-11.333 0 -17 5.66602 -17 16.999v84c0 12 5.66699 18 17 18h47
c5.33301 0 9.5 -1.66699 12.5 -5s4.5 -7.66602 4.5 -12.999v-84c0 -11.333 -5.66699 -17 -17 -17h-47z" />
    <glyph glyph-name="Eth" unicode="&#xd0;" horiz-adv-x="673" 
d="M14 338v68h313v-68h-313zM73 0l0.00195312 737.004h298c46 0 84.667 -8.33301 116 -25s56.666 -40.834 75.999 -72.501s33.333 -70.334 42 -116.001s13 -97.5 13 -155.5c0 -78.667 -9.16699 -145.334 -27.5 -200.001s-45.833 -96.334 -82.5 -125.001
s-82.334 -43 -137.001 -43h-298zM174.002 90.0039l188 -0.00195312c36.667 0 66.334 11.167 89.001 33.5s39.334 54.333 50.001 96s16 91.167 16 148.5c0 52.667 -3 96.834 -9 132.501s-15.333 64.334 -28 86.001s-28.834 37.167 -48.501 46.5s-42.834 14 -69.501 14h-188
v-557z" />
    <glyph glyph-name="Ntilde" unicode="&#xd1;" horiz-adv-x="689" 
d="M84 0v737h82l361 -565v565h100v-737h-81l-361 565v-565h-101zM164 801c1.33301 28.667 6.66504 51.166 15.998 67.499s21.333 28.166 36 35.499s30 11 46 11c16.667 0 31.667 -2.83301 45 -8.5s26 -12.167 38 -19.5s23.5 -13.833 34.5 -19.5s22.833 -8.5 35.5 -8.5
c16 0 29.167 5 39.5 15s15.5 25 15.5 45h51c-1.33301 -38 -10.5 -67 -27.5 -87s-40.833 -30 -71.5 -30c-15.333 0 -29.666 2.83301 -42.999 8.5s-26.166 12.334 -38.499 20.001s-24.333 14.334 -36 20.001s-23.5 8.5 -35.5 8.5c-14.667 0 -27.167 -4.83301 -37.5 -14.5
s-15.833 -24.167 -16.5 -43.5h-51z" />
    <glyph glyph-name="Ograve" unicode="&#xd2;" horiz-adv-x="690" 
d="M345 -6c-48 0 -90.168 4.66699 -126.501 14s-66.666 26.666 -90.999 51.999s-42.5 62.666 -54.5 111.999s-18 114 -18 194s6 144.833 18 194.5s30.333 87.667 55 114s55 44.333 91 54s78 14.5 126 14.5c49.333 0 92.166 -4.83301 128.499 -14.5s66.5 -27.667 90.5 -54
s42 -64.333 54 -114s18 -114.5 18 -194.5s-6 -144.667 -18 -194s-30.167 -86.666 -54.5 -111.999s-54.666 -42.666 -90.999 -51.999s-78.833 -14 -127.5 -14zM344.999 84c34.667 0 64.168 3.66699 88.501 11s44 20.833 59 40.5s25.833 48 32.5 85s10 85.5 10 145.5
c0 63.333 -3.5 114 -10.5 152s-17.833 66.667 -32.5 86s-34.167 32.333 -58.5 39s-53.833 10 -88.5 10c-32.667 0 -61 -3.33301 -85 -10s-43.667 -19.667 -59 -39s-26.833 -48 -34.5 -86s-11.5 -88.667 -11.5 -152c0 -60 3.16699 -108.5 9.5 -145.5s17 -65.333 32 -85
s34.667 -33.167 59 -40.5s54.166 -11 89.499 -11zM325 791l-122 138h83l98 -138h-59z" />
    <glyph glyph-name="Oacute" unicode="&#xd3;" horiz-adv-x="690" 
d="M345 -6c-48 0 -90.168 4.66699 -126.501 14s-66.666 26.666 -90.999 51.999s-42.5 62.666 -54.5 111.999s-18 114 -18 194s6 144.833 18 194.5s30.333 87.667 55 114s55 44.333 91 54s78 14.5 126 14.5c49.333 0 92.166 -4.83301 128.499 -14.5s66.5 -27.667 90.5 -54
s42 -64.333 54 -114s18 -114.5 18 -194.5s-6 -144.667 -18 -194s-30.167 -86.666 -54.5 -111.999s-54.666 -42.666 -90.999 -51.999s-78.833 -14 -127.5 -14zM344.999 84c34.667 0 64.168 3.66699 88.501 11s44 20.833 59 40.5s25.833 48 32.5 85s10 85.5 10 145.5
c0 63.333 -3.5 114 -10.5 152s-17.833 66.667 -32.5 86s-34.167 32.333 -58.5 39s-53.833 10 -88.5 10c-32.667 0 -61 -3.33301 -85 -10s-43.667 -19.667 -59 -39s-26.833 -48 -34.5 -86s-11.5 -88.667 -11.5 -152c0 -60 3.16699 -108.5 9.5 -145.5s17 -65.333 32 -85
s34.667 -33.167 59 -40.5s54.166 -11 89.499 -11zM320 791l97 138h84l-122 -138h-59z" />
    <glyph glyph-name="Ocircumflex" unicode="&#xd4;" horiz-adv-x="690" 
d="M345 -6c-48 0 -90.168 4.66699 -126.501 14s-66.666 26.666 -90.999 51.999s-42.5 62.666 -54.5 111.999s-18 114 -18 194s6 144.833 18 194.5s30.333 87.667 55 114s55 44.333 91 54s78 14.5 126 14.5c49.333 0 92.166 -4.83301 128.499 -14.5s66.5 -27.667 90.5 -54
s42 -64.333 54 -114s18 -114.5 18 -194.5s-6 -144.667 -18 -194s-30.167 -86.666 -54.5 -111.999s-54.666 -42.666 -90.999 -51.999s-78.833 -14 -127.5 -14zM344.999 84c34.667 0 64.168 3.66699 88.501 11s44 20.833 59 40.5s25.833 48 32.5 85s10 85.5 10 145.5
c0 63.333 -3.5 114 -10.5 152s-17.833 66.667 -32.5 86s-34.167 32.333 -58.5 39s-53.833 10 -88.5 10c-32.667 0 -61 -3.33301 -85 -10s-43.667 -19.667 -59 -39s-26.833 -48 -34.5 -86s-11.5 -88.667 -11.5 -152c0 -60 3.16699 -108.5 9.5 -145.5s17 -65.333 32 -85
s34.667 -33.167 59 -40.5s54.166 -11 89.499 -11zM195 791l118 137h70l107 -137h-60l-84 91l-91 -91h-60z" />
    <glyph glyph-name="Otilde" unicode="&#xd5;" horiz-adv-x="690" 
d="M345 -6c-48 0 -90.168 4.66699 -126.501 14s-66.666 26.666 -90.999 51.999s-42.5 62.666 -54.5 111.999s-18 114 -18 194s6 144.833 18 194.5s30.333 87.667 55 114s55 44.333 91 54s78 14.5 126 14.5c49.333 0 92.166 -4.83301 128.499 -14.5s66.5 -27.667 90.5 -54
s42 -64.333 54 -114s18 -114.5 18 -194.5s-6 -144.667 -18 -194s-30.167 -86.666 -54.5 -111.999s-54.666 -42.666 -90.999 -51.999s-78.833 -14 -127.5 -14zM344.999 84c34.667 0 64.168 3.66699 88.501 11s44 20.833 59 40.5s25.833 48 32.5 85s10 85.5 10 145.5
c0 63.333 -3.5 114 -10.5 152s-17.833 66.667 -32.5 86s-34.167 32.333 -58.5 39s-53.833 10 -88.5 10c-32.667 0 -61 -3.33301 -85 -10s-43.667 -19.667 -59 -39s-26.833 -48 -34.5 -86s-11.5 -88.667 -11.5 -152c0 -60 3.16699 -108.5 9.5 -145.5s17 -65.333 32 -85
s34.667 -33.167 59 -40.5s54.166 -11 89.499 -11zM169 801c1.33301 28.667 6.66504 51.166 15.998 67.499s21.333 28.166 36 35.499s30 11 46 11c16.667 0 31.667 -2.83301 45 -8.5s26 -12.167 38 -19.5s23.5 -13.833 34.5 -19.5s22.833 -8.5 35.5 -8.5
c16 0 29.167 5 39.5 15s15.5 25 15.5 45h51c-1.33301 -38 -10.5 -67 -27.5 -87s-40.833 -30 -71.5 -30c-15.333 0 -29.666 2.83301 -42.999 8.5s-26.166 12.334 -38.499 20.001s-24.333 14.334 -36 20.001s-23.5 8.5 -35.5 8.5c-14.667 0 -27.167 -4.83301 -37.5 -14.5
s-15.833 -24.167 -16.5 -43.5h-51z" />
    <glyph glyph-name="Odieresis" unicode="&#xd6;" horiz-adv-x="690" 
d="M345 -6c-48 0 -90.168 4.66699 -126.501 14s-66.666 26.666 -90.999 51.999s-42.5 62.666 -54.5 111.999s-18 114 -18 194s6 144.833 18 194.5s30.333 87.667 55 114s55 44.333 91 54s78 14.5 126 14.5c49.333 0 92.166 -4.83301 128.499 -14.5s66.5 -27.667 90.5 -54
s42 -64.333 54 -114s18 -114.5 18 -194.5s-6 -144.667 -18 -194s-30.167 -86.666 -54.5 -111.999s-54.666 -42.666 -90.999 -51.999s-78.833 -14 -127.5 -14zM344.999 84c34.667 0 64.168 3.66699 88.501 11s44 20.833 59 40.5s25.833 48 32.5 85s10 85.5 10 145.5
c0 63.333 -3.5 114 -10.5 152s-17.833 66.667 -32.5 86s-34.167 32.333 -58.5 39s-53.833 10 -88.5 10c-32.667 0 -61 -3.33301 -85 -10s-43.667 -19.667 -59 -39s-26.833 -48 -34.5 -86s-11.5 -88.667 -11.5 -152c0 -60 3.16699 -108.5 9.5 -145.5s17 -65.333 32 -85
s34.667 -33.167 59 -40.5s54.166 -11 89.499 -11zM429 808c-12 0 -18 5.66602 -18 16.999v84c0 12 6 18 18 18h46c6 0 10.333 -1.66699 13 -5s4 -7.66602 4 -12.999v-84c0 -11.333 -5.66699 -17 -17 -17h-46zM200 807.999c-11.333 0 -17 5.66602 -17 16.999v84
c0 12 5.66699 18 17 18h47c5.33301 0 9.5 -1.66699 12.5 -5s4.5 -7.66602 4.5 -12.999v-84c0 -11.333 -5.66699 -17 -17 -17h-47z" />
    <glyph glyph-name="multiply" unicode="&#xd7;" horiz-adv-x="609" 
d="M433 168l59 59l-317 317l-59 -59zM175 168l-59 59l317 317l59 -59z" />
    <glyph glyph-name="Oslash" unicode="&#xd8;" horiz-adv-x="690" 
d="M67 0l487 737h70l-487 -737h-70zM345 -6c-48 0 -90.168 4.66699 -126.501 14s-66.666 26.666 -90.999 51.999s-42.5 62.666 -54.5 111.999s-18 114 -18 194s6 144.833 18 194.5s30.333 87.667 55 114s55 44.333 91 54s78 14.5 126 14.5
c49.333 0 92.166 -4.83301 128.499 -14.5s66.5 -27.667 90.5 -54s42 -64.333 54 -114s18 -114.5 18 -194.5s-6 -144.667 -18 -194s-30.167 -86.666 -54.5 -111.999s-54.666 -42.666 -90.999 -51.999s-78.833 -14 -127.5 -14zM344.999 84c34.667 0 64.168 3.66699 88.501 11
s44 20.833 59 40.5s25.833 48 32.5 85s10 85.5 10 145.5c0 63.333 -3.5 114 -10.5 152s-17.833 66.667 -32.5 86s-34.167 32.333 -58.5 39s-53.833 10 -88.5 10c-32.667 0 -61 -3.33301 -85 -10s-43.667 -19.667 -59 -39s-26.833 -48 -34.5 -86s-11.5 -88.667 -11.5 -152
c0 -60 3.16699 -108.5 9.5 -145.5s17 -65.333 32 -85s34.667 -33.167 59 -40.5s54.166 -11 89.499 -11z" />
    <glyph glyph-name="Ugrave" unicode="&#xd9;" horiz-adv-x="679" 
d="M339 -6c-40.667 0 -78 3.66699 -112 11s-63.333 19.833 -88 37.5s-43.5 41.834 -56.5 72.501s-19.5 69.334 -19.5 116.001v506h101v-505c0 -38 6.83301 -67.5 20.5 -88.5s33.667 -36 60 -45s57.833 -13.5 94.5 -13.5c37.333 0 69.166 4.5 95.499 13.5s46.333 24 60 45
s20.5 50.5 20.5 88.5v505h101v-506c0 -46.667 -6.66699 -85.334 -20 -116.001s-32.166 -54.834 -56.499 -72.501s-53.5 -30.167 -87.5 -37.5s-71.667 -11 -113 -11zM314 791l-122 138h83l98 -138h-59z" />
    <glyph glyph-name="Uacute" unicode="&#xda;" horiz-adv-x="679" 
d="M339 -6c-40.667 0 -78 3.66699 -112 11s-63.333 19.833 -88 37.5s-43.5 41.834 -56.5 72.501s-19.5 69.334 -19.5 116.001v506h101v-505c0 -38 6.83301 -67.5 20.5 -88.5s33.667 -36 60 -45s57.833 -13.5 94.5 -13.5c37.333 0 69.166 4.5 95.499 13.5s46.333 24 60 45
s20.5 50.5 20.5 88.5v505h101v-506c0 -46.667 -6.66699 -85.334 -20 -116.001s-32.166 -54.834 -56.499 -72.501s-53.5 -30.167 -87.5 -37.5s-71.667 -11 -113 -11zM309 791l97 138h84l-122 -138h-59z" />
    <glyph glyph-name="Ucircumflex" unicode="&#xdb;" horiz-adv-x="679" 
d="M339 -6c-40.667 0 -78 3.66699 -112 11s-63.333 19.833 -88 37.5s-43.5 41.834 -56.5 72.501s-19.5 69.334 -19.5 116.001v506h101v-505c0 -38 6.83301 -67.5 20.5 -88.5s33.667 -36 60 -45s57.833 -13.5 94.5 -13.5c37.333 0 69.166 4.5 95.499 13.5s46.333 24 60 45
s20.5 50.5 20.5 88.5v505h101v-506c0 -46.667 -6.66699 -85.334 -20 -116.001s-32.166 -54.834 -56.499 -72.501s-53.5 -30.167 -87.5 -37.5s-71.667 -11 -113 -11zM184 791l118 137h70l107 -137h-60l-84 91l-91 -91h-60z" />
    <glyph glyph-name="Udieresis" unicode="&#xdc;" horiz-adv-x="679" 
d="M339 -6c-40.667 0 -78 3.66699 -112 11s-63.333 19.833 -88 37.5s-43.5 41.834 -56.5 72.501s-19.5 69.334 -19.5 116.001v506h101v-505c0 -38 6.83301 -67.5 20.5 -88.5s33.667 -36 60 -45s57.833 -13.5 94.5 -13.5c37.333 0 69.166 4.5 95.499 13.5s46.333 24 60 45
s20.5 50.5 20.5 88.5v505h101v-506c0 -46.667 -6.66699 -85.334 -20 -116.001s-32.166 -54.834 -56.499 -72.501s-53.5 -30.167 -87.5 -37.5s-71.667 -11 -113 -11zM418 808c-12 0 -18 5.66602 -18 16.999v84c0 12 6 18 18 18h46c6 0 10.333 -1.66699 13 -5
s4 -7.66602 4 -12.999v-84c0 -11.333 -5.66699 -17 -17 -17h-46zM189 807.999c-11.333 0 -17 5.66602 -17 16.999v84c0 12 5.66699 18 17 18h47c5.33301 0 9.5 -1.66699 12.5 -5s4.5 -7.66602 4.5 -12.999v-84c0 -11.333 -5.66699 -17 -17 -17h-47z" />
    <glyph glyph-name="Yacute" unicode="&#xdd;" horiz-adv-x="621" 
d="M260 0v238l-230 499h105l177 -397l178 397h101l-230 -499v-238h-101zM287 791l97 138h84l-122 -138h-59z" />
    <glyph glyph-name="Thorn" unicode="&#xde;" horiz-adv-x="568" 
d="M73 0l-0.000976562 737.001h101v-130h157c22 0 44.667 -2.83301 68 -8.5s44.833 -16.167 64.5 -31.5s35.5 -37.833 47.5 -67.5s18 -69.167 18 -118.5s-6.16699 -89.333 -18.5 -120s-28.5 -54 -48.5 -70s-41.667 -27 -65 -33s-45.666 -9 -66.999 -9
c-8.66699 0 -20.167 0.5 -34.5 1.5s-29.5 2.16699 -45.5 3.5s-30.833 2.66602 -44.5 3.99902l-31.5 3v-161h-101zM173.999 240.001h142c21.333 0 40.5 4.16699 57.5 12.5s30.333 22.833 40 43.5s14.5 48.667 14.5 84c0 36 -4.83301 63.667 -14.5 83s-22.5 33 -38.5 41
s-33.667 12 -53 12h-148v-276z" />
    <glyph glyph-name="germandbls" unicode="&#xdf;" 
d="M396 -7c-32 0 -62.3301 1.50293 -90.9971 4.50293s-51.334 6.5 -68.001 10.5v67l61 -2.5c24 -1 48.667 -1.5 74 -1.5c27.333 0 48.333 4 63 12s24.667 17.667 30 29s8 21.666 8 30.999v20c0 13.333 -4.5 24.166 -13.5 32.499s-20.333 15.5 -34 21.5
s-28.5 12.167 -44.5 18.5s-31 13.666 -45 21.999s-25.5 19.166 -34.5 32.499s-13.5 30.333 -13.5 51c0 22 4.66699 41.333 14 58s20.833 32.334 34.5 47.001l40.5 43.5c13.333 14.333 24.666 29.333 33.999 45s14 32.834 14 51.501c0 34 -11 58.833 -33 74.5
s-53.667 23.5 -95 23.5c-45.333 0 -79.5 -12.5 -102.5 -37.5s-34.5 -62.167 -34.5 -111.5v-535h-100v544c0 42 8.33301 79.667 25 113s42.5 60 77.5 80s79.833 30 134.5 30c54 0 97.333 -7.83301 130 -23.5s56.334 -36.667 71.001 -63s22 -55.833 22 -88.5
c0 -24.667 -4.5 -46.167 -13.5 -64.5s-20.167 -34.833 -33.5 -49.5s-26.833 -28.334 -40.5 -41.001s-25.167 -25.334 -34.5 -38.001s-14 -26.334 -14 -41.001c0 -13.333 4.5 -24.333 13.5 -33s20.5 -16 34.5 -22l45 -18.5c16 -6.33301 30.833 -14.166 44.5 -23.499
s25 -21.166 34 -35.499s13.5 -32.833 13.5 -55.5v-29c0 -26.667 -5 -49.5 -15 -68.5s-23.333 -34.333 -40 -46s-35.334 -20.167 -56.001 -25.5s-41.334 -8 -62.001 -8z" />
    <glyph glyph-name="agrave" unicode="&#xe0;" horiz-adv-x="546" 
d="M177 -6c-39.333 0 -71.8301 11.835 -97.4971 35.502s-38.5 56.5 -38.5 98.5v42c0 41.333 14.167 75.166 42.5 101.499s71.166 39.5 128.499 39.5h167v56c0 20.667 -3.5 38.167 -10.5 52.5s-19.833 25.166 -38.5 32.499s-46.334 11 -83.001 11h-164v59
c24 5.33301 52.167 10 84.5 14s70.166 6.33301 113.499 7c44 0 80.833 -5.5 110.5 -16.5s51.834 -29 66.501 -54s22 -58.167 22 -99.5v-373h-79l-17 59c-4 -2.66699 -12.333 -7.5 -25 -14.5s-28.834 -14.5 -48.501 -22.5s-41 -14.667 -64 -20s-46.167 -8 -69.5 -8z
M223.003 67.002c10 -0.666992 21.8301 0.333008 35.4971 3s27.334 5.83398 41.001 9.50098s26.334 7.5 38.001 11.5s21.334 7.5 29.001 10.5s11.834 4.83301 12.501 5.5v154l-140 -6c-34.667 -2 -59.5 -10.667 -74.5 -26s-22.5 -35.333 -22.5 -60v-24
c0 -19.333 4 -34.833 12 -46.5s18.167 -19.834 30.5 -24.501s25.166 -7 38.499 -7zM261 631.002l-122 138h83l98 -138h-59z" />
    <glyph glyph-name="aacute" unicode="&#xe1;" horiz-adv-x="546" 
d="M177 -6c-39.333 0 -71.8301 11.835 -97.4971 35.502s-38.5 56.5 -38.5 98.5v42c0 41.333 14.167 75.166 42.5 101.499s71.166 39.5 128.499 39.5h167v56c0 20.667 -3.5 38.167 -10.5 52.5s-19.833 25.166 -38.5 32.499s-46.334 11 -83.001 11h-164v59
c24 5.33301 52.167 10 84.5 14s70.166 6.33301 113.499 7c44 0 80.833 -5.5 110.5 -16.5s51.834 -29 66.501 -54s22 -58.167 22 -99.5v-373h-79l-17 59c-4 -2.66699 -12.333 -7.5 -25 -14.5s-28.834 -14.5 -48.501 -22.5s-41 -14.667 -64 -20s-46.167 -8 -69.5 -8z
M223.003 67.002c10 -0.666992 21.8301 0.333008 35.4971 3s27.334 5.83398 41.001 9.50098s26.334 7.5 38.001 11.5s21.334 7.5 29.001 10.5s11.834 4.83301 12.501 5.5v154l-140 -6c-34.667 -2 -59.5 -10.667 -74.5 -26s-22.5 -35.333 -22.5 -60v-24
c0 -19.333 4 -34.833 12 -46.5s18.167 -19.834 30.5 -24.501s25.166 -7 38.499 -7zM234 631.002l97 138h84l-122 -138h-59z" />
    <glyph glyph-name="acircumflex" unicode="&#xe2;" horiz-adv-x="546" 
d="M177 -6c-39.333 0 -71.8301 11.835 -97.4971 35.502s-38.5 56.5 -38.5 98.5v42c0 41.333 14.167 75.166 42.5 101.499s71.166 39.5 128.499 39.5h167v56c0 20.667 -3.5 38.167 -10.5 52.5s-19.833 25.166 -38.5 32.499s-46.334 11 -83.001 11h-164v59
c24 5.33301 52.167 10 84.5 14s70.166 6.33301 113.499 7c44 0 80.833 -5.5 110.5 -16.5s51.834 -29 66.501 -54s22 -58.167 22 -99.5v-373h-79l-17 59c-4 -2.66699 -12.333 -7.5 -25 -14.5s-28.834 -14.5 -48.501 -22.5s-41 -14.667 -64 -20s-46.167 -8 -69.5 -8z
M223.003 67.002c10 -0.666992 21.8301 0.333008 35.4971 3s27.334 5.83398 41.001 9.50098s26.334 7.5 38.001 11.5s21.334 7.5 29.001 10.5s11.834 4.83301 12.501 5.5v154l-140 -6c-34.667 -2 -59.5 -10.667 -74.5 -26s-22.5 -35.333 -22.5 -60v-24
c0 -19.333 4 -34.833 12 -46.5s18.167 -19.834 30.5 -24.501s25.166 -7 38.499 -7zM120 631.002l118 137h70l107 -137h-60l-84 91l-91 -91h-60z" />
    <glyph glyph-name="atilde" unicode="&#xe3;" horiz-adv-x="546" 
d="M177 -6c-39.333 0 -71.8301 11.835 -97.4971 35.502s-38.5 56.5 -38.5 98.5v42c0 41.333 14.167 75.166 42.5 101.499s71.166 39.5 128.499 39.5h167v56c0 20.667 -3.5 38.167 -10.5 52.5s-19.833 25.166 -38.5 32.499s-46.334 11 -83.001 11h-164v59
c24 5.33301 52.167 10 84.5 14s70.166 6.33301 113.499 7c44 0 80.833 -5.5 110.5 -16.5s51.834 -29 66.501 -54s22 -58.167 22 -99.5v-373h-79l-17 59c-4 -2.66699 -12.333 -7.5 -25 -14.5s-28.834 -14.5 -48.501 -22.5s-41 -14.667 -64 -20s-46.167 -8 -69.5 -8z
M223.003 67.002c10 -0.666992 21.8301 0.333008 35.4971 3s27.334 5.83398 41.001 9.50098s26.334 7.5 38.001 11.5s21.334 7.5 29.001 10.5s11.834 4.83301 12.501 5.5v154l-140 -6c-34.667 -2 -59.5 -10.667 -74.5 -26s-22.5 -35.333 -22.5 -60v-24
c0 -19.333 4 -34.833 12 -46.5s18.167 -19.834 30.5 -24.501s25.166 -7 38.499 -7zM101 641.002c1.33301 28.667 6.66504 51.166 15.998 67.499s21.333 28.166 36 35.499s30 11 46 11c16.667 0 31.667 -2.83301 45 -8.5s26 -12.167 38 -19.5s23.5 -13.833 34.5 -19.5
s22.833 -8.5 35.5 -8.5c16 0 29.167 5 39.5 15s15.5 25 15.5 45h51c-1.33301 -38 -10.5 -67 -27.5 -87s-40.833 -30 -71.5 -30c-15.333 0 -29.666 2.83301 -42.999 8.5s-26.166 12.334 -38.499 20.001s-24.333 14.334 -36 20.001s-23.5 8.5 -35.5 8.5
c-14.667 0 -27.167 -4.83301 -37.5 -14.5s-15.833 -24.167 -16.5 -43.5h-51z" />
    <glyph glyph-name="adieresis" unicode="&#xe4;" horiz-adv-x="546" 
d="M177 -6c-39.333 0 -71.8301 11.835 -97.4971 35.502s-38.5 56.5 -38.5 98.5v42c0 41.333 14.167 75.166 42.5 101.499s71.166 39.5 128.499 39.5h167v56c0 20.667 -3.5 38.167 -10.5 52.5s-19.833 25.166 -38.5 32.499s-46.334 11 -83.001 11h-164v59
c24 5.33301 52.167 10 84.5 14s70.166 6.33301 113.499 7c44 0 80.833 -5.5 110.5 -16.5s51.834 -29 66.501 -54s22 -58.167 22 -99.5v-373h-79l-17 59c-4 -2.66699 -12.333 -7.5 -25 -14.5s-28.834 -14.5 -48.501 -22.5s-41 -14.667 -64 -20s-46.167 -8 -69.5 -8z
M223.003 67.002c10 -0.666992 21.8301 0.333008 35.4971 3s27.334 5.83398 41.001 9.50098s26.334 7.5 38.001 11.5s21.334 7.5 29.001 10.5s11.834 4.83301 12.501 5.5v154l-140 -6c-34.667 -2 -59.5 -10.667 -74.5 -26s-22.5 -35.333 -22.5 -60v-24
c0 -19.333 4 -34.833 12 -46.5s18.167 -19.834 30.5 -24.501s25.166 -7 38.499 -7zM342 648.002c-11.333 0 -17 5.66602 -17 16.999v84c0 12 5.66699 18 17 18h47c5.33301 0 9.5 -1.66699 12.5 -5s4.5 -7.66602 4.5 -12.999v-84c0 -11.333 -5.66699 -17 -17 -17h-47z
M147 648.001c-12 0 -18 5.66602 -18 16.999v84c0 12 6 18 18 18h46c6 0 10.333 -1.66699 13 -5s4 -7.66602 4 -12.999v-84c0 -11.333 -5.66699 -17 -17 -17h-46z" />
    <glyph glyph-name="aring" unicode="&#xe5;" horiz-adv-x="546" 
d="M177 -6c-39.333 0 -71.8301 11.835 -97.4971 35.502s-38.5 56.5 -38.5 98.5v42c0 41.333 14.167 75.166 42.5 101.499s71.166 39.5 128.499 39.5h167v56c0 20.667 -3.5 38.167 -10.5 52.5s-19.833 25.166 -38.5 32.499s-46.334 11 -83.001 11h-164v59
c24 5.33301 52.167 10 84.5 14s70.166 6.33301 113.499 7c44 0 80.833 -5.5 110.5 -16.5s51.834 -29 66.501 -54s22 -58.167 22 -99.5v-373h-79l-17 59c-4 -2.66699 -12.333 -7.5 -25 -14.5s-28.834 -14.5 -48.501 -22.5s-41 -14.667 -64 -20s-46.167 -8 -69.5 -8z
M223.003 67.002c10 -0.666992 21.8301 0.333008 35.4971 3s27.334 5.83398 41.001 9.50098s26.334 7.5 38.001 11.5s21.334 7.5 29.001 10.5s11.834 4.83301 12.501 5.5v154l-140 -6c-34.667 -2 -59.5 -10.667 -74.5 -26s-22.5 -35.333 -22.5 -60v-24
c0 -19.333 4 -34.833 12 -46.5s18.167 -19.834 30.5 -24.501s25.166 -7 38.499 -7zM270 591.002c-36.667 0 -65 7.83301 -85 23.5s-30 44.167 -30 85.5c0 40.667 10 69.167 30 85.5s48.333 24.5 85 24.5c38 0 66.5 -8 85.5 -24s28.5 -44.667 28.5 -86
s-9.5 -69.833 -28.5 -85.5s-47.5 -23.5 -85.5 -23.5zM271 631.002c22.667 0 39.167 4.83301 49.5 14.5s15.5 27.834 15.5 54.501s-5.16699 45 -15.5 55s-26.833 15 -49.5 15s-39.667 -5 -51 -15s-17 -28.333 -17 -55s5.66699 -44.834 17 -54.501s28.333 -14.5 51 -14.5z" />
    <glyph glyph-name="ae" unicode="&#xe6;" horiz-adv-x="872" 
d="M182 -6c-32 0 -58.335 5.99609 -79.002 17.9961s-35.834 28.333 -45.501 49s-14.5 44 -14.5 70v37c0 27.333 6 51.333 18 72s30.5 36.834 55.5 48.501s56.5 17.5 94.5 17.5h170v63c0 18.667 -3.83301 35.167 -11.5 49.5s-20.334 25.333 -38.001 33
s-42.167 11.5 -73.5 11.5h-173v59c26 6.66699 52.833 11.667 80.5 15s61.834 5.33301 102.501 6c38 0 72.333 -6.83301 103 -20.5s52.334 -34.5 65.001 -62.5c14.667 29.333 36.667 50.333 66 63s65 19 107 19c47.333 0 86.166 -5.33301 116.499 -16s53 -29.167 68 -55.5
s22.5 -63.166 22.5 -110.499c0 -46.667 -14.333 -78.5 -43 -95.5s-69.334 -25.5 -122.001 -25.5h-172c0 -35.333 4 -64 12 -86s19.333 -39 34 -51s32.167 -20.167 52.5 -24.5s42.5 -6.5 66.5 -6.5h156v-60c-31.333 -6.66699 -64.666 -11.167 -99.999 -13.5
s-69 -3.5 -101 -3.5c-33.333 0 -62.166 4.83301 -86.499 14.5s-44.666 22.334 -60.999 38.001s-29.166 32.167 -38.499 49.5c-16 -17.333 -35.833 -33.666 -59.5 -48.999s-50 -28 -79 -38s-59.833 -15 -92.5 -15zM224.998 66.9961c30 0 59.6689 6.83789 89.002 20.5049
s55.333 32.167 78 55.5c-2.66699 10 -5.33398 24.667 -8.00098 44s-4.33398 41.666 -5.00098 66.999l-150 -6c-31.333 -0.666992 -53.333 -8.83398 -66 -24.501s-19 -33.834 -19 -54.501v-22c0 -20.667 3.83301 -36.834 11.5 -48.501s17.667 -19.834 30 -24.501
s25.5 -7 39.5 -7zM479 304.001l169.001 0.00195312c16 0 29.667 1.66699 41 5s20.166 9.16602 26.499 17.499s9.5 20.166 9.5 35.499c0 25.333 -4 45.5 -12 60.5s-21 25.833 -39 32.5s-42 10 -72 10c-32 0 -56.833 -4.5 -74.5 -13.5s-30 -25 -37 -48
s-10.833 -56.167 -11.5 -99.5z" />
    <glyph glyph-name="ccedilla" unicode="&#xe7;" horiz-adv-x="490" 
d="M269 -6c-31.333 0 -60.167 4.16699 -86.5 12.5s-49.333 22.5 -69 42.5s-34.834 47.667 -45.501 83s-16 80 -16 134c0 55.333 5 100.833 15 136.5s24.5 63.667 43.5 84s42.167 34.5 69.5 42.5s58 12 92 12c28 0 57.5 -1.33301 88.5 -4s61.167 -7 90.5 -13v-59h-151
c-32.667 0 -60 -5.16699 -82 -15.5s-38.333 -30 -49 -59s-16 -70.833 -16 -125.5c0 -52.667 5.66699 -93.167 17 -121.5s27.833 -47.5 49.5 -57.5s48.834 -15 81.501 -15h158v-57c-15.333 -4 -33.5 -7.5 -54.5 -10.5s-43 -5.33301 -66 -7s-46.167 -2.5 -69.5 -2.5z
M198.999 -192v40.998l21 3c16.667 1.33301 29.334 5.33301 38.001 12s13 16.334 13 29.001c0 10.667 -3.83301 19.834 -11.5 27.501s-23.834 12.5 -48.501 14.5l42 12c26.667 0 47.167 -5.33301 61.5 -16s21.5 -27 21.5 -49c0 -23.333 -8.5 -41.5 -25.5 -54.5
s-41.5 -19.5 -73.5 -19.5h-38zM210.999 -65.002l52 80h46l-51 -80h-47z" />
    <glyph glyph-name="egrave" unicode="&#xe8;" horiz-adv-x="540" 
d="M281 -6c-56.667 0 -101.829 8.33105 -135.496 24.998s-57.667 44.834 -72 84.501s-21.5 94.5 -21.5 164.5c0 71.333 7.16699 126.833 21.5 166.5s38.166 67.5 71.499 83.5s78.333 24 135 24c49.333 0 89.166 -5.16699 119.499 -15.5s52.666 -28.666 66.999 -54.999
s21.5 -62.833 21.5 -109.5c0 -32.667 -6.5 -58.667 -19.5 -78s-31.333 -33.333 -55 -42s-51.834 -13 -84.501 -13h-177c0.666992 -38.667 5.16699 -69.5 13.5 -92.5s23.333 -39.667 45 -50s53.5 -15.5 95.5 -15.5h167v-60c-28.667 -4 -58 -7.83301 -88 -11.5
s-64.667 -5.5 -104 -5.5zM151.005 291.998h168.999c26.667 0 46.334 5 59.001 15s19 28.333 19 55s-3.83301 47.667 -11.5 63s-20.167 26.333 -37.5 33s-40.333 10 -69 10c-32.667 0 -58.5 -5 -77.5 -15s-32.333 -27.667 -40 -53s-11.5 -61.333 -11.5 -108zM261.004 630.998
l-122 138h83l98 -138h-59z" />
    <glyph glyph-name="eacute" unicode="&#xe9;" horiz-adv-x="540" 
d="M281 -6c-56.667 0 -101.829 8.33105 -135.496 24.998s-57.667 44.834 -72 84.501s-21.5 94.5 -21.5 164.5c0 71.333 7.16699 126.833 21.5 166.5s38.166 67.5 71.499 83.5s78.333 24 135 24c49.333 0 89.166 -5.16699 119.499 -15.5s52.666 -28.666 66.999 -54.999
s21.5 -62.833 21.5 -109.5c0 -32.667 -6.5 -58.667 -19.5 -78s-31.333 -33.333 -55 -42s-51.834 -13 -84.501 -13h-177c0.666992 -38.667 5.16699 -69.5 13.5 -92.5s23.333 -39.667 45 -50s53.5 -15.5 95.5 -15.5h167v-60c-28.667 -4 -58 -7.83301 -88 -11.5
s-64.667 -5.5 -104 -5.5zM151.005 291.998h168.999c26.667 0 46.334 5 59.001 15s19 28.333 19 55s-3.83301 47.667 -11.5 63s-20.167 26.333 -37.5 33s-40.333 10 -69 10c-32.667 0 -58.5 -5 -77.5 -15s-32.333 -27.667 -40 -53s-11.5 -61.333 -11.5 -108zM234.004 630.998
l97 138h84l-122 -138h-59z" />
    <glyph glyph-name="ecircumflex" unicode="&#xea;" horiz-adv-x="540" 
d="M281 -6c-56.667 0 -101.829 8.33105 -135.496 24.998s-57.667 44.834 -72 84.501s-21.5 94.5 -21.5 164.5c0 71.333 7.16699 126.833 21.5 166.5s38.166 67.5 71.499 83.5s78.333 24 135 24c49.333 0 89.166 -5.16699 119.499 -15.5s52.666 -28.666 66.999 -54.999
s21.5 -62.833 21.5 -109.5c0 -32.667 -6.5 -58.667 -19.5 -78s-31.333 -33.333 -55 -42s-51.834 -13 -84.501 -13h-177c0.666992 -38.667 5.16699 -69.5 13.5 -92.5s23.333 -39.667 45 -50s53.5 -15.5 95.5 -15.5h167v-60c-28.667 -4 -58 -7.83301 -88 -11.5
s-64.667 -5.5 -104 -5.5zM151.005 291.998h168.999c26.667 0 46.334 5 59.001 15s19 28.333 19 55s-3.83301 47.667 -11.5 63s-20.167 26.333 -37.5 33s-40.333 10 -69 10c-32.667 0 -58.5 -5 -77.5 -15s-32.333 -27.667 -40 -53s-11.5 -61.333 -11.5 -108zM120.004 630.998
l118 137h70l107 -137h-60l-84 91l-91 -91h-60z" />
    <glyph glyph-name="edieresis" unicode="&#xeb;" horiz-adv-x="540" 
d="M281 -6c-56.667 0 -101.829 8.33105 -135.496 24.998s-57.667 44.834 -72 84.501s-21.5 94.5 -21.5 164.5c0 71.333 7.16699 126.833 21.5 166.5s38.166 67.5 71.499 83.5s78.333 24 135 24c49.333 0 89.166 -5.16699 119.499 -15.5s52.666 -28.666 66.999 -54.999
s21.5 -62.833 21.5 -109.5c0 -32.667 -6.5 -58.667 -19.5 -78s-31.333 -33.333 -55 -42s-51.834 -13 -84.501 -13h-177c0.666992 -38.667 5.16699 -69.5 13.5 -92.5s23.333 -39.667 45 -50s53.5 -15.5 95.5 -15.5h167v-60c-28.667 -4 -58 -7.83301 -88 -11.5
s-64.667 -5.5 -104 -5.5zM151.005 291.998h168.999c26.667 0 46.334 5 59.001 15s19 28.333 19 55s-3.83301 47.667 -11.5 63s-20.167 26.333 -37.5 33s-40.333 10 -69 10c-32.667 0 -58.5 -5 -77.5 -15s-32.333 -27.667 -40 -53s-11.5 -61.333 -11.5 -108zM342.004 647.998
c-11.333 0 -17 5.66602 -17 16.999v84c0 12 5.66699 18 17 18h47c5.33301 0 9.5 -1.66699 12.5 -5s4.5 -7.66602 4.5 -12.999v-84c0 -11.333 -5.66699 -17 -17 -17h-47zM147.004 647.997c-12 0 -18 5.66602 -18 16.999v84c0 12 6 18 18 18h46c6 0 10.333 -1.66699 13 -5
s4 -7.66602 4 -12.999v-84c0 -11.333 -5.66699 -17 -17 -17h-46z" />
    <glyph glyph-name="igrave" unicode="&#xec;" horiz-adv-x="238" 
d="M70 0v535h100v-535h-100zM111 631l-122 138h83l98 -138h-59z" />
    <glyph glyph-name="iacute" unicode="&#xed;" horiz-adv-x="238" 
d="M70 0v535h100v-535h-100zM84 631l97 138h84l-122 -138h-59z" />
    <glyph glyph-name="icircumflex" unicode="&#xee;" horiz-adv-x="238" 
d="M70 0v535h100v-535h-100zM-30 631l118 137h70l107 -137h-60l-84 91l-91 -91h-60z" />
    <glyph glyph-name="idieresis" unicode="&#xef;" horiz-adv-x="238" 
d="M70 0v535h100v-535h-100zM192 648c-11.333 0 -17 5.66602 -17 16.999v84c0 12 5.66699 18 17 18h47c5.33301 0 9.5 -1.66699 12.5 -5s4.5 -7.66602 4.5 -12.999v-84c0 -11.333 -5.66699 -17 -17 -17h-47zM-3 647.999c-12 0 -18 5.66602 -18 16.999v84c0 12 6 18 18 18h46
c6 0 10.333 -1.66699 13 -5s4 -7.66602 4 -12.999v-84c0 -11.333 -5.66699 -17 -17 -17h-46z" />
    <glyph glyph-name="eth" unicode="&#xf0;" horiz-adv-x="576" 
d="M288 -6c-40.667 0 -75.834 4.16797 -105.501 12.501s-54.167 22.5 -73.5 42.5s-33.666 47.5 -42.999 82.5s-14 79.167 -14 132.5c0 54.667 5 99.5 15 134.5s24.667 62.167 44 81.5s42.833 32.833 70.5 40.5s58.834 11.5 93.501 11.5c30 0 56.5 -3.16699 79.5 -9.5
s42.667 -16.5 59 -30.5s29.166 -32.667 38.499 -56c10 -16 20.667 -31.667 32 -47s20.833 -32.5 28.5 -51.5s11.5 -42.167 11.5 -69.5c0 -54.667 -4.66699 -99.834 -14 -135.501s-23.5 -63.5 -42.5 -83.5s-43.5 -34.167 -73.5 -42.5s-65.333 -12.5 -106 -12.5zM288 76.001
c22 0 41.5 2 58.5 6s31.167 12.333 42.5 25s20 31.667 26 57s9 58.666 9 99.999c0 42 -3 75.5 -9 100.5s-14.667 43.667 -26 56s-25.5 20.666 -42.5 24.999s-36.5 6.5 -58.5 6.5c-22.667 0 -42.5 -2.16699 -59.5 -6.5s-31 -12.666 -42 -24.999s-19.333 -31 -25 -56
s-8.5 -58.5 -8.5 -100.5c0 -41.333 2.83301 -74.666 8.5 -99.999s14 -44.333 25 -57s25 -21 42 -25s36.833 -6 59.5 -6zM524 268.001l-90 32.0029c0 76 -6.33301 139.167 -19 189.5s-31.334 90.666 -56.001 120.999s-55.167 52.666 -91.5 66.999s-78.5 23.166 -126.5 26.499
v62c64.667 -3.33301 120.834 -13.833 168.501 -31.5s87.5 -45.5 119.5 -83.5s55.833 -88.333 71.5 -151s23.5 -140 23.5 -232zM175 574.004l-13 35l345 135l14 -36z" />
    <glyph glyph-name="ntilde" unicode="&#xf1;" 
d="M70 0v534.999h80l20 -58c24 17.333 52.5 32.833 85.5 46.5s67.167 20.5 102.5 20.5c40 0 72.167 -8.5 96.5 -25.5s41.833 -39.5 52.5 -67.5s16 -58.333 16 -91v-360h-100v348c0 21.333 -4.16699 39.833 -12.5 55.5s-19.833 27.834 -34.5 36.501s-32.667 13 -54 13
c-20 0 -38.5 -2 -55.5 -6s-33.167 -9.5 -48.5 -16.5s-31.333 -15.5 -48 -25.5v-405h-100zM126 640.999c1.33301 28.667 6.66504 51.166 15.998 67.499s21.333 28.166 36 35.499s30 11 46 11c16.667 0 31.667 -2.83301 45 -8.5s26 -12.167 38 -19.5s23.5 -13.833 34.5 -19.5
s22.833 -8.5 35.5 -8.5c16 0 29.167 5 39.5 15s15.5 25 15.5 45h51c-1.33301 -38 -10.5 -67 -27.5 -87s-40.833 -30 -71.5 -30c-15.333 0 -29.666 2.83301 -42.999 8.5s-26.166 12.334 -38.499 20.001s-24.333 14.334 -36 20.001s-23.5 8.5 -35.5 8.5
c-14.667 0 -27.167 -4.83301 -37.5 -14.5s-15.833 -24.167 -16.5 -43.5h-51z" />
    <glyph glyph-name="ograve" unicode="&#xf2;" horiz-adv-x="576" 
d="M288 -6c-40.667 0 -75.832 4.33496 -105.499 13.002s-54.167 23.167 -73.5 43.5s-33.666 48.166 -42.999 83.499s-14 80 -14 134c0 56 4.66699 101.833 14 137.5s23.666 63.5 42.999 83.5s44 33.833 74 41.5s65 11.5 105 11.5s75 -4 105 -12s54.667 -22 74 -42
s33.666 -47.833 42.999 -83.5s14 -81.167 14 -136.5c0 -54.667 -4.66699 -99.834 -14 -135.501s-23.5 -63.5 -42.5 -83.5s-43.5 -34.167 -73.5 -42.5s-65.333 -12.5 -106 -12.5zM288.002 76.002c22 0 41.5 2 58.5 6s31.167 12.5 42.5 25.5s20 32.5 26 58.5s9 60.333 9 103
s-3 76.834 -9 102.501s-14.667 44.834 -26 57.501s-25.5 21.167 -42.5 25.5s-36.5 6.5 -58.5 6.5c-22.667 0 -42.5 -2.16699 -59.5 -6.5s-31 -12.833 -42 -25.5s-19.333 -31.834 -25 -57.501s-8.5 -59.834 -8.5 -102.501s2.83301 -77 8.5 -103s14 -45.5 25 -58.5
s25 -21.5 42 -25.5s36.833 -6 59.5 -6zM279.002 631.002l-122 138h83l98 -138h-59z" />
    <glyph glyph-name="oacute" unicode="&#xf3;" horiz-adv-x="576" 
d="M288 -6c-40.667 0 -75.832 4.33496 -105.499 13.002s-54.167 23.167 -73.5 43.5s-33.666 48.166 -42.999 83.499s-14 80 -14 134c0 56 4.66699 101.833 14 137.5s23.666 63.5 42.999 83.5s44 33.833 74 41.5s65 11.5 105 11.5s75 -4 105 -12s54.667 -22 74 -42
s33.666 -47.833 42.999 -83.5s14 -81.167 14 -136.5c0 -54.667 -4.66699 -99.834 -14 -135.501s-23.5 -63.5 -42.5 -83.5s-43.5 -34.167 -73.5 -42.5s-65.333 -12.5 -106 -12.5zM288.002 76.002c22 0 41.5 2 58.5 6s31.167 12.5 42.5 25.5s20 32.5 26 58.5s9 60.333 9 103
s-3 76.834 -9 102.501s-14.667 44.834 -26 57.501s-25.5 21.167 -42.5 25.5s-36.5 6.5 -58.5 6.5c-22.667 0 -42.5 -2.16699 -59.5 -6.5s-31 -12.833 -42 -25.5s-19.333 -31.834 -25 -57.501s-8.5 -59.834 -8.5 -102.501s2.83301 -77 8.5 -103s14 -45.5 25 -58.5
s25 -21.5 42 -25.5s36.833 -6 59.5 -6zM252.002 631.002l97 138h84l-122 -138h-59z" />
    <glyph glyph-name="ocircumflex" unicode="&#xf4;" horiz-adv-x="576" 
d="M288 -6c-40.667 0 -75.832 4.33496 -105.499 13.002s-54.167 23.167 -73.5 43.5s-33.666 48.166 -42.999 83.499s-14 80 -14 134c0 56 4.66699 101.833 14 137.5s23.666 63.5 42.999 83.5s44 33.833 74 41.5s65 11.5 105 11.5s75 -4 105 -12s54.667 -22 74 -42
s33.666 -47.833 42.999 -83.5s14 -81.167 14 -136.5c0 -54.667 -4.66699 -99.834 -14 -135.501s-23.5 -63.5 -42.5 -83.5s-43.5 -34.167 -73.5 -42.5s-65.333 -12.5 -106 -12.5zM288.002 76.002c22 0 41.5 2 58.5 6s31.167 12.5 42.5 25.5s20 32.5 26 58.5s9 60.333 9 103
s-3 76.834 -9 102.501s-14.667 44.834 -26 57.501s-25.5 21.167 -42.5 25.5s-36.5 6.5 -58.5 6.5c-22.667 0 -42.5 -2.16699 -59.5 -6.5s-31 -12.833 -42 -25.5s-19.333 -31.834 -25 -57.501s-8.5 -59.834 -8.5 -102.501s2.83301 -77 8.5 -103s14 -45.5 25 -58.5
s25 -21.5 42 -25.5s36.833 -6 59.5 -6zM138.002 631.002l118 137h70l107 -137h-60l-84 91l-91 -91h-60z" />
    <glyph glyph-name="otilde" unicode="&#xf5;" horiz-adv-x="576" 
d="M288 -6c-40.667 0 -75.832 4.33496 -105.499 13.002s-54.167 23.167 -73.5 43.5s-33.666 48.166 -42.999 83.499s-14 80 -14 134c0 56 4.66699 101.833 14 137.5s23.666 63.5 42.999 83.5s44 33.833 74 41.5s65 11.5 105 11.5s75 -4 105 -12s54.667 -22 74 -42
s33.666 -47.833 42.999 -83.5s14 -81.167 14 -136.5c0 -54.667 -4.66699 -99.834 -14 -135.501s-23.5 -63.5 -42.5 -83.5s-43.5 -34.167 -73.5 -42.5s-65.333 -12.5 -106 -12.5zM288.002 76.002c22 0 41.5 2 58.5 6s31.167 12.5 42.5 25.5s20 32.5 26 58.5s9 60.333 9 103
s-3 76.834 -9 102.501s-14.667 44.834 -26 57.501s-25.5 21.167 -42.5 25.5s-36.5 6.5 -58.5 6.5c-22.667 0 -42.5 -2.16699 -59.5 -6.5s-31 -12.833 -42 -25.5s-19.333 -31.834 -25 -57.501s-8.5 -59.834 -8.5 -102.501s2.83301 -77 8.5 -103s14 -45.5 25 -58.5
s25 -21.5 42 -25.5s36.833 -6 59.5 -6zM119.002 641.002c1.33301 28.667 6.66504 51.166 15.998 67.499s21.333 28.166 36 35.499s30 11 46 11c16.667 0 31.667 -2.83301 45 -8.5s26 -12.167 38 -19.5s23.5 -13.833 34.5 -19.5s22.833 -8.5 35.5 -8.5c16 0 29.167 5 39.5 15
s15.5 25 15.5 45h51c-1.33301 -38 -10.5 -67 -27.5 -87s-40.833 -30 -71.5 -30c-15.333 0 -29.666 2.83301 -42.999 8.5s-26.166 12.334 -38.499 20.001s-24.333 14.334 -36 20.001s-23.5 8.5 -35.5 8.5c-14.667 0 -27.167 -4.83301 -37.5 -14.5
s-15.833 -24.167 -16.5 -43.5h-51z" />
    <glyph glyph-name="odieresis" unicode="&#xf6;" horiz-adv-x="576" 
d="M288 -6c-40.667 0 -75.832 4.33496 -105.499 13.002s-54.167 23.167 -73.5 43.5s-33.666 48.166 -42.999 83.499s-14 80 -14 134c0 56 4.66699 101.833 14 137.5s23.666 63.5 42.999 83.5s44 33.833 74 41.5s65 11.5 105 11.5s75 -4 105 -12s54.667 -22 74 -42
s33.666 -47.833 42.999 -83.5s14 -81.167 14 -136.5c0 -54.667 -4.66699 -99.834 -14 -135.501s-23.5 -63.5 -42.5 -83.5s-43.5 -34.167 -73.5 -42.5s-65.333 -12.5 -106 -12.5zM288.002 76.002c22 0 41.5 2 58.5 6s31.167 12.5 42.5 25.5s20 32.5 26 58.5s9 60.333 9 103
s-3 76.834 -9 102.501s-14.667 44.834 -26 57.501s-25.5 21.167 -42.5 25.5s-36.5 6.5 -58.5 6.5c-22.667 0 -42.5 -2.16699 -59.5 -6.5s-31 -12.833 -42 -25.5s-19.333 -31.834 -25 -57.501s-8.5 -59.834 -8.5 -102.501s2.83301 -77 8.5 -103s14 -45.5 25 -58.5
s25 -21.5 42 -25.5s36.833 -6 59.5 -6zM360.002 648.002c-11.333 0 -17 5.66602 -17 16.999v84c0 12 5.66699 18 17 18h47c5.33301 0 9.5 -1.66699 12.5 -5s4.5 -7.66602 4.5 -12.999v-84c0 -11.333 -5.66699 -17 -17 -17h-47zM165.002 648.001
c-12 0 -18 5.66602 -18 16.999v84c0 12 6 18 18 18h46c6 0 10.333 -1.66699 13 -5s4 -7.66602 4 -12.999v-84c0 -11.333 -5.66699 -17 -17 -17h-46z" />
    <glyph glyph-name="divide" unicode="&#xf7;" horiz-adv-x="609" 
d="M275 504c-16 0 -24 7.66699 -24 23v59c0 16.667 8 25 24 25h58c16.667 0 25 -8.33301 25 -25v-59c0 -8.66699 -2.33301 -14.667 -7 -18s-10.667 -5 -18 -5h-58zM275 101c-16 0 -24 7.66699 -24 23v59c0 16.667 8 25 24 25h58c16.667 0 25 -8.33301 25 -25v-59
c0 -8.66699 -2.33301 -14.667 -7 -18s-10.667 -5 -18 -5h-58zM80 315v82h448v-82h-448z" />
    <glyph glyph-name="oslash" unicode="&#xf8;" horiz-adv-x="576" 
d="M44 0l437 535h51l-437 -535h-51zM288 -6c-40.667 0 -75.832 4.33496 -105.499 13.002s-54.167 23.167 -73.5 43.5s-33.666 48.166 -42.999 83.499s-14 80 -14 134c0 56 4.66699 101.833 14 137.5s23.666 63.5 42.999 83.5s44 33.833 74 41.5s65 11.5 105 11.5
s75 -4 105 -12s54.667 -22 74 -42s33.666 -47.833 42.999 -83.5s14 -81.167 14 -136.5c0 -54.667 -4.66699 -99.834 -14 -135.501s-23.5 -63.5 -42.5 -83.5s-43.5 -34.167 -73.5 -42.5s-65.333 -12.5 -106 -12.5zM288.002 76.002c22 0 41.5 2 58.5 6s31.167 12.5 42.5 25.5
s20 32.5 26 58.5s9 60.333 9 103s-3 76.834 -9 102.501s-14.667 44.834 -26 57.501s-25.5 21.167 -42.5 25.5s-36.5 6.5 -58.5 6.5c-22.667 0 -42.5 -2.16699 -59.5 -6.5s-31 -12.833 -42 -25.5s-19.333 -31.834 -25 -57.501s-8.5 -59.834 -8.5 -102.501
s2.83301 -77 8.5 -103s14 -45.5 25 -58.5s25 -21.5 42 -25.5s36.833 -6 59.5 -6z" />
    <glyph glyph-name="ugrave" unicode="&#xf9;" 
d="M227 -6c-50 0 -88.8301 13.501 -116.497 40.501s-41.5 68.167 -41.5 123.5v377h100v-350c0 -40 9.16699 -67 27.5 -81s44.166 -21 77.499 -21c26.667 0 52.167 4.16699 76.5 12.5s48.166 19.833 71.499 34.5v405h100v-535h-80l-20 57
c-26 -16.667 -55.833 -31.334 -89.5 -44.001s-68.834 -19 -105.501 -19zM279.003 631.001l-122 138h83l98 -138h-59z" />
    <glyph glyph-name="uacute" unicode="&#xfa;" 
d="M227 -6c-50 0 -88.8301 13.501 -116.497 40.501s-41.5 68.167 -41.5 123.5v377h100v-350c0 -40 9.16699 -67 27.5 -81s44.166 -21 77.499 -21c26.667 0 52.167 4.16699 76.5 12.5s48.166 19.833 71.499 34.5v405h100v-535h-80l-20 57
c-26 -16.667 -55.833 -31.334 -89.5 -44.001s-68.834 -19 -105.501 -19zM252.003 631.001l97 138h84l-122 -138h-59z" />
    <glyph glyph-name="ucircumflex" unicode="&#xfb;" 
d="M227 -6c-50 0 -88.8301 13.501 -116.497 40.501s-41.5 68.167 -41.5 123.5v377h100v-350c0 -40 9.16699 -67 27.5 -81s44.166 -21 77.499 -21c26.667 0 52.167 4.16699 76.5 12.5s48.166 19.833 71.499 34.5v405h100v-535h-80l-20 57
c-26 -16.667 -55.833 -31.334 -89.5 -44.001s-68.834 -19 -105.501 -19zM138.003 631.001l118 137h70l107 -137h-60l-84 91l-91 -91h-60z" />
    <glyph glyph-name="udieresis" unicode="&#xfc;" 
d="M227 -6c-50 0 -88.8301 13.501 -116.497 40.501s-41.5 68.167 -41.5 123.5v377h100v-350c0 -40 9.16699 -67 27.5 -81s44.166 -21 77.499 -21c26.667 0 52.167 4.16699 76.5 12.5s48.166 19.833 71.499 34.5v405h100v-535h-80l-20 57
c-26 -16.667 -55.833 -31.334 -89.5 -44.001s-68.834 -19 -105.501 -19zM360.003 648.001c-11.333 0 -17 5.66602 -17 16.999v84c0 12 5.66699 18 17 18h47c5.33301 0 9.5 -1.66699 12.5 -5s4.5 -7.66602 4.5 -12.999v-84c0 -11.333 -5.66699 -17 -17 -17h-47zM165.003 648
c-12 0 -18 5.66602 -18 16.999v84c0 12 6 18 18 18h46c6 0 10.333 -1.66699 13 -5s4 -7.66602 4 -12.999v-84c0 -11.333 -5.66699 -17 -17 -17h-46z" />
    <glyph glyph-name="yacute" unicode="&#xfd;" horiz-adv-x="550" 
d="M221 -237l64.998 237.001c-21.333 0.666992 -41.666 5.16699 -60.999 13.5s-36.5 22 -51.5 41s-27.167 44.5 -36.5 76.5l-120 404h105l108 -383c6 -18 12.833 -31.667 20.5 -41s15.334 -15.833 23.001 -19.5s14.5 -5.83398 20.5 -6.50098s9.66699 -1 11 -1l125 451h103
l-184 -673l-48 -99h-80zM232.998 631.001l97 138h84l-122 -138h-59z" />
    <glyph glyph-name="thorn" unicode="&#xfe;" horiz-adv-x="580" 
d="M70 -237l-0.000976562 1000h100v-282c12.667 9.33301 27.834 18.666 45.501 27.999s37 17.166 58 23.499s42.167 9.5 63.5 9.5c33.333 0 62 -7 86 -21s43.833 -33.5 59.5 -58.5s27.167 -54.167 34.5 -87.5s11 -69 11 -107c0 -59.333 -6.66699 -109.5 -20 -150.5
s-34 -72 -62 -93s-64.333 -31.5 -109 -31.5c-28 0 -56.667 4.16699 -86 12.5s-56.333 19.5 -81 33.5v-276h-100zM306.999 77.002c22.667 0 42.999 5.49902 60.999 16.499s32.5 30.167 43.5 57.5s16.5 64.666 16.5 111.999c0 48.667 -5.66699 87.334 -17 116.001
s-26 49.334 -44 62.001s-37.667 19 -59 19c-28 0 -53.5 -4.33301 -76.5 -13s-43.5 -17.667 -61.5 -27v-305c20.667 -11.333 42.834 -20.5 66.501 -27.5s47.167 -10.5 70.5 -10.5z" />
    <glyph glyph-name="ydieresis" unicode="&#xff;" horiz-adv-x="550" 
d="M221 -237l64.998 237.001c-21.333 0.666992 -41.666 5.16699 -60.999 13.5s-36.5 22 -51.5 41s-27.167 44.5 -36.5 76.5l-120 404h105l108 -383c6 -18 12.833 -31.667 20.5 -41s15.334 -15.833 23.001 -19.5s14.5 -5.83398 20.5 -6.50098s9.66699 -1 11 -1l125 451h103
l-184 -673l-48 -99h-80zM340.998 648.001c-11.333 0 -17 5.66602 -17 16.999v84c0 12 5.66699 18 17 18h47c5.33301 0 9.5 -1.66699 12.5 -5s4.5 -7.66602 4.5 -12.999v-84c0 -11.333 -5.66699 -17 -17 -17h-47zM145.998 648c-12 0 -18 5.66602 -18 16.999v84
c0 12 6 18 18 18h46c6 0 10.333 -1.66699 13 -5s4 -7.66602 4 -12.999v-84c0 -11.333 -5.66699 -17 -17 -17h-46z" />
    <glyph glyph-name="Amacron" unicode="&#x100;" horiz-adv-x="678" 
d="M29 0l246 737h128l246 -737h-105l-65 193h-282l-64 -193h-104zM221 284h233l-116 365zM197 824v60h270v-60h-270z" />
    <glyph glyph-name="amacron" unicode="&#x101;" horiz-adv-x="546" 
d="M177 -6c-39.333 0 -71.8301 11.835 -97.4971 35.502s-38.5 56.5 -38.5 98.5v42c0 41.333 14.167 75.166 42.5 101.499s71.166 39.5 128.499 39.5h167v56c0 20.667 -3.5 38.167 -10.5 52.5s-19.833 25.166 -38.5 32.499s-46.334 11 -83.001 11h-164v59
c24 5.33301 52.167 10 84.5 14s70.166 6.33301 113.499 7c44 0 80.833 -5.5 110.5 -16.5s51.834 -29 66.501 -54s22 -58.167 22 -99.5v-373h-79l-17 59c-4 -2.66699 -12.333 -7.5 -25 -14.5s-28.834 -14.5 -48.501 -22.5s-41 -14.667 -64 -20s-46.167 -8 -69.5 -8z
M223.003 67.002c10 -0.666992 21.8301 0.333008 35.4971 3s27.334 5.83398 41.001 9.50098s26.334 7.5 38.001 11.5s21.334 7.5 29.001 10.5s11.834 4.83301 12.501 5.5v154l-140 -6c-34.667 -2 -59.5 -10.667 -74.5 -26s-22.5 -35.333 -22.5 -60v-24
c0 -19.333 4 -34.833 12 -46.5s18.167 -19.834 30.5 -24.501s25.166 -7 38.499 -7zM132 664.002v60h270v-60h-270z" />
    <glyph glyph-name="Abreve" unicode="&#x102;" horiz-adv-x="678" 
d="M29 0l246 737h128l246 -737h-105l-65 193h-282l-64 -193h-104zM221 284h233l-116 365zM331 787c-24.667 0 -47.167 4.83398 -67.5 14.501s-36.333 25.167 -48 46.5s-17.5 49.333 -17.5 84h48c0 -36.667 8.66699 -62.334 26 -77.001s37 -21.667 59 -21
c26 0.666992 47 8 63 22s24 39.333 24 76h49c0 -36 -6 -64.5 -18 -85.5s-28.167 -36.167 -48.5 -45.5s-43.5 -14 -69.5 -14z" />
    <glyph glyph-name="abreve" unicode="&#x103;" horiz-adv-x="546" 
d="M177 -6c-39.333 0 -71.8301 11.835 -97.4971 35.502s-38.5 56.5 -38.5 98.5v42c0 41.333 14.167 75.166 42.5 101.499s71.166 39.5 128.499 39.5h167v56c0 20.667 -3.5 38.167 -10.5 52.5s-19.833 25.166 -38.5 32.499s-46.334 11 -83.001 11h-164v59
c24 5.33301 52.167 10 84.5 14s70.166 6.33301 113.499 7c44 0 80.833 -5.5 110.5 -16.5s51.834 -29 66.501 -54s22 -58.167 22 -99.5v-373h-79l-17 59c-4 -2.66699 -12.333 -7.5 -25 -14.5s-28.834 -14.5 -48.501 -22.5s-41 -14.667 -64 -20s-46.167 -8 -69.5 -8z
M223.003 67.002c10 -0.666992 21.8301 0.333008 35.4971 3s27.334 5.83398 41.001 9.50098s26.334 7.5 38.001 11.5s21.334 7.5 29.001 10.5s11.834 4.83301 12.501 5.5v154l-140 -6c-34.667 -2 -59.5 -10.667 -74.5 -26s-22.5 -35.333 -22.5 -60v-24
c0 -19.333 4 -34.833 12 -46.5s18.167 -19.834 30.5 -24.501s25.166 -7 38.499 -7zM263 627.002c-24.667 0 -47.167 4.83398 -67.5 14.501s-36.333 25.167 -48 46.5s-17.5 49.333 -17.5 84h48c0 -36.667 8.66699 -62.334 26 -77.001s37 -21.667 59 -21
c26 0.666992 47 8 63 22s24 39.333 24 76h49c0 -36 -6 -64.5 -18 -85.5s-28.167 -36.167 -48.5 -45.5s-43.5 -14 -69.5 -14z" />
    <glyph glyph-name="Aogonek" unicode="&#x104;" horiz-adv-x="678" 
d="M29 0l246 737h128l246 -737h-105l-65 193h-282l-64 -193h-104zM221 284h233l-116 365zM578 -188c-23.333 0 -42.998 4.00195 -58.998 12.002s-27.833 18.833 -35.5 32.5s-11.5 28.5 -11.5 44.5c0 20.667 6.16699 39.5 18.5 56.5s30.166 31.167 53.499 42.5h38
c-20 -11.333 -34.833 -23.333 -44.5 -36s-14.5 -26.334 -14.5 -41.001c0 -18.667 6.66699 -33.334 20 -44.001s31.666 -16 54.999 -16h8v-49c-4 -0.666992 -8.33301 -1.16699 -13 -1.5s-9.66699 -0.5 -15 -0.5z" />
    <glyph glyph-name="aogonek" unicode="&#x105;" horiz-adv-x="546" 
d="M177 -6c-39.333 0 -71.8301 11.835 -97.4971 35.502s-38.5 56.5 -38.5 98.5v42c0 41.333 14.167 75.166 42.5 101.499s71.166 39.5 128.499 39.5h167v56c0 20.667 -3.5 38.167 -10.5 52.5s-19.833 25.166 -38.5 32.499s-46.334 11 -83.001 11h-164v59
c24 5.33301 52.167 10 84.5 14s70.166 6.33301 113.499 7c44 0 80.833 -5.5 110.5 -16.5s51.834 -29 66.501 -54s22 -58.167 22 -99.5v-373h-79l-17 59c-4 -2.66699 -12.333 -7.5 -25 -14.5s-28.834 -14.5 -48.501 -22.5s-41 -14.667 -64 -20s-46.167 -8 -69.5 -8z
M223.003 67.002c10 -0.666992 21.8301 0.333008 35.4971 3s27.334 5.83398 41.001 9.50098s26.334 7.5 38.001 11.5s21.334 7.5 29.001 10.5s11.834 4.83301 12.501 5.5v154l-140 -6c-34.667 -2 -59.5 -10.667 -74.5 -26s-22.5 -35.333 -22.5 -60v-24
c0 -19.333 4 -34.833 12 -46.5s18.167 -19.834 30.5 -24.501s25.166 -7 38.499 -7zM475 -187.998c-23.333 0 -42.998 4.00195 -58.998 12.002s-27.833 18.833 -35.5 32.5s-11.5 28.5 -11.5 44.5c0 20.667 6.16699 39.5 18.5 56.5s30.166 31.167 53.499 42.5h38
c-20 -11.333 -34.833 -23.333 -44.5 -36s-14.5 -26.334 -14.5 -41.001c0 -18.667 6.66699 -33.334 20 -44.001s31.666 -16 54.999 -16h8v-49c-4 -0.666992 -8.33301 -1.16699 -13 -1.5s-9.66699 -0.5 -15 -0.5z" />
    <glyph glyph-name="Cacute" unicode="&#x106;" horiz-adv-x="582" 
d="M317 -6c-44 0 -82.3311 4.99707 -114.998 14.9971s-60 28.167 -82 54.5s-38.333 64.333 -49 114s-16 114.167 -16 193.5c0 74.667 5.5 136.334 16.5 185.001s27.667 86.667 50 114s50.166 46.333 83.499 57s72 16 116 16c24.667 0 50.167 -1.33301 76.5 -4
s51.666 -6.16699 75.999 -10.5s46.166 -9.16602 65.499 -14.499v-76c-12 2 -28.333 4.16699 -49 6.5s-44 4.33301 -70 6s-53 2.5 -81 2.5c-33.333 0 -61.666 -3.83301 -84.999 -11.5s-42.333 -21.667 -57 -42s-25.334 -49 -32.001 -86s-10 -84.833 -10 -143.5
c0 -59.333 3.16699 -107.833 9.5 -145.5s16.5 -66.667 30.5 -87s32.667 -34.333 56 -42s52.333 -11.5 87 -11.5c50 0 91 1.33301 123 4s58 5.33398 78 8.00098v-77c-20 -4.66699 -42 -9 -66 -13s-49.167 -7 -75.5 -9s-53.166 -3 -80.499 -3zM296.002 790.997l97 138h84
l-122 -138h-59z" />
    <glyph glyph-name="cacute" unicode="&#x107;" horiz-adv-x="490" 
d="M269 -6c-31.333 0 -60.167 4.16699 -86.5 12.5s-49.333 22.5 -69 42.5s-34.834 47.667 -45.501 83s-16 80 -16 134c0 55.333 5 100.833 15 136.5s24.5 63.667 43.5 84s42.167 34.5 69.5 42.5s58 12 92 12c28 0 57.5 -1.33301 88.5 -4s61.167 -7 90.5 -13v-59h-151
c-32.667 0 -60 -5.16699 -82 -15.5s-38.333 -30 -49 -59s-16 -70.833 -16 -125.5c0 -52.667 5.66699 -93.167 17 -121.5s27.833 -47.5 49.5 -57.5s48.834 -15 81.501 -15h158v-57c-15.333 -4 -33.5 -7.5 -54.5 -10.5s-43 -5.33301 -66 -7s-46.167 -2.5 -69.5 -2.5z
M233.999 631l97 138h84l-122 -138h-59z" />
    <glyph glyph-name="Ccircumflex" unicode="&#x108;" horiz-adv-x="582" 
d="M317 -6c-44 0 -82.3311 4.99707 -114.998 14.9971s-60 28.167 -82 54.5s-38.333 64.333 -49 114s-16 114.167 -16 193.5c0 74.667 5.5 136.334 16.5 185.001s27.667 86.667 50 114s50.166 46.333 83.499 57s72 16 116 16c24.667 0 50.167 -1.33301 76.5 -4
s51.666 -6.16699 75.999 -10.5s46.166 -9.16602 65.499 -14.499v-76c-12 2 -28.333 4.16699 -49 6.5s-44 4.33301 -70 6s-53 2.5 -81 2.5c-33.333 0 -61.666 -3.83301 -84.999 -11.5s-42.333 -21.667 -57 -42s-25.334 -49 -32.001 -86s-10 -84.833 -10 -143.5
c0 -59.333 3.16699 -107.833 9.5 -145.5s16.5 -66.667 30.5 -87s32.667 -34.333 56 -42s52.333 -11.5 87 -11.5c50 0 91 1.33301 123 4s58 5.33398 78 8.00098v-77c-20 -4.66699 -42 -9 -66 -13s-49.167 -7 -75.5 -9s-53.166 -3 -80.499 -3zM171.002 790.997l118 137h70
l107 -137h-60l-84 91l-91 -91h-60z" />
    <glyph glyph-name="ccircumflex" unicode="&#x109;" horiz-adv-x="490" 
d="M269 -6c-31.333 0 -60.167 4.16699 -86.5 12.5s-49.333 22.5 -69 42.5s-34.834 47.667 -45.501 83s-16 80 -16 134c0 55.333 5 100.833 15 136.5s24.5 63.667 43.5 84s42.167 34.5 69.5 42.5s58 12 92 12c28 0 57.5 -1.33301 88.5 -4s61.167 -7 90.5 -13v-59h-151
c-32.667 0 -60 -5.16699 -82 -15.5s-38.333 -30 -49 -59s-16 -70.833 -16 -125.5c0 -52.667 5.66699 -93.167 17 -121.5s27.833 -47.5 49.5 -57.5s48.834 -15 81.501 -15h158v-57c-15.333 -4 -33.5 -7.5 -54.5 -10.5s-43 -5.33301 -66 -7s-46.167 -2.5 -69.5 -2.5z
M119.999 631l118 137h70l107 -137h-60l-84 91l-91 -91h-60z" />
    <glyph glyph-name="Cdotaccent" unicode="&#x10a;" horiz-adv-x="582" 
d="M317 -6c-44 0 -82.3311 4.99707 -114.998 14.9971s-60 28.167 -82 54.5s-38.333 64.333 -49 114s-16 114.167 -16 193.5c0 74.667 5.5 136.334 16.5 185.001s27.667 86.667 50 114s50.166 46.333 83.499 57s72 16 116 16c24.667 0 50.167 -1.33301 76.5 -4
s51.666 -6.16699 75.999 -10.5s46.166 -9.16602 65.499 -14.499v-76c-12 2 -28.333 4.16699 -49 6.5s-44 4.33301 -70 6s-53 2.5 -81 2.5c-33.333 0 -61.666 -3.83301 -84.999 -11.5s-42.333 -21.667 -57 -42s-25.334 -49 -32.001 -86s-10 -84.833 -10 -143.5
c0 -59.333 3.16699 -107.833 9.5 -145.5s16.5 -66.667 30.5 -87s32.667 -34.333 56 -42s52.333 -11.5 87 -11.5c50 0 91 1.33301 123 4s58 5.33398 78 8.00098v-77c-20 -4.66699 -42 -9 -66 -13s-49.167 -7 -75.5 -9s-53.166 -3 -80.499 -3zM296.002 814.997
c-11.333 0 -17 5.66602 -17 16.999v84c0 12 5.66699 18 17 18h47c5.33301 0 9.5 -1.66699 12.5 -5s4.5 -7.66602 4.5 -12.999v-84c0 -11.333 -5.66699 -17 -17 -17h-47z" />
    <glyph glyph-name="cdotaccent" unicode="&#x10b;" horiz-adv-x="490" 
d="M269 -6c-31.333 0 -60.167 4.16699 -86.5 12.5s-49.333 22.5 -69 42.5s-34.834 47.667 -45.501 83s-16 80 -16 134c0 55.333 5 100.833 15 136.5s24.5 63.667 43.5 84s42.167 34.5 69.5 42.5s58 12 92 12c28 0 57.5 -1.33301 88.5 -4s61.167 -7 90.5 -13v-59h-151
c-32.667 0 -60 -5.16699 -82 -15.5s-38.333 -30 -49 -59s-16 -70.833 -16 -125.5c0 -52.667 5.66699 -93.167 17 -121.5s27.833 -47.5 49.5 -57.5s48.834 -15 81.501 -15h158v-57c-15.333 -4 -33.5 -7.5 -54.5 -10.5s-43 -5.33301 -66 -7s-46.167 -2.5 -69.5 -2.5z
M244.999 655c-11.333 0 -17 5.66602 -17 16.999v84c0 12 5.66699 18 17 18h47c5.33301 0 9.5 -1.66699 12.5 -5s4.5 -7.66602 4.5 -12.999v-84c0 -11.333 -5.66699 -17 -17 -17h-47z" />
    <glyph glyph-name="Ccaron" unicode="&#x10c;" horiz-adv-x="582" 
d="M317 -6c-44 0 -82.3311 4.99707 -114.998 14.9971s-60 28.167 -82 54.5s-38.333 64.333 -49 114s-16 114.167 -16 193.5c0 74.667 5.5 136.334 16.5 185.001s27.667 86.667 50 114s50.166 46.333 83.499 57s72 16 116 16c24.667 0 50.167 -1.33301 76.5 -4
s51.666 -6.16699 75.999 -10.5s46.166 -9.16602 65.499 -14.499v-76c-12 2 -28.333 4.16699 -49 6.5s-44 4.33301 -70 6s-53 2.5 -81 2.5c-33.333 0 -61.666 -3.83301 -84.999 -11.5s-42.333 -21.667 -57 -42s-25.334 -49 -32.001 -86s-10 -84.833 -10 -143.5
c0 -59.333 3.16699 -107.833 9.5 -145.5s16.5 -66.667 30.5 -87s32.667 -34.333 56 -42s52.333 -11.5 87 -11.5c50 0 91 1.33301 123 4s58 5.33398 78 8.00098v-77c-20 -4.66699 -42 -9 -66 -13s-49.167 -7 -75.5 -9s-53.166 -3 -80.499 -3zM285.002 790.997l-107 137h60
l83 -90l91 90h61l-118 -137h-70z" />
    <glyph glyph-name="ccaron" unicode="&#x10d;" horiz-adv-x="490" 
d="M269 -6c-31.333 0 -60.167 4.16699 -86.5 12.5s-49.333 22.5 -69 42.5s-34.834 47.667 -45.501 83s-16 80 -16 134c0 55.333 5 100.833 15 136.5s24.5 63.667 43.5 84s42.167 34.5 69.5 42.5s58 12 92 12c28 0 57.5 -1.33301 88.5 -4s61.167 -7 90.5 -13v-59h-151
c-32.667 0 -60 -5.16699 -82 -15.5s-38.333 -30 -49 -59s-16 -70.833 -16 -125.5c0 -52.667 5.66699 -93.167 17 -121.5s27.833 -47.5 49.5 -57.5s48.834 -15 81.501 -15h158v-57c-15.333 -4 -33.5 -7.5 -54.5 -10.5s-43 -5.33301 -66 -7s-46.167 -2.5 -69.5 -2.5z
M233.999 631l-107 137h60l83 -90l91 90h61l-118 -137h-70z" />
    <glyph glyph-name="Dcaron" unicode="&#x10e;" horiz-adv-x="673" 
d="M73 0l0.00195312 737.004h298c46 0 84.667 -8.33301 116 -25s56.666 -40.834 75.999 -72.501s33.333 -70.334 42 -116.001s13 -97.5 13 -155.5c0 -78.667 -9.16699 -145.334 -27.5 -200.001s-45.833 -96.334 -82.5 -125.001s-82.334 -43 -137.001 -43h-298z
M174.002 90.0039l188 -0.00195312c36.667 0 66.334 11.167 89.001 33.5s39.334 54.333 50.001 96s16 91.167 16 148.5c0 52.667 -3 96.834 -9 132.501s-15.333 64.334 -28 86.001s-28.834 37.167 -48.501 46.5s-42.834 14 -69.501 14h-188v-557zM285.002 791.002l-107 137
h60l83 -90l91 90h61l-118 -137h-70z" />
    <glyph glyph-name="dcaron" unicode="&#x10f;" horiz-adv-x="577" 
d="M244 -6c-43.333 0 -79.167 9.33105 -107.5 27.998s-49.5 47.834 -63.5 87.501s-21 90.834 -21 153.501c0 66 6.5 119.5 19.5 160.5s34.167 71 63.5 90s69 28.5 119 28.5c28 0 55.833 -3 83.5 -9s51.834 -12.667 72.501 -20v250h100v-763h-82l-18 53
c-10.667 -9.33301 -25.334 -18.5 -44.001 -27.5s-38.667 -16.5 -60 -22.5s-42 -9 -62 -9zM275.999 75.998c27.333 0 52.1689 4.33203 74.502 12.999s42.166 17.667 59.499 27v325c-20.667 6 -40.834 11.5 -60.501 16.5s-41.5 7.5 -65.5 7.5
c-31.333 0 -56.666 -5.66699 -75.999 -17s-33.333 -31.333 -42 -60s-13 -68.667 -13 -120c0 -47.333 4 -85.166 12 -113.499s21.167 -48.5 39.5 -60.5s42.166 -18 71.499 -18zM580.002 581.997l-7 139v62h92v-62l-7 -139h-78z" />
    <glyph glyph-name="Dcroat" unicode="&#x110;" horiz-adv-x="673" 
d="M14 338v68h313v-68h-313zM73 0l0.00195312 737.004h298c46 0 84.667 -8.33301 116 -25s56.666 -40.834 75.999 -72.501s33.333 -70.334 42 -116.001s13 -97.5 13 -155.5c0 -78.667 -9.16699 -145.334 -27.5 -200.001s-45.833 -96.334 -82.5 -125.001
s-82.334 -43 -137.001 -43h-298zM174.002 90.0039l188 -0.00195312c36.667 0 66.334 11.167 89.001 33.5s39.334 54.333 50.001 96s16 91.167 16 148.5c0 52.667 -3 96.834 -9 132.501s-15.333 64.334 -28 86.001s-28.834 37.167 -48.501 46.5s-42.834 14 -69.501 14h-188
v-557z" />
    <glyph glyph-name="dcroat" unicode="&#x111;" horiz-adv-x="577" 
d="M277 625v42h299v-42h-299zM244 -6c-43.333 0 -79.167 9.33105 -107.5 27.998s-49.5 47.834 -63.5 87.501s-21 90.834 -21 153.501c0 66 6.5 119.5 19.5 160.5s34.167 71 63.5 90s69 28.5 119 28.5c28 0 55.833 -3 83.5 -9s51.834 -12.667 72.501 -20v250h100v-763h-82
l-18 53c-10.667 -9.33301 -25.334 -18.5 -44.001 -27.5s-38.667 -16.5 -60 -22.5s-42 -9 -62 -9zM275.999 75.998c27.333 0 52.1689 4.33203 74.502 12.999s42.166 17.667 59.499 27v325c-20.667 6 -40.834 11.5 -60.501 16.5s-41.5 7.5 -65.5 7.5
c-31.333 0 -56.666 -5.66699 -75.999 -17s-33.333 -31.333 -42 -60s-13 -68.667 -13 -120c0 -47.333 4 -85.166 12 -113.499s21.167 -48.5 39.5 -60.5s42.166 -18 71.499 -18z" />
    <glyph glyph-name="Emacron" unicode="&#x112;" 
d="M237 -4c-16.667 0 -34.3311 1.5 -52.998 4.5s-36.5 9.33301 -53.5 19s-30.833 24.5 -41.5 44.5s-16 47 -16 81v438c0 29.333 4.5 54 13.5 74s20.833 35.833 35.5 47.5s31.167 20 49.5 25s36.5 7.5 54.5 7.5c43.333 -0.666992 83.166 -1.5 119.499 -2.5
s70.166 -2.16699 101.499 -3.5l90 -4v-83h-284c-24.667 0 -44 -6.33301 -58 -19s-21 -32.667 -21 -60v-153l318 -6v-78l-318 -7v-151c0 -22.667 3.83301 -39.667 11.5 -51s17.667 -19 30 -23s25.5 -6 39.5 -6h282v-83c-30.667 -2 -63 -3.83301 -97 -5.5
s-68.167 -3 -102.5 -4s-67.833 -1.5 -100.5 -1.5zM171.003 824v60h270v-60h-270z" />
    <glyph glyph-name="emacron" unicode="&#x113;" horiz-adv-x="540" 
d="M281 -6c-56.667 0 -101.829 8.33105 -135.496 24.998s-57.667 44.834 -72 84.501s-21.5 94.5 -21.5 164.5c0 71.333 7.16699 126.833 21.5 166.5s38.166 67.5 71.499 83.5s78.333 24 135 24c49.333 0 89.166 -5.16699 119.499 -15.5s52.666 -28.666 66.999 -54.999
s21.5 -62.833 21.5 -109.5c0 -32.667 -6.5 -58.667 -19.5 -78s-31.333 -33.333 -55 -42s-51.834 -13 -84.501 -13h-177c0.666992 -38.667 5.16699 -69.5 13.5 -92.5s23.333 -39.667 45 -50s53.5 -15.5 95.5 -15.5h167v-60c-28.667 -4 -58 -7.83301 -88 -11.5
s-64.667 -5.5 -104 -5.5zM151.005 291.998h168.999c26.667 0 46.334 5 59.001 15s19 28.333 19 55s-3.83301 47.667 -11.5 63s-20.167 26.333 -37.5 33s-40.333 10 -69 10c-32.667 0 -58.5 -5 -77.5 -15s-32.333 -27.667 -40 -53s-11.5 -61.333 -11.5 -108zM132.004 663.998
v60h270v-60h-270z" />
    <glyph glyph-name="Ebreve" unicode="&#x114;" 
d="M237 -4c-16.667 0 -34.3311 1.5 -52.998 4.5s-36.5 9.33301 -53.5 19s-30.833 24.5 -41.5 44.5s-16 47 -16 81v438c0 29.333 4.5 54 13.5 74s20.833 35.833 35.5 47.5s31.167 20 49.5 25s36.5 7.5 54.5 7.5c43.333 -0.666992 83.166 -1.5 119.499 -2.5
s70.166 -2.16699 101.499 -3.5l90 -4v-83h-284c-24.667 0 -44 -6.33301 -58 -19s-21 -32.667 -21 -60v-153l318 -6v-78l-318 -7v-151c0 -22.667 3.83301 -39.667 11.5 -51s17.667 -19 30 -23s25.5 -6 39.5 -6h282v-83c-30.667 -2 -63 -3.83301 -97 -5.5
s-68.167 -3 -102.5 -4s-67.833 -1.5 -100.5 -1.5zM305.003 787c-24.667 0 -47.167 4.83398 -67.5 14.501s-36.333 25.167 -48 46.5s-17.5 49.333 -17.5 84h48c0 -36.667 8.66699 -62.334 26 -77.001s37 -21.667 59 -21c26 0.666992 47 8 63 22s24 39.333 24 76h49
c0 -36 -6 -64.5 -18 -85.5s-28.167 -36.167 -48.5 -45.5s-43.5 -14 -69.5 -14z" />
    <glyph glyph-name="ebreve" unicode="&#x115;" horiz-adv-x="540" 
d="M281 -6c-56.667 0 -101.829 8.33105 -135.496 24.998s-57.667 44.834 -72 84.501s-21.5 94.5 -21.5 164.5c0 71.333 7.16699 126.833 21.5 166.5s38.166 67.5 71.499 83.5s78.333 24 135 24c49.333 0 89.166 -5.16699 119.499 -15.5s52.666 -28.666 66.999 -54.999
s21.5 -62.833 21.5 -109.5c0 -32.667 -6.5 -58.667 -19.5 -78s-31.333 -33.333 -55 -42s-51.834 -13 -84.501 -13h-177c0.666992 -38.667 5.16699 -69.5 13.5 -92.5s23.333 -39.667 45 -50s53.5 -15.5 95.5 -15.5h167v-60c-28.667 -4 -58 -7.83301 -88 -11.5
s-64.667 -5.5 -104 -5.5zM151.005 291.998h168.999c26.667 0 46.334 5 59.001 15s19 28.333 19 55s-3.83301 47.667 -11.5 63s-20.167 26.333 -37.5 33s-40.333 10 -69 10c-32.667 0 -58.5 -5 -77.5 -15s-32.333 -27.667 -40 -53s-11.5 -61.333 -11.5 -108zM263.004 626.998
c-24.667 0 -47.167 4.83398 -67.5 14.501s-36.333 25.167 -48 46.5s-17.5 49.333 -17.5 84h48c0 -36.667 8.66699 -62.334 26 -77.001s37 -21.667 59 -21c26 0.666992 47 8 63 22s24 39.333 24 76h49c0 -36 -6 -64.5 -18 -85.5s-28.167 -36.167 -48.5 -45.5
s-43.5 -14 -69.5 -14z" />
    <glyph glyph-name="Edotaccent" unicode="&#x116;" 
d="M237 -4c-16.667 0 -34.3311 1.5 -52.998 4.5s-36.5 9.33301 -53.5 19s-30.833 24.5 -41.5 44.5s-16 47 -16 81v438c0 29.333 4.5 54 13.5 74s20.833 35.833 35.5 47.5s31.167 20 49.5 25s36.5 7.5 54.5 7.5c43.333 -0.666992 83.166 -1.5 119.499 -2.5
s70.166 -2.16699 101.499 -3.5l90 -4v-83h-284c-24.667 0 -44 -6.33301 -58 -19s-21 -32.667 -21 -60v-153l318 -6v-78l-318 -7v-151c0 -22.667 3.83301 -39.667 11.5 -51s17.667 -19 30 -23s25.5 -6 39.5 -6h282v-83c-30.667 -2 -63 -3.83301 -97 -5.5
s-68.167 -3 -102.5 -4s-67.833 -1.5 -100.5 -1.5zM287.003 815c-11.333 0 -17 5.66602 -17 16.999v84c0 12 5.66699 18 17 18h47c5.33301 0 9.5 -1.66699 12.5 -5s4.5 -7.66602 4.5 -12.999v-84c0 -11.333 -5.66699 -17 -17 -17h-47z" />
    <glyph glyph-name="edotaccent" unicode="&#x117;" horiz-adv-x="540" 
d="M281 -6c-56.667 0 -101.829 8.33105 -135.496 24.998s-57.667 44.834 -72 84.501s-21.5 94.5 -21.5 164.5c0 71.333 7.16699 126.833 21.5 166.5s38.166 67.5 71.499 83.5s78.333 24 135 24c49.333 0 89.166 -5.16699 119.499 -15.5s52.666 -28.666 66.999 -54.999
s21.5 -62.833 21.5 -109.5c0 -32.667 -6.5 -58.667 -19.5 -78s-31.333 -33.333 -55 -42s-51.834 -13 -84.501 -13h-177c0.666992 -38.667 5.16699 -69.5 13.5 -92.5s23.333 -39.667 45 -50s53.5 -15.5 95.5 -15.5h167v-60c-28.667 -4 -58 -7.83301 -88 -11.5
s-64.667 -5.5 -104 -5.5zM151.005 291.998h168.999c26.667 0 46.334 5 59.001 15s19 28.333 19 55s-3.83301 47.667 -11.5 63s-20.167 26.333 -37.5 33s-40.333 10 -69 10c-32.667 0 -58.5 -5 -77.5 -15s-32.333 -27.667 -40 -53s-11.5 -61.333 -11.5 -108zM245.004 654.998
c-11.333 0 -17 5.66602 -17 16.999v84c0 12 5.66699 18 17 18h47c5.33301 0 9.5 -1.66699 12.5 -5s4.5 -7.66602 4.5 -12.999v-84c0 -11.333 -5.66699 -17 -17 -17h-47z" />
    <glyph glyph-name="Eogonek" unicode="&#x118;" 
d="M237 -4c-16.667 0 -34.3311 1.5 -52.998 4.5s-36.5 9.33301 -53.5 19s-30.833 24.5 -41.5 44.5s-16 47 -16 81v438c0 29.333 4.5 54 13.5 74s20.833 35.833 35.5 47.5s31.167 20 49.5 25s36.5 7.5 54.5 7.5c43.333 -0.666992 83.166 -1.5 119.499 -2.5
s70.166 -2.16699 101.499 -3.5l90 -4v-83h-284c-24.667 0 -44 -6.33301 -58 -19s-21 -32.667 -21 -60v-153l318 -6v-78l-318 -7v-151c0 -22.667 3.83301 -39.667 11.5 -51s17.667 -19 30 -23s25.5 -6 39.5 -6h282v-83c-30.667 -2 -63 -3.83301 -97 -5.5
s-68.167 -3 -102.5 -4s-67.833 -1.5 -100.5 -1.5zM533.003 -181c-23.333 0 -42.998 4.00195 -58.998 12.002s-27.833 18.833 -35.5 32.5s-11.5 28.5 -11.5 44.5c0 20.667 6.16699 39.5 18.5 56.5s30.166 31.167 53.499 42.5h38c-20 -11.333 -34.833 -23.333 -44.5 -36
s-14.5 -26.334 -14.5 -41.001c0 -18.667 6.66699 -33.334 20 -44.001s31.666 -16 54.999 -16h8v-49c-4 -0.666992 -8.33301 -1.16699 -13 -1.5s-9.66699 -0.5 -15 -0.5z" />
    <glyph glyph-name="eogonek" unicode="&#x119;" horiz-adv-x="540" 
d="M281 -6c-56.667 0 -101.829 8.33105 -135.496 24.998s-57.667 44.834 -72 84.501s-21.5 94.5 -21.5 164.5c0 71.333 7.16699 126.833 21.5 166.5s38.166 67.5 71.499 83.5s78.333 24 135 24c49.333 0 89.166 -5.16699 119.499 -15.5s52.666 -28.666 66.999 -54.999
s21.5 -62.833 21.5 -109.5c0 -32.667 -6.5 -58.667 -19.5 -78s-31.333 -33.333 -55 -42s-51.834 -13 -84.501 -13h-177c0.666992 -38.667 5.16699 -69.5 13.5 -92.5s23.333 -39.667 45 -50s53.5 -15.5 95.5 -15.5h167v-60c-28.667 -4 -58 -7.83301 -88 -11.5
s-64.667 -5.5 -104 -5.5zM151.005 291.998h168.999c26.667 0 46.334 5 59.001 15s19 28.333 19 55s-3.83301 47.667 -11.5 63s-20.167 26.333 -37.5 33s-40.333 10 -69 10c-32.667 0 -58.5 -5 -77.5 -15s-32.333 -27.667 -40 -53s-11.5 -61.333 -11.5 -108z
M469.004 -164.002c-23.333 0 -42.998 4.00195 -58.998 12.002s-27.833 18.833 -35.5 32.5s-11.5 28.5 -11.5 44.5c0 20.667 6.16699 39.5 18.5 56.5s30.166 31.167 53.499 42.5h38c-20 -11.333 -34.833 -23.333 -44.5 -36s-14.5 -26.334 -14.5 -41.001
c0 -18.667 6.66699 -33.334 20 -44.001s31.666 -16 54.999 -16h8v-49c-4 -0.666992 -8.33301 -1.16699 -13 -1.5s-9.66699 -0.5 -15 -0.5z" />
    <glyph glyph-name="Ecaron" unicode="&#x11a;" 
d="M237 -4c-16.667 0 -34.3311 1.5 -52.998 4.5s-36.5 9.33301 -53.5 19s-30.833 24.5 -41.5 44.5s-16 47 -16 81v438c0 29.333 4.5 54 13.5 74s20.833 35.833 35.5 47.5s31.167 20 49.5 25s36.5 7.5 54.5 7.5c43.333 -0.666992 83.166 -1.5 119.499 -2.5
s70.166 -2.16699 101.499 -3.5l90 -4v-83h-284c-24.667 0 -44 -6.33301 -58 -19s-21 -32.667 -21 -60v-153l318 -6v-78l-318 -7v-151c0 -22.667 3.83301 -39.667 11.5 -51s17.667 -19 30 -23s25.5 -6 39.5 -6h282v-83c-30.667 -2 -63 -3.83301 -97 -5.5
s-68.167 -3 -102.5 -4s-67.833 -1.5 -100.5 -1.5zM276.003 791l-107 137h60l83 -90l91 90h61l-118 -137h-70z" />
    <glyph glyph-name="ecaron" unicode="&#x11b;" horiz-adv-x="540" 
d="M281 -6c-56.667 0 -101.829 8.33105 -135.496 24.998s-57.667 44.834 -72 84.501s-21.5 94.5 -21.5 164.5c0 71.333 7.16699 126.833 21.5 166.5s38.166 67.5 71.499 83.5s78.333 24 135 24c49.333 0 89.166 -5.16699 119.499 -15.5s52.666 -28.666 66.999 -54.999
s21.5 -62.833 21.5 -109.5c0 -32.667 -6.5 -58.667 -19.5 -78s-31.333 -33.333 -55 -42s-51.834 -13 -84.501 -13h-177c0.666992 -38.667 5.16699 -69.5 13.5 -92.5s23.333 -39.667 45 -50s53.5 -15.5 95.5 -15.5h167v-60c-28.667 -4 -58 -7.83301 -88 -11.5
s-64.667 -5.5 -104 -5.5zM151.005 291.998h168.999c26.667 0 46.334 5 59.001 15s19 28.333 19 55s-3.83301 47.667 -11.5 63s-20.167 26.333 -37.5 33s-40.333 10 -69 10c-32.667 0 -58.5 -5 -77.5 -15s-32.333 -27.667 -40 -53s-11.5 -61.333 -11.5 -108zM234.004 630.998
l-107 137h60l83 -90l91 90h61l-118 -137h-70z" />
    <glyph glyph-name="Gcircumflex" unicode="&#x11c;" horiz-adv-x="657" 
d="M289 -5c-46.667 -0.666992 -85.167 7 -115.5 23s-54.166 39.667 -71.499 71s-29.5 70.5 -36.5 117.5s-10.5 101.5 -10.5 163.5c0 61.333 3.83301 115.333 11.5 162s20.834 85.667 39.501 117s44.834 54.833 78.501 70.5s75.834 23.5 126.501 23.5c28.667 0 57 -1 85 -3
s55.167 -5.16699 81.5 -9.5s51.166 -9.16602 74.499 -14.499v-77c-13.333 2 -32 4 -56 6s-50.5 3.83301 -79.5 5.5s-58.5 2.5 -88.5 2.5c-46.667 0 -82.334 -9.16699 -107.001 -27.5s-41.834 -48.333 -51.501 -90s-14.5 -97.167 -14.5 -166.5
c0 -55.333 2.66699 -101.166 8 -137.499s14 -65 26 -86s28.5 -36 49.5 -45s47.5 -13.5 79.5 -13.5c30.667 0 61.167 3.66699 91.5 11s56.166 14.666 77.499 21.999v195h-164v77c13.333 2 29.166 3.66699 47.499 5s37.666 2.5 57.999 3.5s40.833 1.5 61.5 1.5
c18.667 0 35.834 -0.333008 51.501 -1s29.834 -1.66699 42.501 -3v-398h-75l-15 51c-22 -11.333 -51.333 -23.333 -88 -36s-75.667 -19.334 -117 -20.001zM177 791l118 137h70l107 -137h-60l-84 91l-91 -91h-60z" />
    <glyph glyph-name="gcircumflex" unicode="&#x11d;" horiz-adv-x="578" 
d="M203 -246c-34 0 -64.1699 4.83008 -90.5029 14.4971s-47.166 24.334 -62.499 44.001s-23 43.834 -23 72.501v22c0 30 8.5 55.167 25.5 75.5s38.5 35.833 64.5 46.5s53 16 81 16l27 -37c-18 0 -34.833 -2.83301 -50.5 -8.5s-28.334 -14.667 -38.001 -27
s-14.5 -28.166 -14.5 -47.499v-19c0 -28 9.5 -48.333 28.5 -61s45.167 -19 78.5 -19h117c35.333 0 63.333 6.83301 84 20.5s31 34.834 31 63.501v19c0 16 -3.5 30 -10.5 42s-18.167 21.167 -33.5 27.5s-36.333 9.5 -63 9.5h-148c-47.333 0 -83.333 9.66699 -108 29
s-37 43.666 -37 72.999c0 26.667 7.83301 48.167 23.5 64.5s37.834 27.5 66.501 33.5c-24 10.667 -42.833 24.334 -56.5 41.001s-23.167 34.834 -28.5 54.501s-8 39.5 -8 59.5c0 40.667 8.33301 73.667 25 99s40.834 44 72.501 56s69.5 18 113.5 18h288v-57l-109 -11
c8 -6 16.667 -13.833 26 -23.5s17.333 -22.834 24 -39.501s10 -38.667 10 -66c0 -28.667 -6.16699 -55.334 -18.5 -80.001s-32.333 -44.667 -60 -60s-65.167 -23 -112.5 -23h-88c-25.333 0 -45.333 -3.66699 -60 -11s-22 -20.333 -22 -39c0 -15.333 5.66699 -26 17 -32
s23.333 -9 36 -9h169c40.667 0 74.834 -5.33301 102.501 -16s48.5 -27 62.5 -49s21 -50.667 21 -86v-19c0 -50.667 -16.5 -90.167 -49.5 -118.5s-82.833 -42.5 -149.5 -42.5h-153zM246.997 252.997l59 -0.00195312c30 0 52.833 4.5 68.5 13.5s26.5 20.833 32.5 35.5
s9 31 9 49c0 26.667 -4.33301 47.834 -13 63.501s-20.5 27 -35.5 34s-33.167 10.5 -54.5 10.5h-56c-34 0 -60.5 -7.66699 -79.5 -23s-28.5 -41.666 -28.5 -78.999c0 -36.667 8.66699 -63.167 26 -79.5s41.333 -24.5 72 -24.5zM138.997 630.995l118 137h70l107 -137h-60
l-84 91l-91 -91h-60z" />
    <glyph glyph-name="Gbreve" unicode="&#x11e;" horiz-adv-x="657" 
d="M289 -5c-46.667 -0.666992 -85.167 7 -115.5 23s-54.166 39.667 -71.499 71s-29.5 70.5 -36.5 117.5s-10.5 101.5 -10.5 163.5c0 61.333 3.83301 115.333 11.5 162s20.834 85.667 39.501 117s44.834 54.833 78.501 70.5s75.834 23.5 126.501 23.5c28.667 0 57 -1 85 -3
s55.167 -5.16699 81.5 -9.5s51.166 -9.16602 74.499 -14.499v-77c-13.333 2 -32 4 -56 6s-50.5 3.83301 -79.5 5.5s-58.5 2.5 -88.5 2.5c-46.667 0 -82.334 -9.16699 -107.001 -27.5s-41.834 -48.333 -51.501 -90s-14.5 -97.167 -14.5 -166.5
c0 -55.333 2.66699 -101.166 8 -137.499s14 -65 26 -86s28.5 -36 49.5 -45s47.5 -13.5 79.5 -13.5c30.667 0 61.167 3.66699 91.5 11s56.166 14.666 77.499 21.999v195h-164v77c13.333 2 29.166 3.66699 47.499 5s37.666 2.5 57.999 3.5s40.833 1.5 61.5 1.5
c18.667 0 35.834 -0.333008 51.501 -1s29.834 -1.66699 42.501 -3v-398h-75l-15 51c-22 -11.333 -51.333 -23.333 -88 -36s-75.667 -19.334 -117 -20.001zM320 787c-24.667 0 -47.167 4.83398 -67.5 14.501s-36.333 25.167 -48 46.5s-17.5 49.333 -17.5 84h48
c0 -36.667 8.66699 -62.334 26 -77.001s37 -21.667 59 -21c26 0.666992 47 8 63 22s24 39.333 24 76h49c0 -36 -6 -64.5 -18 -85.5s-28.167 -36.167 -48.5 -45.5s-43.5 -14 -69.5 -14z" />
    <glyph glyph-name="gbreve" unicode="&#x11f;" horiz-adv-x="578" 
d="M203 -246c-34 0 -64.1699 4.83008 -90.5029 14.4971s-47.166 24.334 -62.499 44.001s-23 43.834 -23 72.501v22c0 30 8.5 55.167 25.5 75.5s38.5 35.833 64.5 46.5s53 16 81 16l27 -37c-18 0 -34.833 -2.83301 -50.5 -8.5s-28.334 -14.667 -38.001 -27
s-14.5 -28.166 -14.5 -47.499v-19c0 -28 9.5 -48.333 28.5 -61s45.167 -19 78.5 -19h117c35.333 0 63.333 6.83301 84 20.5s31 34.834 31 63.501v19c0 16 -3.5 30 -10.5 42s-18.167 21.167 -33.5 27.5s-36.333 9.5 -63 9.5h-148c-47.333 0 -83.333 9.66699 -108 29
s-37 43.666 -37 72.999c0 26.667 7.83301 48.167 23.5 64.5s37.834 27.5 66.501 33.5c-24 10.667 -42.833 24.334 -56.5 41.001s-23.167 34.834 -28.5 54.501s-8 39.5 -8 59.5c0 40.667 8.33301 73.667 25 99s40.834 44 72.501 56s69.5 18 113.5 18h288v-57l-109 -11
c8 -6 16.667 -13.833 26 -23.5s17.333 -22.834 24 -39.501s10 -38.667 10 -66c0 -28.667 -6.16699 -55.334 -18.5 -80.001s-32.333 -44.667 -60 -60s-65.167 -23 -112.5 -23h-88c-25.333 0 -45.333 -3.66699 -60 -11s-22 -20.333 -22 -39c0 -15.333 5.66699 -26 17 -32
s23.333 -9 36 -9h169c40.667 0 74.834 -5.33301 102.501 -16s48.5 -27 62.5 -49s21 -50.667 21 -86v-19c0 -50.667 -16.5 -90.167 -49.5 -118.5s-82.833 -42.5 -149.5 -42.5h-153zM246.997 252.997l59 -0.00195312c30 0 52.833 4.5 68.5 13.5s26.5 20.833 32.5 35.5
s9 31 9 49c0 26.667 -4.33301 47.834 -13 63.501s-20.5 27 -35.5 34s-33.167 10.5 -54.5 10.5h-56c-34 0 -60.5 -7.66699 -79.5 -23s-28.5 -41.666 -28.5 -78.999c0 -36.667 8.66699 -63.167 26 -79.5s41.333 -24.5 72 -24.5zM281.997 626.995
c-24.667 0 -47.167 4.83398 -67.5 14.501s-36.333 25.167 -48 46.5s-17.5 49.333 -17.5 84h48c0 -36.667 8.66699 -62.334 26 -77.001s37 -21.667 59 -21c26 0.666992 47 8 63 22s24 39.333 24 76h49c0 -36 -6 -64.5 -18 -85.5s-28.167 -36.167 -48.5 -45.5
s-43.5 -14 -69.5 -14z" />
    <glyph glyph-name="Gdotaccent" unicode="&#x120;" horiz-adv-x="657" 
d="M289 -5c-46.667 -0.666992 -85.167 7 -115.5 23s-54.166 39.667 -71.499 71s-29.5 70.5 -36.5 117.5s-10.5 101.5 -10.5 163.5c0 61.333 3.83301 115.333 11.5 162s20.834 85.667 39.501 117s44.834 54.833 78.501 70.5s75.834 23.5 126.501 23.5c28.667 0 57 -1 85 -3
s55.167 -5.16699 81.5 -9.5s51.166 -9.16602 74.499 -14.499v-77c-13.333 2 -32 4 -56 6s-50.5 3.83301 -79.5 5.5s-58.5 2.5 -88.5 2.5c-46.667 0 -82.334 -9.16699 -107.001 -27.5s-41.834 -48.333 -51.501 -90s-14.5 -97.167 -14.5 -166.5
c0 -55.333 2.66699 -101.166 8 -137.499s14 -65 26 -86s28.5 -36 49.5 -45s47.5 -13.5 79.5 -13.5c30.667 0 61.167 3.66699 91.5 11s56.166 14.666 77.499 21.999v195h-164v77c13.333 2 29.166 3.66699 47.499 5s37.666 2.5 57.999 3.5s40.833 1.5 61.5 1.5
c18.667 0 35.834 -0.333008 51.501 -1s29.834 -1.66699 42.501 -3v-398h-75l-15 51c-22 -11.333 -51.333 -23.333 -88 -36s-75.667 -19.334 -117 -20.001zM302 815c-11.333 0 -17 5.66602 -17 16.999v84c0 12 5.66699 18 17 18h47c5.33301 0 9.5 -1.66699 12.5 -5
s4.5 -7.66602 4.5 -12.999v-84c0 -11.333 -5.66699 -17 -17 -17h-47z" />
    <glyph glyph-name="gdotaccent" unicode="&#x121;" horiz-adv-x="578" 
d="M203 -246c-34 0 -64.1699 4.83008 -90.5029 14.4971s-47.166 24.334 -62.499 44.001s-23 43.834 -23 72.501v22c0 30 8.5 55.167 25.5 75.5s38.5 35.833 64.5 46.5s53 16 81 16l27 -37c-18 0 -34.833 -2.83301 -50.5 -8.5s-28.334 -14.667 -38.001 -27
s-14.5 -28.166 -14.5 -47.499v-19c0 -28 9.5 -48.333 28.5 -61s45.167 -19 78.5 -19h117c35.333 0 63.333 6.83301 84 20.5s31 34.834 31 63.501v19c0 16 -3.5 30 -10.5 42s-18.167 21.167 -33.5 27.5s-36.333 9.5 -63 9.5h-148c-47.333 0 -83.333 9.66699 -108 29
s-37 43.666 -37 72.999c0 26.667 7.83301 48.167 23.5 64.5s37.834 27.5 66.501 33.5c-24 10.667 -42.833 24.334 -56.5 41.001s-23.167 34.834 -28.5 54.501s-8 39.5 -8 59.5c0 40.667 8.33301 73.667 25 99s40.834 44 72.501 56s69.5 18 113.5 18h288v-57l-109 -11
c8 -6 16.667 -13.833 26 -23.5s17.333 -22.834 24 -39.501s10 -38.667 10 -66c0 -28.667 -6.16699 -55.334 -18.5 -80.001s-32.333 -44.667 -60 -60s-65.167 -23 -112.5 -23h-88c-25.333 0 -45.333 -3.66699 -60 -11s-22 -20.333 -22 -39c0 -15.333 5.66699 -26 17 -32
s23.333 -9 36 -9h169c40.667 0 74.834 -5.33301 102.501 -16s48.5 -27 62.5 -49s21 -50.667 21 -86v-19c0 -50.667 -16.5 -90.167 -49.5 -118.5s-82.833 -42.5 -149.5 -42.5h-153zM246.997 252.997l59 -0.00195312c30 0 52.833 4.5 68.5 13.5s26.5 20.833 32.5 35.5
s9 31 9 49c0 26.667 -4.33301 47.834 -13 63.501s-20.5 27 -35.5 34s-33.167 10.5 -54.5 10.5h-56c-34 0 -60.5 -7.66699 -79.5 -23s-28.5 -41.666 -28.5 -78.999c0 -36.667 8.66699 -63.167 26 -79.5s41.333 -24.5 72 -24.5zM263.997 654.995
c-11.333 0 -17 5.66602 -17 16.999v84c0 12 5.66699 18 17 18h47c5.33301 0 9.5 -1.66699 12.5 -5s4.5 -7.66602 4.5 -12.999v-84c0 -11.333 -5.66699 -17 -17 -17h-47z" />
    <glyph glyph-name="uni0122" unicode="&#x122;" horiz-adv-x="657" 
d="M289 -5c-46.667 -0.666992 -85.167 7 -115.5 23s-54.166 39.667 -71.499 71s-29.5 70.5 -36.5 117.5s-10.5 101.5 -10.5 163.5c0 61.333 3.83301 115.333 11.5 162s20.834 85.667 39.501 117s44.834 54.833 78.501 70.5s75.834 23.5 126.501 23.5c28.667 0 57 -1 85 -3
s55.167 -5.16699 81.5 -9.5s51.166 -9.16602 74.499 -14.499v-77c-13.333 2 -32 4 -56 6s-50.5 3.83301 -79.5 5.5s-58.5 2.5 -88.5 2.5c-46.667 0 -82.334 -9.16699 -107.001 -27.5s-41.834 -48.333 -51.501 -90s-14.5 -97.167 -14.5 -166.5
c0 -55.333 2.66699 -101.166 8 -137.499s14 -65 26 -86s28.5 -36 49.5 -45s47.5 -13.5 79.5 -13.5c30.667 0 61.167 3.66699 91.5 11s56.166 14.666 77.499 21.999v195h-164v77c13.333 2 29.166 3.66699 47.499 5s37.666 2.5 57.999 3.5s40.833 1.5 61.5 1.5
c18.667 0 35.834 -0.333008 51.501 -1s29.834 -1.66699 42.501 -3v-398h-75l-15 51c-22 -11.333 -51.333 -23.333 -88 -36s-75.667 -19.334 -117 -20.001zM260 -206l0.000976562 41.001l29 5c14.667 3.33301 26.667 7.33301 36 12s16.166 13.167 20.499 25.5
s6.5 31.166 6.5 56.499h62c0 -33.333 -3.16699 -60.333 -9.5 -81s-17.5 -35.667 -33.5 -45s-39 -14 -69 -14h-42z" />
    <glyph glyph-name="uni0123" unicode="&#x123;" horiz-adv-x="578" 
d="M203 -246c-34 0 -64.1699 4.83008 -90.5029 14.4971s-47.166 24.334 -62.499 44.001s-23 43.834 -23 72.501v22c0 30 8.5 55.167 25.5 75.5s38.5 35.833 64.5 46.5s53 16 81 16l27 -37c-18 0 -34.833 -2.83301 -50.5 -8.5s-28.334 -14.667 -38.001 -27
s-14.5 -28.166 -14.5 -47.499v-19c0 -28 9.5 -48.333 28.5 -61s45.167 -19 78.5 -19h117c35.333 0 63.333 6.83301 84 20.5s31 34.834 31 63.501v19c0 16 -3.5 30 -10.5 42s-18.167 21.167 -33.5 27.5s-36.333 9.5 -63 9.5h-148c-47.333 0 -83.333 9.66699 -108 29
s-37 43.666 -37 72.999c0 26.667 7.83301 48.167 23.5 64.5s37.834 27.5 66.501 33.5c-24 10.667 -42.833 24.334 -56.5 41.001s-23.167 34.834 -28.5 54.501s-8 39.5 -8 59.5c0 40.667 8.33301 73.667 25 99s40.834 44 72.501 56s69.5 18 113.5 18h288v-57l-109 -11
c8 -6 16.667 -13.833 26 -23.5s17.333 -22.834 24 -39.501s10 -38.667 10 -66c0 -28.667 -6.16699 -55.334 -18.5 -80.001s-32.333 -44.667 -60 -60s-65.167 -23 -112.5 -23h-88c-25.333 0 -45.333 -3.66699 -60 -11s-22 -20.333 -22 -39c0 -15.333 5.66699 -26 17 -32
s23.333 -9 36 -9h169c40.667 0 74.834 -5.33301 102.501 -16s48.5 -27 62.5 -49s21 -50.667 21 -86v-19c0 -50.667 -16.5 -90.167 -49.5 -118.5s-82.833 -42.5 -149.5 -42.5h-153zM246.997 252.997l59 -0.00195312c30 0 52.833 4.5 68.5 13.5s26.5 20.833 32.5 35.5
s9 31 9 49c0 26.667 -4.33301 47.834 -13 63.501s-20.5 27 -35.5 34s-33.167 10.5 -54.5 10.5h-56c-34 0 -60.5 -7.66699 -79.5 -23s-28.5 -41.666 -28.5 -78.999c0 -36.667 8.66699 -63.167 26 -79.5s41.333 -24.5 72 -24.5zM230.997 615.995
c0 34 3.16895 61.3311 9.50195 81.998s17.666 35.667 33.999 45s39.166 14 68.499 14h42v-41l-29 -6c-14 -2 -25.833 -5.66699 -35.5 -11s-16.667 -14.166 -21 -26.499s-6.5 -31.166 -6.5 -56.499h-62z" />
    <glyph glyph-name="Hcircumflex" unicode="&#x124;" horiz-adv-x="688" 
d="M73 0v737h101v-331h341v331h100v-737h-100v316h-341v-316h-101zM194 791l118 137h70l107 -137h-60l-84 91l-91 -91h-60z" />
    <glyph glyph-name="hcircumflex" unicode="&#x125;" 
d="M70 0l0.00292969 762.998h100v-286c23.333 17.333 51.666 32.833 84.999 46.5s67.666 20.5 102.999 20.5c38.667 0 70.167 -8 94.5 -24s42.166 -37.833 53.499 -65.5s17 -58.834 17 -93.501v-361h-100v349c0 20.667 -4.16699 38.834 -12.5 54.501s-20 27.834 -35 36.501
s-32.833 13 -53.5 13c-20 0 -38.5 -2 -55.5 -6s-33.167 -9.66699 -48.5 -17s-31.333 -15.666 -48 -24.999v-405h-100zM9.00293 814.998l118 137h70l107 -137h-60l-84 91l-91 -91h-60z" />
    <glyph glyph-name="Hbar" unicode="&#x126;" horiz-adv-x="688" 
d="M14 523v54h660v-54h-660zM73 0v737h101v-331h341v331h100v-737h-100v316h-341v-316h-101z" />
    <glyph glyph-name="hbar" unicode="&#x127;" 
d="M1 625v42h299v-42h-299zM70 0l0.00292969 762.998h100v-286c23.333 17.333 51.666 32.833 84.999 46.5s67.666 20.5 102.999 20.5c38.667 0 70.167 -8 94.5 -24s42.166 -37.833 53.499 -65.5s17 -58.834 17 -93.501v-361h-100v349c0 20.667 -4.16699 38.834 -12.5 54.501
s-20 27.834 -35 36.501s-32.833 13 -53.5 13c-20 0 -38.5 -2 -55.5 -6s-33.167 -9.66699 -48.5 -17s-31.333 -15.666 -48 -24.999v-405h-100z" />
    <glyph glyph-name="Itilde" unicode="&#x128;" horiz-adv-x="247" 
d="M73 0v737h101v-737h-101zM-53 801c1.33301 28.667 6.66504 51.166 15.998 67.499s21.333 28.166 36 35.499s30 11 46 11c16.667 0 31.667 -2.83301 45 -8.5s26 -12.167 38 -19.5s23.5 -13.833 34.5 -19.5s22.833 -8.5 35.5 -8.5c16 0 29.167 5 39.5 15s15.5 25 15.5 45
h51c-1.33301 -38 -10.5 -67 -27.5 -87s-40.833 -30 -71.5 -30c-15.333 0 -29.666 2.83301 -42.999 8.5s-26.166 12.334 -38.499 20.001s-24.333 14.334 -36 20.001s-23.5 8.5 -35.5 8.5c-14.667 0 -27.167 -4.83301 -37.5 -14.5s-15.833 -24.167 -16.5 -43.5h-51z" />
    <glyph glyph-name="itilde" unicode="&#x129;" horiz-adv-x="238" 
d="M70 0v535h100v-535h-100zM-49 641c1.33301 28.667 6.66504 51.166 15.998 67.499s21.333 28.166 36 35.499s30 11 46 11c16.667 0 31.667 -2.83301 45 -8.5s26 -12.167 38 -19.5s23.5 -13.833 34.5 -19.5s22.833 -8.5 35.5 -8.5c16 0 29.167 5 39.5 15s15.5 25 15.5 45
h51c-1.33301 -38 -10.5 -67 -27.5 -87s-40.833 -30 -71.5 -30c-15.333 0 -29.666 2.83301 -42.999 8.5s-26.166 12.334 -38.499 20.001s-24.333 14.334 -36 20.001s-23.5 8.5 -35.5 8.5c-14.667 0 -27.167 -4.83301 -37.5 -14.5s-15.833 -24.167 -16.5 -43.5h-51z" />
    <glyph glyph-name="Imacron" unicode="&#x12a;" horiz-adv-x="247" 
d="M73 0v737h101v-737h-101zM-18 824v60h270v-60h-270z" />
    <glyph glyph-name="imacron" unicode="&#x12b;" horiz-adv-x="238" 
d="M70 0v535h100v-535h-100zM-18 664v60h270v-60h-270z" />
    <glyph glyph-name="Ibreve" unicode="&#x12c;" horiz-adv-x="247" 
d="M73 0v737h101v-737h-101zM116 787c-24.667 0 -47.167 4.83398 -67.5 14.501s-36.333 25.167 -48 46.5s-17.5 49.333 -17.5 84h48c0 -36.667 8.66699 -62.334 26 -77.001s37 -21.667 59 -21c26 0.666992 47 8 63 22s24 39.333 24 76h49c0 -36 -6 -64.5 -18 -85.5
s-28.167 -36.167 -48.5 -45.5s-43.5 -14 -69.5 -14z" />
    <glyph glyph-name="ibreve" unicode="&#x12d;" horiz-adv-x="238" 
d="M70 0v535h100v-535h-100zM113 627c-24.667 0 -47.167 4.83398 -67.5 14.501s-36.333 25.167 -48 46.5s-17.5 49.333 -17.5 84h48c0 -36.667 8.66699 -62.334 26 -77.001s37 -21.667 59 -21c26 0.666992 47 8 63 22s24 39.333 24 76h49c0 -36 -6 -64.5 -18 -85.5
s-28.167 -36.167 -48.5 -45.5s-43.5 -14 -69.5 -14z" />
    <glyph glyph-name="Iogonek" unicode="&#x12e;" horiz-adv-x="247" 
d="M73 0v737h101v-737h-101zM170 -188c-23.333 0 -42.998 4.00195 -58.998 12.002s-27.833 18.833 -35.5 32.5s-11.5 28.5 -11.5 44.5c0 20.667 6.16699 39.5 18.5 56.5s30.166 31.167 53.499 42.5h38c-20 -11.333 -34.833 -23.333 -44.5 -36s-14.5 -26.334 -14.5 -41.001
c0 -18.667 6.66699 -33.334 20 -44.001s31.666 -16 54.999 -16h8v-49c-4 -0.666992 -8.33301 -1.16699 -13 -1.5s-9.66699 -0.5 -15 -0.5z" />
    <glyph glyph-name="iogonek" unicode="&#x12f;" horiz-adv-x="240" 
d="M84 625c-12 0 -18 5.66602 -18 16.999v84c0 12 6 18 18 18h74c5.33301 0 9.33301 -1.66699 12 -5s4 -7.66602 4 -12.999v-84c0 -11.333 -5.33301 -17 -16 -17h-74zM70 -0.000976562v535h100v-535h-100zM166 -188.001c-23.333 0 -42.998 4.00195 -58.998 12.002
s-27.833 18.833 -35.5 32.5s-11.5 28.5 -11.5 44.5c0 20.667 6.16699 39.5 18.5 56.5s30.166 31.167 53.499 42.5h38c-20 -11.333 -34.833 -23.333 -44.5 -36s-14.5 -26.334 -14.5 -41.001c0 -18.667 6.66699 -33.334 20 -44.001s31.666 -16 54.999 -16h8v-49
c-4 -0.666992 -8.33301 -1.16699 -13 -1.5s-9.66699 -0.5 -15 -0.5z" />
    <glyph glyph-name="Idotaccent" unicode="&#x130;" horiz-adv-x="247" 
d="M73 0v737h101v-737h-101zM98 815c-11.333 0 -17 5.66602 -17 16.999v84c0 12 5.66699 18 17 18h47c5.33301 0 9.5 -1.66699 12.5 -5s4.5 -7.66602 4.5 -12.999v-84c0 -11.333 -5.66699 -17 -17 -17h-47z" />
    <glyph glyph-name="dotlessi" unicode="&#x131;" horiz-adv-x="238" 
d="M70 0v535h100v-535h-100z" />
    <glyph glyph-name="Jcircumflex" unicode="&#x134;" horiz-adv-x="391" 
d="M143 -6c-20 0 -40.833 2.16797 -62.5 6.50098s-39.5 9.5 -53.5 15.5v79c14 -2.66699 29.667 -5.16699 47 -7.5s33.333 -3.5 48 -3.5c20 0 37 3 51 9s24.833 15.833 32.5 29.5s11.5 33.167 11.5 58.5v556h100v-569c0 -41.333 -6.16699 -74.833 -18.5 -100.5
s-31.333 -44.334 -57 -56.001s-58.5 -17.5 -98.5 -17.5zM117 791.001l118 137h70l107 -137h-60l-84 91l-91 -91h-60z" />
    <glyph glyph-name="jcircumflex" unicode="&#x135;" horiz-adv-x="240" 
d="M70 -237v772h100v-522c0 -46 -2.33301 -91.5 -7 -136.5s-10.667 -82.833 -18 -113.5h-75zM-30 631l118 137h70l107 -137h-60l-84 91l-91 -91h-60z" />
    <glyph glyph-name="uni0136" unicode="&#x136;" horiz-adv-x="618" 
d="M73 0v737h101v-325h119l187 325h107l-214 -369l218 -368h-108l-190 322h-119v-322h-101zM218 -206l0.000976562 41.001l29 5c14.667 3.33301 26.667 7.33301 36 12s16.166 13.167 20.499 25.5s6.5 31.166 6.5 56.499h62c0 -33.333 -3.16699 -60.333 -9.5 -81
s-17.5 -35.667 -33.5 -45s-39 -14 -69 -14h-42z" />
    <glyph glyph-name="uni0137" unicode="&#x137;" horiz-adv-x="521" 
d="M70 0v763h100v-433h73l149 205h104l-179 -250l192 -285h-105l-164 240h-70v-240h-100zM179 -206l0.000976562 41.001l29 5c14.667 3.33301 26.667 7.33301 36 12s16.166 13.167 20.499 25.5s6.5 31.166 6.5 56.499h62c0 -33.333 -3.16699 -60.333 -9.5 -81
s-17.5 -35.667 -33.5 -45s-39 -14 -69 -14h-42z" />
    <glyph glyph-name="kgreenlandic" unicode="&#x138;" horiz-adv-x="521" 
d="M70 0v540h100v-216h70l149 211h107l-179 -257l192 -278h-105l-164 234h-70v-234h-100z" />
    <glyph glyph-name="Lacute" unicode="&#x139;" horiz-adv-x="533" 
d="M229 0c-31.333 0 -58.832 4.83301 -82.499 14.5s-41.834 26 -54.501 49s-19 53.833 -19 92.5v581h101v-566c0 -21.333 3.66699 -37.833 11 -49.5s17 -19.5 29 -23.5s25 -6 39 -6h255v-92h-279zM98.001 791l97 138h84l-122 -138h-59z" />
    <glyph glyph-name="lacute" unicode="&#x13a;" horiz-adv-x="300" 
d="M219 -1c-32.667 0 -60.167 5.66699 -82.5 17s-39 29.5 -50 54.5s-16.5 58.833 -16.5 101.5v591h100v-578c0 -28 2.83301 -49.5 8.5 -64.5s13.667 -25.5 24 -31.5s22.5 -10 36.5 -12l50 -6v-72h-70zM84 858l97 138h84l-122 -138h-59z" />
    <glyph glyph-name="uni013B" unicode="&#x13b;" horiz-adv-x="533" 
d="M229 0c-31.333 0 -58.832 4.83301 -82.499 14.5s-41.834 26 -54.501 49s-19 53.833 -19 92.5v581h101v-566c0 -21.333 3.66699 -37.833 11 -49.5s17 -19.5 29 -23.5s25 -6 39 -6h255v-92h-279zM194.001 -206l0.000976562 41.001l29 5
c14.667 3.33301 26.667 7.33301 36 12s16.166 13.167 20.499 25.5s6.5 31.166 6.5 56.499h62c0 -33.333 -3.16699 -60.333 -9.5 -81s-17.5 -35.667 -33.5 -45s-39 -14 -69 -14h-42z" />
    <glyph glyph-name="uni013C" unicode="&#x13c;" horiz-adv-x="300" 
d="M219 -1c-32.667 0 -60.167 5.66699 -82.5 17s-39 29.5 -50 54.5s-16.5 58.833 -16.5 101.5v591h100v-578c0 -28 2.83301 -49.5 8.5 -64.5s13.667 -25.5 24 -31.5s22.5 -10 36.5 -12l50 -6v-72h-70zM88 -206l0.000976562 41.001l29 5c14.667 3.33301 26.667 7.33301 36 12
s16.166 13.167 20.499 25.5s6.5 31.166 6.5 56.499h62c0 -33.333 -3.16699 -60.333 -9.5 -81s-17.5 -35.667 -33.5 -45s-39 -14 -69 -14h-42z" />
    <glyph glyph-name="Lcaron" unicode="&#x13d;" horiz-adv-x="533" 
d="M229 0c-31.333 0 -58.832 4.83301 -82.499 14.5s-41.834 26 -54.501 49s-19 53.833 -19 92.5v581h101v-566c0 -21.333 3.66699 -37.833 11 -49.5s17 -19.5 29 -23.5s25 -6 39 -6h255v-92h-279zM263.001 582l-7 139v62h92v-62l-7 -139h-78z" />
    <glyph glyph-name="lcaron" unicode="&#x13e;" horiz-adv-x="300" 
d="M219 -1c-32.667 0 -60.167 5.66699 -82.5 17s-39 29.5 -50 54.5s-16.5 58.833 -16.5 101.5v591h100v-578c0 -28 2.83301 -49.5 8.5 -64.5s13.667 -25.5 24 -31.5s22.5 -10 36.5 -12l50 -6v-72h-70zM239 582l-7 139v62h92v-62l-7 -139h-78z" />
    <glyph glyph-name="Ldot" unicode="&#x13f;" horiz-adv-x="533" 
d="M229 0c-31.333 0 -58.832 4.83301 -82.499 14.5s-41.834 26 -54.501 49s-19 53.833 -19 92.5v581h101v-566c0 -21.333 3.66699 -37.833 11 -49.5s17 -19.5 29 -23.5s25 -6 39 -6h255v-92h-279zM372.001 346c-11.333 0 -17.001 5.66699 -17.001 17v60
c0 12 5.66699 18 17 18h57c12 0 18 -6 18 -18v-60c0 -6 -1.66699 -10.333 -5 -13s-7.66602 -4 -12.999 -4h-57z" />
    <glyph glyph-name="ldot" unicode="&#x140;" horiz-adv-x="338" 
d="M219 -1c-32.667 0 -60.167 5.66699 -82.5 17s-39 29.5 -50 54.5s-16.5 58.833 -16.5 101.5v591h100v-578c0 -28 2.83301 -49.5 8.5 -64.5s13.667 -25.5 24 -31.5s22.5 -10 36.5 -12l50 -6v-72h-70zM262 328c-11.333 0 -17.001 5.66699 -17.001 17v60
c0 12 5.66699 18 17 18h57c12 0 18 -6 18 -18v-60c0 -6 -1.66699 -10.333 -5 -13s-7.66602 -4 -12.999 -4h-57z" />
    <glyph glyph-name="Lslash" unicode="&#x141;" horiz-adv-x="533" 
d="M0 311v57l85 36l78 21l144 63v-56l-144 -63l-78 -22zM229 0c-31.333 0 -58.832 4.83301 -82.499 14.5s-41.834 26 -54.501 49s-19 53.833 -19 92.5v581h101v-566c0 -21.333 3.66699 -37.833 11 -49.5s17 -19.5 29 -23.5s25 -6 39 -6h255v-92h-279z" />
    <glyph glyph-name="lslash" unicode="&#x142;" horiz-adv-x="300" 
d="M1 351v57l69 26l100 32l98 36v-57l-98 -36l-100 -33zM219 -1c-32.667 0 -60.167 5.66699 -82.5 17s-39 29.5 -50 54.5s-16.5 58.833 -16.5 101.5v591h100v-578c0 -28 2.83301 -49.5 8.5 -64.5s13.667 -25.5 24 -31.5s22.5 -10 36.5 -12l50 -6v-72h-70z" />
    <glyph glyph-name="Nacute" unicode="&#x143;" horiz-adv-x="689" 
d="M84 0v737h82l361 -565v565h100v-737h-81l-361 565v-565h-101zM315 791l97 138h84l-122 -138h-59z" />
    <glyph glyph-name="nacute" unicode="&#x144;" 
d="M70 0v534.999h80l20 -58c24 17.333 52.5 32.833 85.5 46.5s67.167 20.5 102.5 20.5c40 0 72.167 -8.5 96.5 -25.5s41.833 -39.5 52.5 -67.5s16 -58.333 16 -91v-360h-100v348c0 21.333 -4.16699 39.833 -12.5 55.5s-19.833 27.834 -34.5 36.501s-32.667 13 -54 13
c-20 0 -38.5 -2 -55.5 -6s-33.167 -9.5 -48.5 -16.5s-31.333 -15.5 -48 -25.5v-405h-100zM259 630.999l97 138h84l-122 -138h-59z" />
    <glyph glyph-name="uni0145" unicode="&#x145;" horiz-adv-x="689" 
d="M84 0v737h82l361 -565v565h100v-737h-81l-361 565v-565h-101zM256 -206l0.000976562 41.001l29 5c14.667 3.33301 26.667 7.33301 36 12s16.166 13.167 20.499 25.5s6.5 31.166 6.5 56.499h62c0 -33.333 -3.16699 -60.333 -9.5 -81s-17.5 -35.667 -33.5 -45
s-39 -14 -69 -14h-42z" />
    <glyph glyph-name="uni0146" unicode="&#x146;" 
d="M70 0v534.999h80l20 -58c24 17.333 52.5 32.833 85.5 46.5s67.167 20.5 102.5 20.5c40 0 72.167 -8.5 96.5 -25.5s41.833 -39.5 52.5 -67.5s16 -58.333 16 -91v-360h-100v348c0 21.333 -4.16699 39.833 -12.5 55.5s-19.833 27.834 -34.5 36.501s-32.667 13 -54 13
c-20 0 -38.5 -2 -55.5 -6s-33.167 -9.5 -48.5 -16.5s-31.333 -15.5 -48 -25.5v-405h-100zM211 -206.001l0.000976562 41.001l29 5c14.667 3.33301 26.667 7.33301 36 12s16.166 13.167 20.499 25.5s6.5 31.166 6.5 56.499h62c0 -33.333 -3.16699 -60.333 -9.5 -81
s-17.5 -35.667 -33.5 -45s-39 -14 -69 -14h-42z" />
    <glyph glyph-name="Ncaron" unicode="&#x147;" horiz-adv-x="689" 
d="M84 0v737h82l361 -565v565h100v-737h-81l-361 565v-565h-101zM304 791l-107 137h60l83 -90l91 90h61l-118 -137h-70z" />
    <glyph glyph-name="ncaron" unicode="&#x148;" 
d="M70 0v534.999h80l20 -58c24 17.333 52.5 32.833 85.5 46.5s67.167 20.5 102.5 20.5c40 0 72.167 -8.5 96.5 -25.5s41.833 -39.5 52.5 -67.5s16 -58.333 16 -91v-360h-100v348c0 21.333 -4.16699 39.833 -12.5 55.5s-19.833 27.834 -34.5 36.501s-32.667 13 -54 13
c-20 0 -38.5 -2 -55.5 -6s-33.167 -9.5 -48.5 -16.5s-31.333 -15.5 -48 -25.5v-405h-100zM259 630.999l-107 137h60l83 -90l91 90h61l-118 -137h-70z" />
    <glyph glyph-name="Eng" unicode="&#x14a;" horiz-adv-x="685" 
d="M442 -243c-20 0 -40.668 2.16797 -62.001 6.50098s-39.333 9.5 -54 15.5v79c14.667 -2.66699 31 -5.16699 49 -7.5s34.667 -3.5 50 -3.5c20.667 0 38.5 3 53.5 9s26.833 15.833 35.5 29.5s13 33.167 13 58.5v104h100v-117c0 -41.333 -6.66699 -74.833 -20 -100.5
s-33.666 -44.334 -60.999 -56.001s-62 -17.5 -104 -17.5zM83.999 0.000976562v737h82l361 -565v565h100v-737h-81l-361 565v-565h-101z" />
    <glyph glyph-name="eng" unicode="&#x14b;" 
d="M318 -237c19.333 15.333 37 33 53 53s28.667 44 38 72s14 61.333 14 100v191h100v-188c0 -40.667 -5.5 -75.667 -16.5 -105s-25.833 -54 -44.5 -74s-39.667 -36.333 -63 -49h-81zM70 0v534.999h80l20 -58c24 17.333 52.5 32.833 85.5 46.5s67.167 20.5 102.5 20.5
c40 0 72.167 -8.5 96.5 -25.5s41.833 -39.5 52.5 -67.5s16 -58.333 16 -91v-360h-100v348c0 21.333 -4.16699 39.833 -12.5 55.5s-19.833 27.834 -34.5 36.501s-32.667 13 -54 13c-20 0 -38.5 -2 -55.5 -6s-33.167 -9.5 -48.5 -16.5s-31.333 -15.5 -48 -25.5v-405h-100z" />
    <glyph glyph-name="Omacron" unicode="&#x14c;" horiz-adv-x="690" 
d="M345 -6c-48 0 -90.168 4.66699 -126.501 14s-66.666 26.666 -90.999 51.999s-42.5 62.666 -54.5 111.999s-18 114 -18 194s6 144.833 18 194.5s30.333 87.667 55 114s55 44.333 91 54s78 14.5 126 14.5c49.333 0 92.166 -4.83301 128.499 -14.5s66.5 -27.667 90.5 -54
s42 -64.333 54 -114s18 -114.5 18 -194.5s-6 -144.667 -18 -194s-30.167 -86.666 -54.5 -111.999s-54.666 -42.666 -90.999 -51.999s-78.833 -14 -127.5 -14zM344.999 84c34.667 0 64.168 3.66699 88.501 11s44 20.833 59 40.5s25.833 48 32.5 85s10 85.5 10 145.5
c0 63.333 -3.5 114 -10.5 152s-17.833 66.667 -32.5 86s-34.167 32.333 -58.5 39s-53.833 10 -88.5 10c-32.667 0 -61 -3.33301 -85 -10s-43.667 -19.667 -59 -39s-26.833 -48 -34.5 -86s-11.5 -88.667 -11.5 -152c0 -60 3.16699 -108.5 9.5 -145.5s17 -65.333 32 -85
s34.667 -33.167 59 -40.5s54.166 -11 89.499 -11zM204 824v60h270v-60h-270z" />
    <glyph glyph-name="omacron" unicode="&#x14d;" horiz-adv-x="576" 
d="M288 -6c-40.667 0 -75.832 4.33496 -105.499 13.002s-54.167 23.167 -73.5 43.5s-33.666 48.166 -42.999 83.499s-14 80 -14 134c0 56 4.66699 101.833 14 137.5s23.666 63.5 42.999 83.5s44 33.833 74 41.5s65 11.5 105 11.5s75 -4 105 -12s54.667 -22 74 -42
s33.666 -47.833 42.999 -83.5s14 -81.167 14 -136.5c0 -54.667 -4.66699 -99.834 -14 -135.501s-23.5 -63.5 -42.5 -83.5s-43.5 -34.167 -73.5 -42.5s-65.333 -12.5 -106 -12.5zM288.002 76.002c22 0 41.5 2 58.5 6s31.167 12.5 42.5 25.5s20 32.5 26 58.5s9 60.333 9 103
s-3 76.834 -9 102.501s-14.667 44.834 -26 57.501s-25.5 21.167 -42.5 25.5s-36.5 6.5 -58.5 6.5c-22.667 0 -42.5 -2.16699 -59.5 -6.5s-31 -12.833 -42 -25.5s-19.333 -31.834 -25 -57.501s-8.5 -59.834 -8.5 -102.501s2.83301 -77 8.5 -103s14 -45.5 25 -58.5
s25 -21.5 42 -25.5s36.833 -6 59.5 -6zM150.002 664.002v60h270v-60h-270z" />
    <glyph glyph-name="Obreve" unicode="&#x14e;" horiz-adv-x="690" 
d="M345 -6c-48 0 -90.168 4.66699 -126.501 14s-66.666 26.666 -90.999 51.999s-42.5 62.666 -54.5 111.999s-18 114 -18 194s6 144.833 18 194.5s30.333 87.667 55 114s55 44.333 91 54s78 14.5 126 14.5c49.333 0 92.166 -4.83301 128.499 -14.5s66.5 -27.667 90.5 -54
s42 -64.333 54 -114s18 -114.5 18 -194.5s-6 -144.667 -18 -194s-30.167 -86.666 -54.5 -111.999s-54.666 -42.666 -90.999 -51.999s-78.833 -14 -127.5 -14zM344.999 84c34.667 0 64.168 3.66699 88.501 11s44 20.833 59 40.5s25.833 48 32.5 85s10 85.5 10 145.5
c0 63.333 -3.5 114 -10.5 152s-17.833 66.667 -32.5 86s-34.167 32.333 -58.5 39s-53.833 10 -88.5 10c-32.667 0 -61 -3.33301 -85 -10s-43.667 -19.667 -59 -39s-26.833 -48 -34.5 -86s-11.5 -88.667 -11.5 -152c0 -60 3.16699 -108.5 9.5 -145.5s17 -65.333 32 -85
s34.667 -33.167 59 -40.5s54.166 -11 89.499 -11zM338 787c-24.667 0 -47.167 4.83398 -67.5 14.501s-36.333 25.167 -48 46.5s-17.5 49.333 -17.5 84h48c0 -36.667 8.66699 -62.334 26 -77.001s37 -21.667 59 -21c26 0.666992 47 8 63 22s24 39.333 24 76h49
c0 -36 -6 -64.5 -18 -85.5s-28.167 -36.167 -48.5 -45.5s-43.5 -14 -69.5 -14z" />
    <glyph glyph-name="obreve" unicode="&#x14f;" horiz-adv-x="576" 
d="M288 -6c-40.667 0 -75.832 4.33496 -105.499 13.002s-54.167 23.167 -73.5 43.5s-33.666 48.166 -42.999 83.499s-14 80 -14 134c0 56 4.66699 101.833 14 137.5s23.666 63.5 42.999 83.5s44 33.833 74 41.5s65 11.5 105 11.5s75 -4 105 -12s54.667 -22 74 -42
s33.666 -47.833 42.999 -83.5s14 -81.167 14 -136.5c0 -54.667 -4.66699 -99.834 -14 -135.501s-23.5 -63.5 -42.5 -83.5s-43.5 -34.167 -73.5 -42.5s-65.333 -12.5 -106 -12.5zM288.002 76.002c22 0 41.5 2 58.5 6s31.167 12.5 42.5 25.5s20 32.5 26 58.5s9 60.333 9 103
s-3 76.834 -9 102.501s-14.667 44.834 -26 57.501s-25.5 21.167 -42.5 25.5s-36.5 6.5 -58.5 6.5c-22.667 0 -42.5 -2.16699 -59.5 -6.5s-31 -12.833 -42 -25.5s-19.333 -31.834 -25 -57.501s-8.5 -59.834 -8.5 -102.501s2.83301 -77 8.5 -103s14 -45.5 25 -58.5
s25 -21.5 42 -25.5s36.833 -6 59.5 -6zM281.002 627.002c-24.667 0 -47.167 4.83398 -67.5 14.501s-36.333 25.167 -48 46.5s-17.5 49.333 -17.5 84h48c0 -36.667 8.66699 -62.334 26 -77.001s37 -21.667 59 -21c26 0.666992 47 8 63 22s24 39.333 24 76h49
c0 -36 -6 -64.5 -18 -85.5s-28.167 -36.167 -48.5 -45.5s-43.5 -14 -69.5 -14z" />
    <glyph glyph-name="Ohungarumlaut" unicode="&#x150;" horiz-adv-x="690" 
d="M345 -6c-48 0 -90.168 4.66699 -126.501 14s-66.666 26.666 -90.999 51.999s-42.5 62.666 -54.5 111.999s-18 114 -18 194s6 144.833 18 194.5s30.333 87.667 55 114s55 44.333 91 54s78 14.5 126 14.5c49.333 0 92.166 -4.83301 128.499 -14.5s66.5 -27.667 90.5 -54
s42 -64.333 54 -114s18 -114.5 18 -194.5s-6 -144.667 -18 -194s-30.167 -86.666 -54.5 -111.999s-54.666 -42.666 -90.999 -51.999s-78.833 -14 -127.5 -14zM344.999 84c34.667 0 64.168 3.66699 88.501 11s44 20.833 59 40.5s25.833 48 32.5 85s10 85.5 10 145.5
c0 63.333 -3.5 114 -10.5 152s-17.833 66.667 -32.5 86s-34.167 32.333 -58.5 39s-53.833 10 -88.5 10c-32.667 0 -61 -3.33301 -85 -10s-43.667 -19.667 -59 -39s-26.833 -48 -34.5 -86s-11.5 -88.667 -11.5 -152c0 -60 3.16699 -108.5 9.5 -145.5s17 -65.333 32 -85
s34.667 -33.167 59 -40.5s54.166 -11 89.499 -11zM374 791l93 138h79l-113 -138h-59zM220 791l92 138h80l-113 -138h-59z" />
    <glyph glyph-name="ohungarumlaut" unicode="&#x151;" horiz-adv-x="576" 
d="M288 -6c-40.667 0 -75.832 4.33496 -105.499 13.002s-54.167 23.167 -73.5 43.5s-33.666 48.166 -42.999 83.499s-14 80 -14 134c0 56 4.66699 101.833 14 137.5s23.666 63.5 42.999 83.5s44 33.833 74 41.5s65 11.5 105 11.5s75 -4 105 -12s54.667 -22 74 -42
s33.666 -47.833 42.999 -83.5s14 -81.167 14 -136.5c0 -54.667 -4.66699 -99.834 -14 -135.501s-23.5 -63.5 -42.5 -83.5s-43.5 -34.167 -73.5 -42.5s-65.333 -12.5 -106 -12.5zM288.002 76.002c22 0 41.5 2 58.5 6s31.167 12.5 42.5 25.5s20 32.5 26 58.5s9 60.333 9 103
s-3 76.834 -9 102.501s-14.667 44.834 -26 57.501s-25.5 21.167 -42.5 25.5s-36.5 6.5 -58.5 6.5c-22.667 0 -42.5 -2.16699 -59.5 -6.5s-31 -12.833 -42 -25.5s-19.333 -31.834 -25 -57.501s-8.5 -59.834 -8.5 -102.501s2.83301 -77 8.5 -103s14 -45.5 25 -58.5
s25 -21.5 42 -25.5s36.833 -6 59.5 -6zM317.002 631.002l93 138h79l-113 -138h-59zM163.002 631.002l92 138h80l-113 -138h-59z" />
    <glyph glyph-name="OE" unicode="&#x152;" horiz-adv-x="1052" 
d="M345 -6c-48 0 -90.168 4.66699 -126.501 14s-66.666 26.666 -90.999 51.999s-42.5 62.666 -54.5 111.999s-18 114 -18 194s6 144.833 18 194.5s30.333 87.667 55 114s55 44.333 91 54s78 14.5 126 14.5c49.333 0 92.166 -4.83301 128.499 -14.5s66.5 -27.667 90.5 -54
s42 -64.333 54 -114s18 -114.5 18 -194.5s-6 -144.667 -18 -194s-30.167 -86.666 -54.5 -111.999s-54.666 -42.666 -90.999 -51.999s-78.833 -14 -127.5 -14zM344.999 84c34.667 0 64.168 3.66699 88.501 11s44 20.833 59 40.5s25.833 48 32.5 85s10 85.5 10 145.5
c0 63.333 -3.5 114 -10.5 152s-17.833 66.667 -32.5 86s-34.167 32.333 -58.5 39s-53.833 10 -88.5 10c-32.667 0 -61 -3.33301 -85 -10s-43.667 -19.667 -59 -39s-26.833 -48 -34.5 -86s-11.5 -88.667 -11.5 -152c0 -60 3.16699 -108.5 9.5 -145.5s17 -65.333 32 -85
s34.667 -33.167 59 -40.5s54.166 -11 89.499 -11zM699 -4c-16.667 0 -34.3311 1.5 -52.998 4.5s-36.5 9.33301 -53.5 19s-30.833 24.5 -41.5 44.5s-16 47 -16 81v438c0 29.333 4.5 54 13.5 74s20.833 35.833 35.5 47.5s31.167 20 49.5 25s36.5 7.5 54.5 7.5
c43.333 -0.666992 83.166 -1.5 119.499 -2.5s70.166 -2.16699 101.499 -3.5l90 -4v-83h-284c-24.667 0 -44 -6.33301 -58 -19s-21 -32.667 -21 -60v-153l318 -6v-78l-318 -7v-151c0 -22.667 3.83301 -39.667 11.5 -51s17.667 -19 30 -23s25.5 -6 39.5 -6h282v-83
c-30.667 -2 -63 -3.83301 -97 -5.5s-68.167 -3 -102.5 -4s-67.833 -1.5 -100.5 -1.5z" />
    <glyph glyph-name="oe" unicode="&#x153;" horiz-adv-x="907" 
d="M286 -6c-40.667 0 -75.666 4.33496 -104.999 13.002s-53.5 23.167 -72.5 43.5s-33.167 48.166 -42.5 83.499s-14 80 -14 134c0 56 4.66699 101.833 14 137.5s23.666 63.5 42.999 83.5s44 33.833 74 41.5s65 11.5 105 11.5c37.333 0 69.833 -4 97.5 -12s50.5 -22 68.5 -42
s31.667 -47.833 41 -83.5s14 -81.167 14 -136.5c0 -54.667 -4.5 -99.834 -13.5 -135.501s-22.667 -63.5 -41 -83.5s-41.5 -34.167 -69.5 -42.5s-61 -12.5 -99 -12.5zM288.001 71.002c22 0 41.5 2.16699 58.5 6.5s31.167 13.166 42.5 26.499s20 33.166 26 59.499
s9 61.5 9 105.5s-3 79 -9 105s-14.667 45.5 -26 58.5s-25.5 21.667 -42.5 26s-36.5 6.5 -58.5 6.5c-22.667 0 -42.5 -2.16699 -59.5 -6.5s-31 -13 -42 -26s-19.333 -32.5 -25 -58.5s-8.5 -61 -8.5 -105s2.83301 -79.167 8.5 -105.5s14 -46.166 25 -59.499
s25 -22.166 42 -26.499s36.833 -6.5 59.5 -6.5zM641.001 -5.99805c-46.667 0 -85.333 9.33301 -116 28s-53.334 48 -68.001 88s-22 92.667 -22 158c0 64 6.5 116.167 19.5 156.5s34.5 70 64.5 89s70.667 28.5 122 28.5c48 0 87.833 -5 119.5 -15s55.334 -28.5 71.001 -55.5
s23.5 -66.5 23.5 -118.5c0 -28.667 -6.33301 -52.167 -19 -70.5s-30.334 -31.833 -53.001 -40.5s-48 -13 -76 -13h-188c0.666992 -56 12.667 -96.333 36 -121s61.333 -37 114 -37h171v-60c-28.667 -4.66699 -59.167 -8.66699 -91.5 -12s-68.166 -5 -107.499 -5z
M518.002 292.002l170.001 -0.000976562c16 0 29.667 2 41 6s20.166 11.333 26.499 22s9.5 25 9.5 43c0 29.333 -4.5 51.333 -13.5 66s-22.5 24.834 -40.5 30.501s-41.333 8.5 -70 8.5c-31.333 0 -56 -6 -74 -18s-30.667 -31 -38 -57s-11 -59.667 -11 -101z" />
    <glyph glyph-name="Racute" unicode="&#x154;" horiz-adv-x="614" 
d="M73 0l-0.00195312 737h295c25.333 0 49.833 -3 73.5 -9s44.834 -17 63.501 -33s33.334 -38.5 44.001 -67.5s16 -66.833 16 -113.5c0 -38 -4 -69.667 -12 -95s-18.5 -45.5 -31.5 -60.5s-27.333 -26.333 -43 -34s-31.167 -13.5 -46.5 -17.5l147 -307h-102l-136 293
c-10 0 -22.167 0.166992 -36.5 0.5s-29.333 0.5 -45 0.5s-31 0.333008 -46 1s-28.167 1 -39.5 1v-296h-101zM173.998 374l178 0.00195312c16 0 30.667 1.83301 44 5.5s25.166 10.667 35.499 21s18.5 24.666 24.5 42.999s9 41.833 9 70.5c0 28 -3 50.667 -9 68
s-14.333 30.666 -25 39.999s-22.667 15.833 -36 19.5s-27.666 5.5 -42.999 5.5h-178v-273zM269.998 791.002l97 138h84l-122 -138h-59z" />
    <glyph glyph-name="racute" unicode="&#x155;" horiz-adv-x="416" 
d="M70 0v535h77l23 -90c22.667 27.333 48 50.333 76 69s60.667 28 98 28c8.66699 0 17 -0.5 25 -1.5s15.667 -2.5 23 -4.5v-103c-9.33301 1.33301 -19 2.5 -29 3.5s-20.333 1.5 -31 1.5c-22.667 0 -43 -2.66699 -61 -8s-35.167 -13.5 -51.5 -24.5s-32.833 -24.5 -49.5 -40.5
v-365h-100zM178 631l97 138h84l-122 -138h-59z" />
    <glyph glyph-name="uni0156" unicode="&#x156;" horiz-adv-x="614" 
d="M73 0l-0.00195312 737h295c25.333 0 49.833 -3 73.5 -9s44.834 -17 63.501 -33s33.334 -38.5 44.001 -67.5s16 -66.833 16 -113.5c0 -38 -4 -69.667 -12 -95s-18.5 -45.5 -31.5 -60.5s-27.333 -26.333 -43 -34s-31.167 -13.5 -46.5 -17.5l147 -307h-102l-136 293
c-10 0 -22.167 0.166992 -36.5 0.5s-29.333 0.5 -45 0.5s-31 0.333008 -46 1s-28.167 1 -39.5 1v-296h-101zM173.998 374l178 0.00195312c16 0 30.667 1.83301 44 5.5s25.166 10.667 35.499 21s18.5 24.666 24.5 42.999s9 41.833 9 70.5c0 28 -3 50.667 -9 68
s-14.333 30.666 -25 39.999s-22.667 15.833 -36 19.5s-27.666 5.5 -42.999 5.5h-178v-273zM213.998 -205.998l0.000976562 41.001l29 5c14.667 3.33301 26.667 7.33301 36 12s16.166 13.167 20.499 25.5s6.5 31.166 6.5 56.499h62c0 -33.333 -3.16699 -60.333 -9.5 -81
s-17.5 -35.667 -33.5 -45s-39 -14 -69 -14h-42z" />
    <glyph glyph-name="uni0157" unicode="&#x157;" horiz-adv-x="416" 
d="M70 0v535h77l23 -90c22.667 27.333 48 50.333 76 69s60.667 28 98 28c8.66699 0 17 -0.5 25 -1.5s15.667 -2.5 23 -4.5v-103c-9.33301 1.33301 -19 2.5 -29 3.5s-20.333 1.5 -31 1.5c-22.667 0 -43 -2.66699 -61 -8s-35.167 -13.5 -51.5 -24.5s-32.833 -24.5 -49.5 -40.5
v-365h-100zM36 -206l0.000976562 41.001l29 5c14.667 3.33301 26.667 7.33301 36 12s16.166 13.167 20.499 25.5s6.5 31.166 6.5 56.499h62c0 -33.333 -3.16699 -60.333 -9.5 -81s-17.5 -35.667 -33.5 -45s-39 -14 -69 -14h-42z" />
    <glyph glyph-name="Rcaron" unicode="&#x158;" horiz-adv-x="614" 
d="M73 0l-0.00195312 737h295c25.333 0 49.833 -3 73.5 -9s44.834 -17 63.501 -33s33.334 -38.5 44.001 -67.5s16 -66.833 16 -113.5c0 -38 -4 -69.667 -12 -95s-18.5 -45.5 -31.5 -60.5s-27.333 -26.333 -43 -34s-31.167 -13.5 -46.5 -17.5l147 -307h-102l-136 293
c-10 0 -22.167 0.166992 -36.5 0.5s-29.333 0.5 -45 0.5s-31 0.333008 -46 1s-28.167 1 -39.5 1v-296h-101zM173.998 374l178 0.00195312c16 0 30.667 1.83301 44 5.5s25.166 10.667 35.499 21s18.5 24.666 24.5 42.999s9 41.833 9 70.5c0 28 -3 50.667 -9 68
s-14.333 30.666 -25 39.999s-22.667 15.833 -36 19.5s-27.666 5.5 -42.999 5.5h-178v-273zM258.998 791.002l-107 137h60l83 -90l91 90h61l-118 -137h-70z" />
    <glyph glyph-name="rcaron" unicode="&#x159;" horiz-adv-x="416" 
d="M70 0v535h77l23 -90c22.667 27.333 48 50.333 76 69s60.667 28 98 28c8.66699 0 17 -0.5 25 -1.5s15.667 -2.5 23 -4.5v-103c-9.33301 1.33301 -19 2.5 -29 3.5s-20.333 1.5 -31 1.5c-22.667 0 -43 -2.66699 -61 -8s-35.167 -13.5 -51.5 -24.5s-32.833 -24.5 -49.5 -40.5
v-365h-100zM178 631l-107 137h60l83 -90l91 90h61l-118 -137h-70z" />
    <glyph glyph-name="Sacute" unicode="&#x15a;" horiz-adv-x="582" 
d="M286 -6c-16 0 -34.167 0.496094 -54.5 1.49609s-41 2.5 -62 4.5s-41 4 -60 6s-35.167 4.66699 -48.5 8v78c17.333 -1.33301 38.166 -2.66602 62.499 -3.99902s50.333 -2.33301 78 -3s54.5 -1 80.5 -1c28.667 0 54.167 2.66699 76.5 8s40 15.333 53 30
s19.5 35.334 19.5 62.001v43c0 30 -8.16699 53 -24.5 69s-41.166 24 -74.499 24h-75c-64 0 -113.5 14 -148.5 42s-52.5 76 -52.5 144v40c0 70.667 19.167 121.167 57.5 151.5s92.833 45.5 163.5 45.5c23.333 0 48.333 -1.16699 75 -3.5s52.667 -5.16602 78 -8.49902
s46.333 -6.66602 63 -9.99902v-78l-100.5 6.5c-37 2.33301 -71.833 3.5 -104.5 3.5c-28 0 -52.167 -3.16699 -72.5 -9.5s-36 -17.5 -47 -33.5s-16.5 -38.667 -16.5 -68v-30c0 -36 9.66699 -61 29 -75s46.333 -21 81 -21h81c42 0 76.5 -7.66699 103.5 -23
s47.167 -36.333 60.5 -63s20 -57 20 -91v-52c0 -52 -10.667 -92 -32 -120s-50 -47.167 -86 -57.5s-77 -15.5 -123 -15.5zM260 790.996l97 138h84l-122 -138h-59z" />
    <glyph glyph-name="sacute" unicode="&#x15b;" horiz-adv-x="501" 
d="M257 -6c-14 0 -30.667 0.333008 -50 1s-39.166 1.83398 -59.499 3.50098s-39 3.5 -56 5.5s-30.5 4.33301 -40.5 7v60h225c19.333 0 36 1.5 50 4.5s24.833 9.5 32.5 19.5s11.5 24.667 11.5 44v22c0 20 -6.66699 35.667 -20 47s-35.333 17 -66 17h-78
c-31.333 0 -59.166 4.16699 -83.499 12.5s-43.333 22.5 -57 42.5s-20.5 47 -20.5 81v29c0 34 6.5 62 19.5 84s33.833 38.5 62.5 49.5s66.667 16.5 114 16.5c20 0 42.167 -0.833008 66.5 -2.5s48.166 -3.83398 71.499 -6.50098s42 -5.66699 56 -9v-60h-212
c-29.333 0 -51.833 -5 -67.5 -15s-23.5 -29 -23.5 -57v-20c0 -17.333 3.66699 -30.666 11 -39.999s17.833 -15.333 31.5 -18s29.834 -4 48.501 -4h80c50.667 0 89 -11.833 115 -35.5s39 -56.834 39 -99.501v-41c0 -36 -8.33301 -64 -25 -84s-39.834 -34 -69.501 -42
s-64.834 -12 -105.501 -12zM206 631l97 138h84l-122 -138h-59z" />
    <glyph glyph-name="Scircumflex" unicode="&#x15c;" horiz-adv-x="582" 
d="M286 -6c-16 0 -34.167 0.496094 -54.5 1.49609s-41 2.5 -62 4.5s-41 4 -60 6s-35.167 4.66699 -48.5 8v78c17.333 -1.33301 38.166 -2.66602 62.499 -3.99902s50.333 -2.33301 78 -3s54.5 -1 80.5 -1c28.667 0 54.167 2.66699 76.5 8s40 15.333 53 30
s19.5 35.334 19.5 62.001v43c0 30 -8.16699 53 -24.5 69s-41.166 24 -74.499 24h-75c-64 0 -113.5 14 -148.5 42s-52.5 76 -52.5 144v40c0 70.667 19.167 121.167 57.5 151.5s92.833 45.5 163.5 45.5c23.333 0 48.333 -1.16699 75 -3.5s52.667 -5.16602 78 -8.49902
s46.333 -6.66602 63 -9.99902v-78l-100.5 6.5c-37 2.33301 -71.833 3.5 -104.5 3.5c-28 0 -52.167 -3.16699 -72.5 -9.5s-36 -17.5 -47 -33.5s-16.5 -38.667 -16.5 -68v-30c0 -36 9.66699 -61 29 -75s46.333 -21 81 -21h81c42 0 76.5 -7.66699 103.5 -23
s47.167 -36.333 60.5 -63s20 -57 20 -91v-52c0 -52 -10.667 -92 -32 -120s-50 -47.167 -86 -57.5s-77 -15.5 -123 -15.5zM135 790.996l118 137h70l107 -137h-60l-84 91l-91 -91h-60z" />
    <glyph glyph-name="scircumflex" unicode="&#x15d;" horiz-adv-x="501" 
d="M257 -6c-14 0 -30.667 0.333008 -50 1s-39.166 1.83398 -59.499 3.50098s-39 3.5 -56 5.5s-30.5 4.33301 -40.5 7v60h225c19.333 0 36 1.5 50 4.5s24.833 9.5 32.5 19.5s11.5 24.667 11.5 44v22c0 20 -6.66699 35.667 -20 47s-35.333 17 -66 17h-78
c-31.333 0 -59.166 4.16699 -83.499 12.5s-43.333 22.5 -57 42.5s-20.5 47 -20.5 81v29c0 34 6.5 62 19.5 84s33.833 38.5 62.5 49.5s66.667 16.5 114 16.5c20 0 42.167 -0.833008 66.5 -2.5s48.166 -3.83398 71.499 -6.50098s42 -5.66699 56 -9v-60h-212
c-29.333 0 -51.833 -5 -67.5 -15s-23.5 -29 -23.5 -57v-20c0 -17.333 3.66699 -30.666 11 -39.999s17.833 -15.333 31.5 -18s29.834 -4 48.501 -4h80c50.667 0 89 -11.833 115 -35.5s39 -56.834 39 -99.501v-41c0 -36 -8.33301 -64 -25 -84s-39.834 -34 -69.501 -42
s-64.834 -12 -105.501 -12zM92 631l118 137h70l107 -137h-60l-84 91l-91 -91h-60z" />
    <glyph glyph-name="Scedilla" unicode="&#x15e;" horiz-adv-x="582" 
d="M286 -6c-16 0 -34.167 0.496094 -54.5 1.49609s-41 2.5 -62 4.5s-41 4 -60 6s-35.167 4.66699 -48.5 8v78c17.333 -1.33301 38.166 -2.66602 62.499 -3.99902s50.333 -2.33301 78 -3s54.5 -1 80.5 -1c28.667 0 54.167 2.66699 76.5 8s40 15.333 53 30
s19.5 35.334 19.5 62.001v43c0 30 -8.16699 53 -24.5 69s-41.166 24 -74.499 24h-75c-64 0 -113.5 14 -148.5 42s-52.5 76 -52.5 144v40c0 70.667 19.167 121.167 57.5 151.5s92.833 45.5 163.5 45.5c23.333 0 48.333 -1.16699 75 -3.5s52.667 -5.16602 78 -8.49902
s46.333 -6.66602 63 -9.99902v-78l-100.5 6.5c-37 2.33301 -71.833 3.5 -104.5 3.5c-28 0 -52.167 -3.16699 -72.5 -9.5s-36 -17.5 -47 -33.5s-16.5 -38.667 -16.5 -68v-30c0 -36 9.66699 -61 29 -75s46.333 -21 81 -21h81c42 0 76.5 -7.66699 103.5 -23
s47.167 -36.333 60.5 -63s20 -57 20 -91v-52c0 -52 -10.667 -92 -32 -120s-50 -47.167 -86 -57.5s-77 -15.5 -123 -15.5zM214 -192.004v40.998l21 3c16.667 1.33301 29.334 5.33301 38.001 12s13 16.334 13 29.001c0 10.667 -3.83301 19.834 -11.5 27.501
s-23.834 12.5 -48.501 14.5l42 12c26.667 0 47.167 -5.33301 61.5 -16s21.5 -27 21.5 -49c0 -23.333 -8.5 -41.5 -25.5 -54.5s-41.5 -19.5 -73.5 -19.5h-38zM226 -65.0059l52 80h46l-51 -80h-47z" />
    <glyph glyph-name="scedilla" unicode="&#x15f;" horiz-adv-x="501" 
d="M257 -6c-14 0 -30.667 0.333008 -50 1s-39.166 1.83398 -59.499 3.50098s-39 3.5 -56 5.5s-30.5 4.33301 -40.5 7v60h225c19.333 0 36 1.5 50 4.5s24.833 9.5 32.5 19.5s11.5 24.667 11.5 44v22c0 20 -6.66699 35.667 -20 47s-35.333 17 -66 17h-78
c-31.333 0 -59.166 4.16699 -83.499 12.5s-43.333 22.5 -57 42.5s-20.5 47 -20.5 81v29c0 34 6.5 62 19.5 84s33.833 38.5 62.5 49.5s66.667 16.5 114 16.5c20 0 42.167 -0.833008 66.5 -2.5s48.166 -3.83398 71.499 -6.50098s42 -5.66699 56 -9v-60h-212
c-29.333 0 -51.833 -5 -67.5 -15s-23.5 -29 -23.5 -57v-20c0 -17.333 3.66699 -30.666 11 -39.999s17.833 -15.333 31.5 -18s29.834 -4 48.501 -4h80c50.667 0 89 -11.833 115 -35.5s39 -56.834 39 -99.501v-41c0 -36 -8.33301 -64 -25 -84s-39.834 -34 -69.501 -42
s-64.834 -12 -105.501 -12zM171 -192v40.998l21 3c16.667 1.33301 29.334 5.33301 38.001 12s13 16.334 13 29.001c0 10.667 -3.83301 19.834 -11.5 27.501s-23.834 12.5 -48.501 14.5l42 12c26.667 0 47.167 -5.33301 61.5 -16s21.5 -27 21.5 -49
c0 -23.333 -8.5 -41.5 -25.5 -54.5s-41.5 -19.5 -73.5 -19.5h-38zM183 -65.002l52 80h46l-51 -80h-47z" />
    <glyph glyph-name="Scaron" unicode="&#x160;" horiz-adv-x="582" 
d="M286 -6c-16 0 -34.167 0.496094 -54.5 1.49609s-41 2.5 -62 4.5s-41 4 -60 6s-35.167 4.66699 -48.5 8v78c17.333 -1.33301 38.166 -2.66602 62.499 -3.99902s50.333 -2.33301 78 -3s54.5 -1 80.5 -1c28.667 0 54.167 2.66699 76.5 8s40 15.333 53 30
s19.5 35.334 19.5 62.001v43c0 30 -8.16699 53 -24.5 69s-41.166 24 -74.499 24h-75c-64 0 -113.5 14 -148.5 42s-52.5 76 -52.5 144v40c0 70.667 19.167 121.167 57.5 151.5s92.833 45.5 163.5 45.5c23.333 0 48.333 -1.16699 75 -3.5s52.667 -5.16602 78 -8.49902
s46.333 -6.66602 63 -9.99902v-78l-100.5 6.5c-37 2.33301 -71.833 3.5 -104.5 3.5c-28 0 -52.167 -3.16699 -72.5 -9.5s-36 -17.5 -47 -33.5s-16.5 -38.667 -16.5 -68v-30c0 -36 9.66699 -61 29 -75s46.333 -21 81 -21h81c42 0 76.5 -7.66699 103.5 -23
s47.167 -36.333 60.5 -63s20 -57 20 -91v-52c0 -52 -10.667 -92 -32 -120s-50 -47.167 -86 -57.5s-77 -15.5 -123 -15.5zM249 790.996l-107 137h60l83 -90l91 90h61l-118 -137h-70z" />
    <glyph glyph-name="scaron" unicode="&#x161;" horiz-adv-x="501" 
d="M257 -6c-14 0 -30.667 0.333008 -50 1s-39.166 1.83398 -59.499 3.50098s-39 3.5 -56 5.5s-30.5 4.33301 -40.5 7v60h225c19.333 0 36 1.5 50 4.5s24.833 9.5 32.5 19.5s11.5 24.667 11.5 44v22c0 20 -6.66699 35.667 -20 47s-35.333 17 -66 17h-78
c-31.333 0 -59.166 4.16699 -83.499 12.5s-43.333 22.5 -57 42.5s-20.5 47 -20.5 81v29c0 34 6.5 62 19.5 84s33.833 38.5 62.5 49.5s66.667 16.5 114 16.5c20 0 42.167 -0.833008 66.5 -2.5s48.166 -3.83398 71.499 -6.50098s42 -5.66699 56 -9v-60h-212
c-29.333 0 -51.833 -5 -67.5 -15s-23.5 -29 -23.5 -57v-20c0 -17.333 3.66699 -30.666 11 -39.999s17.833 -15.333 31.5 -18s29.834 -4 48.501 -4h80c50.667 0 89 -11.833 115 -35.5s39 -56.834 39 -99.501v-41c0 -36 -8.33301 -64 -25 -84s-39.834 -34 -69.501 -42
s-64.834 -12 -105.501 -12zM206 631l-107 137h60l83 -90l91 90h61l-118 -137h-70z" />
    <glyph glyph-name="uni0162" unicode="&#x162;" horiz-adv-x="573" 
d="M236 0v647h-220v90h541v-90h-220v-647h-101zM215 -192v40.998l21 3c16.667 1.33301 29.334 5.33301 38.001 12s13 16.334 13 29.001c0 10.667 -3.83301 19.834 -11.5 27.501s-23.834 12.5 -48.501 14.5l42 12c26.667 0 47.167 -5.33301 61.5 -16s21.5 -27 21.5 -49
c0 -23.333 -8.5 -41.5 -25.5 -54.5s-41.5 -19.5 -73.5 -19.5h-38zM227 -65.002l52 80h46l-51 -80h-47z" />
    <glyph glyph-name="uni0163" unicode="&#x163;" horiz-adv-x="374" 
d="M255 0c-36 0 -65.833 5.83496 -89.5 17.502s-41 30.5 -52 56.5s-16.167 60.667 -15.5 104l4 275h-85v65l87 17l15 150h79v-150h145v-82h-145v-274c0 -20.667 2 -37.334 6 -50.001s9.66699 -22.334 17 -29.001s15.333 -11.5 24 -14.5s17 -4.83301 25 -5.5l66 -6v-74h-81z
M127 -191.998v40.998l21 3c16.667 1.33301 29.334 5.33301 38.001 12s13 16.334 13 29.001c0 10.667 -3.83301 19.834 -11.5 27.501s-23.834 12.5 -48.501 14.5l42 12c26.667 0 47.167 -5.33301 61.5 -16s21.5 -27 21.5 -49c0 -23.333 -8.5 -41.5 -25.5 -54.5
s-41.5 -19.5 -73.5 -19.5h-38zM139 -65l52 80h46l-51 -80h-47z" />
    <glyph glyph-name="Tcaron" unicode="&#x164;" horiz-adv-x="573" 
d="M236 0v647h-220v90h541v-90h-220v-647h-101zM250 791l-107 137h60l83 -90l91 90h61l-118 -137h-70z" />
    <glyph glyph-name="tcaron" unicode="&#x165;" horiz-adv-x="374" 
d="M255 0c-36 0 -65.833 5.83496 -89.5 17.502s-41 30.5 -52 56.5s-16.167 60.667 -15.5 104l4 275h-85v65l87 17l15 150h79v-150h145v-82h-145v-274c0 -20.667 2 -37.334 6 -50.001s9.66699 -22.334 17 -29.001s15.333 -11.5 24 -14.5s17 -4.83301 25 -5.5l66 -6v-74h-81z
M267 582.002l-7 139v62h92v-62l-7 -139h-78z" />
    <glyph glyph-name="Tbar" unicode="&#x166;" horiz-adv-x="573" 
d="M60 359v55h452v-55h-452zM236 0v647h-220v90h541v-90h-220v-647h-101z" />
    <glyph glyph-name="tbar" unicode="&#x167;" horiz-adv-x="374" 
d="M17 286v42h315v-42h-315zM255 0c-36 0 -65.833 5.83496 -89.5 17.502s-41 30.5 -52 56.5s-16.167 60.667 -15.5 104l4 275h-85v65l87 17l15 150h79v-150h145v-82h-145v-274c0 -20.667 2 -37.334 6 -50.001s9.66699 -22.334 17 -29.001s15.333 -11.5 24 -14.5
s17 -4.83301 25 -5.5l66 -6v-74h-81z" />
    <glyph glyph-name="Utilde" unicode="&#x168;" horiz-adv-x="679" 
d="M339 -6c-40.667 0 -78 3.66699 -112 11s-63.333 19.833 -88 37.5s-43.5 41.834 -56.5 72.501s-19.5 69.334 -19.5 116.001v506h101v-505c0 -38 6.83301 -67.5 20.5 -88.5s33.667 -36 60 -45s57.833 -13.5 94.5 -13.5c37.333 0 69.166 4.5 95.499 13.5s46.333 24 60 45
s20.5 50.5 20.5 88.5v505h101v-506c0 -46.667 -6.66699 -85.334 -20 -116.001s-32.166 -54.834 -56.499 -72.501s-53.5 -30.167 -87.5 -37.5s-71.667 -11 -113 -11zM158 801c1.33301 28.667 6.66504 51.166 15.998 67.499s21.333 28.166 36 35.499s30 11 46 11
c16.667 0 31.667 -2.83301 45 -8.5s26 -12.167 38 -19.5s23.5 -13.833 34.5 -19.5s22.833 -8.5 35.5 -8.5c16 0 29.167 5 39.5 15s15.5 25 15.5 45h51c-1.33301 -38 -10.5 -67 -27.5 -87s-40.833 -30 -71.5 -30c-15.333 0 -29.666 2.83301 -42.999 8.5
s-26.166 12.334 -38.499 20.001s-24.333 14.334 -36 20.001s-23.5 8.5 -35.5 8.5c-14.667 0 -27.167 -4.83301 -37.5 -14.5s-15.833 -24.167 -16.5 -43.5h-51z" />
    <glyph glyph-name="utilde" unicode="&#x169;" 
d="M227 -6c-50 0 -88.8301 13.501 -116.497 40.501s-41.5 68.167 -41.5 123.5v377h100v-350c0 -40 9.16699 -67 27.5 -81s44.166 -21 77.499 -21c26.667 0 52.167 4.16699 76.5 12.5s48.166 19.833 71.499 34.5v405h100v-535h-80l-20 57
c-26 -16.667 -55.833 -31.334 -89.5 -44.001s-68.834 -19 -105.501 -19zM119.003 641.001c1.33301 28.667 6.66504 51.166 15.998 67.499s21.333 28.166 36 35.499s30 11 46 11c16.667 0 31.667 -2.83301 45 -8.5s26 -12.167 38 -19.5s23.5 -13.833 34.5 -19.5
s22.833 -8.5 35.5 -8.5c16 0 29.167 5 39.5 15s15.5 25 15.5 45h51c-1.33301 -38 -10.5 -67 -27.5 -87s-40.833 -30 -71.5 -30c-15.333 0 -29.666 2.83301 -42.999 8.5s-26.166 12.334 -38.499 20.001s-24.333 14.334 -36 20.001s-23.5 8.5 -35.5 8.5
c-14.667 0 -27.167 -4.83301 -37.5 -14.5s-15.833 -24.167 -16.5 -43.5h-51z" />
    <glyph glyph-name="Umacron" unicode="&#x16a;" horiz-adv-x="679" 
d="M339 -6c-40.667 0 -78 3.66699 -112 11s-63.333 19.833 -88 37.5s-43.5 41.834 -56.5 72.501s-19.5 69.334 -19.5 116.001v506h101v-505c0 -38 6.83301 -67.5 20.5 -88.5s33.667 -36 60 -45s57.833 -13.5 94.5 -13.5c37.333 0 69.166 4.5 95.499 13.5s46.333 24 60 45
s20.5 50.5 20.5 88.5v505h101v-506c0 -46.667 -6.66699 -85.334 -20 -116.001s-32.166 -54.834 -56.499 -72.501s-53.5 -30.167 -87.5 -37.5s-71.667 -11 -113 -11zM193 824v60h270v-60h-270z" />
    <glyph glyph-name="umacron" unicode="&#x16b;" 
d="M227 -6c-50 0 -88.8301 13.501 -116.497 40.501s-41.5 68.167 -41.5 123.5v377h100v-350c0 -40 9.16699 -67 27.5 -81s44.166 -21 77.499 -21c26.667 0 52.167 4.16699 76.5 12.5s48.166 19.833 71.499 34.5v405h100v-535h-80l-20 57
c-26 -16.667 -55.833 -31.334 -89.5 -44.001s-68.834 -19 -105.501 -19zM150.003 664.001v60h270v-60h-270z" />
    <glyph glyph-name="Ubreve" unicode="&#x16c;" horiz-adv-x="679" 
d="M339 -6c-40.667 0 -78 3.66699 -112 11s-63.333 19.833 -88 37.5s-43.5 41.834 -56.5 72.501s-19.5 69.334 -19.5 116.001v506h101v-505c0 -38 6.83301 -67.5 20.5 -88.5s33.667 -36 60 -45s57.833 -13.5 94.5 -13.5c37.333 0 69.166 4.5 95.499 13.5s46.333 24 60 45
s20.5 50.5 20.5 88.5v505h101v-506c0 -46.667 -6.66699 -85.334 -20 -116.001s-32.166 -54.834 -56.499 -72.501s-53.5 -30.167 -87.5 -37.5s-71.667 -11 -113 -11zM327 787c-24.667 0 -47.167 4.83398 -67.5 14.501s-36.333 25.167 -48 46.5s-17.5 49.333 -17.5 84h48
c0 -36.667 8.66699 -62.334 26 -77.001s37 -21.667 59 -21c26 0.666992 47 8 63 22s24 39.333 24 76h49c0 -36 -6 -64.5 -18 -85.5s-28.167 -36.167 -48.5 -45.5s-43.5 -14 -69.5 -14z" />
    <glyph glyph-name="ubreve" unicode="&#x16d;" 
d="M227 -6c-50 0 -88.8301 13.501 -116.497 40.501s-41.5 68.167 -41.5 123.5v377h100v-350c0 -40 9.16699 -67 27.5 -81s44.166 -21 77.499 -21c26.667 0 52.167 4.16699 76.5 12.5s48.166 19.833 71.499 34.5v405h100v-535h-80l-20 57
c-26 -16.667 -55.833 -31.334 -89.5 -44.001s-68.834 -19 -105.501 -19zM281.003 627.001c-24.667 0 -47.167 4.83398 -67.5 14.501s-36.333 25.167 -48 46.5s-17.5 49.333 -17.5 84h48c0 -36.667 8.66699 -62.334 26 -77.001s37 -21.667 59 -21c26 0.666992 47 8 63 22
s24 39.333 24 76h49c0 -36 -6 -64.5 -18 -85.5s-28.167 -36.167 -48.5 -45.5s-43.5 -14 -69.5 -14z" />
    <glyph glyph-name="Uring" unicode="&#x16e;" horiz-adv-x="679" 
d="M339 -6c-40.667 0 -78 3.66699 -112 11s-63.333 19.833 -88 37.5s-43.5 41.834 -56.5 72.501s-19.5 69.334 -19.5 116.001v506h101v-505c0 -38 6.83301 -67.5 20.5 -88.5s33.667 -36 60 -45s57.833 -13.5 94.5 -13.5c37.333 0 69.166 4.5 95.499 13.5s46.333 24 60 45
s20.5 50.5 20.5 88.5v505h101v-506c0 -46.667 -6.66699 -85.334 -20 -116.001s-32.166 -54.834 -56.499 -72.501s-53.5 -30.167 -87.5 -37.5s-71.667 -11 -113 -11zM334 765c-36.667 0 -65 7.83301 -85 23.5s-30 44.167 -30 85.5c0 40.667 10 69.167 30 85.5
s48.333 24.5 85 24.5c38 0 66.5 -8 85.5 -24s28.5 -44.667 28.5 -86s-9.5 -69.833 -28.5 -85.5s-47.5 -23.5 -85.5 -23.5zM335 805c22.667 0 39.167 4.83301 49.5 14.5s15.5 27.834 15.5 54.501s-5.16699 45 -15.5 55s-26.833 15 -49.5 15s-39.667 -5 -51 -15
s-17 -28.333 -17 -55s5.66699 -44.834 17 -54.501s28.333 -14.5 51 -14.5z" />
    <glyph glyph-name="uring" unicode="&#x16f;" 
d="M227 -6c-50 0 -88.8301 13.501 -116.497 40.501s-41.5 68.167 -41.5 123.5v377h100v-350c0 -40 9.16699 -67 27.5 -81s44.166 -21 77.499 -21c26.667 0 52.167 4.16699 76.5 12.5s48.166 19.833 71.499 34.5v405h100v-535h-80l-20 57
c-26 -16.667 -55.833 -31.334 -89.5 -44.001s-68.834 -19 -105.501 -19zM288.003 591.001c-36.667 0 -65 7.83301 -85 23.5s-30 44.167 -30 85.5c0 40.667 10 69.167 30 85.5s48.333 24.5 85 24.5c38 0 66.5 -8 85.5 -24s28.5 -44.667 28.5 -86s-9.5 -69.833 -28.5 -85.5
s-47.5 -23.5 -85.5 -23.5zM289.003 631.001c22.667 0 39.167 4.83301 49.5 14.5s15.5 27.834 15.5 54.501s-5.16699 45 -15.5 55s-26.833 15 -49.5 15s-39.667 -5 -51 -15s-17 -28.333 -17 -55s5.66699 -44.834 17 -54.501s28.333 -14.5 51 -14.5z" />
    <glyph glyph-name="Uhungarumlaut" unicode="&#x170;" horiz-adv-x="679" 
d="M339 -6c-40.667 0 -78 3.66699 -112 11s-63.333 19.833 -88 37.5s-43.5 41.834 -56.5 72.501s-19.5 69.334 -19.5 116.001v506h101v-505c0 -38 6.83301 -67.5 20.5 -88.5s33.667 -36 60 -45s57.833 -13.5 94.5 -13.5c37.333 0 69.166 4.5 95.499 13.5s46.333 24 60 45
s20.5 50.5 20.5 88.5v505h101v-506c0 -46.667 -6.66699 -85.334 -20 -116.001s-32.166 -54.834 -56.499 -72.501s-53.5 -30.167 -87.5 -37.5s-71.667 -11 -113 -11zM363 791l93 138h79l-113 -138h-59zM209 791l92 138h80l-113 -138h-59z" />
    <glyph glyph-name="uhungarumlaut" unicode="&#x171;" 
d="M227 -6c-50 0 -88.8301 13.501 -116.497 40.501s-41.5 68.167 -41.5 123.5v377h100v-350c0 -40 9.16699 -67 27.5 -81s44.166 -21 77.499 -21c26.667 0 52.167 4.16699 76.5 12.5s48.166 19.833 71.499 34.5v405h100v-535h-80l-20 57
c-26 -16.667 -55.833 -31.334 -89.5 -44.001s-68.834 -19 -105.501 -19zM317.003 631.001l93 138h79l-113 -138h-59zM163.003 631.001l92 138h80l-113 -138h-59z" />
    <glyph glyph-name="Uogonek" unicode="&#x172;" horiz-adv-x="679" 
d="M339 -6c-40.667 0 -78 3.66699 -112 11s-63.333 19.833 -88 37.5s-43.5 41.834 -56.5 72.501s-19.5 69.334 -19.5 116.001v506h101v-505c0 -38 6.83301 -67.5 20.5 -88.5s33.667 -36 60 -45s57.833 -13.5 94.5 -13.5c37.333 0 69.166 4.5 95.499 13.5s46.333 24 60 45
s20.5 50.5 20.5 88.5v505h101v-506c0 -46.667 -6.66699 -85.334 -20 -116.001s-32.166 -54.834 -56.499 -72.501s-53.5 -30.167 -87.5 -37.5s-71.667 -11 -113 -11zM420 -188c-23.333 0 -42.998 4.00195 -58.998 12.002s-27.833 18.833 -35.5 32.5s-11.5 28.5 -11.5 44.5
c0 20.667 6.16699 39.5 18.5 56.5s30.166 31.167 53.499 42.5h38c-20 -11.333 -34.833 -23.333 -44.5 -36s-14.5 -26.334 -14.5 -41.001c0 -18.667 6.66699 -33.334 20 -44.001s31.666 -16 54.999 -16h8v-49c-4 -0.666992 -8.33301 -1.16699 -13 -1.5
s-9.66699 -0.5 -15 -0.5z" />
    <glyph glyph-name="uogonek" unicode="&#x173;" 
d="M227 -6c-50 0 -88.8301 13.501 -116.497 40.501s-41.5 68.167 -41.5 123.5v377h100v-350c0 -40 9.16699 -67 27.5 -81s44.166 -21 77.499 -21c26.667 0 52.167 4.16699 76.5 12.5s48.166 19.833 71.499 34.5v405h100v-535h-80l-20 57
c-26 -16.667 -55.833 -31.334 -89.5 -44.001s-68.834 -19 -105.501 -19zM518.003 -187.999c-23.333 0 -42.998 4.00195 -58.998 12.002s-27.833 18.833 -35.5 32.5s-11.5 28.5 -11.5 44.5c0 20.667 6.16699 39.5 18.5 56.5s30.166 31.167 53.499 42.5h38
c-20 -11.333 -34.833 -23.333 -44.5 -36s-14.5 -26.334 -14.5 -41.001c0 -18.667 6.66699 -33.334 20 -44.001s31.666 -16 54.999 -16h8v-49c-4 -0.666992 -8.33301 -1.16699 -13 -1.5s-9.66699 -0.5 -15 -0.5z" />
    <glyph glyph-name="Wcircumflex" unicode="&#x174;" horiz-adv-x="991" 
d="M214 0l-185 737h104l146 -594l168 594h98l167 -594l147 594h103l-185 -737h-106l-175 594l-176 -594h-106zM361 791l118 137h70l107 -137h-60l-84 91l-91 -91h-60z" />
    <glyph glyph-name="wcircumflex" unicode="&#x175;" horiz-adv-x="806" 
d="M173 0l-156 535h103l117 -442l126 442h85l126 -442l112 442h103l-154 -535h-111l-120 397l-122 -397h-109zM258 631l118 137h70l107 -137h-60l-84 91l-91 -91h-60z" />
    <glyph glyph-name="Ycircumflex" unicode="&#x176;" horiz-adv-x="621" 
d="M260 0v238l-230 499h105l177 -397l178 397h101l-230 -499v-238h-101zM162 791l118 137h70l107 -137h-60l-84 91l-91 -91h-60z" />
    <glyph glyph-name="ycircumflex" unicode="&#x177;" horiz-adv-x="550" 
d="M221 -237l64.998 237.001c-21.333 0.666992 -41.666 5.16699 -60.999 13.5s-36.5 22 -51.5 41s-27.167 44.5 -36.5 76.5l-120 404h105l108 -383c6 -18 12.833 -31.667 20.5 -41s15.334 -15.833 23.001 -19.5s14.5 -5.83398 20.5 -6.50098s9.66699 -1 11 -1l125 451h103
l-184 -673l-48 -99h-80zM118.998 631.001l118 137h70l107 -137h-60l-84 91l-91 -91h-60z" />
    <glyph glyph-name="Ydieresis" unicode="&#x178;" horiz-adv-x="621" 
d="M260 0v238l-230 499h105l177 -397l178 397h101l-230 -499v-238h-101zM396 808c-12 0 -18 5.66602 -18 16.999v84c0 12 6 18 18 18h46c6 0 10.333 -1.66699 13 -5s4 -7.66602 4 -12.999v-84c0 -11.333 -5.66699 -17 -17 -17h-46zM167 807.999
c-11.333 0 -17 5.66602 -17 16.999v84c0 12 5.66699 18 17 18h47c5.33301 0 9.5 -1.66699 12.5 -5s4.5 -7.66602 4.5 -12.999v-84c0 -11.333 -5.66699 -17 -17 -17h-47z" />
    <glyph glyph-name="Zacute" unicode="&#x179;" horiz-adv-x="564" 
d="M42 0v81l363 566h-363v90h485v-81l-363 -566h363v-90h-485zM255 791l97 138h84l-122 -138h-59z" />
    <glyph glyph-name="zacute" unicode="&#x17a;" horiz-adv-x="498" 
d="M49 0v74l291 379h-299v82h416v-75l-292 -379h292v-81h-408zM203 631l97 138h84l-122 -138h-59z" />
    <glyph glyph-name="Zdotaccent" unicode="&#x17b;" horiz-adv-x="564" 
d="M42 0v81l363 566h-363v90h485v-81l-363 -566h363v-90h-485zM255 815c-11.333 0 -17 5.66602 -17 16.999v84c0 12 5.66699 18 17 18h47c5.33301 0 9.5 -1.66699 12.5 -5s4.5 -7.66602 4.5 -12.999v-84c0 -11.333 -5.66699 -17 -17 -17h-47z" />
    <glyph glyph-name="zdotaccent" unicode="&#x17c;" horiz-adv-x="498" 
d="M49 0v74l291 379h-299v82h416v-75l-292 -379h292v-81h-408zM214 655c-11.333 0 -17 5.66602 -17 16.999v84c0 12 5.66699 18 17 18h47c5.33301 0 9.5 -1.66699 12.5 -5s4.5 -7.66602 4.5 -12.999v-84c0 -11.333 -5.66699 -17 -17 -17h-47z" />
    <glyph glyph-name="Zcaron" unicode="&#x17d;" horiz-adv-x="564" 
d="M42 0v81l363 566h-363v90h485v-81l-363 -566h363v-90h-485zM244 791l-107 137h60l83 -90l91 90h61l-118 -137h-70z" />
    <glyph glyph-name="zcaron" unicode="&#x17e;" horiz-adv-x="498" 
d="M49 0v74l291 379h-299v82h416v-75l-292 -379h292v-81h-408zM203 631l-107 137h60l83 -90l91 90h61l-118 -137h-70z" />
    <glyph glyph-name="uni018F" unicode="&#x18f;" horiz-adv-x="615" 
d="M302 -6c-54 0 -99.501 11.001 -136.501 33.001s-64.833 57.667 -83.5 107s-28 115 -28 197v69h405c-0.666992 52 -4.83398 94.333 -12.501 127s-19.834 58.167 -36.501 76.5s-38.667 31.166 -66 38.499s-60.666 11 -99.999 11c-40.667 0 -73.667 -1.5 -99 -4.5
s-45.666 -5.5 -60.999 -7.5v77c21.333 6.66699 47.333 12.5 78 17.5s67.334 7.5 110.001 7.5c47.333 0 88.833 -4.83301 124.5 -14.5s65.834 -27.5 90.501 -53.5s43.167 -63 55.5 -111s18.5 -110.333 18.5 -187c0 -77.333 -6.16699 -141 -18.5 -191s-30 -89 -53 -117
s-50.333 -47.5 -82 -58.5s-66.834 -16.5 -105.501 -16.5zM300.999 84.001c24 0 45.332 3.5 63.999 10.5s34.667 19.167 48 36.5s23.833 41.166 31.5 71.499s11.834 69.166 12.501 116.499h-302c0.666992 -57.333 5.5 -103.166 14.5 -137.499s24.167 -59.166 45.5 -74.499
s50 -23 86 -23z" />
    <glyph glyph-name="florin" unicode="&#x192;" horiz-adv-x="609" 
d="M116 -204c-20 0 -38.832 1.50098 -56.499 4.50098s-31.167 6.5 -40.5 10.5l11 62h59c22.667 0 41.667 5.83301 57 17.5s28.333 31.667 39 60s19.667 66.5 27 114.5l54 328h-91l11 73h89l23 124c7.33301 46 17.833 84.5 31.5 115.5s32.167 54.333 55.5 70
s53.666 23.5 90.999 23.5c29.333 0 51.833 -1.83301 67.5 -5.5s27.167 -6.83398 34.5 -9.50098l-10 -62h-60c-24 0 -43.333 -5.33301 -58 -16s-26.167 -27.167 -34.5 -49.5s-15.5 -51.833 -21.5 -88.5l-18 -102h122l-12 -73h-119l-51 -305
c-10.667 -67.333 -24 -122.5 -40 -165.5s-36.667 -74.833 -62 -95.5s-58 -31 -98 -31z" />
    <glyph glyph-name="Ohorn" unicode="&#x1a0;" horiz-adv-x="690" 
d="M377 681l0.00195312 56h125c23.333 0 42 8.16699 56 24.5s21 45.5 21 87.5h71c0 -40 -5.83301 -72.333 -17.5 -97s-27.334 -42.667 -47.001 -54s-41.834 -17 -66.501 -17h-142zM345.002 -6c-48 0 -90.168 4.66699 -126.501 14s-66.666 26.666 -90.999 51.999
s-42.5 62.666 -54.5 111.999s-18 114 -18 194s6 144.833 18 194.5s30.333 87.667 55 114s55 44.333 91 54s78 14.5 126 14.5c49.333 0 92.166 -4.83301 128.499 -14.5s66.5 -27.667 90.5 -54s42 -64.333 54 -114s18 -114.5 18 -194.5s-6 -144.667 -18 -194
s-30.167 -86.666 -54.5 -111.999s-54.666 -42.666 -90.999 -51.999s-78.833 -14 -127.5 -14zM345.001 84c34.667 0 64.168 3.66699 88.501 11s44 20.833 59 40.5s25.833 48 32.5 85s10 85.5 10 145.5c0 63.333 -3.5 114 -10.5 152s-17.833 66.667 -32.5 86
s-34.167 32.333 -58.5 39s-53.833 10 -88.5 10c-32.667 0 -61 -3.33301 -85 -10s-43.667 -19.667 -59 -39s-26.833 -48 -34.5 -86s-11.5 -88.667 -11.5 -152c0 -60 3.16699 -108.5 9.5 -145.5s17 -65.333 32 -85s34.667 -33.167 59 -40.5s54.166 -11 89.499 -11z" />
    <glyph glyph-name="ohorn" unicode="&#x1a1;" horiz-adv-x="576" 
d="M288 -6c-40.667 0 -75.832 4.33496 -105.499 13.002s-54.167 23.167 -73.5 43.5s-33.666 48.166 -42.999 83.499s-14 80 -14 134c0 56 4.66699 101.833 14 137.5s23.666 63.5 42.999 83.5s44 33.833 74 41.5s65 11.5 105 11.5s75 -4 105 -12s54.667 -22 74 -42
s33.666 -47.833 42.999 -83.5s14 -81.167 14 -136.5c0 -54.667 -4.66699 -99.834 -14 -135.501s-23.5 -63.5 -42.5 -83.5s-43.5 -34.167 -73.5 -42.5s-65.333 -12.5 -106 -12.5zM288.002 76.002c22 0 41.5 2 58.5 6s31.167 12.5 42.5 25.5s20 32.5 26 58.5s9 60.333 9 103
s-3 76.834 -9 102.501s-14.667 44.834 -26 57.501s-25.5 21.167 -42.5 25.5s-36.5 6.5 -58.5 6.5c-22.667 0 -42.5 -2.16699 -59.5 -6.5s-31 -12.833 -42 -25.5s-19.333 -31.834 -25 -57.501s-8.5 -59.834 -8.5 -102.501s2.83301 -77 8.5 -103s14 -45.5 25 -58.5
s25 -21.5 42 -25.5s36.833 -6 59.5 -6zM319.002 479.002l0.00195312 56h89c23.333 0 41.833 8.16699 55.5 24.5s20.5 45.5 20.5 87.5h72c0 -40 -5.83301 -72.333 -17.5 -97s-27.334 -42.667 -47.001 -54s-41.834 -17 -66.501 -17h-106z" />
    <glyph glyph-name="Uhorn" unicode="&#x1af;" horiz-adv-x="679" 
d="M526 681l0.00195312 56h36c23.333 0 42 8.16699 56 24.5s21 45.5 21 87.5h71c0 -40 -5.83301 -72.333 -17.5 -97s-27.334 -42.667 -47.001 -54s-41.834 -17 -66.501 -17h-53zM339.002 -6c-40.667 0 -78 3.66699 -112 11s-63.333 19.833 -88 37.5
s-43.5 41.834 -56.5 72.501s-19.5 69.334 -19.5 116.001v506h101v-505c0 -38 6.83301 -67.5 20.5 -88.5s33.667 -36 60 -45s57.833 -13.5 94.5 -13.5c37.333 0 69.166 4.5 95.499 13.5s46.333 24 60 45s20.5 50.5 20.5 88.5v505h101v-506
c0 -46.667 -6.66699 -85.334 -20 -116.001s-32.166 -54.834 -56.499 -72.501s-53.5 -30.167 -87.5 -37.5s-71.667 -11 -113 -11z" />
    <glyph glyph-name="uhorn" unicode="&#x1b0;" 
d="M439 479l0.00195312 56h28c23.333 0 42 8.16699 56 24.5s21 45.5 21 87.5h71c0 -40 -5.83301 -72.333 -17.5 -97s-27.334 -42.667 -47.001 -54s-41.834 -17 -66.501 -17h-45zM227.002 -6c-50 0 -88.8301 13.501 -116.497 40.501s-41.5 68.167 -41.5 123.5v377h100v-350
c0 -40 9.16699 -67 27.5 -81s44.166 -21 77.499 -21c26.667 0 52.167 4.16699 76.5 12.5s48.166 19.833 71.499 34.5v405h100v-535h-80l-20 57c-26 -16.667 -55.833 -31.334 -89.5 -44.001s-68.834 -19 -105.501 -19z" />
    <glyph glyph-name="Gcaron" unicode="&#x1e6;" horiz-adv-x="657" 
d="M289 -5c-46.667 -0.666992 -85.167 7 -115.5 23s-54.166 39.667 -71.499 71s-29.5 70.5 -36.5 117.5s-10.5 101.5 -10.5 163.5c0 61.333 3.83301 115.333 11.5 162s20.834 85.667 39.501 117s44.834 54.833 78.501 70.5s75.834 23.5 126.501 23.5c28.667 0 57 -1 85 -3
s55.167 -5.16699 81.5 -9.5s51.166 -9.16602 74.499 -14.499v-77c-13.333 2 -32 4 -56 6s-50.5 3.83301 -79.5 5.5s-58.5 2.5 -88.5 2.5c-46.667 0 -82.334 -9.16699 -107.001 -27.5s-41.834 -48.333 -51.501 -90s-14.5 -97.167 -14.5 -166.5
c0 -55.333 2.66699 -101.166 8 -137.499s14 -65 26 -86s28.5 -36 49.5 -45s47.5 -13.5 79.5 -13.5c30.667 0 61.167 3.66699 91.5 11s56.166 14.666 77.499 21.999v195h-164v77c13.333 2 29.166 3.66699 47.499 5s37.666 2.5 57.999 3.5s40.833 1.5 61.5 1.5
c18.667 0 35.834 -0.333008 51.501 -1s29.834 -1.66699 42.501 -3v-398h-75l-15 51c-22 -11.333 -51.333 -23.333 -88 -36s-75.667 -19.334 -117 -20.001zM291 791l-107 137h60l83 -90l91 90h61l-118 -137h-70z" />
    <glyph glyph-name="gcaron" unicode="&#x1e7;" horiz-adv-x="578" 
d="M203 -246c-34 0 -64.1699 4.83008 -90.5029 14.4971s-47.166 24.334 -62.499 44.001s-23 43.834 -23 72.501v22c0 30 8.5 55.167 25.5 75.5s38.5 35.833 64.5 46.5s53 16 81 16l27 -37c-18 0 -34.833 -2.83301 -50.5 -8.5s-28.334 -14.667 -38.001 -27
s-14.5 -28.166 -14.5 -47.499v-19c0 -28 9.5 -48.333 28.5 -61s45.167 -19 78.5 -19h117c35.333 0 63.333 6.83301 84 20.5s31 34.834 31 63.501v19c0 16 -3.5 30 -10.5 42s-18.167 21.167 -33.5 27.5s-36.333 9.5 -63 9.5h-148c-47.333 0 -83.333 9.66699 -108 29
s-37 43.666 -37 72.999c0 26.667 7.83301 48.167 23.5 64.5s37.834 27.5 66.501 33.5c-24 10.667 -42.833 24.334 -56.5 41.001s-23.167 34.834 -28.5 54.501s-8 39.5 -8 59.5c0 40.667 8.33301 73.667 25 99s40.834 44 72.501 56s69.5 18 113.5 18h288v-57l-109 -11
c8 -6 16.667 -13.833 26 -23.5s17.333 -22.834 24 -39.501s10 -38.667 10 -66c0 -28.667 -6.16699 -55.334 -18.5 -80.001s-32.333 -44.667 -60 -60s-65.167 -23 -112.5 -23h-88c-25.333 0 -45.333 -3.66699 -60 -11s-22 -20.333 -22 -39c0 -15.333 5.66699 -26 17 -32
s23.333 -9 36 -9h169c40.667 0 74.834 -5.33301 102.501 -16s48.5 -27 62.5 -49s21 -50.667 21 -86v-19c0 -50.667 -16.5 -90.167 -49.5 -118.5s-82.833 -42.5 -149.5 -42.5h-153zM246.997 252.997l59 -0.00195312c30 0 52.833 4.5 68.5 13.5s26.5 20.833 32.5 35.5
s9 31 9 49c0 26.667 -4.33301 47.834 -13 63.501s-20.5 27 -35.5 34s-33.167 10.5 -54.5 10.5h-56c-34 0 -60.5 -7.66699 -79.5 -23s-28.5 -41.666 -28.5 -78.999c0 -36.667 8.66699 -63.167 26 -79.5s41.333 -24.5 72 -24.5zM252.997 630.995l-107 137h60l83 -90l91 90h61
l-118 -137h-70z" />
    <glyph glyph-name="uni01EA" unicode="&#x1ea;" horiz-adv-x="690" 
d="M345 -6c-48 0 -90.168 4.66699 -126.501 14s-66.666 26.666 -90.999 51.999s-42.5 62.666 -54.5 111.999s-18 114 -18 194s6 144.833 18 194.5s30.333 87.667 55 114s55 44.333 91 54s78 14.5 126 14.5c49.333 0 92.166 -4.83301 128.499 -14.5s66.5 -27.667 90.5 -54
s42 -64.333 54 -114s18 -114.5 18 -194.5s-6 -144.667 -18 -194s-30.167 -86.666 -54.5 -111.999s-54.666 -42.666 -90.999 -51.999s-78.833 -14 -127.5 -14zM344.999 84c34.667 0 64.168 3.66699 88.501 11s44 20.833 59 40.5s25.833 48 32.5 85s10 85.5 10 145.5
c0 63.333 -3.5 114 -10.5 152s-17.833 66.667 -32.5 86s-34.167 32.333 -58.5 39s-53.833 10 -88.5 10c-32.667 0 -61 -3.33301 -85 -10s-43.667 -19.667 -59 -39s-26.833 -48 -34.5 -86s-11.5 -88.667 -11.5 -152c0 -60 3.16699 -108.5 9.5 -145.5s17 -65.333 32 -85
s34.667 -33.167 59 -40.5s54.166 -11 89.499 -11zM414 -188c-23.333 0 -42.998 4.00195 -58.998 12.002s-27.833 18.833 -35.5 32.5s-11.5 28.5 -11.5 44.5c0 20.667 6.16699 39.5 18.5 56.5s30.166 31.167 53.499 42.5h38c-20 -11.333 -34.833 -23.333 -44.5 -36
s-14.5 -26.334 -14.5 -41.001c0 -18.667 6.66699 -33.334 20 -44.001s31.666 -16 54.999 -16h8v-49c-4 -0.666992 -8.33301 -1.16699 -13 -1.5s-9.66699 -0.5 -15 -0.5z" />
    <glyph glyph-name="uni01EB" unicode="&#x1eb;" horiz-adv-x="576" 
d="M288 -6c-40.667 0 -75.832 4.33496 -105.499 13.002s-54.167 23.167 -73.5 43.5s-33.666 48.166 -42.999 83.499s-14 80 -14 134c0 56 4.66699 101.833 14 137.5s23.666 63.5 42.999 83.5s44 33.833 74 41.5s65 11.5 105 11.5s75 -4 105 -12s54.667 -22 74 -42
s33.666 -47.833 42.999 -83.5s14 -81.167 14 -136.5c0 -54.667 -4.66699 -99.834 -14 -135.501s-23.5 -63.5 -42.5 -83.5s-43.5 -34.167 -73.5 -42.5s-65.333 -12.5 -106 -12.5zM288.002 76.002c22 0 41.5 2 58.5 6s31.167 12.5 42.5 25.5s20 32.5 26 58.5s9 60.333 9 103
s-3 76.834 -9 102.501s-14.667 44.834 -26 57.501s-25.5 21.167 -42.5 25.5s-36.5 6.5 -58.5 6.5c-22.667 0 -42.5 -2.16699 -59.5 -6.5s-31 -12.833 -42 -25.5s-19.333 -31.834 -25 -57.501s-8.5 -59.834 -8.5 -102.501s2.83301 -77 8.5 -103s14 -45.5 25 -58.5
s25 -21.5 42 -25.5s36.833 -6 59.5 -6zM339.002 -187.998c-23.333 0 -42.998 4.00195 -58.998 12.002s-27.833 18.833 -35.5 32.5s-11.5 28.5 -11.5 44.5c0 20.667 6.16699 39.5 18.5 56.5s30.166 31.167 53.499 42.5h38c-20 -11.333 -34.833 -23.333 -44.5 -36
s-14.5 -26.334 -14.5 -41.001c0 -18.667 6.66699 -33.334 20 -44.001s31.666 -16 54.999 -16h8v-49c-4 -0.666992 -8.33301 -1.16699 -13 -1.5s-9.66699 -0.5 -15 -0.5z" />
    <glyph glyph-name="Aringacute" unicode="&#x1fa;" horiz-adv-x="678" 
d="M29 0l246 737h128l246 -737h-105l-65 193h-282l-64 -193h-104zM221 284h233l-116 365zM338 765c-36.667 0 -65 7.83301 -85 23.5s-30 44.167 -30 85.5c0 40.667 10 69.167 30 85.5s48.333 24.5 85 24.5c38 0 66.5 -8 85.5 -24s28.5 -44.667 28.5 -86
s-9.5 -69.833 -28.5 -85.5s-47.5 -23.5 -85.5 -23.5zM339 805c22.667 0 39.167 4.83301 49.5 14.5s15.5 27.834 15.5 54.501s-5.16699 45 -15.5 55s-26.833 15 -49.5 15s-39.667 -5 -51 -15s-17 -28.333 -17 -55s5.66699 -44.834 17 -54.501s28.333 -14.5 51 -14.5zM313 970
l97 138h84l-122 -138h-59z" />
    <glyph glyph-name="aringacute" unicode="&#x1fb;" horiz-adv-x="546" 
d="M177 -6c-39.333 0 -71.8301 11.835 -97.4971 35.502s-38.5 56.5 -38.5 98.5v42c0 41.333 14.167 75.166 42.5 101.499s71.166 39.5 128.499 39.5h167v56c0 20.667 -3.5 38.167 -10.5 52.5s-19.833 25.166 -38.5 32.499s-46.334 11 -83.001 11h-164v59
c24 5.33301 52.167 10 84.5 14s70.166 6.33301 113.499 7c44 0 80.833 -5.5 110.5 -16.5s51.834 -29 66.501 -54s22 -58.167 22 -99.5v-373h-79l-17 59c-4 -2.66699 -12.333 -7.5 -25 -14.5s-28.834 -14.5 -48.501 -22.5s-41 -14.667 -64 -20s-46.167 -8 -69.5 -8z
M223.003 67.002c10 -0.666992 21.8301 0.333008 35.4971 3s27.334 5.83398 41.001 9.50098s26.334 7.5 38.001 11.5s21.334 7.5 29.001 10.5s11.834 4.83301 12.501 5.5v154l-140 -6c-34.667 -2 -59.5 -10.667 -74.5 -26s-22.5 -35.333 -22.5 -60v-24
c0 -19.333 4 -34.833 12 -46.5s18.167 -19.834 30.5 -24.501s25.166 -7 38.499 -7zM270 591.002c-36.667 0 -65 7.83301 -85 23.5s-30 44.167 -30 85.5c0 40.667 10 69.167 30 85.5s48.333 24.5 85 24.5c38 0 66.5 -8 85.5 -24s28.5 -44.667 28.5 -86
s-9.5 -69.833 -28.5 -85.5s-47.5 -23.5 -85.5 -23.5zM271 631.002c22.667 0 39.167 4.83301 49.5 14.5s15.5 27.834 15.5 54.501s-5.16699 45 -15.5 55s-26.833 15 -49.5 15s-39.667 -5 -51 -15s-17 -28.333 -17 -55s5.66699 -44.834 17 -54.501s28.333 -14.5 51 -14.5z
M241 791.002l97 138h84l-122 -138h-59z" />
    <glyph glyph-name="AEacute" unicode="&#x1fc;" horiz-adv-x="969" 
d="M640 -4c-50 -0.666992 -88.833 7.66895 -116.5 25.002s-43.167 49 -46.5 95v76h-231l-118 -192h-99l339 585c20 36 41.5 65.333 64.5 88s50 39.167 81 49.5s67.167 15.166 108.5 14.499c54 -0.666992 106.333 -2 157 -4s96 -4.33301 136 -7v-82h-278
c-26 0 -44 -5.16699 -54 -15.5s-15 -26.166 -15 -47.499v-169l303 -6v-78l-303 -7v-151c0 -20.667 3.83301 -36.834 11.5 -48.501s18.167 -19.834 31.5 -24.501s29 -7 47 -7h257v-82c-42 -2.66699 -85.667 -5.16699 -131 -7.5s-93.333 -3.83301 -144 -4.5zM291 278.003h186
v320zM506 791.003l97 138h84l-122 -138h-59z" />
    </font>
</defs>
</svg>
