<?xml version="1.0" standalone="no"?>
<!DOCTYPE svg PUBLIC "-//W3C//DTD SVG 1.1//EN" "http://www.w3.org/Graphics/SVG/1.1/DTD/svg11.dtd" >
<svg>
<metadata>
Created by FontForge 20090914 at Thu May 20 20:13:55 2021
 By www-data
Copyright 2017 The Exo Project Authors (https://github.com/NDISCOVER/Exo-1.0)
</metadata>
<defs>
<font id="Exo-Thin" horiz-adv-x="0" >
  <font-face 
    font-family="Exo Thin"
    font-weight="250"
    font-stretch="normal"
    units-per-em="1000"
    panose-1="0 0 0 0 0 0 0 0 0 0"
    ascent="800"
    descent="-200"
    x-height="531"
    cap-height="732"
    bbox="-493 -270 1323 1086"
    underline-thickness="50"
    underline-position="-75"
    unicode-range="U+000D-U+FB05"
  />
<missing-glyph horiz-adv-x="651" 
d="M60 531h531v-531h-531v531zM476 98l-150 150l-150 -150l-17 17l150 150l-150 150l17 17l150 -150l150 150l17 -17l-150 -150l150 -150zM567 24v483h-483v-483h483z" />
    <glyph glyph-name="f_f" unicode="ff" horiz-adv-x="748" 
d="M114 0v509.001h-87v16l87 6v82c0 31.333 3.5 58.666 10.5 81.999s20 41.5 39 54.5s46.833 19.5 83.5 19.5c23.333 0 41.833 -1.33301 55.5 -4s27.167 -5.66699 40.5 -9v-16c-16 2 -32 3.66699 -48 5s-31.667 2 -47 2c-31.333 0 -54.833 -5.16699 -70.5 -15.5
s-26.167 -25.5 -31.5 -45.5s-8 -44.333 -8 -73v-82h363v-22h-363v-509h-24zM488 0.000976562v509.001h-87v16l87 6v82c0 31.333 3.5 58.666 10.5 81.999s20 41.5 39 54.5s46.833 19.5 83.5 19.5c23.333 0 41.833 -0.666992 55.5 -2l40.5 -4v-16h-95
c-31.333 0 -54.833 -5.16699 -70.5 -15.5s-26.167 -25.5 -31.5 -45.5s-8 -44.333 -8 -73v-82h188v-22h-188v-509h-24z" />
    <glyph glyph-name="fi" unicode="fi" horiz-adv-x="580" 
d="M114 0v509.001h-87v16l87 6v82c0 31.333 3.5 58.666 10.5 81.999s20 41.5 39 54.5s46.833 19.5 83.5 19.5c23.333 0 41.833 -1.33301 55.5 -4s27.167 -5.66699 40.5 -9v-16c-16 2 -32 3.66699 -48 5s-31.667 2 -47 2c-31.333 0 -54.833 -5.16699 -70.5 -15.5
s-26.167 -25.5 -31.5 -45.5s-8 -44.333 -8 -73v-82h339v-22h-339v-509h-24zM465 0.000976562v531h24v-531h-24zM472 640.001c-8 0 -12 3.99902 -12 11.999v62c0 8 4 12 12 12h11c4 0 6.83301 -1.16699 8.5 -3.5s2.5 -5.16602 2.5 -8.49902v-62c0 -8 -3.66699 -12 -11 -12
h-11z" />
    <glyph glyph-name="fl" unicode="fl" horiz-adv-x="652" 
d="M114 0l-0.00195312 509h-87v16l87 6v82c0 31.333 4.16699 58.666 12.5 81.999s24.333 41.5 48 54.5s57.834 19.5 102.501 19.5c30 0 57.333 -1 82 -3s47.5 -4.33301 68.5 -7s41.5 -4.66699 61.5 -6v-16c-22.667 2 -46.167 3.83301 -70.5 5.5s-48.333 2.83398 -72 3.50098
s-46.5 1 -68.5 1c-39.333 0 -69.166 -5.16699 -89.499 -15.5s-33.833 -25.5 -40.5 -45.5s-10 -44.333 -10 -73v-82h188v-22h-188v-509h-24zM582.998 0c-24.667 0 -45.833 4.83301 -63.5 14.5s-31.167 26.667 -40.5 51s-14 58.833 -14 103.5v584h24v-584
c0 -40.667 3.66699 -71 11 -91s17.833 -33.667 31.5 -41s29.5 -12 47.5 -14l64 -7v-16h-60z" />
    <glyph glyph-name="f_f_i" unicode="ffi" horiz-adv-x="954" 
d="M114 0v509.001h-87v16l87 6v82c0 31.333 3.5 58.666 10.5 81.999s20 41.5 39 54.5s46.833 19.5 83.5 19.5c23.333 0 41.833 -1.33301 55.5 -4s27.167 -5.66699 40.5 -9v-16c-16 2 -32 3.66699 -48 5s-31.667 2 -47 2c-31.333 0 -54.833 -5.16699 -70.5 -15.5
s-26.167 -25.5 -31.5 -45.5s-8 -44.333 -8 -73v-82h361v-22h-361v-509h-24zM839 0.000976562v531h24v-531h-24zM846 640.001c-8 0 -12 3.99902 -12 11.999v62c0 8 4 12 12 12h11c4 0 6.83301 -1.16699 8.5 -3.5s2.5 -5.16602 2.5 -8.49902v-62c0 -8 -3.66699 -12 -11 -12
h-11zM488 0v509.001h-87v16l87 6v82c0 31.333 3.5 58.666 10.5 81.999s20 41.5 39 54.5s46.833 19.5 83.5 19.5c23.333 0 41.833 -1.33301 55.5 -4s27.167 -5.66699 40.5 -9v-16c-16 2 -32 3.66699 -48 5s-31.667 2 -47 2c-31.333 0 -54.833 -5.16699 -70.5 -15.5
s-26.167 -25.5 -31.5 -45.5s-8 -44.333 -8 -73v-82h339v-22h-339v-509h-24z" />
    <glyph glyph-name="f_f_l" unicode="ffl" horiz-adv-x="1026" 
d="M114 0v509.001h-87v16l87 6v82c0 31.333 3.5 58.666 10.5 81.999s20 41.5 39 54.5s46.833 19.5 83.5 19.5c23.333 0 41.833 -1.33301 55.5 -4s27.167 -5.66699 40.5 -9v-16c-16 2 -32 3.66699 -48 5s-31.667 2 -47 2c-31.333 0 -54.833 -5.16699 -70.5 -15.5
s-26.167 -25.5 -31.5 -45.5s-8 -44.333 -8 -73v-82h362v-22h-362v-509h-24zM488 0.000976562l-0.00195312 509h-87v16l87 6v82c0 31.333 4.16699 58.666 12.5 81.999s24.333 41.5 48 54.5s57.834 19.5 102.501 19.5c30 0 57.333 -1 82 -3s47.5 -4.33301 68.5 -7
s41.5 -4.66699 61.5 -6v-16c-22.667 2 -46.167 3.83301 -70.5 5.5s-48.333 2.83398 -72 3.50098s-46.5 1 -68.5 1c-39.333 0 -69.166 -5.16699 -89.499 -15.5s-33.833 -25.5 -40.5 -45.5s-10 -44.333 -10 -73v-82h188v-22h-188v-509h-24zM956.998 0.000976562
c-24.667 0 -45.833 4.83301 -63.5 14.5s-31.167 26.667 -40.5 51s-14 58.833 -14 103.5v584h24v-584c0 -40.667 3.66699 -71 11 -91s17.833 -33.667 31.5 -41s29.5 -12 47.5 -14l64 -7v-16h-60z" />
    <glyph glyph-name=".notdef" horiz-adv-x="651" 
d="M60 531h531v-531h-531v531zM476 98l-150 150l-150 -150l-17 17l150 150l-150 150l17 17l150 -150l150 150l17 -17l-150 -150l150 -150zM567 24v483h-483v-483h483z" />
    <glyph glyph-name="CR" unicode="&#xd;" horiz-adv-x="280" 
 />
    <glyph glyph-name="space" unicode=" " horiz-adv-x="280" 
 />
    <glyph glyph-name="exclam" unicode="!" horiz-adv-x="260" 
d="M120 196l-4 535h24l-4 -535h-16zM123 0c-8 0 -12.001 4 -12.001 12v62c0 8 4 12 12 12h11c8 0 12 -4 12 -12v-62c0 -4 -1.16699 -7 -3.5 -9s-5.16602 -3 -8.49902 -3h-11z" />
    <glyph glyph-name="quotedbl" unicode="&#x22;" horiz-adv-x="193" 
d="M51 515l-7 158v67h25v-67l-6 -158h-12zM131 515l-7 158v67h25v-67l-6 -158h-12z" />
    <glyph glyph-name="numbersign" unicode="#" horiz-adv-x="654" 
d="M166 0l39 249h-177l2 12h178l32 206h-179l3 12h178l41 253h12l-41 -253h186l40 253h12l-40 -253h178l-2 -12h-179l-32 -206h178l-2 -12h-178l-39 -249h-12l39 249h-186l-39 -249h-12zM220 261h185l32 206h-185z" />
    <glyph glyph-name="dollar" unicode="$" horiz-adv-x="609" 
d="M301 732l-18 1v91h18v-92zM283 -88v91l18 -1v-90h-18zM285 -6c-11.333 0 -26.8369 0.333008 -46.5039 1s-40.5 1.66699 -62.5 3s-42.5 2.66602 -61.5 3.99902s-33.833 3 -44.5 5v16c13.333 -1.33301 31.5 -2.5 54.5 -3.5s48.5 -1.83301 76.5 -2.5s56 -1 84 -1
c34 0 65.333 3.5 94 10.5s51.834 20.667 69.501 41s26.5 49.833 26.5 88.5v68c0 42.667 -10.5 75.5 -31.5 98.5s-56.5 34.5 -106.5 34.5h-92c-52.667 0 -94.667 11.5 -126 34.5s-47 63.833 -47 122.5v46c0 67.333 17 113.833 51 139.5s81.333 38.5 142 38.5
c16.667 0 38 -0.833008 64 -2.5s51.833 -3.66699 77.5 -6s45.834 -4.83301 60.501 -7.5v-16l-97.5 6.5c-36.333 2.33301 -71.166 3.5 -104.499 3.5c-35.333 0 -65.666 -4.5 -90.999 -13.5s-44.666 -24.667 -57.999 -47s-20 -54.166 -20 -95.499v-46
c0 -52 13.167 -87.167 39.5 -105.5s62.166 -27.5 107.499 -27.5h94c38 0 68.833 -6.66699 92.5 -20s41.167 -31.833 52.5 -55.5s17 -50.834 17 -81.501v-68c0 -42.667 -10.333 -75.667 -31 -99s-47.167 -39.666 -79.5 -48.999s-66.833 -14 -103.5 -14z" />
    <glyph glyph-name="percent" unicode="%" horiz-adv-x="954" 
d="M242 0l438 732h21l-438 -732h-21zM184 349c-48.667 0 -82 10.167 -100 30.5s-27 51.833 -27 94.5v133c0 42.667 8.83301 74.167 26.5 94.5s51.834 30.5 102.501 30.5h101c49.333 0 82.833 -10.167 100.5 -30.5s26.5 -51.833 26.5 -94.5v-133
c0 -42.667 -8.83301 -74.167 -26.5 -94.5s-51.834 -30.5 -102.501 -30.5h-101zM184 365h100.998c38.667 0 67.167 7 85.5 21s27.5 43.333 27.5 88v133c0 39.333 -7.66699 67.333 -23 84s-44.666 25 -87.999 25h-101c-39.333 0 -68 -7 -86 -21s-27 -43.333 -27 -88v-133
c0 -42.667 8.83301 -71.5 26.5 -86.5s45.834 -22.5 84.501 -22.5zM667.998 3c-48.667 0 -82 10.167 -100 30.5s-27 51.833 -27 94.5v133c0 42.667 8.83301 74.167 26.5 94.5s51.834 30.5 102.501 30.5h101c49.333 0 82.833 -10.167 100.5 -30.5s26.5 -51.833 26.5 -94.5
v-133c0 -42.667 -8.83301 -74.167 -26.5 -94.5s-51.834 -30.5 -102.501 -30.5h-101zM667.998 19h100.998c38.667 0 67.167 7 85.5 21s27.5 43.333 27.5 88v133c0 39.333 -7.66699 67.333 -23 84s-44.666 25 -87.999 25h-101c-39.333 0 -68 -7 -86 -21s-27 -43.333 -27 -88
v-133c0 -42.667 8.83301 -71.5 26.5 -86.5s45.834 -22.5 84.501 -22.5z" />
    <glyph glyph-name="ampersand" unicode="&#x26;" horiz-adv-x="653" 
d="M239 -6c-36.667 0 -69.668 7.83301 -99.001 23.5s-52.5 37.834 -69.5 66.501s-25.5 62.667 -25.5 102c0 33.333 7.5 66 22.5 98s40.167 63 75.5 93l71 60l-23 32c-20.667 27.333 -35 53 -43 77s-12 45.333 -12 64c0 30.667 7.33301 54.834 22 72.501s34 30.334 58 38.001
s50 11.5 78 11.5c26.667 0 48.834 -0.333008 66.501 -1s33 -1.33398 46 -2.00098s26.167 -1.66699 39.5 -3v-16h-150c-38.667 0 -71 -7.16699 -97 -21.5s-39 -39.833 -39 -76.5c0 -20.667 3.83301 -40.834 11.5 -60.501s21.167 -42.834 40.5 -69.501l247 -336l154 149l10 -9
l-70 -85l-78 -74l94 -127h-31l-82 111l-30 -28c-35.333 -32.667 -67.5 -55.667 -96.5 -69s-59.167 -20 -90.5 -20zM239.999 18c26.667 0 52.667 5.33301 78 16s53.666 31 84.999 61l37 35l-213 288l-64 -53c-35.333 -29.333 -59.833 -59 -73.5 -89s-20.5 -59.667 -20.5 -89
c0 -52 15.333 -93.167 46 -123.5s72.334 -45.5 125.001 -45.5z" />
    <glyph glyph-name="quotesingle" unicode="'" horiz-adv-x="113" 
d="M51 515l-7 158v67h25v-67l-6 -158h-12z" />
    <glyph glyph-name="parenleft" unicode="(" horiz-adv-x="315" 
d="M260 -210c-32.667 58.667 -60.834 116.5 -84.501 173.5s-42 115.333 -55 175s-19.5 122.167 -19.5 187.5c0 64.667 6.66699 126.667 20 186s31.833 117.833 55.5 175.5s51.5 115.167 83.5 172.5h27c-32 -57.333 -60.167 -114.833 -84.5 -172.5
s-43.333 -116.167 -57 -175.5s-20.5 -121.333 -20.5 -186c0 -65.333 6.83301 -127.833 20.5 -187.5s32.834 -118 57.501 -175s53 -114.833 85 -173.5h-28z" />
    <glyph glyph-name="parenright" unicode=")" horiz-adv-x="314" 
d="M27 -210c36 61.333 65.999 120.667 89.999 178s42 115.166 54 173.499s18 119.833 18 184.5s-6.16699 126 -18.5 184s-30.5 115.667 -54.5 173s-53.667 116.333 -89 177h27c35.333 -60.667 64.833 -119.667 88.5 -177s41.334 -115 53.001 -173s17.5 -119.333 17.5 -184
c0 -65.333 -5.66699 -127.166 -17 -185.499s-28.833 -116 -52.5 -173s-53.5 -116.167 -89.5 -177.5h-27z" />
    <glyph glyph-name="asterisk" unicode="*" horiz-adv-x="469" 
d="M301 533l-18 19l112 83l8 -12zM161 405l-13 4l33 134l26 -4zM210 586l-142 6v14l142 4v-24zM361 424l-122 71l12 23l118 -83zM262 593l-56 130l13 4l67 -123z" />
    <glyph glyph-name="plus" unicode="+" horiz-adv-x="609" 
d="M292 132v448h24v-448h-24zM80 344v24h448v-24h-448z" />
    <glyph glyph-name="comma" unicode="," horiz-adv-x="172" 
d="M78 -69c-2 0 -3.66895 0.167969 -5.00195 0.500977l-2 0.5v6c6 0 10.167 1.16699 12.5 3.5s3.5 6.16602 3.5 11.499v47h-6c-3.33301 0 -6.16602 1.16699 -8.49902 3.5s-3.5 5.5 -3.5 9.5v60c0 8.66699 4 13 12 13h10c4.66699 0 7.83398 -1.16699 9.50098 -3.5
s2.5 -5.5 2.5 -9.5v-110c0 -9.33301 -1.33301 -16.333 -4 -21s-6 -7.66699 -10 -9s-7.66699 -2 -11 -2z" />
    <glyph glyph-name="hyphen" unicode="-" horiz-adv-x="338" 
d="M27 278v24h284v-24h-284z" />
    <glyph glyph-name="period" unicode="." horiz-adv-x="172" 
d="M81 0c-8 0 -12.001 4 -12.001 12v62c0 8 4 12 12 12h11c8 0 12 -4 12 -12v-62c0 -4 -1.16699 -7 -3.5 -9s-5.16602 -3 -8.49902 -3h-11z" />
    <glyph glyph-name="slash" unicode="/" horiz-adv-x="354" 
d="M27 -72l281 842h19l-281 -842h-19z" />
    <glyph glyph-name="zero" unicode="0" horiz-adv-x="662" 
d="M266 0c-30 0 -58.167 5.16504 -84.5 15.498s-47.5 27.333 -63.5 51s-24 55.5 -24 95.5v414c0 36 7.66699 66 23 90s36.166 42 62.499 54s55.166 18 86.499 18h134c40.667 0 73.334 -7.16699 98.001 -21.5s42.5 -33.666 53.5 -57.999s16.5 -51.833 16.5 -82.5v-414
c0 -59.333 -15.667 -101.166 -47 -125.499s-71.666 -36.5 -120.999 -36.5h-134zM266 21.998h134c52 0 89 12.667 111 38s33 59.333 33 102v414c0 45.333 -12 80 -36 104s-60 36 -108 36h-134c-44.667 0 -80.5 -12.333 -107.5 -37s-40.5 -59 -40.5 -103v-414
c0 -46 13.5 -80.833 40.5 -104.5s62.833 -35.5 107.5 -35.5z" />
    <glyph glyph-name="one" unicode="1" horiz-adv-x="354" 
d="M222 0v713l-168 -61v16l168 72h24v-740h-24z" />
    <glyph glyph-name="two" unicode="2" horiz-adv-x="598" 
d="M61 0l0.00488281 22.001l292 273c34 32 60.833 61.667 80.5 89s33.5 55 41.5 83s12 59.333 12 94c0 28.667 -5.33301 54.667 -16 78s-30.334 42 -59.001 56s-70.334 21 -125.001 21h-193v16c29.333 1.33301 61.666 2.66602 96.999 3.99902s70 2 104 2
c54.667 0 97.667 -7.83301 129 -23.5s53.666 -37 66.999 -64s20 -57.5 20 -91.5c0 -35.333 -4.66699 -67.833 -14 -97.5s-24.333 -59 -45 -88s-48.334 -59.833 -83.001 -92.5l-272 -257h444v-24h-480z" />
    <glyph glyph-name="three" unicode="3" horiz-adv-x="590" 
d="M302 -6c-52.667 0 -100.837 0.500977 -144.504 1.50098s-80.167 2.5 -109.5 4.5v16h252c30 0 58.167 3.83301 84.5 11.5s47.833 22 64.5 43s25 51.167 25 90.5v63c0 33.333 -8 59.5 -24 78.5s-35.667 32.5 -59 40.5s-46.333 12.333 -69 13l-194 7v14l194 6
c40.667 1.33301 74.334 11.166 101.001 29.499s40 48.833 40 91.5v69c0 44.667 -14.667 79.667 -44 105s-71.666 38 -126.999 38h-212v16c24 2 54 3.5 90 4.5s78.667 1.5 128 1.5c44.667 0 80.834 -7.33301 108.501 -22s48 -34.5 61 -59.5s19.5 -52.833 19.5 -83.5v-69
c0 -26 -4.5 -47.5 -13.5 -64.5s-20.167 -30.5 -33.5 -40.5s-26.5 -17.167 -39.5 -21.5s-23.167 -6.83301 -30.5 -7.5c8.66699 -1.33301 20.167 -4.83301 34.5 -10.5s28.833 -14 43.5 -25s27 -25.667 37 -44s15 -40.5 15 -66.5v-63c0 -54.667 -17.167 -96.167 -51.5 -124.5
s-83.166 -42.5 -146.499 -42.5z" />
    <glyph glyph-name="four" unicode="4" horiz-adv-x="575" 
d="M404 2v210h-365l-10 23l307 497h25l-307 -498h350v238l8 55h16v-293h120v-16l-120 -6v-210h-24z" />
    <glyph glyph-name="five" unicode="5" horiz-adv-x="649" 
d="M357 -4c-48.667 0 -95.333 0.333984 -140 1.00098s-82.667 2.33398 -114 5.00098v16h252c34 0 65.5 5.5 94.5 16.5s52.333 27.667 70 50s26.5 50.166 26.5 83.499v105c0 42.667 -13.5 76.334 -40.5 101.001s-66.833 37 -119.5 37h-95c-37.333 0 -67.5 -8.5 -90.5 -25.5
s-38.167 -44.167 -45.5 -81.5h-22l21 428h395v-22h-373l-17 -346c6.66699 16 21.167 31.5 43.5 46.5s52.833 22.5 91.5 22.5h93c38.667 0 71.5 -6.83301 98.5 -20.5s47.833 -32.334 62.5 -56.001s22 -50.834 22 -81.501v-109c0 -36.667 -9.66699 -67.667 -29 -93
s-45 -44.5 -77 -57.5s-67.667 -19.5 -107 -19.5z" />
    <glyph glyph-name="six" unicode="6" horiz-adv-x="636" 
d="M276 -1c-27.333 0 -52.5 5.50098 -75.5 16.501s-42.833 30.167 -59.5 57.5s-29.667 65.333 -39 114s-14 111 -14 187c0 61.333 5.5 114.666 16.5 159.999s27 83.166 48 113.499s46.667 53 77 68s64.833 22.5 103.5 22.5c24.667 0 54.167 -0.833008 88.5 -2.5
s64.5 -2.83398 90.5 -3.50098v-16h-188c-62.667 0 -113.667 -27 -153 -81s-59 -137.333 -59 -250c24 1.33301 51 2.5 81 3.5s58.833 1.66699 86.5 2s49.167 0.5 64.5 0.5c40.667 0 77 -3.66699 109 -11s57.167 -21.166 75.5 -41.499s27.5 -50.166 27.5 -89.499v-101
c0 -37.333 -7.5 -66.833 -22.5 -88.5s-34.833 -37.167 -59.5 -46.5s-51 -14 -79 -14h-119zM276 21.001l118.999 -0.000976562c24 0 46.5 3.16699 67.5 9.5s38 18.5 51 36.5s19.5 44.333 19.5 79v103c0 34 -7.66699 59.667 -23 77s-37.166 28.833 -65.499 34.5
s-61.5 8.5 -99.5 8.5h-233c0 -69.333 3.83301 -126.666 11.5 -171.999s18.667 -80.833 33 -106.5s31.5 -43.667 51.5 -54s42.667 -15.5 68 -15.5z" />
    <glyph glyph-name="seven" unicode="7" horiz-adv-x="535" 
d="M168 0l288 708h-416v24h428l16 -23l-288 -709h-28z" />
    <glyph glyph-name="eight" unicode="8" horiz-adv-x="655" 
d="M267 0c-26.667 0 -50.167 2.83301 -70.5 8.5s-37.666 14.167 -51.999 25.5s-25.166 25.333 -32.499 42s-11 36 -11 58v109c0 28 6.16699 50.667 18.5 68s26.666 30.666 42.999 39.999s30.5 15.333 42.5 18c-21.333 8.66699 -38.666 19.834 -51.999 33.501
s-23 28.834 -29 45.501s-9 33.667 -9 51v85c0 36.667 6.5 66.167 19.5 88.5s31 38.666 54 48.999s49.167 15.5 78.5 15.5h136c30.667 0 56.167 -5.16699 76.5 -15.5s35.666 -26.666 45.999 -48.999s15.5 -51.833 15.5 -88.5v-85c0 -13.333 -1.83301 -26.333 -5.5 -39
s-9.16699 -24.5 -16.5 -35.5s-16 -20.5 -26 -28.5s-21.333 -14.333 -34 -19c20.667 -3.33301 38 -10.833 52 -22.5s24.833 -26.334 32.5 -44.001s11.5 -37.167 11.5 -58.5v-118c0 -29.333 -6 -53.833 -18 -73.5s-29.333 -34.667 -52 -45s-50.334 -15.5 -83.001 -15.5h-135z
M267 22l135 0.000976562c42 0 74 9 96 27s33 45.333 33 82v115c0 43.333 -10.167 73.5 -30.5 90.5s-55.5 25.5 -105.5 25.5h-129c-11.333 0 -25 -1.83301 -41 -5.5s-31.667 -9.83398 -47 -18.501s-28 -20.5 -38 -35.5s-15 -33.833 -15 -56.5v-115
c0 -39.333 13.833 -67.333 41.5 -84s61.167 -25 100.5 -25zM266 384.001h129.001c29.333 0 52.833 6 70.5 18s30.667 26.5 39 43.5s12.5 33.167 12.5 48.5v88c0 48 -9.33301 82.167 -28 102.5s-47.334 30.5 -86.001 30.5h-136c-46 0 -78.833 -10.833 -98.5 -32.5
s-29.5 -55.167 -29.5 -100.5v-88c0 -28.667 10.333 -54.167 31 -76.5s52.667 -33.5 96 -33.5z" />
    <glyph glyph-name="nine" unicode="9" horiz-adv-x="636" 
d="M304 -4c-24.667 0 -54.168 0.834961 -88.501 2.50195s-64.5 2.83398 -90.5 3.50098v16h188c63.333 0 114.5 27 153.5 81s58.5 137.333 58.5 250c-23.333 -1.33301 -50.166 -2.5 -80.499 -3.5s-59.166 -1.66699 -86.499 -2s-49 -0.5 -65 -0.5
c-40.667 0 -77 3.66699 -109 11s-57.167 21.166 -75.5 41.499s-27.5 50.166 -27.5 89.499v101c0 37.333 7.66699 66.833 23 88.5s35.166 37.167 59.499 46.5s50.5 14 78.5 14h119c27.333 0 52.5 -5.5 75.5 -16.5s42.833 -30.167 59.5 -57.5s29.667 -65.333 39 -114
s14 -111 14 -187c0 -60.667 -5.5 -113.834 -16.5 -159.501s-27 -83.667 -48 -114s-46.667 -53 -77 -68s-64.833 -22.5 -103.5 -22.5zM291.999 365.002l233 0.000976562c0 69.333 -3.83301 126.666 -11.5 171.999s-18.667 80.833 -33 106.5s-31.5 43.667 -51.5 54
s-42.667 15.5 -68 15.5h-119c-24 0 -46.5 -3.16699 -67.5 -9.5s-38 -18.5 -51 -36.5s-19.5 -44.333 -19.5 -79v-103c0 -34 7.83301 -59.5 23.5 -76.5s37.5 -28.5 65.5 -34.5s61 -9 99 -9z" />
    <glyph glyph-name="colon" unicode=":" horiz-adv-x="172" 
d="M81 0c-8 0 -12.001 4 -12.001 12v62c0 8 4 12 12 12h11c8 0 12 -4 12 -12v-62c0 -4 -1.16699 -7 -3.5 -9s-5.16602 -3 -8.49902 -3h-11zM80.999 445c-8 0 -12.001 4 -12.001 12v62c0 8 4 12 12 12h11c8 0 12 -4 12 -12v-62c0 -4 -1.16699 -7 -3.5 -9
s-5.16602 -3 -8.49902 -3h-11z" />
    <glyph glyph-name="semicolon" unicode=";" horiz-adv-x="172" 
d="M81 445c-8 0 -12.001 4 -12.001 12v62c0 8 4 12 12 12h11c8 0 12 -4 12 -12v-62c0 -4 -1.16699 -7 -3.5 -9s-5.16602 -3 -8.49902 -3h-11zM77.999 -69c-2 0 -3.66895 0.167969 -5.00195 0.500977l-2 0.5v6c6 0 10.167 1.16699 12.5 3.5s3.5 6.16602 3.5 11.499v47h-6
c-3.33301 0 -6.16602 1.16699 -8.49902 3.5s-3.5 5.5 -3.5 9.5v60c0 8.66699 4 13 12 13h10c4.66699 0 7.83398 -1.16699 9.50098 -3.5s2.5 -5.5 2.5 -9.5v-110c0 -9.33301 -1.33301 -16.333 -4 -21s-6 -7.66699 -10 -9s-7.66699 -2 -11 -2z" />
    <glyph glyph-name="less" unicode="&#x3c;" horiz-adv-x="609" 
d="M511 200l-415 136v24l415 136v-20l-395 -127l395 -129v-20z" />
    <glyph glyph-name="equal" unicode="=" horiz-adv-x="609" 
d="M80 224v24h448v-24h-448zM80 464v24h448v-24h-448z" />
    <glyph glyph-name="greater" unicode="&#x3e;" horiz-adv-x="609" 
d="M98 200v20l395 127l-395 129v20l415 -136v-24z" />
    <glyph glyph-name="question" unicode="?" horiz-adv-x="532" 
d="M187 195l-0.000976562 125.995h35c70 0 119.5 10.167 148.5 30.5s43.5 57.5 43.5 111.5v81c0 63.333 -12.167 108 -36.5 134s-64.166 39 -119.499 39c-37.333 0 -72.333 -3.16699 -105 -9.5s-68 -17.166 -106 -32.499v14c34 19.333 68.667 32.333 104 39
s71.333 10.334 108 11.001c47.333 0.666992 83.833 -6.66602 109.5 -21.999s43.667 -37.666 54 -66.999s15.5 -64.666 15.5 -105.999v-81c0 -56.667 -17.5 -98.5 -52.5 -125.5s-93.833 -40.5 -176.5 -40.5v-102h-22zM191.999 -0.00488281c-8 0 -12.001 4 -12.001 12v62
c0 8 4 12 12 12h11c8 0 12 -4 12 -12v-62c0 -4 -1.16699 -7 -3.5 -9s-5.16602 -3 -8.49902 -3h-11z" />
    <glyph glyph-name="at" unicode="@" horiz-adv-x="866" 
d="M256 -148c-25.333 0 -48.3291 3.82812 -68.9961 11.4951s-38.334 19 -53.001 34s-26 33.667 -34 56s-12 47.833 -12 76.5v348c0 7.33301 0.666992 17.5 2 30.5s4.5 27.167 9.5 42.5s13.5 29.833 25.5 43.5s28.5 25 49.5 34s48.167 13.5 81.5 13.5h200
c18 0 36 -2.16699 54 -6.5s34.5 -11.666 49.5 -21.999s27 -24.666 36 -42.999s13.5 -41.166 13.5 -68.499v-372h-16l-7 64c-0.666992 0 -8.33398 -3.66699 -23.001 -11s-33.334 -15.833 -56.001 -25.5s-47 -18.167 -73 -25.5s-50.333 -11 -73 -11
c-24.667 0 -46.667 5 -66 15s-34.5 23.833 -45.5 41.5s-16.5 37.834 -16.5 60.501v53c0 34 11.167 61.333 33.5 82s54.166 31 95.499 31h223v96c0 41.333 -12 71.333 -36 90s-56 28 -96 28h-197c-28.667 0 -53.834 -4.5 -75.501 -13.5s-38.5 -23.667 -50.5 -44
s-18 -47.833 -18 -82.5v-348c0 -39.333 7.33301 -70.166 22 -92.499s33 -38 55 -47s44.333 -13.5 67 -13.5h319c51.333 0 89.666 12.833 114.999 38.5s38 63.834 38 114.501v512c0 47.333 -12.5 86.5 -37.5 117.5s-63.5 46.5 -115.5 46.5h-389v14
c16 3.33301 38.667 5.66602 68 6.99902s62.833 2.16602 100.5 2.49902s77.5 0.5 119.5 0.5h101c26.667 0 50.834 -4 72.501 -12s40.334 -19.833 56.001 -35.5s27.667 -35.167 36 -58.5s12.5 -50.666 12.5 -81.999v-512c0 -32.667 -5.16699 -62.5 -15.5 -89.5
s-28.333 -48.5 -54 -64.5s-61.5 -24 -107.5 -24h-319zM368.004 44.9951c20 0 43.665 3.66797 70.998 11.001s54.333 15.833 81 25.5s48.334 18.5 65.001 26.5v182l-218 -10c-13.333 -0.666992 -28.666 -3 -45.999 -7s-32.333 -12.333 -45 -25s-19 -32.334 -19 -59.001v-45
c0 -30 10 -54 30 -72s47 -27 81 -27z" />
    <glyph glyph-name="A" unicode="A" horiz-adv-x="666" 
d="M48 0l268 732h34l268 -732h-26l-94 255h-331l-93 -255h-26zM174 277h315l-156 431z" />
    <glyph glyph-name="B" unicode="B" horiz-adv-x="584" 
d="M88 0l0.000976562 731.995h246c54.667 0 97.167 -14.667 127.5 -44s45.5 -76 45.5 -140c0 -31.333 -5.16699 -58.666 -15.5 -81.999s-23.5 -42.166 -39.5 -56.499s-32.667 -24.166 -50 -29.499c11.333 -2.66699 24.333 -7.5 39 -14.5s29.167 -17.167 43.5 -30.5
s26.166 -30.666 35.499 -51.999s14 -47.666 14 -78.999c0 -54 -8.16699 -95.667 -24.5 -125s-39 -49.833 -68 -61.5s-62.5 -17.5 -100.5 -17.5h-253zM112.001 21.9951h229.003c33.333 0 62.666 4.83301 87.999 14.5s45.166 27.667 59.499 54s21.5 64.833 21.5 115.5
c0 34.667 -7.66699 64 -23 88s-35.833 42.333 -61.5 55s-53.834 19 -84.501 19h-229v-346zM112.004 389.995h229c40 0 73.333 14.167 100 42.5s40.667 66.833 42 115.5c2 60 -11 102 -39 126s-64.667 36 -110 36h-222v-320z" />
    <glyph glyph-name="C" unicode="C" horiz-adv-x="577" 
d="M323 -6c-45.333 0 -84.166 5.00195 -116.499 15.002s-58.5 28.167 -78.5 54.5s-34.667 64 -44 113s-14 112.833 -14 191.5c0 73.333 4.66699 134 14 182s24.333 85.667 45 113s47.667 46.666 81 57.999s73.666 17 120.999 17c11.333 0 28 -0.833008 50 -2.5
s46 -3.83398 72 -6.50098s50.667 -6.33398 74 -11.001v-16c-10.667 2 -26.667 4 -48 6s-45.333 3.83301 -72 5.5s-52.667 2.5 -78 2.5c-42 0 -78 -5 -108 -15s-54.333 -27.667 -73 -53s-32.334 -60.666 -41.001 -105.999s-13 -103.333 -13 -174
c0 -75.333 4.33301 -136.333 13 -183s22.167 -82.167 40.5 -106.5s42 -40.833 71 -49.5s64.167 -13 105.5 -13c50 0 91.167 1.5 123.5 4.5s58.833 6.16699 79.5 9.5v-16c-22 -4 -45.667 -7.5 -71 -10.5s-49.666 -5.33301 -72.999 -7s-43.333 -2.5 -60 -2.5z" />
    <glyph glyph-name="D" unicode="D" horiz-adv-x="660" 
d="M88 0l-0.000976562 732h273c40 0 74.333 -7.33301 103 -22s52.334 -37 71.001 -67s32.5 -68 41.5 -114s13.5 -100.333 13.5 -163c0 -72 -8.66699 -135.5 -26 -190.5s-43 -98 -77 -129s-76 -46.5 -126 -46.5h-273zM111.999 22h249c46.667 0 85 14.667 115 44
s52.5 70 67.5 122s22.5 111.333 22.5 178c0 60 -3.83301 111.667 -11.5 155s-19.667 79 -36 107s-37.5 48.667 -63.5 62s-57.333 20 -94 20h-249v-688z" />
    <glyph glyph-name="E" unicode="E" horiz-adv-x="579" 
d="M225 -3c-16.667 0 -32.999 1.33203 -48.999 3.99902s-30.667 8.16699 -44 16.5s-24 21 -32 38s-12 39.5 -12 67.5v479c0 24.667 3.5 45.334 10.5 62.001s16.5 30 28.5 40s25.5 17.167 40.5 21.5s30.5 6.5 46.5 6.5l99.5 -2l99 -2l98.5 -2v-16h-297
c-30.667 0 -55.334 -8.5 -74.001 -25.5s-28 -44.5 -28 -82.5v-228l359 -3v-16l-359 -3v-229c0 -31.333 5.5 -54.333 16.5 -69s25.167 -24.167 42.5 -28.5s35 -6.5 53 -6.5h287v-16l-95 -2l-95.5 -2z" />
    <glyph glyph-name="F" unicode="F" horiz-adv-x="555" 
d="M88 0l0.000976562 601.998c0 24.667 3.5 45.334 10.5 62.001s16.5 30 28.5 40s25.5 17.167 40.5 21.5s30.5 6.5 46.5 6.5l99.5 -2l99 -2l98.5 -2v-16h-297c-30.667 0 -55.334 -8.66699 -74.001 -26s-28 -44.666 -28 -81.999v-242l359 -3v-16l-359 -3v-338h-24z" />
    <glyph glyph-name="G" unicode="G" horiz-adv-x="642" 
d="M313 -5c-47.333 -0.666992 -86.6729 5.33398 -118.006 18.001s-56.166 33.5 -74.499 62.5s-31.333 67.667 -39 116s-11.5 107.833 -11.5 178.5c0 64.667 3.83301 120.334 11.5 167.001s20.334 84.834 38.001 114.501s41.334 51.5 71.001 65.5s66.167 21 109.5 21
c19.333 0 42.833 -0.833008 70.5 -2.5s55.334 -4 83.001 -7s52.167 -6.5 73.5 -10.5v-16c-12.667 1.33301 -31.5 3.16602 -56.5 5.49902s-52.5 4.33301 -82.5 6s-59.333 2.5 -88 2.5c-52.667 0 -94 -12 -124 -36s-51.167 -61.5 -63.5 -112.5s-18.5 -117.5 -18.5 -199.5
c0 -66.667 3.33301 -122.5 10 -167.5s18 -81 34 -108s38.167 -46.333 66.5 -58s64.5 -17.5 108.5 -17.5c35.333 0 72.833 5.5 112.5 16.5s74.5 22.833 104.5 35.5v275h-214v14c12 2 26.333 3.66699 43 5s34.834 2.5 54.501 3.5s40.5 1.5 62.5 1.5
c14.667 0 28.834 -0.333008 42.501 -1s25.5 -2 35.5 -4v-363h-16l-6 53c-27.333 -12.667 -60.333 -25.334 -99 -38.001s-78.667 -19.334 -120 -20.001z" />
    <glyph glyph-name="H" unicode="H" horiz-adv-x="664" 
d="M88 0v732h24v-367h440v367h24v-732h-24v343h-440v-343h-24z" />
    <glyph glyph-name="I" unicode="I" horiz-adv-x="200" 
d="M88 0v732h24v-732h-24z" />
    <glyph glyph-name="J" unicode="J" horiz-adv-x="369" 
d="M134 -6c-16.667 0 -35.333 2.5 -56 7.5s-37.667 10.833 -51 17.5v16c14.667 -4.66699 32.334 -9 53.001 -13s38.667 -6 54 -6c24 0 45.167 3.33301 63.5 10s32.833 19.167 43.5 37.5s16 45.5 16 81.5v587h24v-587c0 -39.333 -5.83301 -70 -17.5 -92
s-28.334 -37.333 -50.001 -46s-48.167 -13 -79.5 -13z" />
    <glyph glyph-name="K" unicode="K" horiz-adv-x="573" 
d="M88 0v732h24v-354h155l241 354h26l-248 -365l248 -367h-27l-241 356h-154v-356h-24z" />
    <glyph glyph-name="L" unicode="L" horiz-adv-x="529" 
d="M214 0c-20.667 0 -40.668 3.33398 -60.001 10.001s-35.166 19.167 -47.499 37.5s-18.5 44.5 -18.5 78.5v606h24v-606c0 -29.333 5.16699 -51.333 15.5 -66s23.333 -24.334 39 -29.001s31.5 -7 47.5 -7h286v-24h-286z" />
    <glyph glyph-name="M" unicode="M" horiz-adv-x="797" 
d="M68 0l81 732h33l216 -691l212 691h35l84 -732h-24l-83 726l7 -3l-220 -723h-21l-225 722l7 2l-79 -724h-23z" />
    <glyph glyph-name="N" unicode="N" horiz-adv-x="665" 
d="M108 0v732h22l443 -688v688h24v-732h-22l-443 688v-688h-24z" />
    <glyph glyph-name="O" unicode="O" horiz-adv-x="676" 
d="M338 -6c-44.667 0 -83.835 4.16699 -117.502 12.5s-61.667 24.833 -84 49.5s-39 61.5 -50 110.5s-16.5 113.833 -16.5 194.5c0 81.333 5.66699 146.833 17 196.5s28.333 87.5 51 113.5s50.667 43.667 84 53s72 14 116 14c46 0 85.833 -4.66699 119.5 -14
s61.5 -27 83.5 -53s38.333 -63.833 49 -113.5s16 -115.167 16 -196.5c0 -80.667 -5.5 -145.5 -16.5 -194.5s-27.667 -85.833 -50 -110.5s-50.166 -41.167 -83.499 -49.5s-72.666 -12.5 -117.999 -12.5zM337.999 16c42.667 0 79.5029 4 110.503 12s56.333 23.833 76 47.5
s34.167 58.334 43.5 104.001s14 106.167 14 181.5c0 79.333 -4.83301 142.666 -14.5 189.999s-24.334 82.833 -44.001 106.5s-44.834 39.334 -75.501 47.001s-67.334 11.5 -110.001 11.5c-39.333 0 -74.166 -3.83301 -104.499 -11.5s-55.833 -23.334 -76.5 -47.001
s-36.334 -59.167 -47.001 -106.5s-16 -110.666 -16 -189.999c0 -75.333 4.33301 -135.833 13 -181.5s22.667 -80.334 42 -104.001s44.5 -39.5 75.5 -47.5s68.833 -12 113.5 -12z" />
    <glyph glyph-name="P" unicode="P" horiz-adv-x="590" 
d="M88 0v731.998h276c20 0 40.167 -2.83301 60.5 -8.5s39.333 -16.167 57 -31.5s31.834 -37.5 42.501 -66.5s16 -66.833 16 -113.5c0 -47.333 -5.83301 -85.833 -17.5 -115.5s-27 -52.667 -46 -69s-39.333 -27.5 -61 -33.5s-42.167 -9 -61.5 -9
c-9.33301 0 -25 0.166992 -47 0.5s-45.833 0.833008 -71.5 1.5s-49.834 1.33398 -72.501 2.00098s-39.667 1.33398 -51 2.00098v-291h-24zM112 306.998l242 0.00292969c28 0 54.333 5.66699 79 17s44.5 31.666 59.5 60.999s22.5 71.666 22.5 126.999
c0 54.667 -7.33301 96.167 -22 124.5s-33.5 47.666 -56.5 57.999s-47.167 15.5 -72.5 15.5h-252v-403z" />
    <glyph glyph-name="Q" unicode="Q" horiz-adv-x="676" 
d="M500 -148c-18.667 0 -37.166 4.33203 -55.499 12.999s-34.333 21.667 -48 39s-23.167 38.333 -28.5 63h16c11.333 -31.333 28.166 -54.166 50.499 -68.499s45.166 -21.5 68.499 -21.5c8 0 15.833 0.5 23.5 1.5s14.834 2.83301 21.501 5.5v-24
c-7.33301 -2.66699 -15 -4.66699 -23 -6s-16.333 -2 -25 -2zM338.001 -6.00098c-44.667 0 -83.835 4.16699 -117.502 12.5s-61.667 24.833 -84 49.5s-39 61.5 -50 110.5s-16.5 113.833 -16.5 194.5c0 81.333 5.66699 146.833 17 196.5s28.333 87.5 51 113.5
s50.667 43.667 84 53s72 14 116 14c46 0 85.833 -4.66699 119.5 -14s61.5 -27 83.5 -53s38.333 -63.833 49 -113.5s16 -115.167 16 -196.5c0 -80.667 -5.5 -145.5 -16.5 -194.5s-27.667 -85.833 -50 -110.5s-50.166 -41.167 -83.499 -49.5s-72.666 -12.5 -117.999 -12.5z
M338 15.999c42.667 0 79.5029 4 110.503 12s56.333 23.833 76 47.5s34.167 58.334 43.5 104.001s14 106.167 14 181.5c0 79.333 -4.83301 142.666 -14.5 189.999s-24.334 82.833 -44.001 106.5s-44.834 39.334 -75.501 47.001s-67.334 11.5 -110.001 11.5
c-39.333 0 -74.166 -3.83301 -104.499 -11.5s-55.833 -23.334 -76.5 -47.001s-36.334 -59.167 -47.001 -106.5s-16 -110.666 -16 -189.999c0 -75.333 4.33301 -135.833 13 -181.5s22.667 -80.334 42 -104.001s44.5 -39.5 75.5 -47.5s68.833 -12 113.5 -12z" />
    <glyph glyph-name="R" unicode="R" horiz-adv-x="592" 
d="M88 0l-0.00195312 731.997h276c20 0 40.167 -2.16699 60.5 -6.5s39.333 -13.166 57 -26.499s31.834 -33.333 42.501 -60s16 -62.334 16 -107.001s-5.16699 -80.667 -15.5 -108s-23.666 -48.166 -39.999 -62.499s-33.666 -24.166 -51.999 -29.499s-35.5 -8.33301 -51.5 -9
l161 -323h-24l-162 323c-13.333 0 -30.333 0.333008 -51 1s-42.834 1.16699 -66.501 1.5s-46.667 0.833008 -69 1.5s-41.5 1.33398 -57.5 2.00098v-329h-24zM111.998 344.997l252.001 0.000976562c20 0 39 2.16699 57 6.5s34.167 13 48.5 26s25.666 31.833 33.999 56.5
s12.5 57.334 12.5 98.001c0 38.667 -4.33301 69.667 -13 93s-20.167 41.166 -34.5 53.499s-30.5 20.666 -48.5 24.999s-36.667 6.5 -56 6.5h-252v-365z" />
    <glyph glyph-name="S" unicode="S" horiz-adv-x="569" 
d="M285 -6c-11.333 0 -26.8369 0.333008 -46.5039 1s-40.5 1.66699 -62.5 3s-42.5 2.66602 -61.5 3.99902s-33.833 3 -44.5 5v16c13.333 -1.33301 31.5 -2.5 54.5 -3.5s48.5 -1.83301 76.5 -2.5s56 -1 84 -1c34 0 65.333 3.5 94 10.5s51.834 20.667 69.501 41
s26.5 49.833 26.5 88.5v68c0 42.667 -10.5 75.5 -31.5 98.5s-56.5 34.5 -106.5 34.5h-92c-52.667 0 -94.667 11.5 -126 34.5s-47 63.833 -47 122.5v46c0 67.333 17 113.833 51 139.5s81.333 38.5 142 38.5c16.667 0 38 -0.833008 64 -2.5s51.833 -3.66699 77.5 -6
s45.834 -4.83301 60.501 -7.5v-16l-97.5 6.5c-36.333 2.33301 -71.166 3.5 -104.499 3.5c-35.333 0 -65.666 -4.5 -90.999 -13.5s-44.666 -24.667 -57.999 -47s-20 -54.166 -20 -95.499v-46c0 -52 13.167 -87.167 39.5 -105.5s62.166 -27.5 107.499 -27.5h94
c38 0 68.833 -6.66699 92.5 -20s41.167 -31.833 52.5 -55.5s17 -50.834 17 -81.501v-68c0 -42.667 -10.333 -75.667 -31 -99s-47.167 -39.666 -79.5 -48.999s-66.833 -14 -103.5 -14z" />
    <glyph glyph-name="T" unicode="T" horiz-adv-x="550" 
d="M263 0v710h-247v22h518v-22h-247v-710h-24z" />
    <glyph glyph-name="U" unicode="U" horiz-adv-x="668" 
d="M334 -6c-41.333 0 -78.002 3.83301 -110.002 11.5s-58.833 20.167 -80.5 37.5s-38 40.5 -49 69.5s-16.5 64.833 -16.5 107.5v512h24v-512c0 -54 9.16699 -95.667 27.5 -125s44.833 -49.833 79.5 -61.5s76.334 -17.5 125.001 -17.5s90.334 5.83301 125.001 17.5
s61.167 32.167 79.5 61.5s27.5 71 27.5 125v512h24v-512c0 -42.667 -5.5 -78.5 -16.5 -107.5s-27.333 -52.167 -49 -69.5s-48.5 -29.833 -80.5 -37.5s-68.667 -11.5 -110 -11.5z" />
    <glyph glyph-name="V" unicode="V" horiz-adv-x="666" 
d="M316 0l-268 732h25l260 -711l260 711h25l-268 -732h-34z" />
    <glyph glyph-name="W" unicode="W" horiz-adv-x="991" 
d="M246 0l-198 732h25l190 -711l216 711h34l215 -711l191 711h24l-198 -732h-34l-215 708l-216 -708h-34z" />
    <glyph glyph-name="X" unicode="X" horiz-adv-x="591" 
d="M515 0l-465 732h26l465 -732h-26zM53 0l233 370l12 -22l-219 -348h-26zM306 352l-8 29l217 351h26z" />
    <glyph glyph-name="Y" unicode="Y" horiz-adv-x="610" 
d="M293 0v260l-243 472h26l229 -449l229 449h26l-243 -472v-260h-24z" />
    <glyph glyph-name="Z" unicode="Z" horiz-adv-x="549" 
d="M47 0v22l434 688h-434v22h463v-22l-434 -688h434v-22h-463z" />
    <glyph glyph-name="bracketleft" unicode="[" horiz-adv-x="327" 
d="M251 -210c-30 0 -54.167 6.00098 -72.5 18.001s-32 27.167 -41 45.5s-15 37.333 -18 57s-4.5 36.834 -4.5 51.501v708c0 15.333 1.5 32.666 4.5 51.999s9 38.166 18 56.499s22.667 33.5 41 45.5s42.5 18 72.5 18h50v-22h-50c-32.667 0 -59.5 -11.667 -80.5 -35
s-31.5 -61.666 -31.5 -114.999v-708c0 -27.333 3.5 -52.333 10.5 -75s18.833 -40.834 35.5 -54.501s38.667 -20.5 66 -20.5h50v-22h-50z" />
    <glyph glyph-name="backslash" unicode="\" horiz-adv-x="354" 
d="M308 -72l-281 842h19l281 -842h-19z" />
    <glyph glyph-name="bracketright" unicode="]" horiz-adv-x="327" 
d="M27 -210v21.999h50c28 0 50.167 6.83301 66.5 20.5s28 31.834 35 54.501s10.5 47.667 10.5 75v708c0 53.333 -10.333 91.666 -31 114.999s-47.667 35 -81 35h-50v22h50c30 0 54.167 -6 72.5 -18s32 -27.167 41 -45.5s15 -37.166 18 -56.499s4.5 -36.666 4.5 -51.999v-708
c0 -14.667 -1.5 -31.834 -4.5 -51.501s-9 -38.667 -18 -57s-22.667 -33.5 -41 -45.5s-42.5 -18 -72.5 -18h-50z" />
    <glyph glyph-name="asciicircum" unicode="^" horiz-adv-x="407" 
d="M68 531l132 130h20l120 -130h-18l-112 115l-124 -115h-18z" />
    <glyph glyph-name="underscore" unicode="_" horiz-adv-x="609" 
d="M0 -141v24h609v-24h-609z" />
    <glyph glyph-name="grave" unicode="`" horiz-adv-x="201" 
d="M160 631l-133 133h26l121 -133h-14z" />
    <glyph glyph-name="a" unicode="a" horiz-adv-x="540" 
d="M187 -6c-38 0 -69.665 11.3301 -94.998 33.9971s-38 55.334 -38 98.001v31c0 42.667 13.5 76.834 40.5 102.501s66.5 38.5 118.5 38.5h216v89c0 26.667 -4.5 49.834 -13.5 69.501s-24.667 35 -47 46s-53.833 16.5 -94.5 16.5h-170v16
c20.667 0.666992 45.334 1.66699 74.001 3s61.334 2.33301 98.001 3c42.667 0.666992 77 -5 103 -17s44.833 -29.5 56.5 -52.5s17.5 -51.167 17.5 -84.5v-387h-16l-8 64c-0.666992 0 -8.83398 -3.5 -24.501 -10.5s-35.834 -15.167 -60.501 -24.5
s-50.834 -17.5 -78.501 -24.5s-53.834 -10.5 -78.501 -10.5zM187.002 17.9971c16 -0.666992 34.498 1.16895 55.498 5.50195s42.333 9.5 64 15.5s41.834 12.167 60.501 18.5s33.667 11.666 45 15.999l17 6.5v202l-222 -7c-47.333 -1.33301 -80.666 -13.166 -99.999 -35.499
s-29 -49.833 -29 -82.5v-26c0 -28 5.66699 -50.333 17 -67s25.5 -28.334 42.5 -35.001s33.5 -10.334 49.5 -11.001z" />
    <glyph glyph-name="b" unicode="b" horiz-adv-x="572" 
d="M310 -6c-26 0 -51.332 3.5 -75.999 10.5s-47.167 15.333 -67.5 25s-37.5 18.834 -51.5 27.501l-8 -57h-16v763h24v-289c29.333 17.333 62 32.166 98 44.499s68.333 18.5 97 18.5c40.667 0 75.167 -8.5 103.5 -25.5s50.166 -45.5 65.499 -85.5s23 -94.333 23 -163
c0 -51.333 -6.16699 -97.333 -18.5 -138s-32.5 -72.667 -60.5 -96s-65.667 -35 -113 -35zM310.001 16c38.667 0 70.334 9.83105 95.001 29.498s43 48 55 85s18 81.167 18 132.5c0 68.667 -7 121 -21 157s-33.5 60.833 -58.5 74.5s-54.5 20.5 -88.5 20.5
c-38.667 0 -72.334 -5.16699 -101.001 -15.5s-60 -24.166 -94 -41.499v-385c26.667 -13.333 56 -26.166 88 -38.499s67.667 -18.5 107 -18.5z" />
    <glyph glyph-name="c" unicode="c" horiz-adv-x="490" 
d="M274 -6c-28.667 0 -55.332 3.83398 -79.999 11.501s-46.334 21.167 -65.001 40.5s-33.167 46.833 -43.5 82.5s-15.5 81.5 -15.5 137.5c0 55.333 5 100.666 15 135.999s24 62.666 42 81.999s39.5 32.833 64.5 40.5s52.5 11.5 82.5 11.5c22 0 49.167 -0.5 81.5 -1.5
s61.166 -2.5 86.499 -4.5v-16h-168c-36.667 0 -68.334 -6.5 -95.001 -19.5s-47.5 -37.667 -62.5 -74s-22.5 -89.166 -22.5 -158.499c0 -66 8 -116.833 24 -152.5s37.5 -60.167 64.5 -73.5s57.5 -20 91.5 -20h176v-16c-14.667 -0.666992 -31.167 -1.5 -49.5 -2.5
s-38.166 -1.83301 -59.499 -2.5s-43.666 -1 -66.999 -1z" />
    <glyph glyph-name="d" unicode="d" horiz-adv-x="568" 
d="M262 -6c-45.333 0 -82.167 10.001 -110.5 30.001s-49 50 -62 90s-19.5 89.667 -19.5 149c0 66 7 119.167 21 159.5s35.833 69.5 65.5 87.5s68.167 27 115.5 27c34 0 67.333 -3.83301 100 -11.5s61 -15.834 85 -24.501v262h24v-763h-16l-8 57
c-8.66699 -8 -24.167 -16.833 -46.5 -26.5s-47 -18.167 -74 -25.5s-51.833 -11 -74.5 -11zM261.999 16.001c39.333 0 75 6.16895 107 18.502s61.333 25.166 88 38.499v412c-32.667 8.66699 -62.667 15.834 -90 21.501s-59 8.5 -95 8.5c-42 0 -76.167 -8 -102.5 -24
s-45.5 -42.333 -57.5 -79s-18 -86.334 -18 -149.001c0 -56 5.66699 -102.333 17 -139s29.333 -63.834 54 -81.501s57 -26.5 97 -26.5z" />
    <glyph glyph-name="e" unicode="e" horiz-adv-x="544" 
d="M278 -6c-53.333 0 -95.168 8.66504 -125.501 25.998s-51.666 46 -63.999 86s-18.5 94 -18.5 162c0 69.333 6.83301 123.5 20.5 162.5s36.167 66.5 67.5 82.5s73 24 125 24c42.667 0 78 -5.16699 106 -15.5s49.167 -27.833 63.5 -52.5s21.5 -58.667 21.5 -102
c0 -27.333 -5.5 -49.666 -16.5 -66.999s-26.667 -29.833 -47 -37.5s-44.5 -11.5 -72.5 -11.5h-244c0 -57.333 5 -103.166 15 -137.499s28.333 -59.166 55 -74.499s65.334 -23 116.001 -23h184v-16c-34 -2.66699 -64.833 -4.33398 -92.5 -5.00098s-58.834 -1 -93.501 -1z
M93.998 272.998h243.999c38 0 66.167 6.66699 84.5 20s27.5 38 27.5 74c0 38.667 -5.5 68.667 -16.5 90s-28.667 36.333 -53 45s-56.833 13 -97.5 13c-49.333 0 -87.666 -6.83301 -114.999 -20.5s-46.5 -38 -57.5 -73s-16.5 -84.5 -16.5 -148.5z" />
    <glyph glyph-name="f" unicode="f" horiz-adv-x="348" 
d="M114 0v509.001h-87v16l87 6v82c0 31.333 3.5 58.666 10.5 81.999s20 41.5 39 54.5s46.833 19.5 83.5 19.5c23.333 0 41.833 -0.666992 55.5 -2l40.5 -4v-16h-95c-31.333 0 -54.833 -5.16699 -70.5 -15.5s-26.167 -25.5 -31.5 -45.5s-8 -44.333 -8 -73v-82h188v-22h-188
v-509h-24z" />
    <glyph glyph-name="g" unicode="g" horiz-adv-x="571" 
d="M216 -243c-35.333 0 -66.167 4.83594 -92.5 14.5029s-46.833 24.5 -61.5 44.5s-22 45.333 -22 76v30c0 32.667 8.66699 59.334 26 80.001s39 36 65 46s52 15 78 15v-20c-24 0 -47.167 -4 -69.5 -12s-40.833 -20.833 -55.5 -38.5s-22 -41.167 -22 -70.5v-30
c0 -42.667 14.167 -72.167 42.5 -88.5s65.5 -24.5 111.5 -24.5h140c52.667 0 93.834 10 123.501 30s44.5 51 44.5 93v25c0 23.333 -4.33301 43.666 -13 60.999s-24 30.833 -46 40.5s-53.333 14.5 -94 14.5h-194c-26.667 0 -49 6.83301 -67 20.5s-27 32.834 -27 57.501
c0 26 8 45.667 24 59s38.667 22.666 68 27.999c-28 9.33301 -49.5 22.666 -64.5 39.999s-25.333 36.166 -31 56.499s-8.5 40.166 -8.5 59.499c0 42.667 8.66699 76.334 26 101.001s40.666 42.167 69.999 52.5s61.333 15.5 96 15.5h282v-16l-151 -6
c10.667 -5.33301 23.167 -13 37.5 -23s26.833 -25.333 37.5 -46s16 -50 16 -88c0 -24.667 -5.33301 -49.334 -16 -74.001s-29.5 -45.334 -56.5 -62.001s-64.5 -25 -112.5 -25h-77c-36.667 0 -65.167 -5.16699 -85.5 -15.5s-30.5 -29.166 -30.5 -56.499
c0 -20 7 -34.333 21 -43s28.333 -13 43 -13h200c41.333 0 74.833 -5.33301 100.5 -16s44.5 -26 56.5 -46s18 -44.333 18 -73v-28c0 -45.333 -16.333 -80.833 -49 -106.5s-79.667 -38.5 -141 -38.5h-140zM235.999 215.003h61.998c44.667 0 78.667 6.83301 102 20.5
s39.333 31 48 52s13 43.167 13 66.5c0 38.667 -6.66699 69.5 -20 92.5s-31.166 39.5 -53.499 49.5s-47.833 15 -76.5 15h-58c-48 0 -86.333 -11 -115 -33s-43 -60 -43 -114c0 -52.667 12.833 -90.667 38.5 -114s59.834 -35 102.501 -35z" />
    <glyph glyph-name="h" unicode="h" horiz-adv-x="582" 
d="M91 0l0.000976562 762.999h24v-294c29.333 19.333 62.5 36 99.5 50s75.833 21 116.5 21c35.333 0 65.166 -8 89.499 -24s42.833 -37 55.5 -63s19 -53.667 19 -83v-370h-24v370c0 26.667 -5.5 51.167 -16.5 73.5s-26.833 40.333 -47.5 54s-46 20.5 -76 20.5
c-29.333 0 -55.5 -2.5 -78.5 -7.5s-45.333 -12.167 -67 -21.5s-45.167 -20.666 -70.5 -33.999v-455h-24z" />
    <glyph glyph-name="i" unicode="i" horiz-adv-x="206" 
d="M98 640c-8 0 -12 3.99902 -12 11.999v62c0 8 4 12 12 12h11c4 0 6.83301 -1.16699 8.5 -3.5s2.5 -5.16602 2.5 -8.49902v-62c0 -8 -3.66699 -12 -11 -12h-11zM91 -0.000976562v531h24v-531h-24z" />
    <glyph glyph-name="j" unicode="j" horiz-adv-x="206" 
d="M98 640c-8 0 -12 3.99902 -12 11.999v62c0 8 4 12 12 12h11c4 0 6.83301 -1.16699 8.5 -3.5s2.5 -5.16602 2.5 -8.49902v-62c0 -8 -3.66699 -12 -11 -12h-11zM91 -237.001v768h24v-504c0 -52.667 -1 -102.167 -3 -148.5l-5 -115.5h-16z" />
    <glyph glyph-name="k" unicode="k" horiz-adv-x="468" 
d="M91 0v763h24v-465h87l199 233h30l-212 -245l221 -286h-31l-211 276h-83v-276h-24z" />
    <glyph glyph-name="l" unicode="l" horiz-adv-x="278" 
d="M209 0c-24.667 0 -45.833 4.83301 -63.5 14.5s-31.167 26.667 -40.5 51s-14 58.833 -14 103.5v594h24v-594c0 -40.667 3.66699 -71 11 -91s17.833 -33.667 31.5 -41s29.5 -12 47.5 -14l64 -7v-16h-60z" />
    <glyph glyph-name="m" unicode="m" horiz-adv-x="962" 
d="M91 0l-0.000976562 531.001h14l10 -62c29.333 19.333 62.5 36 99.5 50s75.833 21 116.5 21c34 0 63.167 -7.66699 87.5 -23s42.833 -35 55.5 -59c17.333 13.333 39.333 26.166 66 38.499s55 22.666 85 30.999s58.333 12.5 85 12.5c35.333 0 65.333 -8 90 -24
s43.334 -37 56.001 -63s19 -53.667 19 -83v-370h-24v370c0 26.667 -5.5 51.167 -16.5 73.5s-27 40.333 -48 54s-46.5 20.5 -76.5 20.5c-38 0 -77 -7 -117 -21s-78 -31 -114 -51c5.33301 -12 9.33301 -24.333 12 -37s4 -25.667 4 -39v-370h-24v370
c0 26.667 -5.5 51.167 -16.5 73.5s-26.833 40.333 -47.5 54s-46 20.5 -76 20.5c-29.333 0 -55.666 -2.5 -78.999 -7.5s-45.833 -12.167 -67.5 -21.5s-44.834 -20.666 -69.501 -33.999v-455h-24z" />
    <glyph glyph-name="n" unicode="n" horiz-adv-x="582" 
d="M91 0l0.000976562 530.999h14l10 -62c29.333 19.333 62.5 36 99.5 50s75.833 21 116.5 21c35.333 0 65.166 -8 89.499 -24s42.833 -37 55.5 -63s19 -53.667 19 -83v-370h-24v370c0 26.667 -5.5 51.167 -16.5 73.5s-26.833 40.333 -47.5 54s-46 20.5 -76 20.5
c-29.333 0 -55.666 -2.5 -78.999 -7.5s-45.833 -12.167 -67.5 -21.5s-44.834 -20.666 -69.501 -33.999v-455h-24z" />
    <glyph glyph-name="o" unicode="o" horiz-adv-x="578" 
d="M288 -6c-34 0 -64.5 3.5 -91.5 10.5s-50 20 -69 39s-33.333 46.5 -43 82.5s-14.5 82.667 -14.5 140s4.83301 103.833 14.5 139.5s24 63 43 82s42 32 69 39s57.5 10.5 91.5 10.5s64.667 -3.5 92 -10.5s50.5 -20 69.5 -39s33.5 -46.333 43.5 -82s15 -82.167 15 -139.5
s-5 -104 -15 -140s-24.5 -63.5 -43.5 -82.5s-42.167 -32 -69.5 -39s-58 -10.5 -92 -10.5zM288 16c30.667 0 58.167 2.83301 82.5 8.5s44.833 17 61.5 34s29.5 42.167 38.5 75.5s13.5 77.333 13.5 132c0 55.333 -4.5 99.5 -13.5 132.5s-21.833 57.833 -38.5 74.5
s-37.167 27.834 -61.5 33.501s-51.833 8.5 -82.5 8.5s-58 -2.83301 -82 -8.5s-44.333 -16.834 -61 -33.501s-29.334 -41.5 -38.001 -74.5s-13 -77.167 -13 -132.5c0 -54.667 4.33301 -98.667 13 -132s21.334 -58.5 38.001 -75.5s37 -28.333 61 -34s51.333 -8.5 82 -8.5z" />
    <glyph glyph-name="p" unicode="p" horiz-adv-x="572" 
d="M91 -237l-0.000976562 768.001h16l8 -57c11.333 7.33301 28 16 50 26s46 18.667 72 26s50.333 11 73 11c36 0 66.333 -8.16699 91 -24.5s44.5 -37.833 59.5 -64.5s25.667 -55.667 32 -87s9.5 -62.333 9.5 -93c0 -62 -7.5 -113.333 -22.5 -154
s-36.667 -70.834 -65 -90.501s-63.166 -29.5 -104.499 -29.5c-32.667 0 -66 6 -100 18s-65.667 27 -95 45v-294h-24zM309.999 16.001c33.333 0 62.499 8.16699 87.499 24.5s44.667 42.833 59 79.5s21.5 86 21.5 148c0 58 -8.16699 105.167 -24.5 141.5
s-37.166 63 -62.499 80s-52.333 25.5 -81 25.5c-39.333 0 -75 -6.16699 -107 -18.5s-61.333 -25.166 -88 -38.499v-385c31.333 -16.667 63.5 -30.334 96.5 -41.001s65.833 -16 98.5 -16z" />
    <glyph glyph-name="q" unicode="q" horiz-adv-x="568" 
d="M457 -237v293.999c-30.667 -19.333 -63.834 -34.666 -99.501 -45.999s-70.167 -17 -103.5 -17c-44.667 0 -80.5 10.5 -107.5 31.5s-46.5 51.833 -58.5 92.5s-18 90.667 -18 150c0 56 6.83301 104.167 20.5 144.5s34.834 71.166 63.501 92.499s65.667 32 111 32
c32 0 61.167 -0.333008 87.5 -1s50.333 -1.66699 72 -3s40.5 -2.66602 56.5 -3.99902v-766h-24zM254 15.999c37.333 0 71.999 4.83105 103.999 14.498s65 23.834 99 42.501v442h-195c-42.667 0 -76.167 -11 -100.5 -33s-41.666 -51.667 -51.999 -89s-15.5 -79 -15.5 -125
c0 -56.667 5.5 -103.667 16.5 -141s28.167 -65.166 51.5 -83.499s54 -27.5 92 -27.5z" />
    <glyph glyph-name="r" unicode="r" horiz-adv-x="404" 
d="M91 0v531.002h16l8 -101c28 31.333 58.833 57 92.5 77s72.167 30 115.5 30c10.667 0 20.5 -0.5 29.5 -1.5s17.167 -2.5 24.5 -4.5v-24c-7.33301 1.33301 -15.5 2.66602 -24.5 3.99902s-18.833 2 -29.5 2c-28.667 0 -54 -3.83301 -76 -11.5s-43.5 -18.834 -64.5 -33.501
s-43.5 -32.667 -67.5 -54v-414h-24z" />
    <glyph glyph-name="s" unicode="s" horiz-adv-x="496" 
d="M266 -6c-10 0 -24.8271 0.166992 -44.4941 0.5s-40.5 0.833008 -62.5 1.5s-41.833 1.33398 -59.5 2.00098s-30.167 1.33398 -37.5 2.00098v16h204c28 0 53 2.16699 75 6.5s39.333 14.166 52 29.499s19 39 19 71v29c0 31.333 -10.333 55.833 -31 73.5
s-52.334 26.5 -95.001 26.5h-68c-32.667 0 -60.834 3.5 -84.501 10.5s-41.834 19.333 -54.501 37s-19 42.167 -19 73.5v26c0 32.667 6.33301 59 19 79s31.334 34.667 56.001 44s55 14 91 14c16 0 35.833 -0.166992 59.5 -0.5s47.667 -1 72 -2s44.166 -2.5 59.499 -4.5v-16
h-191c-45.333 0 -80.333 -7.83301 -105 -23.5s-37 -45.834 -37 -90.501v-26c0 -28 5.66699 -49 17 -63s27.166 -23.167 47.499 -27.5s43.5 -6.5 69.5 -6.5h68c44 0 80 -10.333 108 -31s42 -51.667 42 -93v-29c0 -36 -7.83301 -63.167 -23.5 -81.5
s-36.334 -30.833 -62.001 -37.5s-53.834 -10 -84.501 -10z" />
    <glyph glyph-name="t" unicode="t" horiz-adv-x="350" 
d="M246 0c-28.667 0 -53.1699 5.5 -73.5029 16.5s-35.666 28.167 -45.999 51.5s-15.5 53.333 -15.5 90l2 351h-86v16l84 6l8 149h16v-149h175v-22h-175v-351c0 -30 3.33301 -53.833 10 -71.5s15.334 -31 26.001 -40s21.834 -15.167 33.501 -18.5s22.5 -5.33301 32.5 -6
l64 -6v-16h-55z" />
    <glyph glyph-name="u" unicode="u" horiz-adv-x="582" 
d="M255 -6c-52.667 0 -93.167 12.5 -121.5 37.5s-42.5 67.5 -42.5 127.5v372h24v-372c0 -56 12.5 -93.833 37.5 -113.5s61.167 -29.5 108.5 -29.5c41.333 0 77.5 5 108.5 15s64.833 25 101.5 45v455h24v-531h-14l-10 62c-28.667 -18.667 -61.667 -34.667 -99 -48
s-76.333 -20 -117 -20z" />
    <glyph glyph-name="v" unicode="v" horiz-adv-x="514" 
d="M242 0l-218 531h24l207 -508l211 508h24l-222 -531h-26z" />
    <glyph glyph-name="w" unicode="w" horiz-adv-x="774" 
d="M202 0l-178 531h24l167 -508l159 508h26l159 -508l167 508h24l-178 -531h-26l-159 508l-159 -508h-26z" />
    <glyph glyph-name="x" unicode="x" horiz-adv-x="480" 
d="M421 0l-389 531h27l389 -531h-27zM32 0l196 268l12 -17l-183 -251h-25zM251 261l-12 15l183 254l26 1z" />
    <glyph glyph-name="y" unicode="y" horiz-adv-x="519" 
d="M215 -237l76 237.003c-6.66699 0.666992 -17.167 3.16699 -31.5 7.5s-29.166 14.166 -44.499 29.499s-29 39.666 -41 72.999l-150 421h26l148 -415c9.33301 -26 19.666 -45.333 30.999 -58s22.333 -21.334 33 -26.001s19.5 -7 26.5 -7h10.5l171 506h25l-223 -669l-45 -99
h-12z" />
    <glyph glyph-name="z" unicode="z" horiz-adv-x="486" 
d="M56 0v22l351 487h-357v22h386v-22l-353 -487h353v-22h-380z" />
    <glyph glyph-name="braceleft" unicode="{" horiz-adv-x="304" 
d="M277 -210c-37.333 0 -66.835 5.16797 -88.502 15.501s-37.667 24 -48 41s-17 35.667 -20 56s-4.5 40.166 -4.5 59.499v285c0 16 -4.66699 29.667 -14 41s-20.833 19.833 -34.5 25.5s-27.167 7.83398 -40.5 6.50098v27c11.333 1.33301 24 4 38 8s26.167 11 36.5 21
s15.5 24.667 15.5 44v236c0 32 4.16699 62.167 12.5 90.5s24 51.333 47 69s56.5 26.5 100.5 26.5v-22c-29.333 0 -54.166 -5.16699 -74.499 -15.5s-35.666 -27.333 -45.999 -51s-15.5 -56.167 -15.5 -97.5v-236c0 -24 -8 -43.5 -24 -58.5s-34.667 -24.167 -56 -27.5
c21.333 -2.66699 39.833 -11.834 55.5 -27.501s23.5 -34.167 23.5 -55.5v-289c0 -58 11.5 -97.5 34.5 -118.5s57.167 -31.5 102.5 -31.5v-22z" />
    <glyph glyph-name="bar" unicode="|" horiz-adv-x="254" 
d="M115 -72v842h24v-842h-24z" />
    <glyph glyph-name="braceright" unicode="}" horiz-adv-x="304" 
d="M27 -210l-0.00195312 21.999c45.333 0 79.5 10.5 102.5 31.5s34.5 60.5 34.5 118.5v289c0 21.333 7.83301 39.833 23.5 55.5s34.167 24.834 55.5 27.501c-21.333 3.33301 -40 12.5 -56 27.5s-24 34.5 -24 58.5v236c0 41.333 -5.16699 73.833 -15.5 97.5
s-25.666 40.667 -45.999 51s-45.166 15.5 -74.499 15.5v22c44.667 0 78.334 -8.83301 101.001 -26.5s38.167 -40.667 46.5 -69s12.5 -58.5 12.5 -90.5v-236c0 -19.333 5.16699 -34 15.5 -44s22.666 -17 36.999 -21s26.833 -6.66699 37.5 -8v-27
c-13.333 1.33301 -26.833 -0.833984 -40.5 -6.50098s-25.167 -14.167 -34.5 -25.5s-14 -25 -14 -41v-285c0 -19.333 -1.5 -39.166 -4.5 -59.499s-9.66699 -39 -20 -56s-26.333 -30.667 -48 -41s-51.167 -15.5 -88.5 -15.5z" />
    <glyph glyph-name="asciitilde" unicode="~" horiz-adv-x="473" 
d="M300 541c-11.333 0 -22.8311 3.66699 -34.498 11s-22.834 15.833 -33.501 25.5s-21 18.167 -31 25.5s-19 11 -27 11c-18.667 0 -35.834 -5 -51.501 -15s-32.5 -21.667 -50.5 -35l-4 8c17.333 15.333 34.5 28.833 51.5 40.5s35.167 17.5 54.5 17.5
c10.667 0 21.667 -3.66699 33 -11s22.666 -15.833 33.999 -25.5s22 -18.167 32 -25.5s19 -11 27 -11c19.333 0 38 6.5 56 19.5s32.667 24.167 44 33.5l6 -7c-16.667 -16.667 -33.167 -31.167 -49.5 -43.5s-35.166 -18.5 -56.499 -18.5z" />
    <glyph glyph-name="uni00A0" unicode="&#xa0;" horiz-adv-x="280" 
 />
    <glyph glyph-name="exclamdown" unicode="&#xa1;" horiz-adv-x="260" 
d="M140 335l4 -535h-24l4 535h16zM137 531c8 0 12.001 -4 12.001 -12v-62c0 -8 -4 -12 -12 -12h-11c-8 0 -12 4 -12 12v62c0 4 1.16699 7 3.5 9s5.16602 3 8.49902 3h11z" />
    <glyph glyph-name="cent" unicode="&#xa2;" horiz-adv-x="488" 
d="M252 -82l-0.000976562 76.9971c-27.333 0 -53 3.16699 -77 9.5s-45 18.833 -63 37.5s-32.167 46 -42.5 82s-15.5 83.333 -15.5 142c0 59.333 4.83301 106.833 14.5 142.5s23.167 62.667 40.5 81s38.166 30.666 62.499 36.999s51.166 9.5 80.499 9.5v82h18v-83
c24 -1.33301 50.333 -4.33301 79 -9s54.667 -10 78 -16v-14c-28 5.33301 -56.667 9.66602 -86 12.999s-63 5 -101 5c-25.333 0 -48 -3.16699 -68 -9.5s-37 -18.166 -51 -35.499s-24.667 -42.666 -32 -75.999s-11 -77 -11 -131c0 -51.333 4 -93.166 12 -125.499
s19.333 -57.166 34 -74.499s32.334 -29.166 53.001 -35.499s43.667 -9.5 69 -9.5c26 0 48.667 1 68 3s38.5 4.66699 57.5 8s39.833 7.33301 62.5 12v-16c-33.333 -10 -61.666 -16.667 -84.999 -20s-49.666 -6 -78.999 -8v-78h-18z" />
    <glyph glyph-name="sterling" unicode="&#xa3;" horiz-adv-x="609" 
d="M68 0l0.00292969 16l122 6v326l-122 3v16l122 3v165c0 55.333 8.16699 97.166 24.5 125.499s38.666 47.333 66.999 57s60.5 14.5 96.5 14.5c23.333 0 47.666 -0.666992 72.999 -2s46.333 -2.66602 63 -3.99902v-16h-134c-36 0 -66.333 -4.33301 -91 -13
s-43.334 -25.5 -56.001 -50.5s-19 -62.167 -19 -111.5v-165l240 -3v-16l-240 -3v-326h318v-22h-464z" />
    <glyph glyph-name="currency" unicode="&#xa4;" horiz-adv-x="609" 
d="M304 201c-28 0 -53.667 7 -77 21s-42 32.833 -56 56.5s-21 49.5 -21 77.5c0 28.667 7 54.667 21 78s32.667 42 56 56s49 21 77 21c28.667 0 54.667 -7 78 -21s42 -32.667 56 -56s21 -49.333 21 -78c0 -28 -7 -53.833 -21 -77.5s-32.667 -42.5 -56 -56.5
s-49.333 -21 -78 -21zM104 139l-17 17l108 108l17 -17zM191 452l-104 104l17 17l104 -104zM504 139l-106 106l17 17l106 -106zM304 225c24 0 46 6 66 18s35.833 28 47.5 48s17.5 41.667 17.5 65c0 24 -5.83301 46 -17.5 66s-27.5 35.833 -47.5 47.5s-42 17.5 -66 17.5
c-23.333 0 -44.833 -5.83301 -64.5 -17.5s-35.334 -27.5 -47.001 -47.5s-17.5 -42 -17.5 -66c0 -23.333 5.83301 -45 17.5 -65s27.334 -36 47.001 -48s41.167 -18 64.5 -18zM415 450l-17 17l106 106l17 -17z" />
    <glyph glyph-name="yen" unicode="&#xa5;" horiz-adv-x="609" 
d="M80 260v24h449v-24h-449zM80 144v24h449v-24h-449zM282 0v260l-243 472h26l229 -449l229 449h26l-243 -472v-260h-24z" />
    <glyph glyph-name="brokenbar" unicode="&#xa6;" horiz-adv-x="254" 
d="M115 429v341h24v-341h-24zM115 -72v328h24v-328h-24z" />
    <glyph glyph-name="section" unicode="&#xa7;" horiz-adv-x="559" 
d="M317 -6c-10.667 0 -25.666 0.166016 -44.999 0.499023s-39.833 0.833008 -61.5 1.5s-41.667 1.33398 -60 2.00098s-31.5 1.33398 -39.5 2.00098v16h206c40.667 0 71.167 4.16699 91.5 12.5s34.166 19.5 41.499 33.5s11 30 11 48v73c0 19.333 -2.16699 34.166 -6.5 44.499
s-14.166 17.5 -29.499 21.5s-39.333 6 -72 6h-149c-34.667 0 -62.167 3.16699 -82.5 9.5s-35 16.666 -44 30.999s-13.5 33.5 -13.5 57.5v62c0 33.333 5.66699 56 17 68s27.333 19.667 48 23c-21.333 4 -35.833 14.5 -43.5 31.5s-11.5 34.5 -11.5 52.5v70
c0 32.667 6.16699 58 18.5 76s29.666 30.5 51.999 37.5s48.833 10.5 79.5 10.5c11.333 0 27.5 -0.166992 48.5 -0.5s43.333 -0.666016 67 -0.999023s45.5 -0.833008 65.5 -1.5s34.333 -1.66699 43 -3v-16h-224c-25.333 0 -47.5 -2.33301 -66.5 -7
s-33.667 -14.334 -44 -29.001s-15.5 -36.667 -15.5 -66v-70c0 -31.333 9 -51.166 27 -59.499s44.333 -12.5 79 -12.5h149c40.667 0 71 -3.33301 91 -10s33.5 -17.5 40.5 -32.5s10.5 -34.833 10.5 -59.5v-62c0 -30.667 -4.33301 -52.167 -13 -64.5s-24.667 -19.833 -48 -22.5
c16.667 -3.33301 28.5 -9.5 35.5 -18.5s11.333 -19.333 13 -31s2.5 -23.167 2.5 -34.5v-73c0 -28.667 -6.5 -51.5 -19.5 -68.5s-32 -29.167 -57 -36.5s-55.5 -11 -91.5 -11zM204.001 276.999l148.999 0.000976562c36 0 62.333 1.5 79 4.5s27.334 9.83301 32.001 20.5
s7 28 7 52v62c0 22 -3 38.667 -9 50s-17.5 19.166 -34.5 23.499s-41.833 6.5 -74.5 6.5h-149c-44.667 0 -75.167 -5.33301 -91.5 -16s-24.5 -32.667 -24.5 -66v-61c0 -16 3 -29.667 9 -41s17.333 -20 34 -26s41 -9 73 -9z" />
    <glyph glyph-name="dieresis" unicode="&#xa8;" horiz-adv-x="424" 
d="M304 666c-8 0 -12 3.99902 -12 11.999v62c0 8 4 12 12 12h11c4 0 7 -1.16699 9 -3.5s3 -5.16602 3 -8.49902v-62c0 -8 -4 -12 -12 -12h-11zM110 665.999c-8 0 -12 3.99902 -12 11.999v62c0 8 4 12 12 12h11c4 0 7 -1.16699 9 -3.5s3 -5.16602 3 -8.49902v-62
c0 -8 -4 -12 -12 -12h-11z" />
    <glyph glyph-name="copyright" unicode="&#xa9;" horiz-adv-x="864" 
d="M315 0c-36.667 0 -68.499 8.3291 -95.499 24.9961s-49.833 38.667 -68.5 66s-33.667 57.333 -45 90s-19.5 65.334 -24.5 98.001s-7.5 62.334 -7.5 89.001c0 40.667 3.66699 82.334 11 125.001s19.833 82 37.5 118s42.167 65.167 73.5 87.5s71 33.5 119 33.5h256
c39.333 0 72.166 -8.5 98.499 -25.5s47.5 -39.333 63.5 -67s28.167 -57.667 36.5 -90s13.833 -64.5 16.5 -96.5s4 -60.333 4 -85c0 -48 -4.33301 -94.167 -13 -138.5s-22 -83.666 -40 -117.999s-40.667 -61.5 -68 -81.5s-60 -30 -98 -30h-256zM394.001 146.996
c-26 0 -50 5.83008 -72 17.4971s-39.5 33.334 -52.5 65.001s-19.5 76.834 -19.5 135.501c0 54 6.33301 96.833 19 128.5s30 54.5 52 68.5s46.333 21 73 21c14 0 31.333 -0.666992 52 -2s42.167 -3.33301 64.5 -6s42.833 -5.66699 61.5 -9v-9
c-20.667 3.33301 -42.667 5.83301 -66 7.5s-45 2.83398 -65 3.50098s-35.667 1 -47 1c-26 0 -48.667 -6.83301 -68 -20.5s-34.5 -35.667 -45.5 -66s-16.5 -70.5 -16.5 -120.5c0 -63.333 9.83301 -112.666 29.5 -147.999s53.167 -53 100.5 -53c36 0 69.833 1.33301 101.5 4
s59.167 6.66699 82.5 12v-9c-32 -8.66699 -62.333 -14.334 -91 -17.001s-59.667 -4 -93 -4zM315.001 13.9932l255.999 -0.00292969c38 0 72.5 13.5 103.5 40.5s55.667 66.833 74 119.5s27.5 117.334 27.5 194.001c0 48 -3.66699 93 -11 135s-19 79.167 -35 111.5
s-37 57.666 -63 75.999s-58 27.5 -96 27.5h-256c-28 0 -55.333 -5.66699 -82 -17s-50.667 -30.166 -72 -56.499s-38.666 -62 -51.999 -107s-20.333 -101.5 -21 -169.5c-0.666992 -39.333 3.5 -79.666 12.5 -120.999s22.833 -79.666 41.5 -114.999s42.5 -63.833 71.5 -85.5
s62.833 -32.5 101.5 -32.5z" />
    <glyph glyph-name="ordfeminine" unicode="&#xaa;" horiz-adv-x="406" 
d="M40 271v20h312v-20h-312zM62 458c0 -20.667 4.16797 -36.834 12.501 -48.501s18.666 -20 30.999 -25s24.833 -7.83301 37.5 -8.5c14.667 0 32 2.16699 52 6.5s39.5 9.5 58.5 15.5s34.833 11.333 47.5 16l19 7v146l-163 -6
c-34.667 -0.666992 -59.167 -9.16699 -73.5 -25.5s-21.5 -36.166 -21.5 -59.499v-18zM40.001 477c0 31.333 10.1699 56.332 30.5029 74.999s50.166 28 89.499 28h160v64c0 28.667 -7.83301 51.667 -23.5 69s-46.167 26 -91.5 26h-128v15c16 1.33301 34.833 2.33301 56.5 3
s46.5 1.33398 74.5 2.00098c32 0.666992 57.833 -3.33301 77.5 -12s34 -21.5 43 -38.5s13.5 -38.167 13.5 -63.5v-285h-15l-7 47c-0.666992 0 -6.83398 -2.66699 -18.501 -8s-26.5 -11.333 -44.5 -18s-37.333 -12.5 -58 -17.5s-40.334 -7.5 -59.001 -7.5
c-28.667 0 -52.5 8.33301 -71.5 25s-28.5 40.667 -28.5 72v24z" />
    <glyph glyph-name="guillemotleft" unicode="&#xab;" horiz-adv-x="604" 
d="M278 70l-210 208l206 203l16 -16l-190 -187l196 -191zM528 70l-210 208l206 203l16 -16l-190 -187l196 -191z" />
    <glyph glyph-name="logicalnot" unicode="&#xac;" horiz-adv-x="609" 
d="M504 224v243h24v-243h-24zM80 464v24h448v-24h-448z" />
    <glyph glyph-name="uni00AD" unicode="&#xad;" horiz-adv-x="338" 
d="M27 278v24h284v-24h-284z" />
    <glyph glyph-name="registered" unicode="&#xae;" horiz-adv-x="864" 
d="M315 0c-36.667 0 -68.499 8.3291 -95.499 24.9961s-49.833 38.667 -68.5 66s-33.667 57.333 -45 90s-19.5 65.334 -24.5 98.001s-7.5 62.334 -7.5 89.001c0 40.667 3.66699 82.334 11 125.001s19.833 82 37.5 118s42.167 65.167 73.5 87.5s71 33.5 119 33.5h256
c39.333 0 72.166 -8.5 98.499 -25.5s47.5 -39.333 63.5 -67s28.167 -57.667 36.5 -90s13.833 -64.5 16.5 -96.5s4 -60.333 4 -85c0 -48 -4.33301 -94.167 -13 -138.5s-22 -83.666 -40 -117.999s-40.667 -61.5 -68 -81.5s-60 -30 -98 -30h-256zM315.001 13.9961
l255.999 -0.00292969c38 0 72.5 13.5 103.5 40.5s55.667 66.833 74 119.5s27.5 117.334 27.5 194.001c0 48 -3.66699 93 -11 135s-19 79.167 -35 111.5s-37 57.666 -63 75.999s-58 27.5 -96 27.5h-256c-28 0 -55.333 -5.66699 -82 -17s-50.667 -30.166 -72 -56.499
s-38.666 -62 -51.999 -107s-20.333 -101.5 -21 -169.5c-0.666992 -39.333 3.5 -79.666 12.5 -120.999s22.833 -79.666 41.5 -114.999s42.5 -63.833 71.5 -85.5s62.833 -32.5 101.5 -32.5zM285 152.993l-0.000976562 427h177c22 0 42.333 -3.16699 61 -9.5
s33.834 -18.5 45.501 -36.5s17.5 -44.667 17.5 -80c0 -28.667 -4.16699 -50.5 -12.5 -65.5s-18.5 -25.167 -30.5 -30.5s-24.333 -8.5 -37 -9.5l-31 -2.5l111 -193h-17l-111 192l-159 5v-197h-14zM298.999 358.993h169c34 0 59.833 5.66699 77.5 17s26.5 37 26.5 77
c0 43.333 -9.33301 73 -28 89s-44 24 -76 24h-169v-207z" />
    <glyph glyph-name="macron" unicode="&#xaf;" horiz-adv-x="387" 
d="M68 691v15h252v-15h-252z" />
    <glyph glyph-name="degree" unicode="&#xb0;" horiz-adv-x="338" 
d="M170 510c-34.667 0 -63.666 11.499 -86.999 34.499s-35 52.167 -35 87.5c0 24 5.33301 45.167 16 63.5s25.167 32.833 43.5 43.5s39.166 16 62.499 16c35.333 0 64.166 -11.667 86.499 -35s33.5 -52.666 33.5 -87.999s-11.167 -64.5 -33.5 -87.5
s-51.166 -34.5 -86.499 -34.5zM170.001 523.999c31.333 0 56.833 10.333 76.5 31s29.5 46.334 29.5 77.001c0 31.333 -9.83301 57.333 -29.5 78s-45.167 31 -76.5 31c-30.667 0 -56.334 -10.333 -77.001 -31s-31 -46.667 -31 -78c0 -30.667 10.333 -56.334 31 -77.001
s46.334 -31 77.001 -31z" />
    <glyph glyph-name="plusminus" unicode="&#xb1;" horiz-adv-x="609" 
d="M80 144v24h448v-24h-448zM292 282v448h24v-448h-24zM80 494v24h448v-24h-448z" />
    <glyph glyph-name="uni00B2" unicode="&#xb2;" horiz-adv-x="458" 
d="M53 280l0.00195312 20.001l218 200c37.333 34.667 63.166 66.167 77.499 94.5s21.5 60.833 21.5 97.5c0 20.667 -3.83301 39.5 -11.5 56.5s-22.167 30.5 -43.5 40.5s-52 15 -92 15h-146v15c22 1.33301 46.5 2.5 73.5 3.5s53.167 1.5 78.5 1.5
c41.333 0 73.833 -5.83301 97.5 -17.5s40.5 -27.334 50.5 -47.001s15 -42.167 15 -67.5c0 -26 -3.33301 -50 -10 -72s-17.834 -43.5 -33.501 -64.5s-36.5 -43.833 -62.5 -68.5l-201 -185h330v-22h-362z" />
    <glyph glyph-name="uni00B3" unicode="&#xb3;" horiz-adv-x="458" 
d="M235 276c-39.333 0 -75.4971 0.331055 -108.497 0.998047s-60.833 2 -83.5 4v15h189c22.667 0 43.667 2.83301 63 8.5s35.166 16 47.499 31s18.5 36.5 18.5 64.5v46c0 24 -5.83301 42.833 -17.5 56.5s-26.167 23.334 -43.5 29.001s-34.333 8.83398 -51 9.50098l-146 5v14
l146 4c30 1.33301 54.833 8.66602 74.5 21.999s29.5 35.333 29.5 66v49c0 32 -10.833 57.167 -32.5 75.5s-53.167 27.5 -94.5 27.5h-159v15c18.667 2 41.667 3.33301 69 4s59.666 1 96.999 1c49.333 0 85.333 -11.667 108 -35s34 -52.333 34 -87v-50
c0 -25.333 -5.66699 -45 -17 -59s-23.833 -24 -37.5 -30s-24.5 -9.33301 -32.5 -10c9.33301 -1.33301 21.666 -5.66602 36.999 -12.999s29.166 -18.5 41.499 -33.5s18.5 -35.5 18.5 -61.5v-46c0 -40 -13.167 -70.5 -39.5 -91.5s-63.166 -31.5 -110.499 -31.5z" />
    <glyph glyph-name="acute" unicode="&#xb4;" horiz-adv-x="201" 
d="M27 631l121 133h26l-133 -133h-14z" />
    <glyph glyph-name="uni00B5" unicode="&#xb5;" horiz-adv-x="582" 
d="M255 -6c-29.333 0 -54.5 4.49805 -75.5 13.498s-38 21.833 -51 38.5s-22.5 36.334 -28.5 59.001s-9 47.334 -9 74.001v353h24v-373c0 -37.333 6.16699 -66.333 18.5 -87s29.5 -35.167 51.5 -43.5s47.333 -12.5 76 -12.5c41.333 0 77.5 5 108.5 15s64.833 25 101.5 45v456
h24v-532h-14l-10 62c-28.667 -18.667 -61.667 -34.667 -99 -48s-76.333 -20 -117 -20zM91 -268.002v487h24v-487h-24z" />
    <glyph glyph-name="paragraph" unicode="&#xb6;" horiz-adv-x="572" 
d="M294 -270l0.00292969 595c-4.66699 -3.33301 -14.167 -6 -28.5 -8s-32.833 -2.66699 -55.5 -2c-36.667 0 -67.334 7 -92.001 21s-43.167 32.667 -55.5 56s-18.5 49 -18.5 77v123c0 32 8.16699 58.333 24.5 79s37.166 36 62.499 46s51.666 15 78.999 15h335v-26h-89v-706
h-24v708h-114v-978h-24zM210.003 339h84v369h-84c-46 0 -81.167 -11.333 -105.5 -34s-36.5 -50.667 -36.5 -84v-119c0 -29.333 5.83301 -52.833 17.5 -70.5s25.834 -31 42.501 -40s32.667 -14.833 48 -17.5s26.666 -4 33.999 -4z" />
    <glyph glyph-name="periodcentered" unicode="&#xb7;" horiz-adv-x="264" 
d="M127 364c-8 0 -12.001 4 -12.001 12v12c0 8 4 12 12 12h11c8 0 12 -4 12 -12v-12c0 -4 -1.16699 -7 -3.5 -9s-5.16602 -3 -8.49902 -3h-11z" />
    <glyph glyph-name="cedilla" unicode="&#xb8;" horiz-adv-x="267" 
d="M68 -183v10.001l26 2c21.333 1.33301 37.833 6.16602 49.5 14.499s17.5 21.5 17.5 39.5c0 13.333 -5.16699 24.833 -15.5 34.5s-32.833 14.5 -67.5 14.5l14 10c32 0 54 -5.33301 66 -16s18 -25.667 18 -45c0 -20.667 -7.83301 -36.5 -23.5 -47.5
s-37.167 -16.5 -64.5 -16.5h-20zM78 -67.999l53 78h14l-53 -78h-14z" />
    <glyph glyph-name="uni00B9" unicode="&#xb9;" horiz-adv-x="458" 
d="M225 280v522l-140 -44v15l141 53h21v-546h-22zM77 280v20h319v-20h-319z" />
    <glyph glyph-name="ordmasculine" unicode="&#xba;" horiz-adv-x="435" 
d="M61 271v20h313v-20h-313zM74 556c0 -52.667 5.66699 -92 17 -118s27.666 -43 48.999 -51s47 -12 77 -12s55.667 4 77 12s37.833 25 49.5 51s17.5 65.333 17.5 118c0 53.333 -5.83301 92.833 -17.5 118.5s-28.167 42.5 -49.5 50.5s-47 12 -77 12s-55.667 -4 -77 -12
s-37.666 -24.833 -48.999 -50.5s-17 -65.167 -17 -118.5zM52 556c0 56.667 6.5 99.167 19.5 127.5s31.833 47.5 56.5 57.5s54.334 15 89.001 15s64.334 -5 89.001 -15s43.667 -29.167 57 -57.5s20 -70.833 20 -127.5c0 -56 -6.66699 -98.333 -20 -127s-32.333 -48 -57 -58
s-54.334 -15 -89.001 -15s-64.334 5 -89.001 15s-43.5 29.333 -56.5 58s-19.5 71 -19.5 127z" />
    <glyph glyph-name="guillemotright" unicode="&#xbb;" horiz-adv-x="604" 
d="M80 70l-16 16l190 187l-196 191l18 17l210 -208zM330 70l-16 16l190 187l-196 191l18 17l210 -208z" />
    <glyph glyph-name="onequarter" unicode="&#xbc;" horiz-adv-x="1275" 
d="M435 0l380 770h24l-380 -770h-24zM1119 1v153h-273l-8 19l229 367h23l-228 -366h257v172l7 42h15v-214h89v-15l-89 -5v-153h-22zM235 280v522l-140 -44v15l141 53h21v-546h-22zM87 280v20h319v-20h-319z" />
    <glyph glyph-name="onehalf" unicode="&#xbd;" horiz-adv-x="1275" 
d="M435 0l380 770h24l-380 -770h-24zM848 0l0.00195312 20.001l218 200c37.333 34.667 63.166 66.167 77.499 94.5s21.5 60.833 21.5 97.5c0 20.667 -3.83301 39.5 -11.5 56.5s-22.167 30.5 -43.5 40.5s-52 15 -92 15h-146v15c22 1.33301 46.5 2.5 73.5 3.5
s53.167 1.5 78.5 1.5c41.333 0 73.833 -5.83301 97.5 -17.5s40.5 -27.334 50.5 -47.001s15 -42.167 15 -67.5c0 -26 -3.33301 -50 -10 -72s-17.834 -43.5 -33.501 -64.5s-36.5 -43.833 -62.5 -68.5l-201 -185h330v-22h-362zM235.002 280.001v522l-140 -44v15l141 53h21v-546
h-22zM87.002 280.001v20h319v-20h-319z" />
    <glyph glyph-name="threequarters" unicode="&#xbe;" horiz-adv-x="1275" 
d="M435 0l380 770h24l-380 -770h-24zM1119 1v153h-273l-8 19l229 367h23l-228 -366h257v172l7 42h15v-214h89v-15l-89 -5v-153h-22zM245 276c-39.333 0 -75.4971 0.331055 -108.497 0.998047s-60.833 2 -83.5 4v15h189c22.667 0 43.667 2.83301 63 8.5s35.166 16 47.499 31
s18.5 36.5 18.5 64.5v46c0 24 -5.83301 42.833 -17.5 56.5s-26.167 23.334 -43.5 29.001s-34.333 8.83398 -51 9.50098l-146 5v14l146 4c30 1.33301 54.833 8.66602 74.5 21.999s29.5 35.333 29.5 66v49c0 32 -10.833 57.167 -32.5 75.5s-53.167 27.5 -94.5 27.5h-159v15
c18.667 2 41.667 3.33301 69 4s59.666 1 96.999 1c49.333 0 85.333 -11.667 108 -35s34 -52.333 34 -87v-50c0 -25.333 -5.66699 -45 -17 -59s-23.833 -24 -37.5 -30s-24.5 -9.33301 -32.5 -10c9.33301 -1.33301 21.666 -5.66602 36.999 -12.999s29.166 -18.5 41.499 -33.5
s18.5 -35.5 18.5 -61.5v-46c0 -40 -13.167 -70.5 -39.5 -91.5s-63.166 -31.5 -110.499 -31.5z" />
    <glyph glyph-name="questiondown" unicode="&#xbf;" horiz-adv-x="532" 
d="M345 336l0.000976562 -125.995h-35c-70 0 -119.5 -10.167 -148.5 -30.5s-43.5 -57.5 -43.5 -111.5v-81c0 -63.333 12.167 -108 36.5 -134s64.166 -39 119.499 -39c37.333 0 72.333 3.16699 105 9.5s68 17.166 106 32.499v-14c-34 -19.333 -68.667 -32.333 -104 -39
s-71.333 -10.334 -108 -11.001c-47.333 -0.666992 -83.833 6.66602 -109.5 21.999s-43.667 37.666 -54 66.999s-15.5 64.666 -15.5 105.999v81c0 56.667 17.5 98.5 52.5 125.5s93.833 40.5 176.5 40.5v102h22zM340.001 531.005c8 0 12.001 -4 12.001 -12v-62
c0 -8 -4 -12 -12 -12h-11c-8 0 -12 4 -12 12v62c0 4 1.16699 7 3.5 9s5.16602 3 8.49902 3h11z" />
    <glyph glyph-name="Agrave" unicode="&#xc0;" horiz-adv-x="666" 
d="M48 0l268 732h34l268 -732h-26l-94 255h-331l-93 -255h-26zM174 277h315l-156 431zM322 791l-133 133h26l121 -133h-14z" />
    <glyph glyph-name="Aacute" unicode="&#xc1;" horiz-adv-x="666" 
d="M48 0l268 732h34l268 -732h-26l-94 255h-331l-93 -255h-26zM174 277h315l-156 431zM329 791l121 133h26l-133 -133h-14z" />
    <glyph glyph-name="Acircumflex" unicode="&#xc2;" horiz-adv-x="666" 
d="M48 0l268 732h34l268 -732h-26l-94 255h-331l-93 -255h-26zM174 277h315l-156 431zM193 791l132 130h20l120 -130h-18l-112 115l-124 -115h-18z" />
    <glyph glyph-name="Atilde" unicode="&#xc3;" horiz-adv-x="666" 
d="M48 0l268 732h34l268 -732h-26l-94 255h-331l-93 -255h-26zM174 277h315l-156 431zM174 821c0 22.667 4.49805 40.332 13.498 52.999s20.333 21.834 34 27.501s27.167 8.5 40.5 8.5c15.333 0 30 -3.66699 44 -11s27.667 -15.833 41 -25.5s26.333 -18.167 39 -25.5
s25.667 -11 39 -11c20.667 0 38.334 6.16699 53.001 18.5s22 30.5 22 54.5h14c0 -26 -8 -47.333 -24 -64s-38.333 -25 -67 -25c-14.667 0 -28.667 3.66699 -42 11s-26.666 15.833 -39.999 25.5s-26.666 18.167 -39.999 25.5s-27 11 -41 11
c-18.667 0 -35.334 -5.5 -50.001 -16.5s-22 -29.833 -22 -56.5h-14z" />
    <glyph glyph-name="Adieresis" unicode="&#xc4;" horiz-adv-x="666" 
d="M48 0l268 732h34l268 -732h-26l-94 255h-331l-93 -255h-26zM174 277h315l-156 431zM446 826c-8 0 -12 3.99902 -12 11.999v62c0 8 4 12 12 12h11c4 0 7 -1.16699 9 -3.5s3 -5.16602 3 -8.49902v-62c0 -8 -4 -12 -12 -12h-11zM192 825.999c-8 0 -12 3.99902 -12 11.999v62
c0 8 4 12 12 12h11c4 0 7 -1.16699 9 -3.5s3 -5.16602 3 -8.49902v-62c0 -8 -4 -12 -12 -12h-11z" />
    <glyph glyph-name="Aring" unicode="&#xc5;" horiz-adv-x="666" 
d="M48 0l268 732h34l268 -732h-26l-94 255h-331l-93 -255h-26zM174 277h315l-156 431zM333 760c-32.667 0 -57.834 7.33301 -75.501 22s-26.5 41.334 -26.5 80.001s8.83301 65.5 26.5 80.5s42.834 22.5 75.501 22.5c33.333 0 58.333 -7.5 75 -22.5s25 -41.833 25 -80.5
s-8.33301 -65.334 -25 -80.001s-41.667 -22 -75 -22zM333 776c29.333 0 50.666 5.83301 63.999 17.5s20 34.5 20 68.5s-6.66699 57 -20 69s-34.666 18 -63.999 18c-28.667 0 -50.167 -6 -64.5 -18s-21.5 -35 -21.5 -69s7.16699 -56.833 21.5 -68.5s35.833 -17.5 64.5 -17.5z
" />
    <glyph glyph-name="AE" unicode="&#xc6;" horiz-adv-x="950" 
d="M624 -3c-42 -0.666992 -75.167 8.16504 -99.5 26.498s-36.5 50.833 -36.5 97.5v132h-255l-159 -253h-26l401 643c11.333 17.333 23.666 32.833 36.999 46.5s29.333 24.334 48 32.001s40.667 11.167 66 10.5c47.333 -0.666992 94.5 -1.5 141.5 -2.5
s93.833 -2.16699 140.5 -3.5v-16h-288c-30.667 0 -52 -6 -64 -18s-18 -31 -18 -57v-261l330 -3v-16l-330 -3v-229c0 -24 4.16699 -43.667 12.5 -59s20.833 -26.666 37.5 -33.999s37.334 -11 62.001 -11h258v-16c-42.667 -0.666992 -85.5 -1.5 -128.5 -2.5
s-86.167 -2.16699 -129.5 -3.5zM246 274.999h242v382z" />
    <glyph glyph-name="Ccedilla" unicode="&#xc7;" horiz-adv-x="577" 
d="M323 -6c-45.333 0 -84.166 5.00195 -116.499 15.002s-58.5 28.167 -78.5 54.5s-34.667 64 -44 113s-14 112.833 -14 191.5c0 73.333 4.66699 134 14 182s24.333 85.667 45 113s47.667 46.666 81 57.999s73.666 17 120.999 17c11.333 0 28 -0.833008 50 -2.5
s46 -3.83398 72 -6.50098s50.667 -6.33398 74 -11.001v-16c-10.667 2 -26.667 4 -48 6s-45.333 3.83301 -72 5.5s-52.667 2.5 -78 2.5c-42 0 -78 -5 -108 -15s-54.333 -27.667 -73 -53s-32.334 -60.666 -41.001 -105.999s-13 -103.333 -13 -174
c0 -75.333 4.33301 -136.333 13 -183s22.167 -82.167 40.5 -106.5s42 -40.833 71 -49.5s64.167 -13 105.5 -13c50 0 91.167 1.5 123.5 4.5s58.833 6.16699 79.5 9.5v-16c-22 -4 -45.667 -7.5 -71 -10.5s-49.666 -5.33301 -72.999 -7s-43.333 -2.5 -60 -2.5zM265 -182.998
v10.001l26 2c21.333 1.33301 37.833 6.16602 49.5 14.499s17.5 21.5 17.5 39.5c0 13.333 -5.16699 24.833 -15.5 34.5s-32.833 14.5 -67.5 14.5l14 10c32 0 54 -5.33301 66 -16s18 -25.667 18 -45c0 -20.667 -7.83301 -36.5 -23.5 -47.5s-37.167 -16.5 -64.5 -16.5h-20z
M275 -67.9971l53 78h14l-53 -78h-14z" />
    <glyph glyph-name="Egrave" unicode="&#xc8;" horiz-adv-x="579" 
d="M225 -3c-16.667 0 -32.999 1.33203 -48.999 3.99902s-30.667 8.16699 -44 16.5s-24 21 -32 38s-12 39.5 -12 67.5v479c0 24.667 3.5 45.334 10.5 62.001s16.5 30 28.5 40s25.5 17.167 40.5 21.5s30.5 6.5 46.5 6.5l99.5 -2l99 -2l98.5 -2v-16h-297
c-30.667 0 -55.334 -8.5 -74.001 -25.5s-28 -44.5 -28 -82.5v-228l359 -3v-16l-359 -3v-229c0 -31.333 5.5 -54.333 16.5 -69s25.167 -24.167 42.5 -28.5s35 -6.5 53 -6.5h287v-16l-95 -2l-95.5 -2zM299.001 790.999l-133 133h26l121 -133h-14z" />
    <glyph glyph-name="Eacute" unicode="&#xc9;" horiz-adv-x="579" 
d="M225 -3c-16.667 0 -32.999 1.33203 -48.999 3.99902s-30.667 8.16699 -44 16.5s-24 21 -32 38s-12 39.5 -12 67.5v479c0 24.667 3.5 45.334 10.5 62.001s16.5 30 28.5 40s25.5 17.167 40.5 21.5s30.5 6.5 46.5 6.5l99.5 -2l99 -2l98.5 -2v-16h-297
c-30.667 0 -55.334 -8.5 -74.001 -25.5s-28 -44.5 -28 -82.5v-228l359 -3v-16l-359 -3v-229c0 -31.333 5.5 -54.333 16.5 -69s25.167 -24.167 42.5 -28.5s35 -6.5 53 -6.5h287v-16l-95 -2l-95.5 -2zM306.001 790.999l121 133h26l-133 -133h-14z" />
    <glyph glyph-name="Ecircumflex" unicode="&#xca;" horiz-adv-x="579" 
d="M225 -3c-16.667 0 -32.999 1.33203 -48.999 3.99902s-30.667 8.16699 -44 16.5s-24 21 -32 38s-12 39.5 -12 67.5v479c0 24.667 3.5 45.334 10.5 62.001s16.5 30 28.5 40s25.5 17.167 40.5 21.5s30.5 6.5 46.5 6.5l99.5 -2l99 -2l98.5 -2v-16h-297
c-30.667 0 -55.334 -8.5 -74.001 -25.5s-28 -44.5 -28 -82.5v-228l359 -3v-16l-359 -3v-229c0 -31.333 5.5 -54.333 16.5 -69s25.167 -24.167 42.5 -28.5s35 -6.5 53 -6.5h287v-16l-95 -2l-95.5 -2zM170.001 790.999l132 130h20l120 -130h-18l-112 115l-124 -115h-18z" />
    <glyph glyph-name="Edieresis" unicode="&#xcb;" horiz-adv-x="579" 
d="M225 -3c-16.667 0 -32.999 1.33203 -48.999 3.99902s-30.667 8.16699 -44 16.5s-24 21 -32 38s-12 39.5 -12 67.5v479c0 24.667 3.5 45.334 10.5 62.001s16.5 30 28.5 40s25.5 17.167 40.5 21.5s30.5 6.5 46.5 6.5l99.5 -2l99 -2l98.5 -2v-16h-297
c-30.667 0 -55.334 -8.5 -74.001 -25.5s-28 -44.5 -28 -82.5v-228l359 -3v-16l-359 -3v-229c0 -31.333 5.5 -54.333 16.5 -69s25.167 -24.167 42.5 -28.5s35 -6.5 53 -6.5h287v-16l-95 -2l-95.5 -2zM423.001 825.999c-8 0 -12 3.99902 -12 11.999v62c0 8 4 12 12 12h11
c4 0 7 -1.16699 9 -3.5s3 -5.16602 3 -8.49902v-62c0 -8 -4 -12 -12 -12h-11zM169.001 825.998c-8 0 -12 3.99902 -12 11.999v62c0 8 4 12 12 12h11c4 0 7 -1.16699 9 -3.5s3 -5.16602 3 -8.49902v-62c0 -8 -4 -12 -12 -12h-11z" />
    <glyph glyph-name="Igrave" unicode="&#xcc;" horiz-adv-x="200" 
d="M88 0v732h24v-732h-24zM89 791l-133 133h26l121 -133h-14z" />
    <glyph glyph-name="Iacute" unicode="&#xcd;" horiz-adv-x="200" 
d="M88 0v732h24v-732h-24zM96 791l121 133h26l-133 -133h-14z" />
    <glyph glyph-name="Icircumflex" unicode="&#xce;" horiz-adv-x="200" 
d="M88 0v732h24v-732h-24zM-40 791l132 130h20l120 -130h-18l-112 115l-124 -115h-18z" />
    <glyph glyph-name="Idieresis" unicode="&#xcf;" horiz-adv-x="200" 
d="M88 0v732h24v-732h-24zM213 826c-8 0 -12 3.99902 -12 11.999v62c0 8 4 12 12 12h11c4 0 7 -1.16699 9 -3.5s3 -5.16602 3 -8.49902v-62c0 -8 -4 -12 -12 -12h-11zM-41 825.999c-8 0 -12 3.99902 -12 11.999v62c0 8 4 12 12 12h11c4 0 7 -1.16699 9 -3.5
s3 -5.16602 3 -8.49902v-62c0 -8 -4 -12 -12 -12h-11z" />
    <glyph glyph-name="Eth" unicode="&#xd0;" horiz-adv-x="660" 
d="M17 361v22h304v-22h-304zM88 0l-0.000976562 732h273c40 0 74.333 -7.33301 103 -22s52.334 -37 71.001 -67s32.5 -68 41.5 -114s13.5 -100.333 13.5 -163c0 -72 -8.66699 -135.5 -26 -190.5s-43 -98 -77 -129s-76 -46.5 -126 -46.5h-273zM111.999 22h249
c46.667 0 85 14.667 115 44s52.5 70 67.5 122s22.5 111.333 22.5 178c0 60 -3.83301 111.667 -11.5 155s-19.667 79 -36 107s-37.5 48.667 -63.5 62s-57.333 20 -94 20h-249v-688z" />
    <glyph glyph-name="Ntilde" unicode="&#xd1;" horiz-adv-x="665" 
d="M108 0v732h22l443 -688v688h24v-732h-22l-443 688v-688h-24zM178 821c0 22.667 4.49805 40.332 13.498 52.999s20.333 21.834 34 27.501s27.167 8.5 40.5 8.5c15.333 0 30 -3.66699 44 -11s27.667 -15.833 41 -25.5s26.333 -18.167 39 -25.5s25.667 -11 39 -11
c20.667 0 38.334 6.16699 53.001 18.5s22 30.5 22 54.5h14c0 -26 -8 -47.333 -24 -64s-38.333 -25 -67 -25c-14.667 0 -28.667 3.66699 -42 11s-26.666 15.833 -39.999 25.5s-26.666 18.167 -39.999 25.5s-27 11 -41 11c-18.667 0 -35.334 -5.5 -50.001 -16.5
s-22 -29.833 -22 -56.5h-14z" />
    <glyph glyph-name="Ograve" unicode="&#xd2;" horiz-adv-x="676" 
d="M338 -6c-44.667 0 -83.835 4.16699 -117.502 12.5s-61.667 24.833 -84 49.5s-39 61.5 -50 110.5s-16.5 113.833 -16.5 194.5c0 81.333 5.66699 146.833 17 196.5s28.333 87.5 51 113.5s50.667 43.667 84 53s72 14 116 14c46 0 85.833 -4.66699 119.5 -14
s61.5 -27 83.5 -53s38.333 -63.833 49 -113.5s16 -115.167 16 -196.5c0 -80.667 -5.5 -145.5 -16.5 -194.5s-27.667 -85.833 -50 -110.5s-50.166 -41.167 -83.499 -49.5s-72.666 -12.5 -117.999 -12.5zM337.999 16c42.667 0 79.5029 4 110.503 12s56.333 23.833 76 47.5
s34.167 58.334 43.5 104.001s14 106.167 14 181.5c0 79.333 -4.83301 142.666 -14.5 189.999s-24.334 82.833 -44.001 106.5s-44.834 39.334 -75.501 47.001s-67.334 11.5 -110.001 11.5c-39.333 0 -74.166 -3.83301 -104.499 -11.5s-55.833 -23.334 -76.5 -47.001
s-36.334 -59.167 -47.001 -106.5s-16 -110.666 -16 -189.999c0 -75.333 4.33301 -135.833 13 -181.5s22.667 -80.334 42 -104.001s44.5 -39.5 75.5 -47.5s68.833 -12 113.5 -12zM327.002 791l-133 133h26l121 -133h-14z" />
    <glyph glyph-name="Oacute" unicode="&#xd3;" horiz-adv-x="676" 
d="M338 -6c-44.667 0 -83.835 4.16699 -117.502 12.5s-61.667 24.833 -84 49.5s-39 61.5 -50 110.5s-16.5 113.833 -16.5 194.5c0 81.333 5.66699 146.833 17 196.5s28.333 87.5 51 113.5s50.667 43.667 84 53s72 14 116 14c46 0 85.833 -4.66699 119.5 -14
s61.5 -27 83.5 -53s38.333 -63.833 49 -113.5s16 -115.167 16 -196.5c0 -80.667 -5.5 -145.5 -16.5 -194.5s-27.667 -85.833 -50 -110.5s-50.166 -41.167 -83.499 -49.5s-72.666 -12.5 -117.999 -12.5zM337.999 16c42.667 0 79.5029 4 110.503 12s56.333 23.833 76 47.5
s34.167 58.334 43.5 104.001s14 106.167 14 181.5c0 79.333 -4.83301 142.666 -14.5 189.999s-24.334 82.833 -44.001 106.5s-44.834 39.334 -75.501 47.001s-67.334 11.5 -110.001 11.5c-39.333 0 -74.166 -3.83301 -104.499 -11.5s-55.833 -23.334 -76.5 -47.001
s-36.334 -59.167 -47.001 -106.5s-16 -110.666 -16 -189.999c0 -75.333 4.33301 -135.833 13 -181.5s22.667 -80.334 42 -104.001s44.5 -39.5 75.5 -47.5s68.833 -12 113.5 -12zM334.002 791l121 133h26l-133 -133h-14z" />
    <glyph glyph-name="Ocircumflex" unicode="&#xd4;" horiz-adv-x="676" 
d="M338 -6c-44.667 0 -83.835 4.16699 -117.502 12.5s-61.667 24.833 -84 49.5s-39 61.5 -50 110.5s-16.5 113.833 -16.5 194.5c0 81.333 5.66699 146.833 17 196.5s28.333 87.5 51 113.5s50.667 43.667 84 53s72 14 116 14c46 0 85.833 -4.66699 119.5 -14
s61.5 -27 83.5 -53s38.333 -63.833 49 -113.5s16 -115.167 16 -196.5c0 -80.667 -5.5 -145.5 -16.5 -194.5s-27.667 -85.833 -50 -110.5s-50.166 -41.167 -83.499 -49.5s-72.666 -12.5 -117.999 -12.5zM337.999 16c42.667 0 79.5029 4 110.503 12s56.333 23.833 76 47.5
s34.167 58.334 43.5 104.001s14 106.167 14 181.5c0 79.333 -4.83301 142.666 -14.5 189.999s-24.334 82.833 -44.001 106.5s-44.834 39.334 -75.501 47.001s-67.334 11.5 -110.001 11.5c-39.333 0 -74.166 -3.83301 -104.499 -11.5s-55.833 -23.334 -76.5 -47.001
s-36.334 -59.167 -47.001 -106.5s-16 -110.666 -16 -189.999c0 -75.333 4.33301 -135.833 13 -181.5s22.667 -80.334 42 -104.001s44.5 -39.5 75.5 -47.5s68.833 -12 113.5 -12zM198.002 791l132 130h20l120 -130h-18l-112 115l-124 -115h-18z" />
    <glyph glyph-name="Otilde" unicode="&#xd5;" horiz-adv-x="676" 
d="M338 -6c-44.667 0 -83.835 4.16699 -117.502 12.5s-61.667 24.833 -84 49.5s-39 61.5 -50 110.5s-16.5 113.833 -16.5 194.5c0 81.333 5.66699 146.833 17 196.5s28.333 87.5 51 113.5s50.667 43.667 84 53s72 14 116 14c46 0 85.833 -4.66699 119.5 -14
s61.5 -27 83.5 -53s38.333 -63.833 49 -113.5s16 -115.167 16 -196.5c0 -80.667 -5.5 -145.5 -16.5 -194.5s-27.667 -85.833 -50 -110.5s-50.166 -41.167 -83.499 -49.5s-72.666 -12.5 -117.999 -12.5zM337.999 16c42.667 0 79.5029 4 110.503 12s56.333 23.833 76 47.5
s34.167 58.334 43.5 104.001s14 106.167 14 181.5c0 79.333 -4.83301 142.666 -14.5 189.999s-24.334 82.833 -44.001 106.5s-44.834 39.334 -75.501 47.001s-67.334 11.5 -110.001 11.5c-39.333 0 -74.166 -3.83301 -104.499 -11.5s-55.833 -23.334 -76.5 -47.001
s-36.334 -59.167 -47.001 -106.5s-16 -110.666 -16 -189.999c0 -75.333 4.33301 -135.833 13 -181.5s22.667 -80.334 42 -104.001s44.5 -39.5 75.5 -47.5s68.833 -12 113.5 -12zM179.002 821c0 22.667 4.49805 40.332 13.498 52.999s20.333 21.834 34 27.501
s27.167 8.5 40.5 8.5c15.333 0 30 -3.66699 44 -11s27.667 -15.833 41 -25.5s26.333 -18.167 39 -25.5s25.667 -11 39 -11c20.667 0 38.334 6.16699 53.001 18.5s22 30.5 22 54.5h14c0 -26 -8 -47.333 -24 -64s-38.333 -25 -67 -25c-14.667 0 -28.667 3.66699 -42 11
s-26.666 15.833 -39.999 25.5s-26.666 18.167 -39.999 25.5s-27 11 -41 11c-18.667 0 -35.334 -5.5 -50.001 -16.5s-22 -29.833 -22 -56.5h-14z" />
    <glyph glyph-name="Odieresis" unicode="&#xd6;" horiz-adv-x="676" 
d="M338 -6c-44.667 0 -83.835 4.16699 -117.502 12.5s-61.667 24.833 -84 49.5s-39 61.5 -50 110.5s-16.5 113.833 -16.5 194.5c0 81.333 5.66699 146.833 17 196.5s28.333 87.5 51 113.5s50.667 43.667 84 53s72 14 116 14c46 0 85.833 -4.66699 119.5 -14
s61.5 -27 83.5 -53s38.333 -63.833 49 -113.5s16 -115.167 16 -196.5c0 -80.667 -5.5 -145.5 -16.5 -194.5s-27.667 -85.833 -50 -110.5s-50.166 -41.167 -83.499 -49.5s-72.666 -12.5 -117.999 -12.5zM337.999 16c42.667 0 79.5029 4 110.503 12s56.333 23.833 76 47.5
s34.167 58.334 43.5 104.001s14 106.167 14 181.5c0 79.333 -4.83301 142.666 -14.5 189.999s-24.334 82.833 -44.001 106.5s-44.834 39.334 -75.501 47.001s-67.334 11.5 -110.001 11.5c-39.333 0 -74.166 -3.83301 -104.499 -11.5s-55.833 -23.334 -76.5 -47.001
s-36.334 -59.167 -47.001 -106.5s-16 -110.666 -16 -189.999c0 -75.333 4.33301 -135.833 13 -181.5s22.667 -80.334 42 -104.001s44.5 -39.5 75.5 -47.5s68.833 -12 113.5 -12zM451.002 826c-8 0 -12 3.99902 -12 11.999v62c0 8 4 12 12 12h11c4 0 7 -1.16699 9 -3.5
s3 -5.16602 3 -8.49902v-62c0 -8 -4 -12 -12 -12h-11zM197.002 825.999c-8 0 -12 3.99902 -12 11.999v62c0 8 4 12 12 12h11c4 0 7 -1.16699 9 -3.5s3 -5.16602 3 -8.49902v-62c0 -8 -4 -12 -12 -12h-11z" />
    <glyph glyph-name="multiply" unicode="&#xd7;" horiz-adv-x="609" 
d="M454 189l17 17l-317 317l-17 -17zM154 189l-17 17l317 317l17 -17z" />
    <glyph glyph-name="Oslash" unicode="&#xd8;" horiz-adv-x="676" 
d="M85 0l481 732h25l-481 -732h-25zM338 -6c-44.667 0 -83.835 4.16699 -117.502 12.5s-61.667 24.833 -84 49.5s-39 61.5 -50 110.5s-16.5 113.833 -16.5 194.5c0 81.333 5.66699 146.833 17 196.5s28.333 87.5 51 113.5s50.667 43.667 84 53s72 14 116 14
c46 0 85.833 -4.66699 119.5 -14s61.5 -27 83.5 -53s38.333 -63.833 49 -113.5s16 -115.167 16 -196.5c0 -80.667 -5.5 -145.5 -16.5 -194.5s-27.667 -85.833 -50 -110.5s-50.166 -41.167 -83.499 -49.5s-72.666 -12.5 -117.999 -12.5zM337.999 16
c42.667 0 79.5029 4 110.503 12s56.333 23.833 76 47.5s34.167 58.334 43.5 104.001s14 106.167 14 181.5c0 79.333 -4.83301 142.666 -14.5 189.999s-24.334 82.833 -44.001 106.5s-44.834 39.334 -75.501 47.001s-67.334 11.5 -110.001 11.5
c-39.333 0 -74.166 -3.83301 -104.499 -11.5s-55.833 -23.334 -76.5 -47.001s-36.334 -59.167 -47.001 -106.5s-16 -110.666 -16 -189.999c0 -75.333 4.33301 -135.833 13 -181.5s22.667 -80.334 42 -104.001s44.5 -39.5 75.5 -47.5s68.833 -12 113.5 -12z" />
    <glyph glyph-name="Ugrave" unicode="&#xd9;" horiz-adv-x="668" 
d="M334 -6c-41.333 0 -78.002 3.83301 -110.002 11.5s-58.833 20.167 -80.5 37.5s-38 40.5 -49 69.5s-16.5 64.833 -16.5 107.5v512h24v-512c0 -54 9.16699 -95.667 27.5 -125s44.833 -49.833 79.5 -61.5s76.334 -17.5 125.001 -17.5s90.334 5.83301 125.001 17.5
s61.167 32.167 79.5 61.5s27.5 71 27.5 125v512h24v-512c0 -42.667 -5.5 -78.5 -16.5 -107.5s-27.333 -52.167 -49 -69.5s-48.5 -29.833 -80.5 -37.5s-68.667 -11.5 -110 -11.5zM322.998 791l-133 133h26l121 -133h-14z" />
    <glyph glyph-name="Uacute" unicode="&#xda;" horiz-adv-x="668" 
d="M334 -6c-41.333 0 -78.002 3.83301 -110.002 11.5s-58.833 20.167 -80.5 37.5s-38 40.5 -49 69.5s-16.5 64.833 -16.5 107.5v512h24v-512c0 -54 9.16699 -95.667 27.5 -125s44.833 -49.833 79.5 -61.5s76.334 -17.5 125.001 -17.5s90.334 5.83301 125.001 17.5
s61.167 32.167 79.5 61.5s27.5 71 27.5 125v512h24v-512c0 -42.667 -5.5 -78.5 -16.5 -107.5s-27.333 -52.167 -49 -69.5s-48.5 -29.833 -80.5 -37.5s-68.667 -11.5 -110 -11.5zM329.998 791l121 133h26l-133 -133h-14z" />
    <glyph glyph-name="Ucircumflex" unicode="&#xdb;" horiz-adv-x="668" 
d="M334 -6c-41.333 0 -78.002 3.83301 -110.002 11.5s-58.833 20.167 -80.5 37.5s-38 40.5 -49 69.5s-16.5 64.833 -16.5 107.5v512h24v-512c0 -54 9.16699 -95.667 27.5 -125s44.833 -49.833 79.5 -61.5s76.334 -17.5 125.001 -17.5s90.334 5.83301 125.001 17.5
s61.167 32.167 79.5 61.5s27.5 71 27.5 125v512h24v-512c0 -42.667 -5.5 -78.5 -16.5 -107.5s-27.333 -52.167 -49 -69.5s-48.5 -29.833 -80.5 -37.5s-68.667 -11.5 -110 -11.5zM193.998 791l132 130h20l120 -130h-18l-112 115l-124 -115h-18z" />
    <glyph glyph-name="Udieresis" unicode="&#xdc;" horiz-adv-x="668" 
d="M334 -6c-41.333 0 -78.002 3.83301 -110.002 11.5s-58.833 20.167 -80.5 37.5s-38 40.5 -49 69.5s-16.5 64.833 -16.5 107.5v512h24v-512c0 -54 9.16699 -95.667 27.5 -125s44.833 -49.833 79.5 -61.5s76.334 -17.5 125.001 -17.5s90.334 5.83301 125.001 17.5
s61.167 32.167 79.5 61.5s27.5 71 27.5 125v512h24v-512c0 -42.667 -5.5 -78.5 -16.5 -107.5s-27.333 -52.167 -49 -69.5s-48.5 -29.833 -80.5 -37.5s-68.667 -11.5 -110 -11.5zM446.998 826c-8 0 -12 3.99902 -12 11.999v62c0 8 4 12 12 12h11c4 0 7 -1.16699 9 -3.5
s3 -5.16602 3 -8.49902v-62c0 -8 -4 -12 -12 -12h-11zM192.998 825.999c-8 0 -12 3.99902 -12 11.999v62c0 8 4 12 12 12h11c4 0 7 -1.16699 9 -3.5s3 -5.16602 3 -8.49902v-62c0 -8 -4 -12 -12 -12h-11z" />
    <glyph glyph-name="Yacute" unicode="&#xdd;" horiz-adv-x="610" 
d="M293 0v260l-243 472h26l229 -449l229 449h26l-243 -472v-260h-24zM301 791l121 133h26l-133 -133h-14z" />
    <glyph glyph-name="Thorn" unicode="&#xde;" horiz-adv-x="540" 
d="M88 0l-0.00195312 731.999h24v-147h202c20 0 40.167 -2.66699 60.5 -8s39.333 -15 57 -29s31.834 -34.167 42.501 -60.5s16 -60.5 16 -102.5c0 -42.667 -5.83301 -77.667 -17.5 -105s-27 -48.333 -46 -63s-39.333 -24.834 -61 -30.501s-42.167 -8.5 -61.5 -8.5
c-7.33301 0 -19.666 0.166992 -36.999 0.5s-36.333 0.833008 -57 1.5s-40 1.33398 -58 2.00098s-31.333 1.33398 -40 2.00098v-184h-24zM111.998 199.999l192 0.00195312c28 0 54.333 5 79 15s44.5 28.5 59.5 55.5s22.5 65.167 22.5 114.5s-7.33301 86.666 -22 111.999
s-33.5 42.666 -56.5 51.999s-47.167 14 -72.5 14h-202v-363z" />
    <glyph glyph-name="germandbls" unicode="&#xdf;" horiz-adv-x="566" 
d="M383 -8c-34 0 -67.001 1.66406 -99.001 4.99707s-56.667 6.66602 -74 9.99902v14c19.333 -0.666992 44.333 -1.66699 75 -3s63.334 -2 98.001 -2c38 0 66.667 6.66699 86 20s32.166 29.166 38.499 47.499s9.5 34.5 9.5 48.5v31c0 20.667 -5.83301 36.334 -17.5 47.001
s-26.5 18.834 -44.5 24.501s-37.167 10.5 -57.5 14.5s-39.5 9.33301 -57.5 16s-32.833 16.334 -44.5 29.001s-17.5 30.667 -17.5 54c0 24 6.33301 45 19 63s28.334 34.5 47.001 49.5l55.5 45.5c18.333 15.333 33.833 32.333 46.5 51s19 40.334 19 65.001
c0 40 -15 70.5 -45 91.5s-73.667 31.5 -131 31.5s-102.333 -16.167 -135 -48.5s-49 -78.5 -49 -138.5v-558h-24v558c0 38.667 7.5 74 22.5 106s37.833 57.5 68.5 76.5s69.667 28.5 117 28.5c49.333 0 88.5 -6.83301 117.5 -20.5s49.833 -31.5 62.5 -53.5s19 -46 19 -72
c0 -28.667 -6.33301 -53 -19 -73s-28.167 -37.833 -46.5 -53.5l-55 -45c-18.333 -14.333 -33.833 -29.666 -46.5 -45.999s-19 -35.5 -19 -57.5c0 -18.667 5.83301 -33.167 17.5 -43.5s26.5 -18 44.5 -23s37.167 -9.66699 57.5 -14s39.5 -10 57.5 -17
s32.833 -17.167 44.5 -30.5s17.5 -32.333 17.5 -57v-31c0 -22.667 -3.66699 -42.667 -11 -60s-18 -32 -32 -44s-30.667 -21 -50 -27s-41 -9 -65 -9z" />
    <glyph glyph-name="agrave" unicode="&#xe0;" horiz-adv-x="540" 
d="M187 -6c-38 0 -69.665 11.3301 -94.998 33.9971s-38 55.334 -38 98.001v31c0 42.667 13.5 76.834 40.5 102.501s66.5 38.5 118.5 38.5h216v89c0 26.667 -4.5 49.834 -13.5 69.501s-24.667 35 -47 46s-53.833 16.5 -94.5 16.5h-170v16
c20.667 0.666992 45.334 1.66699 74.001 3s61.334 2.33301 98.001 3c42.667 0.666992 77 -5 103 -17s44.833 -29.5 56.5 -52.5s17.5 -51.167 17.5 -84.5v-387h-16l-8 64c-0.666992 0 -8.83398 -3.5 -24.501 -10.5s-35.834 -15.167 -60.501 -24.5
s-50.834 -17.5 -78.501 -24.5s-53.834 -10.5 -78.501 -10.5zM187.002 17.9971c16 -0.666992 34.498 1.16895 55.498 5.50195s42.333 9.5 64 15.5s41.834 12.167 60.501 18.5s33.667 11.666 45 15.999l17 6.5v202l-222 -7c-47.333 -1.33301 -80.666 -13.166 -99.999 -35.499
s-29 -49.833 -29 -82.5v-26c0 -28 5.66699 -50.333 17 -67s25.5 -28.334 42.5 -35.001s33.5 -10.334 49.5 -11.001zM279 631l-133 133h26l121 -133h-14z" />
    <glyph glyph-name="aacute" unicode="&#xe1;" horiz-adv-x="540" 
d="M187 -6c-38 0 -69.665 11.3301 -94.998 33.9971s-38 55.334 -38 98.001v31c0 42.667 13.5 76.834 40.5 102.501s66.5 38.5 118.5 38.5h216v89c0 26.667 -4.5 49.834 -13.5 69.501s-24.667 35 -47 46s-53.833 16.5 -94.5 16.5h-170v16
c20.667 0.666992 45.334 1.66699 74.001 3s61.334 2.33301 98.001 3c42.667 0.666992 77 -5 103 -17s44.833 -29.5 56.5 -52.5s17.5 -51.167 17.5 -84.5v-387h-16l-8 64c-0.666992 0 -8.83398 -3.5 -24.501 -10.5s-35.834 -15.167 -60.501 -24.5
s-50.834 -17.5 -78.501 -24.5s-53.834 -10.5 -78.501 -10.5zM187.002 17.9971c16 -0.666992 34.498 1.16895 55.498 5.50195s42.333 9.5 64 15.5s41.834 12.167 60.501 18.5s33.667 11.666 45 15.999l17 6.5v202l-222 -7c-47.333 -1.33301 -80.666 -13.166 -99.999 -35.499
s-29 -49.833 -29 -82.5v-26c0 -28 5.66699 -50.333 17 -67s25.5 -28.334 42.5 -35.001s33.5 -10.334 49.5 -11.001zM246 631l121 133h26l-133 -133h-14z" />
    <glyph glyph-name="acircumflex" unicode="&#xe2;" horiz-adv-x="540" 
d="M187 -6c-38 0 -69.665 11.3301 -94.998 33.9971s-38 55.334 -38 98.001v31c0 42.667 13.5 76.834 40.5 102.501s66.5 38.5 118.5 38.5h216v89c0 26.667 -4.5 49.834 -13.5 69.501s-24.667 35 -47 46s-53.833 16.5 -94.5 16.5h-170v16
c20.667 0.666992 45.334 1.66699 74.001 3s61.334 2.33301 98.001 3c42.667 0.666992 77 -5 103 -17s44.833 -29.5 56.5 -52.5s17.5 -51.167 17.5 -84.5v-387h-16l-8 64c-0.666992 0 -8.83398 -3.5 -24.501 -10.5s-35.834 -15.167 -60.501 -24.5
s-50.834 -17.5 -78.501 -24.5s-53.834 -10.5 -78.501 -10.5zM187.002 17.9971c16 -0.666992 34.498 1.16895 55.498 5.50195s42.333 9.5 64 15.5s41.834 12.167 60.501 18.5s33.667 11.666 45 15.999l17 6.5v202l-222 -7c-47.333 -1.33301 -80.666 -13.166 -99.999 -35.499
s-29 -49.833 -29 -82.5v-26c0 -28 5.66699 -50.333 17 -67s25.5 -28.334 42.5 -35.001s33.5 -10.334 49.5 -11.001zM130 631l132 130h20l120 -130h-18l-112 115l-124 -115h-18z" />
    <glyph glyph-name="atilde" unicode="&#xe3;" horiz-adv-x="540" 
d="M187 -6c-38 0 -69.665 11.3301 -94.998 33.9971s-38 55.334 -38 98.001v31c0 42.667 13.5 76.834 40.5 102.501s66.5 38.5 118.5 38.5h216v89c0 26.667 -4.5 49.834 -13.5 69.501s-24.667 35 -47 46s-53.833 16.5 -94.5 16.5h-170v16
c20.667 0.666992 45.334 1.66699 74.001 3s61.334 2.33301 98.001 3c42.667 0.666992 77 -5 103 -17s44.833 -29.5 56.5 -52.5s17.5 -51.167 17.5 -84.5v-387h-16l-8 64c-0.666992 0 -8.83398 -3.5 -24.501 -10.5s-35.834 -15.167 -60.501 -24.5
s-50.834 -17.5 -78.501 -24.5s-53.834 -10.5 -78.501 -10.5zM187.002 17.9971c16 -0.666992 34.498 1.16895 55.498 5.50195s42.333 9.5 64 15.5s41.834 12.167 60.501 18.5s33.667 11.666 45 15.999l17 6.5v202l-222 -7c-47.333 -1.33301 -80.666 -13.166 -99.999 -35.499
s-29 -49.833 -29 -82.5v-26c0 -28 5.66699 -50.333 17 -67s25.5 -28.334 42.5 -35.001s33.5 -10.334 49.5 -11.001zM117 661c0 22.667 4.49805 40.332 13.498 52.999s20.333 21.834 34 27.501s27.167 8.5 40.5 8.5c15.333 0 30 -3.66699 44 -11s27.667 -15.833 41 -25.5
s26.333 -18.167 39 -25.5s25.667 -11 39 -11c20.667 0 38.334 6.16699 53.001 18.5s22 30.5 22 54.5h14c0 -26 -8 -47.333 -24 -64s-38.333 -25 -67 -25c-14.667 0 -28.667 3.66699 -42 11s-26.666 15.833 -39.999 25.5s-26.666 18.167 -39.999 25.5s-27 11 -41 11
c-18.667 0 -35.334 -5.5 -50.001 -16.5s-22 -29.833 -22 -56.5h-14z" />
    <glyph glyph-name="adieresis" unicode="&#xe4;" horiz-adv-x="540" 
d="M187 -6c-38 0 -69.665 11.3301 -94.998 33.9971s-38 55.334 -38 98.001v31c0 42.667 13.5 76.834 40.5 102.501s66.5 38.5 118.5 38.5h216v89c0 26.667 -4.5 49.834 -13.5 69.501s-24.667 35 -47 46s-53.833 16.5 -94.5 16.5h-170v16
c20.667 0.666992 45.334 1.66699 74.001 3s61.334 2.33301 98.001 3c42.667 0.666992 77 -5 103 -17s44.833 -29.5 56.5 -52.5s17.5 -51.167 17.5 -84.5v-387h-16l-8 64c-0.666992 0 -8.83398 -3.5 -24.501 -10.5s-35.834 -15.167 -60.501 -24.5
s-50.834 -17.5 -78.501 -24.5s-53.834 -10.5 -78.501 -10.5zM187.002 17.9971c16 -0.666992 34.498 1.16895 55.498 5.50195s42.333 9.5 64 15.5s41.834 12.167 60.501 18.5s33.667 11.666 45 15.999l17 6.5v202l-222 -7c-47.333 -1.33301 -80.666 -13.166 -99.999 -35.499
s-29 -49.833 -29 -82.5v-26c0 -28 5.66699 -50.333 17 -67s25.5 -28.334 42.5 -35.001s33.5 -10.334 49.5 -11.001zM362 666c-8 0 -12 3.99902 -12 11.999v62c0 8 4 12 12 12h11c4 0 7 -1.16699 9 -3.5s3 -5.16602 3 -8.49902v-62c0 -8 -4 -12 -12 -12h-11zM168 665.999
c-8 0 -12 3.99902 -12 11.999v62c0 8 4 12 12 12h11c4 0 7 -1.16699 9 -3.5s3 -5.16602 3 -8.49902v-62c0 -8 -4 -12 -12 -12h-11z" />
    <glyph glyph-name="aring" unicode="&#xe5;" horiz-adv-x="540" 
d="M187 -6c-38 0 -69.665 11.3301 -94.998 33.9971s-38 55.334 -38 98.001v31c0 42.667 13.5 76.834 40.5 102.501s66.5 38.5 118.5 38.5h216v89c0 26.667 -4.5 49.834 -13.5 69.501s-24.667 35 -47 46s-53.833 16.5 -94.5 16.5h-170v16
c20.667 0.666992 45.334 1.66699 74.001 3s61.334 2.33301 98.001 3c42.667 0.666992 77 -5 103 -17s44.833 -29.5 56.5 -52.5s17.5 -51.167 17.5 -84.5v-387h-16l-8 64c-0.666992 0 -8.83398 -3.5 -24.501 -10.5s-35.834 -15.167 -60.501 -24.5
s-50.834 -17.5 -78.501 -24.5s-53.834 -10.5 -78.501 -10.5zM187.002 17.9971c16 -0.666992 34.498 1.16895 55.498 5.50195s42.333 9.5 64 15.5s41.834 12.167 60.501 18.5s33.667 11.666 45 15.999l17 6.5v202l-222 -7c-47.333 -1.33301 -80.666 -13.166 -99.999 -35.499
s-29 -49.833 -29 -82.5v-26c0 -28 5.66699 -50.333 17 -67s25.5 -28.334 42.5 -35.001s33.5 -10.334 49.5 -11.001zM270 600c-32.667 0 -57.834 7.33301 -75.501 22s-26.5 41.334 -26.5 80.001s8.83301 65.5 26.5 80.5s42.834 22.5 75.501 22.5
c33.333 0 58.333 -7.5 75 -22.5s25 -41.833 25 -80.5s-8.33301 -65.334 -25 -80.001s-41.667 -22 -75 -22zM270 616c29.333 0 50.666 5.83301 63.999 17.5s20 34.5 20 68.5s-6.66699 57 -20 69s-34.666 18 -63.999 18c-28.667 0 -50.167 -6 -64.5 -18s-21.5 -35 -21.5 -69
s7.16699 -56.833 21.5 -68.5s35.833 -17.5 64.5 -17.5z" />
    <glyph glyph-name="ae" unicode="&#xe6;" horiz-adv-x="905" 
d="M187 -6c-27.333 0 -51 5.16895 -71 15.502s-35.333 25.666 -46 45.999s-16 45.166 -16 74.499v25c0 28.667 6.16699 53 18.5 73s30 35.333 53 46s50.167 16 81.5 16h222v97c0 23.333 -4.33301 45 -13 65s-23.834 36.167 -45.501 48.5s-52.167 18.5 -91.5 18.5h-175v16
c22 1.33301 45.667 2.5 71 3.5s60.333 1.83301 105 2.5c39.333 0.666992 74.833 -8 106.5 -26s52.167 -47.333 61.5 -88c11.333 44 33.5 73.333 66.5 88s72.167 22 117.5 22c44.667 0 82 -5.16699 112 -15.5s52.667 -27.666 68 -51.999s23 -57.833 23 -100.5
c0 -40.667 -12 -67.667 -36 -81s-57.667 -20 -101 -20h-245c-0.666992 -51.333 4 -93.5 14 -126.5s24 -58.667 42 -77s38.667 -31 62 -38s48.333 -10.5 75 -10.5h177v-16c-28.667 -2 -59.167 -3.5 -91.5 -4.5s-60.833 -1.5 -85.5 -1.5c-42.667 0 -76.667 6.33301 -102 19
s-45 28.5 -59 47.5s-25.667 38.167 -35 57.5c-19.333 -22 -42.666 -42.333 -69.999 -61s-57.333 -33.834 -90 -45.501s-67 -17.5 -103 -17.5zM187 18.002c45.333 0 90.667 10.499 136 31.499s85.666 50.833 120.999 89.5c-2.66699 12 -5.66699 28.833 -9 50.5
s-5.33301 47.834 -6 78.501h-222c-48 0 -81.5 -11 -100.5 -33s-28.5 -48.667 -28.5 -80v-24c0 -28 5.16699 -50.333 15.5 -67s23.833 -28.5 40.5 -35.5s34.334 -10.5 53.001 -10.5zM453.001 290.001h245.002c21.333 0 40.5 1.5 57.5 4.5s30.5 10 40.5 21s15 28.833 15 53.5
c0 34.667 -5.33301 62.667 -16 84s-28.834 37 -54.501 47s-61.5 15 -107.5 15s-82 -5.83301 -108 -17.5s-44.333 -33.5 -55 -65.5s-16.334 -79.333 -17.001 -142z" />
    <glyph glyph-name="ccedilla" unicode="&#xe7;" horiz-adv-x="490" 
d="M274 -6c-28.667 0 -55.332 3.83398 -79.999 11.501s-46.334 21.167 -65.001 40.5s-33.167 46.833 -43.5 82.5s-15.5 81.5 -15.5 137.5c0 55.333 5 100.666 15 135.999s24 62.666 42 81.999s39.5 32.833 64.5 40.5s52.5 11.5 82.5 11.5c22 0 49.167 -0.5 81.5 -1.5
s61.166 -2.5 86.499 -4.5v-16h-168c-36.667 0 -68.334 -6.5 -95.001 -19.5s-47.5 -37.667 -62.5 -74s-22.5 -89.166 -22.5 -158.499c0 -66 8 -116.833 24 -152.5s37.5 -60.167 64.5 -73.5s57.5 -20 91.5 -20h176v-16c-14.667 -0.666992 -31.167 -1.5 -49.5 -2.5
s-38.166 -1.83301 -59.499 -2.5s-43.666 -1 -66.999 -1zM205.002 -182.999v10.001l26 2c21.333 1.33301 37.833 6.16602 49.5 14.499s17.5 21.5 17.5 39.5c0 13.333 -5.16699 24.833 -15.5 34.5s-32.833 14.5 -67.5 14.5l14 10c32 0 54 -5.33301 66 -16s18 -25.667 18 -45
c0 -20.667 -7.83301 -36.5 -23.5 -47.5s-37.167 -16.5 -64.5 -16.5h-20zM215.002 -67.998l53 78h14l-53 -78h-14z" />
    <glyph glyph-name="egrave" unicode="&#xe8;" horiz-adv-x="544" 
d="M278 -6c-53.333 0 -95.168 8.66504 -125.501 25.998s-51.666 46 -63.999 86s-18.5 94 -18.5 162c0 69.333 6.83301 123.5 20.5 162.5s36.167 66.5 67.5 82.5s73 24 125 24c42.667 0 78 -5.16699 106 -15.5s49.167 -27.833 63.5 -52.5s21.5 -58.667 21.5 -102
c0 -27.333 -5.5 -49.666 -16.5 -66.999s-26.667 -29.833 -47 -37.5s-44.5 -11.5 -72.5 -11.5h-244c0 -57.333 5 -103.166 15 -137.499s28.333 -59.166 55 -74.499s65.334 -23 116.001 -23h184v-16c-34 -2.66699 -64.833 -4.33398 -92.5 -5.00098s-58.834 -1 -93.501 -1z
M93.998 272.998h243.999c38 0 66.167 6.66699 84.5 20s27.5 38 27.5 74c0 38.667 -5.5 68.667 -16.5 90s-28.667 36.333 -53 45s-56.833 13 -97.5 13c-49.333 0 -87.666 -6.83301 -114.999 -20.5s-46.5 -38 -57.5 -73s-16.5 -84.5 -16.5 -148.5zM278.997 630.998l-133 133
h26l121 -133h-14z" />
    <glyph glyph-name="eacute" unicode="&#xe9;" horiz-adv-x="544" 
d="M278 -6c-53.333 0 -95.168 8.66504 -125.501 25.998s-51.666 46 -63.999 86s-18.5 94 -18.5 162c0 69.333 6.83301 123.5 20.5 162.5s36.167 66.5 67.5 82.5s73 24 125 24c42.667 0 78 -5.16699 106 -15.5s49.167 -27.833 63.5 -52.5s21.5 -58.667 21.5 -102
c0 -27.333 -5.5 -49.666 -16.5 -66.999s-26.667 -29.833 -47 -37.5s-44.5 -11.5 -72.5 -11.5h-244c0 -57.333 5 -103.166 15 -137.499s28.333 -59.166 55 -74.499s65.334 -23 116.001 -23h184v-16c-34 -2.66699 -64.833 -4.33398 -92.5 -5.00098s-58.834 -1 -93.501 -1z
M93.998 272.998h243.999c38 0 66.167 6.66699 84.5 20s27.5 38 27.5 74c0 38.667 -5.5 68.667 -16.5 90s-28.667 36.333 -53 45s-56.833 13 -97.5 13c-49.333 0 -87.666 -6.83301 -114.999 -20.5s-46.5 -38 -57.5 -73s-16.5 -84.5 -16.5 -148.5zM245.997 630.998l121 133h26
l-133 -133h-14z" />
    <glyph glyph-name="ecircumflex" unicode="&#xea;" horiz-adv-x="544" 
d="M278 -6c-53.333 0 -95.168 8.66504 -125.501 25.998s-51.666 46 -63.999 86s-18.5 94 -18.5 162c0 69.333 6.83301 123.5 20.5 162.5s36.167 66.5 67.5 82.5s73 24 125 24c42.667 0 78 -5.16699 106 -15.5s49.167 -27.833 63.5 -52.5s21.5 -58.667 21.5 -102
c0 -27.333 -5.5 -49.666 -16.5 -66.999s-26.667 -29.833 -47 -37.5s-44.5 -11.5 -72.5 -11.5h-244c0 -57.333 5 -103.166 15 -137.499s28.333 -59.166 55 -74.499s65.334 -23 116.001 -23h184v-16c-34 -2.66699 -64.833 -4.33398 -92.5 -5.00098s-58.834 -1 -93.501 -1z
M93.998 272.998h243.999c38 0 66.167 6.66699 84.5 20s27.5 38 27.5 74c0 38.667 -5.5 68.667 -16.5 90s-28.667 36.333 -53 45s-56.833 13 -97.5 13c-49.333 0 -87.666 -6.83301 -114.999 -20.5s-46.5 -38 -57.5 -73s-16.5 -84.5 -16.5 -148.5zM129.997 630.998l132 130h20
l120 -130h-18l-112 115l-124 -115h-18z" />
    <glyph glyph-name="edieresis" unicode="&#xeb;" horiz-adv-x="544" 
d="M278 -6c-53.333 0 -95.168 8.66504 -125.501 25.998s-51.666 46 -63.999 86s-18.5 94 -18.5 162c0 69.333 6.83301 123.5 20.5 162.5s36.167 66.5 67.5 82.5s73 24 125 24c42.667 0 78 -5.16699 106 -15.5s49.167 -27.833 63.5 -52.5s21.5 -58.667 21.5 -102
c0 -27.333 -5.5 -49.666 -16.5 -66.999s-26.667 -29.833 -47 -37.5s-44.5 -11.5 -72.5 -11.5h-244c0 -57.333 5 -103.166 15 -137.499s28.333 -59.166 55 -74.499s65.334 -23 116.001 -23h184v-16c-34 -2.66699 -64.833 -4.33398 -92.5 -5.00098s-58.834 -1 -93.501 -1z
M93.998 272.998h243.999c38 0 66.167 6.66699 84.5 20s27.5 38 27.5 74c0 38.667 -5.5 68.667 -16.5 90s-28.667 36.333 -53 45s-56.833 13 -97.5 13c-49.333 0 -87.666 -6.83301 -114.999 -20.5s-46.5 -38 -57.5 -73s-16.5 -84.5 -16.5 -148.5zM361.997 665.998
c-8 0 -12 3.99902 -12 11.999v62c0 8 4 12 12 12h11c4 0 7 -1.16699 9 -3.5s3 -5.16602 3 -8.49902v-62c0 -8 -4 -12 -12 -12h-11zM167.997 665.997c-8 0 -12 3.99902 -12 11.999v62c0 8 4 12 12 12h11c4 0 7 -1.16699 9 -3.5s3 -5.16602 3 -8.49902v-62
c0 -8 -4 -12 -12 -12h-11z" />
    <glyph glyph-name="igrave" unicode="&#xec;" horiz-adv-x="202" 
d="M91 0v531h24v-531h-24zM112 631l-133 133h26l121 -133h-14z" />
    <glyph glyph-name="iacute" unicode="&#xed;" horiz-adv-x="202" 
d="M91 0v531h24v-531h-24zM79 631l121 133h26l-133 -133h-14z" />
    <glyph glyph-name="icircumflex" unicode="&#xee;" horiz-adv-x="202" 
d="M91 0v531h24v-531h-24zM-37 631l132 130h20l120 -130h-18l-112 115l-124 -115h-18z" />
    <glyph glyph-name="idieresis" unicode="&#xef;" horiz-adv-x="202" 
d="M91 0v531h24v-531h-24zM195 666c-8 0 -12 3.99902 -12 11.999v62c0 8 4 12 12 12h11c4 0 7 -1.16699 9 -3.5s3 -5.16602 3 -8.49902v-62c0 -8 -4 -12 -12 -12h-11zM1 665.999c-8 0 -12 3.99902 -12 11.999v62c0 8 4 12 12 12h11c4 0 7 -1.16699 9 -3.5
s3 -5.16602 3 -8.49902v-62c0 -8 -4 -12 -12 -12h-11z" />
    <glyph glyph-name="eth" unicode="&#xf0;" horiz-adv-x="578" 
d="M288 -6c-34 0 -64.502 3.5 -91.502 10.5s-50 20 -69 39s-33.333 46.5 -43 82.5s-14.5 82.667 -14.5 140s4.83301 103.833 14.5 139.5s24 63 43 82s42 32 69 39s57.5 10.5 91.5 10.5c32.667 0 61.334 -3.16699 86.001 -9.5s45.834 -18.166 63.501 -35.499
s31.5 -42.333 41.5 -75c4.66699 -12.667 9.16699 -26.334 13.5 -41.001s8 -31 11 -49s4.5 -38.333 4.5 -61c0 -57.333 -5 -104 -15 -140s-24.5 -63.5 -43.5 -82.5s-42.167 -32 -69.5 -39s-58 -10.5 -92 -10.5zM287.998 16c30.667 0 58.167 2.83301 82.5 8.5
s44.833 17 61.5 34s29.5 42.167 38.5 75.5s13.5 77.333 13.5 132c0 55.333 -4.5 99.5 -13.5 132.5s-21.833 57.833 -38.5 74.5s-37.167 27.834 -61.5 33.501s-51.833 8.5 -82.5 8.5s-58 -2.83301 -82 -8.5s-44.333 -16.834 -61 -33.501s-29.334 -41.5 -38.001 -74.5
s-13 -77.167 -13 -132.5c0 -54.667 4.33301 -98.667 13 -132s21.334 -58.5 38.001 -75.5s37 -28.333 61 -34s51.333 -8.5 82 -8.5zM507.998 264h-22c0 90 -7.83301 164.833 -23.5 224.5s-37.834 107.5 -66.501 143.5s-62.667 63 -102 81s-82.666 30 -129.999 36v20
c48.667 -6 93.834 -18.333 135.501 -37s78.167 -47 109.5 -85s55.666 -88 72.999 -150s26 -139.667 26 -233zM204.998 605l-5 15l306 121l6 -15z" />
    <glyph glyph-name="ntilde" unicode="&#xf1;" horiz-adv-x="582" 
d="M91 0l0.000976562 530.999h14l10 -62c29.333 19.333 62.5 36 99.5 50s75.833 21 116.5 21c35.333 0 65.166 -8 89.499 -24s42.833 -37 55.5 -63s19 -53.667 19 -83v-370h-24v370c0 26.667 -5.5 51.167 -16.5 73.5s-26.833 40.333 -47.5 54s-46 20.5 -76 20.5
c-29.333 0 -55.666 -2.5 -78.999 -7.5s-45.833 -12.167 -67.5 -21.5s-44.834 -20.666 -69.501 -33.999v-455h-24zM137.001 660.999c0 22.667 4.49805 40.332 13.498 52.999s20.333 21.834 34 27.501s27.167 8.5 40.5 8.5c15.333 0 30 -3.66699 44 -11
s27.667 -15.833 41 -25.5s26.333 -18.167 39 -25.5s25.667 -11 39 -11c20.667 0 38.334 6.16699 53.001 18.5s22 30.5 22 54.5h14c0 -26 -8 -47.333 -24 -64s-38.333 -25 -67 -25c-14.667 0 -28.667 3.66699 -42 11s-26.666 15.833 -39.999 25.5
s-26.666 18.167 -39.999 25.5s-27 11 -41 11c-18.667 0 -35.334 -5.5 -50.001 -16.5s-22 -29.833 -22 -56.5h-14z" />
    <glyph glyph-name="ograve" unicode="&#xf2;" horiz-adv-x="578" 
d="M288 -6c-34 0 -64.5 3.5 -91.5 10.5s-50 20 -69 39s-33.333 46.5 -43 82.5s-14.5 82.667 -14.5 140s4.83301 103.833 14.5 139.5s24 63 43 82s42 32 69 39s57.5 10.5 91.5 10.5s64.667 -3.5 92 -10.5s50.5 -20 69.5 -39s33.5 -46.333 43.5 -82s15 -82.167 15 -139.5
s-5 -104 -15 -140s-24.5 -63.5 -43.5 -82.5s-42.167 -32 -69.5 -39s-58 -10.5 -92 -10.5zM288 16c30.667 0 58.167 2.83301 82.5 8.5s44.833 17 61.5 34s29.5 42.167 38.5 75.5s13.5 77.333 13.5 132c0 55.333 -4.5 99.5 -13.5 132.5s-21.833 57.833 -38.5 74.5
s-37.167 27.834 -61.5 33.501s-51.833 8.5 -82.5 8.5s-58 -2.83301 -82 -8.5s-44.333 -16.834 -61 -33.501s-29.334 -41.5 -38.001 -74.5s-13 -77.167 -13 -132.5c0 -54.667 4.33301 -98.667 13 -132s21.334 -58.5 38.001 -75.5s37 -28.333 61 -34s51.333 -8.5 82 -8.5z
M297 631l-133 133h26l121 -133h-14z" />
    <glyph glyph-name="oacute" unicode="&#xf3;" horiz-adv-x="578" 
d="M288 -6c-34 0 -64.5 3.5 -91.5 10.5s-50 20 -69 39s-33.333 46.5 -43 82.5s-14.5 82.667 -14.5 140s4.83301 103.833 14.5 139.5s24 63 43 82s42 32 69 39s57.5 10.5 91.5 10.5s64.667 -3.5 92 -10.5s50.5 -20 69.5 -39s33.5 -46.333 43.5 -82s15 -82.167 15 -139.5
s-5 -104 -15 -140s-24.5 -63.5 -43.5 -82.5s-42.167 -32 -69.5 -39s-58 -10.5 -92 -10.5zM288 16c30.667 0 58.167 2.83301 82.5 8.5s44.833 17 61.5 34s29.5 42.167 38.5 75.5s13.5 77.333 13.5 132c0 55.333 -4.5 99.5 -13.5 132.5s-21.833 57.833 -38.5 74.5
s-37.167 27.834 -61.5 33.501s-51.833 8.5 -82.5 8.5s-58 -2.83301 -82 -8.5s-44.333 -16.834 -61 -33.501s-29.334 -41.5 -38.001 -74.5s-13 -77.167 -13 -132.5c0 -54.667 4.33301 -98.667 13 -132s21.334 -58.5 38.001 -75.5s37 -28.333 61 -34s51.333 -8.5 82 -8.5z
M264 631l121 133h26l-133 -133h-14z" />
    <glyph glyph-name="ocircumflex" unicode="&#xf4;" horiz-adv-x="578" 
d="M288 -6c-34 0 -64.5 3.5 -91.5 10.5s-50 20 -69 39s-33.333 46.5 -43 82.5s-14.5 82.667 -14.5 140s4.83301 103.833 14.5 139.5s24 63 43 82s42 32 69 39s57.5 10.5 91.5 10.5s64.667 -3.5 92 -10.5s50.5 -20 69.5 -39s33.5 -46.333 43.5 -82s15 -82.167 15 -139.5
s-5 -104 -15 -140s-24.5 -63.5 -43.5 -82.5s-42.167 -32 -69.5 -39s-58 -10.5 -92 -10.5zM288 16c30.667 0 58.167 2.83301 82.5 8.5s44.833 17 61.5 34s29.5 42.167 38.5 75.5s13.5 77.333 13.5 132c0 55.333 -4.5 99.5 -13.5 132.5s-21.833 57.833 -38.5 74.5
s-37.167 27.834 -61.5 33.501s-51.833 8.5 -82.5 8.5s-58 -2.83301 -82 -8.5s-44.333 -16.834 -61 -33.501s-29.334 -41.5 -38.001 -74.5s-13 -77.167 -13 -132.5c0 -54.667 4.33301 -98.667 13 -132s21.334 -58.5 38.001 -75.5s37 -28.333 61 -34s51.333 -8.5 82 -8.5z
M148 631l132 130h20l120 -130h-18l-112 115l-124 -115h-18z" />
    <glyph glyph-name="otilde" unicode="&#xf5;" horiz-adv-x="578" 
d="M288 -6c-34 0 -64.5 3.5 -91.5 10.5s-50 20 -69 39s-33.333 46.5 -43 82.5s-14.5 82.667 -14.5 140s4.83301 103.833 14.5 139.5s24 63 43 82s42 32 69 39s57.5 10.5 91.5 10.5s64.667 -3.5 92 -10.5s50.5 -20 69.5 -39s33.5 -46.333 43.5 -82s15 -82.167 15 -139.5
s-5 -104 -15 -140s-24.5 -63.5 -43.5 -82.5s-42.167 -32 -69.5 -39s-58 -10.5 -92 -10.5zM288 16c30.667 0 58.167 2.83301 82.5 8.5s44.833 17 61.5 34s29.5 42.167 38.5 75.5s13.5 77.333 13.5 132c0 55.333 -4.5 99.5 -13.5 132.5s-21.833 57.833 -38.5 74.5
s-37.167 27.834 -61.5 33.501s-51.833 8.5 -82.5 8.5s-58 -2.83301 -82 -8.5s-44.333 -16.834 -61 -33.501s-29.334 -41.5 -38.001 -74.5s-13 -77.167 -13 -132.5c0 -54.667 4.33301 -98.667 13 -132s21.334 -58.5 38.001 -75.5s37 -28.333 61 -34s51.333 -8.5 82 -8.5z
M135 661c0 22.667 4.49805 40.332 13.498 52.999s20.333 21.834 34 27.501s27.167 8.5 40.5 8.5c15.333 0 30 -3.66699 44 -11s27.667 -15.833 41 -25.5s26.333 -18.167 39 -25.5s25.667 -11 39 -11c20.667 0 38.334 6.16699 53.001 18.5s22 30.5 22 54.5h14
c0 -26 -8 -47.333 -24 -64s-38.333 -25 -67 -25c-14.667 0 -28.667 3.66699 -42 11s-26.666 15.833 -39.999 25.5s-26.666 18.167 -39.999 25.5s-27 11 -41 11c-18.667 0 -35.334 -5.5 -50.001 -16.5s-22 -29.833 -22 -56.5h-14z" />
    <glyph glyph-name="odieresis" unicode="&#xf6;" horiz-adv-x="578" 
d="M288 -6c-34 0 -64.5 3.5 -91.5 10.5s-50 20 -69 39s-33.333 46.5 -43 82.5s-14.5 82.667 -14.5 140s4.83301 103.833 14.5 139.5s24 63 43 82s42 32 69 39s57.5 10.5 91.5 10.5s64.667 -3.5 92 -10.5s50.5 -20 69.5 -39s33.5 -46.333 43.5 -82s15 -82.167 15 -139.5
s-5 -104 -15 -140s-24.5 -63.5 -43.5 -82.5s-42.167 -32 -69.5 -39s-58 -10.5 -92 -10.5zM288 16c30.667 0 58.167 2.83301 82.5 8.5s44.833 17 61.5 34s29.5 42.167 38.5 75.5s13.5 77.333 13.5 132c0 55.333 -4.5 99.5 -13.5 132.5s-21.833 57.833 -38.5 74.5
s-37.167 27.834 -61.5 33.501s-51.833 8.5 -82.5 8.5s-58 -2.83301 -82 -8.5s-44.333 -16.834 -61 -33.501s-29.334 -41.5 -38.001 -74.5s-13 -77.167 -13 -132.5c0 -54.667 4.33301 -98.667 13 -132s21.334 -58.5 38.001 -75.5s37 -28.333 61 -34s51.333 -8.5 82 -8.5z
M380 666c-8 0 -12 3.99902 -12 11.999v62c0 8 4 12 12 12h11c4 0 7 -1.16699 9 -3.5s3 -5.16602 3 -8.49902v-62c0 -8 -4 -12 -12 -12h-11zM186 665.999c-8 0 -12 3.99902 -12 11.999v62c0 8 4 12 12 12h11c4 0 7 -1.16699 9 -3.5s3 -5.16602 3 -8.49902v-62
c0 -8 -4 -12 -12 -12h-11z" />
    <glyph glyph-name="divide" unicode="&#xf7;" horiz-adv-x="609" 
d="M298 513c-16 0 -24 7.66699 -24 23v27c0 16.667 8 25 24 25h12c16.667 0 25 -8.33301 25 -25v-27c0 -8.66699 -2.33301 -14.667 -7 -18s-10.667 -5 -18 -5h-12zM298 124c-16 0 -24 7.66699 -24 23v27c0 16.667 8 25 24 25h12c16.667 0 25 -8.33301 25 -25v-27
c0 -8.66699 -2.33301 -14.667 -7 -18s-10.667 -5 -18 -5h-12zM80 344v24h448v-24h-448z" />
    <glyph glyph-name="oslash" unicode="&#xf8;" horiz-adv-x="578" 
d="M70 0l416 531h22l-416 -531h-22zM288 -6c-34 0 -64.5 3.5 -91.5 10.5s-50 20 -69 39s-33.333 46.5 -43 82.5s-14.5 82.667 -14.5 140s4.83301 103.833 14.5 139.5s24 63 43 82s42 32 69 39s57.5 10.5 91.5 10.5s64.667 -3.5 92 -10.5s50.5 -20 69.5 -39
s33.5 -46.333 43.5 -82s15 -82.167 15 -139.5s-5 -104 -15 -140s-24.5 -63.5 -43.5 -82.5s-42.167 -32 -69.5 -39s-58 -10.5 -92 -10.5zM288 16c30.667 0 58.167 2.83301 82.5 8.5s44.833 17 61.5 34s29.5 42.167 38.5 75.5s13.5 77.333 13.5 132
c0 55.333 -4.5 99.5 -13.5 132.5s-21.833 57.833 -38.5 74.5s-37.167 27.834 -61.5 33.501s-51.833 8.5 -82.5 8.5s-58 -2.83301 -82 -8.5s-44.333 -16.834 -61 -33.501s-29.334 -41.5 -38.001 -74.5s-13 -77.167 -13 -132.5c0 -54.667 4.33301 -98.667 13 -132
s21.334 -58.5 38.001 -75.5s37 -28.333 61 -34s51.333 -8.5 82 -8.5z" />
    <glyph glyph-name="ugrave" unicode="&#xf9;" horiz-adv-x="582" 
d="M255 -6c-52.667 0 -93.167 12.5 -121.5 37.5s-42.5 67.5 -42.5 127.5v372h24v-372c0 -56 12.5 -93.833 37.5 -113.5s61.167 -29.5 108.5 -29.5c41.333 0 77.5 5 108.5 15s64.833 25 101.5 45v455h24v-531h-14l-10 62c-28.667 -18.667 -61.667 -34.667 -99 -48
s-76.333 -20 -117 -20zM289 631l-133 133h26l121 -133h-14z" />
    <glyph glyph-name="uacute" unicode="&#xfa;" horiz-adv-x="582" 
d="M255 -6c-52.667 0 -93.167 12.5 -121.5 37.5s-42.5 67.5 -42.5 127.5v372h24v-372c0 -56 12.5 -93.833 37.5 -113.5s61.167 -29.5 108.5 -29.5c41.333 0 77.5 5 108.5 15s64.833 25 101.5 45v455h24v-531h-14l-10 62c-28.667 -18.667 -61.667 -34.667 -99 -48
s-76.333 -20 -117 -20zM256 631l121 133h26l-133 -133h-14z" />
    <glyph glyph-name="ucircumflex" unicode="&#xfb;" horiz-adv-x="582" 
d="M255 -6c-52.667 0 -93.167 12.5 -121.5 37.5s-42.5 67.5 -42.5 127.5v372h24v-372c0 -56 12.5 -93.833 37.5 -113.5s61.167 -29.5 108.5 -29.5c41.333 0 77.5 5 108.5 15s64.833 25 101.5 45v455h24v-531h-14l-10 62c-28.667 -18.667 -61.667 -34.667 -99 -48
s-76.333 -20 -117 -20zM140 631l132 130h20l120 -130h-18l-112 115l-124 -115h-18z" />
    <glyph glyph-name="udieresis" unicode="&#xfc;" horiz-adv-x="582" 
d="M255 -6c-52.667 0 -93.167 12.5 -121.5 37.5s-42.5 67.5 -42.5 127.5v372h24v-372c0 -56 12.5 -93.833 37.5 -113.5s61.167 -29.5 108.5 -29.5c41.333 0 77.5 5 108.5 15s64.833 25 101.5 45v455h24v-531h-14l-10 62c-28.667 -18.667 -61.667 -34.667 -99 -48
s-76.333 -20 -117 -20zM372 666c-8 0 -12 3.99902 -12 11.999v62c0 8 4 12 12 12h11c4 0 7 -1.16699 9 -3.5s3 -5.16602 3 -8.49902v-62c0 -8 -4 -12 -12 -12h-11zM178 665.999c-8 0 -12 3.99902 -12 11.999v62c0 8 4 12 12 12h11c4 0 7 -1.16699 9 -3.5
s3 -5.16602 3 -8.49902v-62c0 -8 -4 -12 -12 -12h-11z" />
    <glyph glyph-name="yacute" unicode="&#xfd;" horiz-adv-x="519" 
d="M215 -237l76 237.003c-6.66699 0.666992 -17.167 3.16699 -31.5 7.5s-29.166 14.166 -44.499 29.499s-29 39.666 -41 72.999l-150 421h26l148 -415c9.33301 -26 19.666 -45.333 30.999 -58s22.333 -21.334 33 -26.001s19.5 -7 26.5 -7h10.5l171 506h25l-223 -669l-45 -99
h-12zM236 631.003l121 133h26l-133 -133h-14z" />
    <glyph glyph-name="thorn" unicode="&#xfe;" horiz-adv-x="572" 
d="M91 -237l-0.000976562 1000h24v-289c11.333 7.33301 28 16 50 26s46 18.667 72 26s50.333 11 73 11c36 0 66.333 -8.16699 91 -24.5s44.5 -37.833 59.5 -64.5s25.667 -55.667 32 -87s9.5 -62.333 9.5 -93c0 -62 -7.5 -113.333 -22.5 -154s-36.667 -70.834 -65 -90.501
s-63.166 -29.5 -104.499 -29.5c-32.667 0 -66 6 -100 18s-65.667 27 -95 45v-294h-24zM309.999 16.001c33.333 0 62.499 8.16699 87.499 24.5s44.667 42.833 59 79.5s21.5 86 21.5 148c0 58 -8.16699 105.167 -24.5 141.5s-37.166 63 -62.499 80s-52.333 25.5 -81 25.5
c-39.333 0 -75 -6.16699 -107 -18.5s-61.333 -25.166 -88 -38.499v-385c31.333 -16.667 63.5 -30.334 96.5 -41.001s65.833 -16 98.5 -16z" />
    <glyph glyph-name="ydieresis" unicode="&#xff;" horiz-adv-x="519" 
d="M215 -237l76 237.003c-6.66699 0.666992 -17.167 3.16699 -31.5 7.5s-29.166 14.166 -44.499 29.499s-29 39.666 -41 72.999l-150 421h26l148 -415c9.33301 -26 19.666 -45.333 30.999 -58s22.333 -21.334 33 -26.001s19.5 -7 26.5 -7h10.5l171 506h25l-223 -669l-45 -99
h-12zM352 666.003c-8 0 -12 3.99902 -12 11.999v62c0 8 4 12 12 12h11c4 0 7 -1.16699 9 -3.5s3 -5.16602 3 -8.49902v-62c0 -8 -4 -12 -12 -12h-11zM158 666.002c-8 0 -12 3.99902 -12 11.999v62c0 8 4 12 12 12h11c4 0 7 -1.16699 9 -3.5s3 -5.16602 3 -8.49902v-62
c0 -8 -4 -12 -12 -12h-11z" />
    <glyph glyph-name="Amacron" unicode="&#x100;" horiz-adv-x="666" 
d="M48 0l268 732h34l268 -732h-26l-94 255h-331l-93 -255h-26zM174 277h315l-156 431zM200 851v15h252v-15h-252z" />
    <glyph glyph-name="amacron" unicode="&#x101;" horiz-adv-x="540" 
d="M187 -6c-38 0 -69.665 11.3301 -94.998 33.9971s-38 55.334 -38 98.001v31c0 42.667 13.5 76.834 40.5 102.501s66.5 38.5 118.5 38.5h216v89c0 26.667 -4.5 49.834 -13.5 69.501s-24.667 35 -47 46s-53.833 16.5 -94.5 16.5h-170v16
c20.667 0.666992 45.334 1.66699 74.001 3s61.334 2.33301 98.001 3c42.667 0.666992 77 -5 103 -17s44.833 -29.5 56.5 -52.5s17.5 -51.167 17.5 -84.5v-387h-16l-8 64c-0.666992 0 -8.83398 -3.5 -24.501 -10.5s-35.834 -15.167 -60.501 -24.5
s-50.834 -17.5 -78.501 -24.5s-53.834 -10.5 -78.501 -10.5zM187.002 17.9971c16 -0.666992 34.498 1.16895 55.498 5.50195s42.333 9.5 64 15.5s41.834 12.167 60.501 18.5s33.667 11.666 45 15.999l17 6.5v202l-222 -7c-47.333 -1.33301 -80.666 -13.166 -99.999 -35.499
s-29 -49.833 -29 -82.5v-26c0 -28 5.66699 -50.333 17 -67s25.5 -28.334 42.5 -35.001s33.5 -10.334 49.5 -11.001zM143 691v15h252v-15h-252z" />
    <glyph glyph-name="Abreve" unicode="&#x102;" horiz-adv-x="666" 
d="M48 0l268 732h34l268 -732h-26l-94 255h-331l-93 -255h-26zM174 277h315l-156 431zM326 793c-20 0 -39.5 3.8291 -58.5 11.4961s-34.667 21.334 -47 41.001s-18.5 46.834 -18.5 81.501h14c0 -44 10.833 -75.167 32.5 -93.5s47.5 -27.166 77.5 -26.499
c32.667 0.666992 59.5 9.66699 80.5 27s31.5 48.333 31.5 93h14c0 -36 -6.33301 -63.667 -19 -83s-28.667 -32.666 -48 -39.999s-39 -11 -59 -11z" />
    <glyph glyph-name="abreve" unicode="&#x103;" horiz-adv-x="540" 
d="M187 -6c-38 0 -69.665 11.3301 -94.998 33.9971s-38 55.334 -38 98.001v31c0 42.667 13.5 76.834 40.5 102.501s66.5 38.5 118.5 38.5h216v89c0 26.667 -4.5 49.834 -13.5 69.501s-24.667 35 -47 46s-53.833 16.5 -94.5 16.5h-170v16
c20.667 0.666992 45.334 1.66699 74.001 3s61.334 2.33301 98.001 3c42.667 0.666992 77 -5 103 -17s44.833 -29.5 56.5 -52.5s17.5 -51.167 17.5 -84.5v-387h-16l-8 64c-0.666992 0 -8.83398 -3.5 -24.501 -10.5s-35.834 -15.167 -60.501 -24.5
s-50.834 -17.5 -78.501 -24.5s-53.834 -10.5 -78.501 -10.5zM187.002 17.9971c16 -0.666992 34.498 1.16895 55.498 5.50195s42.333 9.5 64 15.5s41.834 12.167 60.501 18.5s33.667 11.666 45 15.999l17 6.5v202l-222 -7c-47.333 -1.33301 -80.666 -13.166 -99.999 -35.499
s-29 -49.833 -29 -82.5v-26c0 -28 5.66699 -50.333 17 -67s25.5 -28.334 42.5 -35.001s33.5 -10.334 49.5 -11.001zM263 633c-20 0 -39.5 3.8291 -58.5 11.4961s-34.667 21.334 -47 41.001s-18.5 46.834 -18.5 81.501h14c0 -44 10.833 -75.167 32.5 -93.5
s47.5 -27.166 77.5 -26.499c32.667 0.666992 59.5 9.66699 80.5 27s31.5 48.333 31.5 93h14c0 -36 -6.33301 -63.667 -19 -83s-28.667 -32.666 -48 -39.999s-39 -11 -59 -11z" />
    <glyph glyph-name="Aogonek" unicode="&#x104;" horiz-adv-x="666" 
d="M48 0l268 732h34l268 -732h-26l-94 255h-331l-93 -255h-26zM174 277h315l-156 431zM615 -182c-20 0 -38 3.5 -54 10.5s-28.5 17 -37.5 30s-13.5 28.5 -13.5 46.5c0 16.667 6.33301 33.5 19 50.5s33.667 31.833 63 44.5h12c-24 -12 -42.5 -25.833 -55.5 -41.5
s-19.5 -32.167 -19.5 -49.5c0 -24 8.5 -42.667 25.5 -56s42.5 -20 76.5 -20h5v-14c-4 -0.666992 -7.66699 -1 -11 -1h-10z" />
    <glyph glyph-name="aogonek" unicode="&#x105;" horiz-adv-x="540" 
d="M187 -6c-38 0 -69.665 11.3301 -94.998 33.9971s-38 55.334 -38 98.001v31c0 42.667 13.5 76.834 40.5 102.501s66.5 38.5 118.5 38.5h216v89c0 26.667 -4.5 49.834 -13.5 69.501s-24.667 35 -47 46s-53.833 16.5 -94.5 16.5h-170v16
c20.667 0.666992 45.334 1.66699 74.001 3s61.334 2.33301 98.001 3c42.667 0.666992 77 -5 103 -17s44.833 -29.5 56.5 -52.5s17.5 -51.167 17.5 -84.5v-387h-16l-8 64c-0.666992 0 -8.83398 -3.5 -24.501 -10.5s-35.834 -15.167 -60.501 -24.5
s-50.834 -17.5 -78.501 -24.5s-53.834 -10.5 -78.501 -10.5zM187.002 17.9971c16 -0.666992 34.498 1.16895 55.498 5.50195s42.333 9.5 64 15.5s41.834 12.167 60.501 18.5s33.667 11.666 45 15.999l17 6.5v202l-222 -7c-47.333 -1.33301 -80.666 -13.166 -99.999 -35.499
s-29 -49.833 -29 -82.5v-26c0 -28 5.66699 -50.333 17 -67s25.5 -28.334 42.5 -35.001s33.5 -10.334 49.5 -11.001zM464 -182c-20 0 -38 3.5 -54 10.5s-28.5 17 -37.5 30s-13.5 28.5 -13.5 46.5c0 16.667 6.33301 33.5 19 50.5s33.667 31.833 63 44.5h12
c-24 -12 -42.5 -25.833 -55.5 -41.5s-19.5 -32.167 -19.5 -49.5c0 -24 8.5 -42.667 25.5 -56s42.5 -20 76.5 -20h5v-14c-4 -0.666992 -7.66699 -1 -11 -1h-10z" />
    <glyph glyph-name="Cacute" unicode="&#x106;" horiz-adv-x="577" 
d="M323 -6c-45.333 0 -84.166 5.00195 -116.499 15.002s-58.5 28.167 -78.5 54.5s-34.667 64 -44 113s-14 112.833 -14 191.5c0 73.333 4.66699 134 14 182s24.333 85.667 45 113s47.667 46.666 81 57.999s73.666 17 120.999 17c11.333 0 28 -0.833008 50 -2.5
s46 -3.83398 72 -6.50098s50.667 -6.33398 74 -11.001v-16c-10.667 2 -26.667 4 -48 6s-45.333 3.83301 -72 5.5s-52.667 2.5 -78 2.5c-42 0 -78 -5 -108 -15s-54.333 -27.667 -73 -53s-32.334 -60.666 -41.001 -105.999s-13 -103.333 -13 -174
c0 -75.333 4.33301 -136.333 13 -183s22.167 -82.167 40.5 -106.5s42 -40.833 71 -49.5s64.167 -13 105.5 -13c50 0 91.167 1.5 123.5 4.5s58.833 6.16699 79.5 9.5v-16c-22 -4 -45.667 -7.5 -71 -10.5s-49.666 -5.33301 -72.999 -7s-43.333 -2.5 -60 -2.5zM326 791.002
l121 133h26l-133 -133h-14z" />
    <glyph glyph-name="cacute" unicode="&#x107;" horiz-adv-x="490" 
d="M274 -6c-28.667 0 -55.332 3.83398 -79.999 11.501s-46.334 21.167 -65.001 40.5s-33.167 46.833 -43.5 82.5s-15.5 81.5 -15.5 137.5c0 55.333 5 100.666 15 135.999s24 62.666 42 81.999s39.5 32.833 64.5 40.5s52.5 11.5 82.5 11.5c22 0 49.167 -0.5 81.5 -1.5
s61.166 -2.5 86.499 -4.5v-16h-168c-36.667 0 -68.334 -6.5 -95.001 -19.5s-47.5 -37.667 -62.5 -74s-22.5 -89.166 -22.5 -158.499c0 -66 8 -116.833 24 -152.5s37.5 -60.167 64.5 -73.5s57.5 -20 91.5 -20h176v-16c-14.667 -0.666992 -31.167 -1.5 -49.5 -2.5
s-38.166 -1.83301 -59.499 -2.5s-43.666 -1 -66.999 -1zM246.002 631.001l121 133h26l-133 -133h-14z" />
    <glyph glyph-name="Ccircumflex" unicode="&#x108;" horiz-adv-x="577" 
d="M323 -6c-45.333 0 -84.166 5.00195 -116.499 15.002s-58.5 28.167 -78.5 54.5s-34.667 64 -44 113s-14 112.833 -14 191.5c0 73.333 4.66699 134 14 182s24.333 85.667 45 113s47.667 46.666 81 57.999s73.666 17 120.999 17c11.333 0 28 -0.833008 50 -2.5
s46 -3.83398 72 -6.50098s50.667 -6.33398 74 -11.001v-16c-10.667 2 -26.667 4 -48 6s-45.333 3.83301 -72 5.5s-52.667 2.5 -78 2.5c-42 0 -78 -5 -108 -15s-54.333 -27.667 -73 -53s-32.334 -60.666 -41.001 -105.999s-13 -103.333 -13 -174
c0 -75.333 4.33301 -136.333 13 -183s22.167 -82.167 40.5 -106.5s42 -40.833 71 -49.5s64.167 -13 105.5 -13c50 0 91.167 1.5 123.5 4.5s58.833 6.16699 79.5 9.5v-16c-22 -4 -45.667 -7.5 -71 -10.5s-49.666 -5.33301 -72.999 -7s-43.333 -2.5 -60 -2.5zM190 791.002
l132 130h20l120 -130h-18l-112 115l-124 -115h-18z" />
    <glyph glyph-name="ccircumflex" unicode="&#x109;" horiz-adv-x="490" 
d="M274 -6c-28.667 0 -55.332 3.83398 -79.999 11.501s-46.334 21.167 -65.001 40.5s-33.167 46.833 -43.5 82.5s-15.5 81.5 -15.5 137.5c0 55.333 5 100.666 15 135.999s24 62.666 42 81.999s39.5 32.833 64.5 40.5s52.5 11.5 82.5 11.5c22 0 49.167 -0.5 81.5 -1.5
s61.166 -2.5 86.499 -4.5v-16h-168c-36.667 0 -68.334 -6.5 -95.001 -19.5s-47.5 -37.667 -62.5 -74s-22.5 -89.166 -22.5 -158.499c0 -66 8 -116.833 24 -152.5s37.5 -60.167 64.5 -73.5s57.5 -20 91.5 -20h176v-16c-14.667 -0.666992 -31.167 -1.5 -49.5 -2.5
s-38.166 -1.83301 -59.499 -2.5s-43.666 -1 -66.999 -1zM130.002 631.001l132 130h20l120 -130h-18l-112 115l-124 -115h-18z" />
    <glyph glyph-name="Cdotaccent" unicode="&#x10a;" horiz-adv-x="577" 
d="M323 -6c-45.333 0 -84.166 5.00195 -116.499 15.002s-58.5 28.167 -78.5 54.5s-34.667 64 -44 113s-14 112.833 -14 191.5c0 73.333 4.66699 134 14 182s24.333 85.667 45 113s47.667 46.666 81 57.999s73.666 17 120.999 17c11.333 0 28 -0.833008 50 -2.5
s46 -3.83398 72 -6.50098s50.667 -6.33398 74 -11.001v-16c-10.667 2 -26.667 4 -48 6s-45.333 3.83301 -72 5.5s-52.667 2.5 -78 2.5c-42 0 -78 -5 -108 -15s-54.333 -27.667 -73 -53s-32.334 -60.666 -41.001 -105.999s-13 -103.333 -13 -174
c0 -75.333 4.33301 -136.333 13 -183s22.167 -82.167 40.5 -106.5s42 -40.833 71 -49.5s64.167 -13 105.5 -13c50 0 91.167 1.5 123.5 4.5s58.833 6.16699 79.5 9.5v-16c-22 -4 -45.667 -7.5 -71 -10.5s-49.666 -5.33301 -72.999 -7s-43.333 -2.5 -60 -2.5zM324 833.002
c-8 0 -12 3.99902 -12 11.999v62c0 8 4 12 12 12h11c4 0 7 -1.16699 9 -3.5s3 -5.16602 3 -8.49902v-62c0 -8 -4 -12 -12 -12h-11z" />
    <glyph glyph-name="cdotaccent" unicode="&#x10b;" horiz-adv-x="490" 
d="M274 -6c-28.667 0 -55.332 3.83398 -79.999 11.501s-46.334 21.167 -65.001 40.5s-33.167 46.833 -43.5 82.5s-15.5 81.5 -15.5 137.5c0 55.333 5 100.666 15 135.999s24 62.666 42 81.999s39.5 32.833 64.5 40.5s52.5 11.5 82.5 11.5c22 0 49.167 -0.5 81.5 -1.5
s61.166 -2.5 86.499 -4.5v-16h-168c-36.667 0 -68.334 -6.5 -95.001 -19.5s-47.5 -37.667 -62.5 -74s-22.5 -89.166 -22.5 -158.499c0 -66 8 -116.833 24 -152.5s37.5 -60.167 64.5 -73.5s57.5 -20 91.5 -20h176v-16c-14.667 -0.666992 -31.167 -1.5 -49.5 -2.5
s-38.166 -1.83301 -59.499 -2.5s-43.666 -1 -66.999 -1zM264.002 673.001c-8 0 -12 3.99902 -12 11.999v62c0 8 4 12 12 12h11c4 0 7 -1.16699 9 -3.5s3 -5.16602 3 -8.49902v-62c0 -8 -4 -12 -12 -12h-11z" />
    <glyph glyph-name="Ccaron" unicode="&#x10c;" horiz-adv-x="577" 
d="M323 -6c-45.333 0 -84.166 5.00195 -116.499 15.002s-58.5 28.167 -78.5 54.5s-34.667 64 -44 113s-14 112.833 -14 191.5c0 73.333 4.66699 134 14 182s24.333 85.667 45 113s47.667 46.666 81 57.999s73.666 17 120.999 17c11.333 0 28 -0.833008 50 -2.5
s46 -3.83398 72 -6.50098s50.667 -6.33398 74 -11.001v-16c-10.667 2 -26.667 4 -48 6s-45.333 3.83301 -72 5.5s-52.667 2.5 -78 2.5c-42 0 -78 -5 -108 -15s-54.333 -27.667 -73 -53s-32.334 -60.666 -41.001 -105.999s-13 -103.333 -13 -174
c0 -75.333 4.33301 -136.333 13 -183s22.167 -82.167 40.5 -106.5s42 -40.833 71 -49.5s64.167 -13 105.5 -13c50 0 91.167 1.5 123.5 4.5s58.833 6.16699 79.5 9.5v-16c-22 -4 -45.667 -7.5 -71 -10.5s-49.666 -5.33301 -72.999 -7s-43.333 -2.5 -60 -2.5zM320 791.002
l-120 130h18l112 -115l124 115h18l-132 -130h-20z" />
    <glyph glyph-name="ccaron" unicode="&#x10d;" horiz-adv-x="490" 
d="M274 -6c-28.667 0 -55.332 3.83398 -79.999 11.501s-46.334 21.167 -65.001 40.5s-33.167 46.833 -43.5 82.5s-15.5 81.5 -15.5 137.5c0 55.333 5 100.666 15 135.999s24 62.666 42 81.999s39.5 32.833 64.5 40.5s52.5 11.5 82.5 11.5c22 0 49.167 -0.5 81.5 -1.5
s61.166 -2.5 86.499 -4.5v-16h-168c-36.667 0 -68.334 -6.5 -95.001 -19.5s-47.5 -37.667 -62.5 -74s-22.5 -89.166 -22.5 -158.499c0 -66 8 -116.833 24 -152.5s37.5 -60.167 64.5 -73.5s57.5 -20 91.5 -20h176v-16c-14.667 -0.666992 -31.167 -1.5 -49.5 -2.5
s-38.166 -1.83301 -59.499 -2.5s-43.666 -1 -66.999 -1zM260.002 631.001l-120 130h18l112 -115l124 115h18l-132 -130h-20z" />
    <glyph glyph-name="Dcaron" unicode="&#x10e;" horiz-adv-x="660" 
d="M88 0l-0.000976562 732h273c40 0 74.333 -7.33301 103 -22s52.334 -37 71.001 -67s32.5 -68 41.5 -114s13.5 -100.333 13.5 -163c0 -72 -8.66699 -135.5 -26 -190.5s-43 -98 -77 -129s-76 -46.5 -126 -46.5h-273zM111.999 22h249c46.667 0 85 14.667 115 44
s52.5 70 67.5 122s22.5 111.333 22.5 178c0 60 -3.83301 111.667 -11.5 155s-19.667 79 -36 107s-37.5 48.667 -63.5 62s-57.333 20 -94 20h-249v-688zM299.999 791l-120 130h18l112 -115l124 115h18l-132 -130h-20z" />
    <glyph glyph-name="dcaron" unicode="&#x10f;" horiz-adv-x="568" 
d="M262 -6c-45.333 0 -82.167 10.001 -110.5 30.001s-49 50 -62 90s-19.5 89.667 -19.5 149c0 66 7 119.167 21 159.5s35.833 69.5 65.5 87.5s68.167 27 115.5 27c34 0 67.333 -3.83301 100 -11.5s61 -15.834 85 -24.501v262h24v-763h-16l-8 57
c-8.66699 -8 -24.167 -16.833 -46.5 -26.5s-47 -18.167 -74 -25.5s-51.833 -11 -74.5 -11zM261.999 16.001c39.333 0 75 6.16895 107 18.502s61.333 25.166 88 38.499v412c-32.667 8.66699 -62.667 15.834 -90 21.501s-59 8.5 -95 8.5c-42 0 -76.167 -8 -102.5 -24
s-45.5 -42.333 -57.5 -79s-18 -86.334 -18 -149.001c0 -56 5.66699 -102.333 17 -139s29.333 -63.834 54 -81.501s57 -26.5 97 -26.5zM564.999 582.003l-4 144v57h24v-57l-4 -144h-16z" />
    <glyph glyph-name="Dcroat" unicode="&#x110;" horiz-adv-x="660" 
d="M17 361v22h304v-22h-304zM88 0l-0.000976562 732h273c40 0 74.333 -7.33301 103 -22s52.334 -37 71.001 -67s32.5 -68 41.5 -114s13.5 -100.333 13.5 -163c0 -72 -8.66699 -135.5 -26 -190.5s-43 -98 -77 -129s-76 -46.5 -126 -46.5h-273zM111.999 22h249
c46.667 0 85 14.667 115 44s52.5 70 67.5 122s22.5 111.333 22.5 178c0 60 -3.83301 111.667 -11.5 155s-19.667 79 -36 107s-37.5 48.667 -63.5 62s-57.333 20 -94 20h-249v-688z" />
    <glyph glyph-name="dcroat" unicode="&#x111;" horiz-adv-x="568" 
d="M300 640v16h258v-16h-258zM262 -6c-45.333 0 -82.167 10.001 -110.5 30.001s-49 50 -62 90s-19.5 89.667 -19.5 149c0 66 7 119.167 21 159.5s35.833 69.5 65.5 87.5s68.167 27 115.5 27c34 0 67.333 -3.83301 100 -11.5s61 -15.834 85 -24.501v262h24v-763h-16l-8 57
c-8.66699 -8 -24.167 -16.833 -46.5 -26.5s-47 -18.167 -74 -25.5s-51.833 -11 -74.5 -11zM261.999 16.001c39.333 0 75 6.16895 107 18.502s61.333 25.166 88 38.499v412c-32.667 8.66699 -62.667 15.834 -90 21.501s-59 8.5 -95 8.5c-42 0 -76.167 -8 -102.5 -24
s-45.5 -42.333 -57.5 -79s-18 -86.334 -18 -149.001c0 -56 5.66699 -102.333 17 -139s29.333 -63.834 54 -81.501s57 -26.5 97 -26.5z" />
    <glyph glyph-name="Emacron" unicode="&#x112;" horiz-adv-x="579" 
d="M225 -3c-16.667 0 -32.999 1.33203 -48.999 3.99902s-30.667 8.16699 -44 16.5s-24 21 -32 38s-12 39.5 -12 67.5v479c0 24.667 3.5 45.334 10.5 62.001s16.5 30 28.5 40s25.5 17.167 40.5 21.5s30.5 6.5 46.5 6.5l99.5 -2l99 -2l98.5 -2v-16h-297
c-30.667 0 -55.334 -8.5 -74.001 -25.5s-28 -44.5 -28 -82.5v-228l359 -3v-16l-359 -3v-229c0 -31.333 5.5 -54.333 16.5 -69s25.167 -24.167 42.5 -28.5s35 -6.5 53 -6.5h287v-16l-95 -2l-95.5 -2zM177.001 850.999v15h252v-15h-252z" />
    <glyph glyph-name="emacron" unicode="&#x113;" horiz-adv-x="544" 
d="M278 -6c-53.333 0 -95.168 8.66504 -125.501 25.998s-51.666 46 -63.999 86s-18.5 94 -18.5 162c0 69.333 6.83301 123.5 20.5 162.5s36.167 66.5 67.5 82.5s73 24 125 24c42.667 0 78 -5.16699 106 -15.5s49.167 -27.833 63.5 -52.5s21.5 -58.667 21.5 -102
c0 -27.333 -5.5 -49.666 -16.5 -66.999s-26.667 -29.833 -47 -37.5s-44.5 -11.5 -72.5 -11.5h-244c0 -57.333 5 -103.166 15 -137.499s28.333 -59.166 55 -74.499s65.334 -23 116.001 -23h184v-16c-34 -2.66699 -64.833 -4.33398 -92.5 -5.00098s-58.834 -1 -93.501 -1z
M93.998 272.998h243.999c38 0 66.167 6.66699 84.5 20s27.5 38 27.5 74c0 38.667 -5.5 68.667 -16.5 90s-28.667 36.333 -53 45s-56.833 13 -97.5 13c-49.333 0 -87.666 -6.83301 -114.999 -20.5s-46.5 -38 -57.5 -73s-16.5 -84.5 -16.5 -148.5zM142.997 690.998v15h252v-15
h-252z" />
    <glyph glyph-name="Ebreve" unicode="&#x114;" horiz-adv-x="579" 
d="M225 -3c-16.667 0 -32.999 1.33203 -48.999 3.99902s-30.667 8.16699 -44 16.5s-24 21 -32 38s-12 39.5 -12 67.5v479c0 24.667 3.5 45.334 10.5 62.001s16.5 30 28.5 40s25.5 17.167 40.5 21.5s30.5 6.5 46.5 6.5l99.5 -2l99 -2l98.5 -2v-16h-297
c-30.667 0 -55.334 -8.5 -74.001 -25.5s-28 -44.5 -28 -82.5v-228l359 -3v-16l-359 -3v-229c0 -31.333 5.5 -54.333 16.5 -69s25.167 -24.167 42.5 -28.5s35 -6.5 53 -6.5h287v-16l-95 -2l-95.5 -2zM303.001 792.999c-20 0 -39.5 3.8291 -58.5 11.4961
s-34.667 21.334 -47 41.001s-18.5 46.834 -18.5 81.501h14c0 -44 10.833 -75.167 32.5 -93.5s47.5 -27.166 77.5 -26.499c32.667 0.666992 59.5 9.66699 80.5 27s31.5 48.333 31.5 93h14c0 -36 -6.33301 -63.667 -19 -83s-28.667 -32.666 -48 -39.999s-39 -11 -59 -11z" />
    <glyph glyph-name="ebreve" unicode="&#x115;" horiz-adv-x="544" 
d="M278 -6c-53.333 0 -95.168 8.66504 -125.501 25.998s-51.666 46 -63.999 86s-18.5 94 -18.5 162c0 69.333 6.83301 123.5 20.5 162.5s36.167 66.5 67.5 82.5s73 24 125 24c42.667 0 78 -5.16699 106 -15.5s49.167 -27.833 63.5 -52.5s21.5 -58.667 21.5 -102
c0 -27.333 -5.5 -49.666 -16.5 -66.999s-26.667 -29.833 -47 -37.5s-44.5 -11.5 -72.5 -11.5h-244c0 -57.333 5 -103.166 15 -137.499s28.333 -59.166 55 -74.499s65.334 -23 116.001 -23h184v-16c-34 -2.66699 -64.833 -4.33398 -92.5 -5.00098s-58.834 -1 -93.501 -1z
M93.998 272.998h243.999c38 0 66.167 6.66699 84.5 20s27.5 38 27.5 74c0 38.667 -5.5 68.667 -16.5 90s-28.667 36.333 -53 45s-56.833 13 -97.5 13c-49.333 0 -87.666 -6.83301 -114.999 -20.5s-46.5 -38 -57.5 -73s-16.5 -84.5 -16.5 -148.5zM262.997 632.998
c-20 0 -39.5 3.8291 -58.5 11.4961s-34.667 21.334 -47 41.001s-18.5 46.834 -18.5 81.501h14c0 -44 10.833 -75.167 32.5 -93.5s47.5 -27.166 77.5 -26.499c32.667 0.666992 59.5 9.66699 80.5 27s31.5 48.333 31.5 93h14c0 -36 -6.33301 -63.667 -19 -83
s-28.667 -32.666 -48 -39.999s-39 -11 -59 -11z" />
    <glyph glyph-name="Edotaccent" unicode="&#x116;" horiz-adv-x="579" 
d="M225 -3c-16.667 0 -32.999 1.33203 -48.999 3.99902s-30.667 8.16699 -44 16.5s-24 21 -32 38s-12 39.5 -12 67.5v479c0 24.667 3.5 45.334 10.5 62.001s16.5 30 28.5 40s25.5 17.167 40.5 21.5s30.5 6.5 46.5 6.5l99.5 -2l99 -2l98.5 -2v-16h-297
c-30.667 0 -55.334 -8.5 -74.001 -25.5s-28 -44.5 -28 -82.5v-228l359 -3v-16l-359 -3v-229c0 -31.333 5.5 -54.333 16.5 -69s25.167 -24.167 42.5 -28.5s35 -6.5 53 -6.5h287v-16l-95 -2l-95.5 -2zM304.001 832.999c-8 0 -12 3.99902 -12 11.999v62c0 8 4 12 12 12h11
c4 0 7 -1.16699 9 -3.5s3 -5.16602 3 -8.49902v-62c0 -8 -4 -12 -12 -12h-11z" />
    <glyph glyph-name="edotaccent" unicode="&#x117;" horiz-adv-x="544" 
d="M278 -6c-53.333 0 -95.168 8.66504 -125.501 25.998s-51.666 46 -63.999 86s-18.5 94 -18.5 162c0 69.333 6.83301 123.5 20.5 162.5s36.167 66.5 67.5 82.5s73 24 125 24c42.667 0 78 -5.16699 106 -15.5s49.167 -27.833 63.5 -52.5s21.5 -58.667 21.5 -102
c0 -27.333 -5.5 -49.666 -16.5 -66.999s-26.667 -29.833 -47 -37.5s-44.5 -11.5 -72.5 -11.5h-244c0 -57.333 5 -103.166 15 -137.499s28.333 -59.166 55 -74.499s65.334 -23 116.001 -23h184v-16c-34 -2.66699 -64.833 -4.33398 -92.5 -5.00098s-58.834 -1 -93.501 -1z
M93.998 272.998h243.999c38 0 66.167 6.66699 84.5 20s27.5 38 27.5 74c0 38.667 -5.5 68.667 -16.5 90s-28.667 36.333 -53 45s-56.833 13 -97.5 13c-49.333 0 -87.666 -6.83301 -114.999 -20.5s-46.5 -38 -57.5 -73s-16.5 -84.5 -16.5 -148.5zM263.997 672.998
c-8 0 -12 3.99902 -12 11.999v62c0 8 4 12 12 12h11c4 0 7 -1.16699 9 -3.5s3 -5.16602 3 -8.49902v-62c0 -8 -4 -12 -12 -12h-11z" />
    <glyph glyph-name="Eogonek" unicode="&#x118;" horiz-adv-x="579" 
d="M225 -3c-16.667 0 -32.999 1.33203 -48.999 3.99902s-30.667 8.16699 -44 16.5s-24 21 -32 38s-12 39.5 -12 67.5v479c0 24.667 3.5 45.334 10.5 62.001s16.5 30 28.5 40s25.5 17.167 40.5 21.5s30.5 6.5 46.5 6.5l99.5 -2l99 -2l98.5 -2v-16h-297
c-30.667 0 -55.334 -8.5 -74.001 -25.5s-28 -44.5 -28 -82.5v-228l359 -3v-16l-359 -3v-229c0 -31.333 5.5 -54.333 16.5 -69s25.167 -24.167 42.5 -28.5s35 -6.5 53 -6.5h287v-16l-95 -2l-95.5 -2zM522.001 -179.001c-20 0 -38 3.5 -54 10.5s-28.5 17 -37.5 30
s-13.5 28.5 -13.5 46.5c0 16.667 6.33301 33.5 19 50.5s33.667 31.833 63 44.5h12c-24 -12 -42.5 -25.833 -55.5 -41.5s-19.5 -32.167 -19.5 -49.5c0 -24 8.5 -42.667 25.5 -56s42.5 -20 76.5 -20h5v-14c-4 -0.666992 -7.66699 -1 -11 -1h-10z" />
    <glyph glyph-name="eogonek" unicode="&#x119;" horiz-adv-x="544" 
d="M278 -6c-53.333 0 -95.168 8.66504 -125.501 25.998s-51.666 46 -63.999 86s-18.5 94 -18.5 162c0 69.333 6.83301 123.5 20.5 162.5s36.167 66.5 67.5 82.5s73 24 125 24c42.667 0 78 -5.16699 106 -15.5s49.167 -27.833 63.5 -52.5s21.5 -58.667 21.5 -102
c0 -27.333 -5.5 -49.666 -16.5 -66.999s-26.667 -29.833 -47 -37.5s-44.5 -11.5 -72.5 -11.5h-244c0 -57.333 5 -103.166 15 -137.499s28.333 -59.166 55 -74.499s65.334 -23 116.001 -23h184v-16c-34 -2.66699 -64.833 -4.33398 -92.5 -5.00098s-58.834 -1 -93.501 -1z
M93.998 272.998h243.999c38 0 66.167 6.66699 84.5 20s27.5 38 27.5 74c0 38.667 -5.5 68.667 -16.5 90s-28.667 36.333 -53 45s-56.833 13 -97.5 13c-49.333 0 -87.666 -6.83301 -114.999 -20.5s-46.5 -38 -57.5 -73s-16.5 -84.5 -16.5 -148.5zM474.997 -159.002
c-20 0 -38 3.5 -54 10.5s-28.5 17 -37.5 30s-13.5 28.5 -13.5 46.5c0 16.667 6.33301 33.5 19 50.5s33.667 31.833 63 44.5h12c-24 -12 -42.5 -25.833 -55.5 -41.5s-19.5 -32.167 -19.5 -49.5c0 -24 8.5 -42.667 25.5 -56s42.5 -20 76.5 -20h5v-14
c-4 -0.666992 -7.66699 -1 -11 -1h-10z" />
    <glyph glyph-name="Ecaron" unicode="&#x11a;" horiz-adv-x="579" 
d="M225 -3c-16.667 0 -32.999 1.33203 -48.999 3.99902s-30.667 8.16699 -44 16.5s-24 21 -32 38s-12 39.5 -12 67.5v479c0 24.667 3.5 45.334 10.5 62.001s16.5 30 28.5 40s25.5 17.167 40.5 21.5s30.5 6.5 46.5 6.5l99.5 -2l99 -2l98.5 -2v-16h-297
c-30.667 0 -55.334 -8.5 -74.001 -25.5s-28 -44.5 -28 -82.5v-228l359 -3v-16l-359 -3v-229c0 -31.333 5.5 -54.333 16.5 -69s25.167 -24.167 42.5 -28.5s35 -6.5 53 -6.5h287v-16l-95 -2l-95.5 -2zM300.001 790.999l-120 130h18l112 -115l124 115h18l-132 -130h-20z" />
    <glyph glyph-name="ecaron" unicode="&#x11b;" horiz-adv-x="544" 
d="M278 -6c-53.333 0 -95.168 8.66504 -125.501 25.998s-51.666 46 -63.999 86s-18.5 94 -18.5 162c0 69.333 6.83301 123.5 20.5 162.5s36.167 66.5 67.5 82.5s73 24 125 24c42.667 0 78 -5.16699 106 -15.5s49.167 -27.833 63.5 -52.5s21.5 -58.667 21.5 -102
c0 -27.333 -5.5 -49.666 -16.5 -66.999s-26.667 -29.833 -47 -37.5s-44.5 -11.5 -72.5 -11.5h-244c0 -57.333 5 -103.166 15 -137.499s28.333 -59.166 55 -74.499s65.334 -23 116.001 -23h184v-16c-34 -2.66699 -64.833 -4.33398 -92.5 -5.00098s-58.834 -1 -93.501 -1z
M93.998 272.998h243.999c38 0 66.167 6.66699 84.5 20s27.5 38 27.5 74c0 38.667 -5.5 68.667 -16.5 90s-28.667 36.333 -53 45s-56.833 13 -97.5 13c-49.333 0 -87.666 -6.83301 -114.999 -20.5s-46.5 -38 -57.5 -73s-16.5 -84.5 -16.5 -148.5zM259.997 630.998l-120 130
h18l112 -115l124 115h18l-132 -130h-20z" />
    <glyph glyph-name="Gcircumflex" unicode="&#x11c;" horiz-adv-x="642" 
d="M313 -5c-47.333 -0.666992 -86.6729 5.33398 -118.006 18.001s-56.166 33.5 -74.499 62.5s-31.333 67.667 -39 116s-11.5 107.833 -11.5 178.5c0 64.667 3.83301 120.334 11.5 167.001s20.334 84.834 38.001 114.501s41.334 51.5 71.001 65.5s66.167 21 109.5 21
c19.333 0 42.833 -0.833008 70.5 -2.5s55.334 -4 83.001 -7s52.167 -6.5 73.5 -10.5v-16c-12.667 1.33301 -31.5 3.16602 -56.5 5.49902s-52.5 4.33301 -82.5 6s-59.333 2.5 -88 2.5c-52.667 0 -94 -12 -124 -36s-51.167 -61.5 -63.5 -112.5s-18.5 -117.5 -18.5 -199.5
c0 -66.667 3.33301 -122.5 10 -167.5s18 -81 34 -108s38.167 -46.333 66.5 -58s64.5 -17.5 108.5 -17.5c35.333 0 72.833 5.5 112.5 16.5s74.5 22.833 104.5 35.5v275h-214v14c12 2 26.333 3.66699 43 5s34.834 2.5 54.501 3.5s40.5 1.5 62.5 1.5
c14.667 0 28.834 -0.333008 42.501 -1s25.5 -2 35.5 -4v-363h-16l-6 53c-27.333 -12.667 -60.333 -25.334 -99 -38.001s-78.667 -19.334 -120 -20.001zM189.993 791.001l132 130h20l120 -130h-18l-112 115l-124 -115h-18z" />
    <glyph glyph-name="gcircumflex" unicode="&#x11d;" horiz-adv-x="571" 
d="M216 -243c-35.333 0 -66.167 4.83594 -92.5 14.5029s-46.833 24.5 -61.5 44.5s-22 45.333 -22 76v30c0 32.667 8.66699 59.334 26 80.001s39 36 65 46s52 15 78 15v-20c-24 0 -47.167 -4 -69.5 -12s-40.833 -20.833 -55.5 -38.5s-22 -41.167 -22 -70.5v-30
c0 -42.667 14.167 -72.167 42.5 -88.5s65.5 -24.5 111.5 -24.5h140c52.667 0 93.834 10 123.501 30s44.5 51 44.5 93v25c0 23.333 -4.33301 43.666 -13 60.999s-24 30.833 -46 40.5s-53.333 14.5 -94 14.5h-194c-26.667 0 -49 6.83301 -67 20.5s-27 32.834 -27 57.501
c0 26 8 45.667 24 59s38.667 22.666 68 27.999c-28 9.33301 -49.5 22.666 -64.5 39.999s-25.333 36.166 -31 56.499s-8.5 40.166 -8.5 59.499c0 42.667 8.66699 76.334 26 101.001s40.666 42.167 69.999 52.5s61.333 15.5 96 15.5h282v-16l-151 -6
c10.667 -5.33301 23.167 -13 37.5 -23s26.833 -25.333 37.5 -46s16 -50 16 -88c0 -24.667 -5.33301 -49.334 -16 -74.001s-29.5 -45.334 -56.5 -62.001s-64.5 -25 -112.5 -25h-77c-36.667 0 -65.167 -5.16699 -85.5 -15.5s-30.5 -29.166 -30.5 -56.499
c0 -20 7 -34.333 21 -43s28.333 -13 43 -13h200c41.333 0 74.833 -5.33301 100.5 -16s44.5 -26 56.5 -46s18 -44.333 18 -73v-28c0 -45.333 -16.333 -80.833 -49 -106.5s-79.667 -38.5 -141 -38.5h-140zM235.999 215.003h61.998c44.667 0 78.667 6.83301 102 20.5
s39.333 31 48 52s13 43.167 13 66.5c0 38.667 -6.66699 69.5 -20 92.5s-31.166 39.5 -53.499 49.5s-47.833 15 -76.5 15h-58c-48 0 -86.333 -11 -115 -33s-43 -60 -43 -114c0 -52.667 12.833 -90.667 38.5 -114s59.834 -35 102.501 -35zM147.997 631.003l132 130h20
l120 -130h-18l-112 115l-124 -115h-18z" />
    <glyph glyph-name="Gbreve" unicode="&#x11e;" horiz-adv-x="642" 
d="M313 -5c-47.333 -0.666992 -86.6729 5.33398 -118.006 18.001s-56.166 33.5 -74.499 62.5s-31.333 67.667 -39 116s-11.5 107.833 -11.5 178.5c0 64.667 3.83301 120.334 11.5 167.001s20.334 84.834 38.001 114.501s41.334 51.5 71.001 65.5s66.167 21 109.5 21
c19.333 0 42.833 -0.833008 70.5 -2.5s55.334 -4 83.001 -7s52.167 -6.5 73.5 -10.5v-16c-12.667 1.33301 -31.5 3.16602 -56.5 5.49902s-52.5 4.33301 -82.5 6s-59.333 2.5 -88 2.5c-52.667 0 -94 -12 -124 -36s-51.167 -61.5 -63.5 -112.5s-18.5 -117.5 -18.5 -199.5
c0 -66.667 3.33301 -122.5 10 -167.5s18 -81 34 -108s38.167 -46.333 66.5 -58s64.5 -17.5 108.5 -17.5c35.333 0 72.833 5.5 112.5 16.5s74.5 22.833 104.5 35.5v275h-214v14c12 2 26.333 3.66699 43 5s34.834 2.5 54.501 3.5s40.5 1.5 62.5 1.5
c14.667 0 28.834 -0.333008 42.501 -1s25.5 -2 35.5 -4v-363h-16l-6 53c-27.333 -12.667 -60.333 -25.334 -99 -38.001s-78.667 -19.334 -120 -20.001zM322.993 793.001c-20 0 -39.5 3.8291 -58.5 11.4961s-34.667 21.334 -47 41.001s-18.5 46.834 -18.5 81.501h14
c0 -44 10.833 -75.167 32.5 -93.5s47.5 -27.166 77.5 -26.499c32.667 0.666992 59.5 9.66699 80.5 27s31.5 48.333 31.5 93h14c0 -36 -6.33301 -63.667 -19 -83s-28.667 -32.666 -48 -39.999s-39 -11 -59 -11z" />
    <glyph glyph-name="gbreve" unicode="&#x11f;" horiz-adv-x="571" 
d="M216 -243c-35.333 0 -66.167 4.83594 -92.5 14.5029s-46.833 24.5 -61.5 44.5s-22 45.333 -22 76v30c0 32.667 8.66699 59.334 26 80.001s39 36 65 46s52 15 78 15v-20c-24 0 -47.167 -4 -69.5 -12s-40.833 -20.833 -55.5 -38.5s-22 -41.167 -22 -70.5v-30
c0 -42.667 14.167 -72.167 42.5 -88.5s65.5 -24.5 111.5 -24.5h140c52.667 0 93.834 10 123.501 30s44.5 51 44.5 93v25c0 23.333 -4.33301 43.666 -13 60.999s-24 30.833 -46 40.5s-53.333 14.5 -94 14.5h-194c-26.667 0 -49 6.83301 -67 20.5s-27 32.834 -27 57.501
c0 26 8 45.667 24 59s38.667 22.666 68 27.999c-28 9.33301 -49.5 22.666 -64.5 39.999s-25.333 36.166 -31 56.499s-8.5 40.166 -8.5 59.499c0 42.667 8.66699 76.334 26 101.001s40.666 42.167 69.999 52.5s61.333 15.5 96 15.5h282v-16l-151 -6
c10.667 -5.33301 23.167 -13 37.5 -23s26.833 -25.333 37.5 -46s16 -50 16 -88c0 -24.667 -5.33301 -49.334 -16 -74.001s-29.5 -45.334 -56.5 -62.001s-64.5 -25 -112.5 -25h-77c-36.667 0 -65.167 -5.16699 -85.5 -15.5s-30.5 -29.166 -30.5 -56.499
c0 -20 7 -34.333 21 -43s28.333 -13 43 -13h200c41.333 0 74.833 -5.33301 100.5 -16s44.5 -26 56.5 -46s18 -44.333 18 -73v-28c0 -45.333 -16.333 -80.833 -49 -106.5s-79.667 -38.5 -141 -38.5h-140zM235.999 215.003h61.998c44.667 0 78.667 6.83301 102 20.5
s39.333 31 48 52s13 43.167 13 66.5c0 38.667 -6.66699 69.5 -20 92.5s-31.166 39.5 -53.499 49.5s-47.833 15 -76.5 15h-58c-48 0 -86.333 -11 -115 -33s-43 -60 -43 -114c0 -52.667 12.833 -90.667 38.5 -114s59.834 -35 102.501 -35zM280.997 633.003
c-20 0 -39.5 3.8291 -58.5 11.4961s-34.667 21.334 -47 41.001s-18.5 46.834 -18.5 81.501h14c0 -44 10.833 -75.167 32.5 -93.5s47.5 -27.166 77.5 -26.499c32.667 0.666992 59.5 9.66699 80.5 27s31.5 48.333 31.5 93h14c0 -36 -6.33301 -63.667 -19 -83
s-28.667 -32.666 -48 -39.999s-39 -11 -59 -11z" />
    <glyph glyph-name="Gdotaccent" unicode="&#x120;" horiz-adv-x="642" 
d="M313 -5c-47.333 -0.666992 -86.6729 5.33398 -118.006 18.001s-56.166 33.5 -74.499 62.5s-31.333 67.667 -39 116s-11.5 107.833 -11.5 178.5c0 64.667 3.83301 120.334 11.5 167.001s20.334 84.834 38.001 114.501s41.334 51.5 71.001 65.5s66.167 21 109.5 21
c19.333 0 42.833 -0.833008 70.5 -2.5s55.334 -4 83.001 -7s52.167 -6.5 73.5 -10.5v-16c-12.667 1.33301 -31.5 3.16602 -56.5 5.49902s-52.5 4.33301 -82.5 6s-59.333 2.5 -88 2.5c-52.667 0 -94 -12 -124 -36s-51.167 -61.5 -63.5 -112.5s-18.5 -117.5 -18.5 -199.5
c0 -66.667 3.33301 -122.5 10 -167.5s18 -81 34 -108s38.167 -46.333 66.5 -58s64.5 -17.5 108.5 -17.5c35.333 0 72.833 5.5 112.5 16.5s74.5 22.833 104.5 35.5v275h-214v14c12 2 26.333 3.66699 43 5s34.834 2.5 54.501 3.5s40.5 1.5 62.5 1.5
c14.667 0 28.834 -0.333008 42.501 -1s25.5 -2 35.5 -4v-363h-16l-6 53c-27.333 -12.667 -60.333 -25.334 -99 -38.001s-78.667 -19.334 -120 -20.001zM323.993 833.001c-8 0 -12 3.99902 -12 11.999v62c0 8 4 12 12 12h11c4 0 7 -1.16699 9 -3.5s3 -5.16602 3 -8.49902v-62
c0 -8 -4 -12 -12 -12h-11z" />
    <glyph glyph-name="gdotaccent" unicode="&#x121;" horiz-adv-x="571" 
d="M216 -243c-35.333 0 -66.167 4.83594 -92.5 14.5029s-46.833 24.5 -61.5 44.5s-22 45.333 -22 76v30c0 32.667 8.66699 59.334 26 80.001s39 36 65 46s52 15 78 15v-20c-24 0 -47.167 -4 -69.5 -12s-40.833 -20.833 -55.5 -38.5s-22 -41.167 -22 -70.5v-30
c0 -42.667 14.167 -72.167 42.5 -88.5s65.5 -24.5 111.5 -24.5h140c52.667 0 93.834 10 123.501 30s44.5 51 44.5 93v25c0 23.333 -4.33301 43.666 -13 60.999s-24 30.833 -46 40.5s-53.333 14.5 -94 14.5h-194c-26.667 0 -49 6.83301 -67 20.5s-27 32.834 -27 57.501
c0 26 8 45.667 24 59s38.667 22.666 68 27.999c-28 9.33301 -49.5 22.666 -64.5 39.999s-25.333 36.166 -31 56.499s-8.5 40.166 -8.5 59.499c0 42.667 8.66699 76.334 26 101.001s40.666 42.167 69.999 52.5s61.333 15.5 96 15.5h282v-16l-151 -6
c10.667 -5.33301 23.167 -13 37.5 -23s26.833 -25.333 37.5 -46s16 -50 16 -88c0 -24.667 -5.33301 -49.334 -16 -74.001s-29.5 -45.334 -56.5 -62.001s-64.5 -25 -112.5 -25h-77c-36.667 0 -65.167 -5.16699 -85.5 -15.5s-30.5 -29.166 -30.5 -56.499
c0 -20 7 -34.333 21 -43s28.333 -13 43 -13h200c41.333 0 74.833 -5.33301 100.5 -16s44.5 -26 56.5 -46s18 -44.333 18 -73v-28c0 -45.333 -16.333 -80.833 -49 -106.5s-79.667 -38.5 -141 -38.5h-140zM235.999 215.003h61.998c44.667 0 78.667 6.83301 102 20.5
s39.333 31 48 52s13 43.167 13 66.5c0 38.667 -6.66699 69.5 -20 92.5s-31.166 39.5 -53.499 49.5s-47.833 15 -76.5 15h-58c-48 0 -86.333 -11 -115 -33s-43 -60 -43 -114c0 -52.667 12.833 -90.667 38.5 -114s59.834 -35 102.501 -35zM281.997 673.003
c-8 0 -12 3.99902 -12 11.999v62c0 8 4 12 12 12h11c4 0 7 -1.16699 9 -3.5s3 -5.16602 3 -8.49902v-62c0 -8 -4 -12 -12 -12h-11z" />
    <glyph glyph-name="uni0122" unicode="&#x122;" horiz-adv-x="642" 
d="M313 -5c-47.333 -0.666992 -86.6729 5.33398 -118.006 18.001s-56.166 33.5 -74.499 62.5s-31.333 67.667 -39 116s-11.5 107.833 -11.5 178.5c0 64.667 3.83301 120.334 11.5 167.001s20.334 84.834 38.001 114.501s41.334 51.5 71.001 65.5s66.167 21 109.5 21
c19.333 0 42.833 -0.833008 70.5 -2.5s55.334 -4 83.001 -7s52.167 -6.5 73.5 -10.5v-16c-12.667 1.33301 -31.5 3.16602 -56.5 5.49902s-52.5 4.33301 -82.5 6s-59.333 2.5 -88 2.5c-52.667 0 -94 -12 -124 -36s-51.167 -61.5 -63.5 -112.5s-18.5 -117.5 -18.5 -199.5
c0 -66.667 3.33301 -122.5 10 -167.5s18 -81 34 -108s38.167 -46.333 66.5 -58s64.5 -17.5 108.5 -17.5c35.333 0 72.833 5.5 112.5 16.5s74.5 22.833 104.5 35.5v275h-214v14c12 2 26.333 3.66699 43 5s34.834 2.5 54.501 3.5s40.5 1.5 62.5 1.5
c14.667 0 28.834 -0.333008 42.501 -1s25.5 -2 35.5 -4v-363h-16l-6 53c-27.333 -12.667 -60.333 -25.334 -99 -38.001s-78.667 -19.334 -120 -20.001zM249.993 -190.999l0.00195312 10l32 3c18 2 33.167 5.66699 45.5 11s21.666 16.333 27.999 33s9.16602 43 8.49902 79h17
c0 -33.333 -2.66699 -60 -8 -80s-15.5 -34.333 -30.5 -43s-36.833 -13 -65.5 -13h-27z" />
    <glyph glyph-name="uni0123" unicode="&#x123;" horiz-adv-x="571" 
d="M216 -243c-35.333 0 -66.167 4.83594 -92.5 14.5029s-46.833 24.5 -61.5 44.5s-22 45.333 -22 76v30c0 32.667 8.66699 59.334 26 80.001s39 36 65 46s52 15 78 15v-20c-24 0 -47.167 -4 -69.5 -12s-40.833 -20.833 -55.5 -38.5s-22 -41.167 -22 -70.5v-30
c0 -42.667 14.167 -72.167 42.5 -88.5s65.5 -24.5 111.5 -24.5h140c52.667 0 93.834 10 123.501 30s44.5 51 44.5 93v25c0 23.333 -4.33301 43.666 -13 60.999s-24 30.833 -46 40.5s-53.333 14.5 -94 14.5h-194c-26.667 0 -49 6.83301 -67 20.5s-27 32.834 -27 57.501
c0 26 8 45.667 24 59s38.667 22.666 68 27.999c-28 9.33301 -49.5 22.666 -64.5 39.999s-25.333 36.166 -31 56.499s-8.5 40.166 -8.5 59.499c0 42.667 8.66699 76.334 26 101.001s40.666 42.167 69.999 52.5s61.333 15.5 96 15.5h282v-16l-151 -6
c10.667 -5.33301 23.167 -13 37.5 -23s26.833 -25.333 37.5 -46s16 -50 16 -88c0 -24.667 -5.33301 -49.334 -16 -74.001s-29.5 -45.334 -56.5 -62.001s-64.5 -25 -112.5 -25h-77c-36.667 0 -65.167 -5.16699 -85.5 -15.5s-30.5 -29.166 -30.5 -56.499
c0 -20 7 -34.333 21 -43s28.333 -13 43 -13h200c41.333 0 74.833 -5.33301 100.5 -16s44.5 -26 56.5 -46s18 -44.333 18 -73v-28c0 -45.333 -16.333 -80.833 -49 -106.5s-79.667 -38.5 -141 -38.5h-140zM235.999 215.003h61.998c44.667 0 78.667 6.83301 102 20.5
s39.333 31 48 52s13 43.167 13 66.5c0 38.667 -6.66699 69.5 -20 92.5s-31.166 39.5 -53.499 49.5s-47.833 15 -76.5 15h-58c-48 0 -86.333 -11 -115 -33s-43 -60 -43 -114c0 -52.667 12.833 -90.667 38.5 -114s59.834 -35 102.501 -35zM246.997 609.003
c0 33.333 2.66602 60.001 7.99902 80.001s15.5 34.333 30.5 43s36.833 13 65.5 13h27v-10l-32 -3c-17.333 -1.33301 -32.333 -4.83301 -45 -10.5s-22.167 -16.834 -28.5 -33.501s-9.16602 -43 -8.49902 -79h-17z" />
    <glyph glyph-name="Hcircumflex" unicode="&#x124;" horiz-adv-x="664" 
d="M88 0v732h24v-367h440v367h24v-732h-24v343h-440v-343h-24zM192 791l132 130h20l120 -130h-18l-112 115l-124 -115h-18z" />
    <glyph glyph-name="hcircumflex" unicode="&#x125;" horiz-adv-x="582" 
d="M91 0l0.000976562 762.999h24v-294c29.333 19.333 62.5 36 99.5 50s75.833 21 116.5 21c35.333 0 65.166 -8 89.499 -24s42.833 -37 55.5 -63s19 -53.667 19 -83v-370h-24v370c0 26.667 -5.5 51.167 -16.5 73.5s-26.833 40.333 -47.5 54s-46 20.5 -76 20.5
c-29.333 0 -55.5 -2.5 -78.5 -7.5s-45.333 -12.167 -67 -21.5s-45.167 -20.666 -70.5 -33.999v-455h-24zM33.001 800.999l132 130h20l120 -130h-18l-112 115l-124 -115h-18z" />
    <glyph glyph-name="Hbar" unicode="&#x126;" horiz-adv-x="664" 
d="M17 531v22h630v-22h-630zM88 0v732h24v-367h440v367h24v-732h-24v343h-440v-343h-24z" />
    <glyph glyph-name="hbar" unicode="&#x127;" horiz-adv-x="582" 
d="M10 640v16h258v-16h-258zM91 0l0.000976562 762.999h24v-294c29.333 19.333 62.5 36 99.5 50s75.833 21 116.5 21c35.333 0 65.166 -8 89.499 -24s42.833 -37 55.5 -63s19 -53.667 19 -83v-370h-24v370c0 26.667 -5.5 51.167 -16.5 73.5s-26.833 40.333 -47.5 54
s-46 20.5 -76 20.5c-29.333 0 -55.5 -2.5 -78.5 -7.5s-45.333 -12.167 -67 -21.5s-45.167 -20.666 -70.5 -33.999v-455h-24z" />
    <glyph glyph-name="Itilde" unicode="&#x128;" horiz-adv-x="200" 
d="M88 0v732h24v-732h-24zM-59 821c0 22.667 4.49805 40.332 13.498 52.999s20.333 21.834 34 27.501s27.167 8.5 40.5 8.5c15.333 0 30 -3.66699 44 -11s27.667 -15.833 41 -25.5s26.333 -18.167 39 -25.5s25.667 -11 39 -11c20.667 0 38.334 6.16699 53.001 18.5
s22 30.5 22 54.5h14c0 -26 -8 -47.333 -24 -64s-38.333 -25 -67 -25c-14.667 0 -28.667 3.66699 -42 11s-26.666 15.833 -39.999 25.5s-26.666 18.167 -39.999 25.5s-27 11 -41 11c-18.667 0 -35.334 -5.5 -50.001 -16.5s-22 -29.833 -22 -56.5h-14z" />
    <glyph glyph-name="itilde" unicode="&#x129;" horiz-adv-x="202" 
d="M91 0v531h24v-531h-24zM-50 661c0 22.667 4.49805 40.332 13.498 52.999s20.333 21.834 34 27.501s27.167 8.5 40.5 8.5c15.333 0 30 -3.66699 44 -11s27.667 -15.833 41 -25.5s26.333 -18.167 39 -25.5s25.667 -11 39 -11c20.667 0 38.334 6.16699 53.001 18.5
s22 30.5 22 54.5h14c0 -26 -8 -47.333 -24 -64s-38.333 -25 -67 -25c-14.667 0 -28.667 3.66699 -42 11s-26.666 15.833 -39.999 25.5s-26.666 18.167 -39.999 25.5s-27 11 -41 11c-18.667 0 -35.334 -5.5 -50.001 -16.5s-22 -29.833 -22 -56.5h-14z" />
    <glyph glyph-name="Imacron" unicode="&#x12a;" horiz-adv-x="200" 
d="M88 0v732h24v-732h-24zM-33 851v15h252v-15h-252z" />
    <glyph glyph-name="imacron" unicode="&#x12b;" horiz-adv-x="202" 
d="M91 0v531h24v-531h-24zM-24 691v15h252v-15h-252z" />
    <glyph glyph-name="Ibreve" unicode="&#x12c;" horiz-adv-x="200" 
d="M88 0v732h24v-732h-24zM93 793c-20 0 -39.5 3.8291 -58.5 11.4961s-34.667 21.334 -47 41.001s-18.5 46.834 -18.5 81.501h14c0 -44 10.833 -75.167 32.5 -93.5s47.5 -27.166 77.5 -26.499c32.667 0.666992 59.5 9.66699 80.5 27s31.5 48.333 31.5 93h14
c0 -36 -6.33301 -63.667 -19 -83s-28.667 -32.666 -48 -39.999s-39 -11 -59 -11z" />
    <glyph glyph-name="ibreve" unicode="&#x12d;" horiz-adv-x="202" 
d="M91 0v531h24v-531h-24zM96 633c-20 0 -39.5 3.8291 -58.5 11.4961s-34.667 21.334 -47 41.001s-18.5 46.834 -18.5 81.501h14c0 -44 10.833 -75.167 32.5 -93.5s47.5 -27.166 77.5 -26.499c32.667 0.666992 59.5 9.66699 80.5 27s31.5 48.333 31.5 93h14
c0 -36 -6.33301 -63.667 -19 -83s-28.667 -32.666 -48 -39.999s-39 -11 -59 -11z" />
    <glyph glyph-name="Iogonek" unicode="&#x12e;" horiz-adv-x="200" 
d="M88 0v732h24v-732h-24zM123 -182c-20 0 -38 3.5 -54 10.5s-28.5 17 -37.5 30s-13.5 28.5 -13.5 46.5c0 16.667 6.33301 33.5 19 50.5s33.667 31.833 63 44.5h12c-24 -12 -42.5 -25.833 -55.5 -41.5s-19.5 -32.167 -19.5 -49.5c0 -24 8.5 -42.667 25.5 -56
s42.5 -20 76.5 -20h5v-14c-4 -0.666992 -7.66699 -1 -11 -1h-10z" />
    <glyph glyph-name="iogonek" unicode="&#x12f;" horiz-adv-x="206" 
d="M98 640c-8 0 -12 3.99902 -12 11.999v62c0 8 4 12 12 12h11c4 0 6.83301 -1.16699 8.5 -3.5s2.5 -5.16602 2.5 -8.49902v-62c0 -8 -3.66699 -12 -11 -12h-11zM91 -0.000976562v531h24v-531h-24zM126 -182.001c-20 0 -38 3.5 -54 10.5s-28.5 17 -37.5 30
s-13.5 28.5 -13.5 46.5c0 16.667 6.33301 33.5 19 50.5s33.667 31.833 63 44.5h12c-24 -12 -42.5 -25.833 -55.5 -41.5s-19.5 -32.167 -19.5 -49.5c0 -24 8.5 -42.667 25.5 -56s42.5 -20 76.5 -20h5v-14c-4 -0.666992 -7.66699 -1 -11 -1h-10z" />
    <glyph glyph-name="Idotaccent" unicode="&#x130;" horiz-adv-x="200" 
d="M88 0v732h24v-732h-24zM94 833c-8 0 -12 3.99902 -12 11.999v62c0 8 4 12 12 12h11c4 0 7 -1.16699 9 -3.5s3 -5.16602 3 -8.49902v-62c0 -8 -4 -12 -12 -12h-11z" />
    <glyph glyph-name="dotlessi" unicode="&#x131;" horiz-adv-x="202" 
d="M91 0v531h24v-531h-24z" />
    <glyph glyph-name="Jcircumflex" unicode="&#x134;" horiz-adv-x="369" 
d="M134 -6c-16.667 0 -35.333 2.5 -56 7.5s-37.667 10.833 -51 17.5v16c14.667 -4.66699 32.334 -9 53.001 -13s38.667 -6 54 -6c24 0 45.167 3.33301 63.5 10s32.833 19.167 43.5 37.5s16 45.5 16 81.5v587h24v-587c0 -39.333 -5.83301 -70 -17.5 -92
s-28.334 -37.333 -50.001 -46s-48.167 -13 -79.5 -13zM129.001 791l132 130h20l120 -130h-18l-112 115l-124 -115h-18z" />
    <glyph glyph-name="jcircumflex" unicode="&#x135;" horiz-adv-x="206" 
d="M91 -237v768h24v-504c0 -52.667 -1 -102.167 -3 -148.5l-5 -115.5h-16zM-37 631l132 130h20l120 -130h-18l-112 115l-124 -115h-18z" />
    <glyph glyph-name="uni0136" unicode="&#x136;" horiz-adv-x="573" 
d="M88 0v732h24v-354h155l241 354h26l-248 -365l248 -367h-27l-241 356h-154v-356h-24zM190 -191l0.00195312 10l32 3c18 2 33.167 5.66699 45.5 11s21.666 16.333 27.999 33s9.16602 43 8.49902 79h17c0 -33.333 -2.66699 -60 -8 -80s-15.5 -34.333 -30.5 -43
s-36.833 -13 -65.5 -13h-27z" />
    <glyph glyph-name="uni0137" unicode="&#x137;" horiz-adv-x="468" 
d="M91 0v763h24v-465h87l199 233h30l-212 -245l221 -286h-31l-211 276h-83v-276h-24zM160 -191l0.00195312 10l32 3c18 2 33.167 5.66699 45.5 11s21.666 16.333 27.999 33s9.16602 43 8.49902 79h17c0 -33.333 -2.66699 -60 -8 -80s-15.5 -34.333 -30.5 -43
s-36.833 -13 -65.5 -13h-27z" />
    <glyph glyph-name="kgreenlandic" unicode="&#x138;" horiz-adv-x="468" 
d="M91 0v541h24v-243h87l199 233h30l-212 -245l221 -286h-31l-211 276h-83v-276h-24z" />
    <glyph glyph-name="Lacute" unicode="&#x139;" horiz-adv-x="529" 
d="M214 0c-20.667 0 -40.668 3.33398 -60.001 10.001s-35.166 19.167 -47.499 37.5s-18.5 44.5 -18.5 78.5v606h24v-606c0 -29.333 5.16699 -51.333 15.5 -66s23.333 -24.334 39 -29.001s31.5 -7 47.5 -7h286v-24h-286zM95.999 791.001l121 133h26l-133 -133h-14z" />
    <glyph glyph-name="lacute" unicode="&#x13a;" horiz-adv-x="278" 
d="M209 0c-24.667 0 -45.833 4.83301 -63.5 14.5s-31.167 26.667 -40.5 51s-14 58.833 -14 103.5v594h24v-594c0 -40.667 3.66699 -71 11 -91s17.833 -33.667 31.5 -41s29.5 -12 47.5 -14l64 -7v-16h-60zM79.001 881l121 133h26l-133 -133h-14z" />
    <glyph glyph-name="uni013B" unicode="&#x13b;" horiz-adv-x="529" 
d="M214 0c-20.667 0 -40.668 3.33398 -60.001 10.001s-35.166 19.167 -47.499 37.5s-18.5 44.5 -18.5 78.5v606h24v-606c0 -29.333 5.16699 -51.333 15.5 -66s23.333 -24.334 39 -29.001s31.5 -7 47.5 -7h286v-24h-286zM179.999 -190.999l0.00195312 10l32 3
c18 2 33.167 5.66699 45.5 11s21.666 16.333 27.999 33s9.16602 43 8.49902 79h17c0 -33.333 -2.66699 -60 -8 -80s-15.5 -34.333 -30.5 -43s-36.833 -13 -65.5 -13h-27z" />
    <glyph glyph-name="uni013C" unicode="&#x13c;" horiz-adv-x="278" 
d="M209 0c-24.667 0 -45.833 4.83301 -63.5 14.5s-31.167 26.667 -40.5 51s-14 58.833 -14 103.5v594h24v-594c0 -40.667 3.66699 -71 11 -91s17.833 -33.667 31.5 -41s29.5 -12 47.5 -14l64 -7v-16h-60zM70.001 -191l0.00195312 10l32 3c18 2 33.167 5.66699 45.5 11
s21.666 16.333 27.999 33s9.16602 43 8.49902 79h17c0 -33.333 -2.66699 -60 -8 -80s-15.5 -34.333 -30.5 -43s-36.833 -13 -65.5 -13h-27z" />
    <glyph glyph-name="Lcaron" unicode="&#x13d;" horiz-adv-x="529" 
d="M214 0c-20.667 0 -40.668 3.33398 -60.001 10.001s-35.166 19.167 -47.499 37.5s-18.5 44.5 -18.5 78.5v606h24v-606c0 -29.333 5.16699 -51.333 15.5 -66s23.333 -24.334 39 -29.001s31.5 -7 47.5 -7h286v-24h-286zM215.999 582.001l-4 144v57h24v-57l-4 -144h-16z" />
    <glyph glyph-name="lcaron" unicode="&#x13e;" horiz-adv-x="278" 
d="M209 0c-24.667 0 -45.833 4.83301 -63.5 14.5s-31.167 26.667 -40.5 51s-14 58.833 -14 103.5v594h24v-594c0 -40.667 3.66699 -71 11 -91s17.833 -33.667 31.5 -41s29.5 -12 47.5 -14l64 -7v-16h-60zM199.001 582l-4 144v57h24v-57l-4 -144h-16z" />
    <glyph glyph-name="Ldot" unicode="&#x13f;" horiz-adv-x="529" 
d="M214 0c-20.667 0 -40.668 3.33398 -60.001 10.001s-35.166 19.167 -47.499 37.5s-18.5 44.5 -18.5 78.5v606h24v-606c0 -29.333 5.16699 -51.333 15.5 -66s23.333 -24.334 39 -29.001s31.5 -7 47.5 -7h286v-24h-286zM366.999 364.001c-8 0 -12.001 4 -12.001 12v12
c0 8 4 12 12 12h11c8 0 12 -4 12 -12v-12c0 -4 -1.16699 -7 -3.5 -9s-5.16602 -3 -8.49902 -3h-11z" />
    <glyph glyph-name="ldot" unicode="&#x140;" horiz-adv-x="278" 
d="M209 0c-24.667 0 -45.833 4.83301 -63.5 14.5s-31.167 26.667 -40.5 51s-14 58.833 -14 103.5v594h24v-594c0 -40.667 3.66699 -71 11 -91s17.833 -33.667 31.5 -41s29.5 -12 47.5 -14l64 -7v-16h-60zM237.001 364c-8 0 -12.001 4 -12.001 12v12c0 8 4 12 12 12h11
c8 0 12 -4 12 -12v-12c0 -4 -1.16699 -7 -3.5 -9s-5.16602 -3 -8.49902 -3h-11z" />
    <glyph glyph-name="Lslash" unicode="&#x141;" horiz-adv-x="529" 
d="M6 322v21l87 37l16 4l145 63v-20l-145 -63l-16 -5zM214 0c-20.667 0 -40.668 3.33398 -60.001 10.001s-35.166 19.167 -47.499 37.5s-18.5 44.5 -18.5 78.5v606h24v-606c0 -29.333 5.16699 -51.333 15.5 -66s23.333 -24.334 39 -29.001s31.5 -7 47.5 -7h286v-24h-286z
" />
    <glyph glyph-name="lslash" unicode="&#x142;" horiz-adv-x="278" 
d="M9 371v21l82 28l24 8l114 37v-21l-114 -37l-24 -8zM209 0c-24.667 0 -45.833 4.83301 -63.5 14.5s-31.167 26.667 -40.5 51s-14 58.833 -14 103.5v594h24v-594c0 -40.667 3.66699 -71 11 -91s17.833 -33.667 31.5 -41s29.5 -12 47.5 -14l64 -7v-16h-60z" />
    <glyph glyph-name="Nacute" unicode="&#x143;" horiz-adv-x="665" 
d="M108 0v732h22l443 -688v688h24v-732h-22l-443 688v-688h-24zM333 791l121 133h26l-133 -133h-14z" />
    <glyph glyph-name="nacute" unicode="&#x144;" horiz-adv-x="582" 
d="M91 0l0.000976562 530.999h14l10 -62c29.333 19.333 62.5 36 99.5 50s75.833 21 116.5 21c35.333 0 65.166 -8 89.499 -24s42.833 -37 55.5 -63s19 -53.667 19 -83v-370h-24v370c0 26.667 -5.5 51.167 -16.5 73.5s-26.833 40.333 -47.5 54s-46 20.5 -76 20.5
c-29.333 0 -55.666 -2.5 -78.999 -7.5s-45.833 -12.167 -67.5 -21.5s-44.834 -20.666 -69.501 -33.999v-455h-24zM266.001 630.999l121 133h26l-133 -133h-14z" />
    <glyph glyph-name="uni0145" unicode="&#x145;" horiz-adv-x="665" 
d="M108 0v732h22l443 -688v688h24v-732h-22l-443 688v-688h-24zM257 -191l0.00195312 10l32 3c18 2 33.167 5.66699 45.5 11s21.666 16.333 27.999 33s9.16602 43 8.49902 79h17c0 -33.333 -2.66699 -60 -8 -80s-15.5 -34.333 -30.5 -43s-36.833 -13 -65.5 -13h-27z" />
    <glyph glyph-name="uni0146" unicode="&#x146;" horiz-adv-x="582" 
d="M91 0l0.000976562 530.999h14l10 -62c29.333 19.333 62.5 36 99.5 50s75.833 21 116.5 21c35.333 0 65.166 -8 89.499 -24s42.833 -37 55.5 -63s19 -53.667 19 -83v-370h-24v370c0 26.667 -5.5 51.167 -16.5 73.5s-26.833 40.333 -47.5 54s-46 20.5 -76 20.5
c-29.333 0 -55.666 -2.5 -78.999 -7.5s-45.833 -12.167 -67.5 -21.5s-44.834 -20.666 -69.501 -33.999v-455h-24zM210.001 -191.001l0.00195312 10l32 3c18 2 33.167 5.66699 45.5 11s21.666 16.333 27.999 33s9.16602 43 8.49902 79h17c0 -33.333 -2.66699 -60 -8 -80
s-15.5 -34.333 -30.5 -43s-36.833 -13 -65.5 -13h-27z" />
    <glyph glyph-name="Ncaron" unicode="&#x147;" horiz-adv-x="665" 
d="M108 0v732h22l443 -688v688h24v-732h-22l-443 688v-688h-24zM327 791l-120 130h18l112 -115l124 115h18l-132 -130h-20z" />
    <glyph glyph-name="ncaron" unicode="&#x148;" horiz-adv-x="582" 
d="M91 0l0.000976562 530.999h14l10 -62c29.333 19.333 62.5 36 99.5 50s75.833 21 116.5 21c35.333 0 65.166 -8 89.499 -24s42.833 -37 55.5 -63s19 -53.667 19 -83v-370h-24v370c0 26.667 -5.5 51.167 -16.5 73.5s-26.833 40.333 -47.5 54s-46 20.5 -76 20.5
c-29.333 0 -55.666 -2.5 -78.999 -7.5s-45.833 -12.167 -67.5 -21.5s-44.834 -20.666 -69.501 -33.999v-455h-24zM280.001 630.999l-120 130h18l112 -115l124 115h18l-132 -130h-20z" />
    <glyph glyph-name="Eng" unicode="&#x14a;" horiz-adv-x="665" 
d="M432 -243c-16.667 0 -35.333 2.5 -56 7.5s-37.667 10.833 -51 17.5v16c14.667 -4.66699 32.334 -9 53.001 -13s38.667 -6 54 -6c27.333 0 51.5 3.33301 72.5 10s37.667 19.167 50 37.5s18.5 45.5 18.5 81.5v114h24v-114c0 -39.333 -6.5 -70 -19.5 -92
s-31.833 -37.333 -56.5 -46s-54.334 -13 -89.001 -13zM108.001 0v732h22l443 -688v688h24v-732h-22l-443 688v-688h-24z" />
    <glyph glyph-name="eng" unicode="&#x14b;" horiz-adv-x="582" 
d="M331 -237c28.667 20 53.498 41.835 74.498 65.502s37.167 51.167 48.5 82.5s17 67.666 17 108.999v191h24v-191c0 -46.667 -6.16699 -86.334 -18.5 -119.001s-29.166 -60.167 -50.499 -82.5s-45.666 -40.833 -72.999 -55.5h-22zM90.998 0.00195312l0.000976562 530.999
h14l10 -62c29.333 19.333 62.5 36 99.5 50s75.833 21 116.5 21c35.333 0 65.166 -8 89.499 -24s42.833 -37 55.5 -63s19 -53.667 19 -83v-370h-24v370c0 26.667 -5.5 51.167 -16.5 73.5s-26.833 40.333 -47.5 54s-46 20.5 -76 20.5c-29.333 0 -55.666 -2.5 -78.999 -7.5
s-45.833 -12.167 -67.5 -21.5s-44.834 -20.666 -69.501 -33.999v-455h-24z" />
    <glyph glyph-name="Omacron" unicode="&#x14c;" horiz-adv-x="676" 
d="M338 -6c-44.667 0 -83.835 4.16699 -117.502 12.5s-61.667 24.833 -84 49.5s-39 61.5 -50 110.5s-16.5 113.833 -16.5 194.5c0 81.333 5.66699 146.833 17 196.5s28.333 87.5 51 113.5s50.667 43.667 84 53s72 14 116 14c46 0 85.833 -4.66699 119.5 -14
s61.5 -27 83.5 -53s38.333 -63.833 49 -113.5s16 -115.167 16 -196.5c0 -80.667 -5.5 -145.5 -16.5 -194.5s-27.667 -85.833 -50 -110.5s-50.166 -41.167 -83.499 -49.5s-72.666 -12.5 -117.999 -12.5zM337.999 16c42.667 0 79.5029 4 110.503 12s56.333 23.833 76 47.5
s34.167 58.334 43.5 104.001s14 106.167 14 181.5c0 79.333 -4.83301 142.666 -14.5 189.999s-24.334 82.833 -44.001 106.5s-44.834 39.334 -75.501 47.001s-67.334 11.5 -110.001 11.5c-39.333 0 -74.166 -3.83301 -104.499 -11.5s-55.833 -23.334 -76.5 -47.001
s-36.334 -59.167 -47.001 -106.5s-16 -110.666 -16 -189.999c0 -75.333 4.33301 -135.833 13 -181.5s22.667 -80.334 42 -104.001s44.5 -39.5 75.5 -47.5s68.833 -12 113.5 -12zM205.002 851v15h252v-15h-252z" />
    <glyph glyph-name="omacron" unicode="&#x14d;" horiz-adv-x="578" 
d="M288 -6c-34 0 -64.5 3.5 -91.5 10.5s-50 20 -69 39s-33.333 46.5 -43 82.5s-14.5 82.667 -14.5 140s4.83301 103.833 14.5 139.5s24 63 43 82s42 32 69 39s57.5 10.5 91.5 10.5s64.667 -3.5 92 -10.5s50.5 -20 69.5 -39s33.5 -46.333 43.5 -82s15 -82.167 15 -139.5
s-5 -104 -15 -140s-24.5 -63.5 -43.5 -82.5s-42.167 -32 -69.5 -39s-58 -10.5 -92 -10.5zM288 16c30.667 0 58.167 2.83301 82.5 8.5s44.833 17 61.5 34s29.5 42.167 38.5 75.5s13.5 77.333 13.5 132c0 55.333 -4.5 99.5 -13.5 132.5s-21.833 57.833 -38.5 74.5
s-37.167 27.834 -61.5 33.501s-51.833 8.5 -82.5 8.5s-58 -2.83301 -82 -8.5s-44.333 -16.834 -61 -33.501s-29.334 -41.5 -38.001 -74.5s-13 -77.167 -13 -132.5c0 -54.667 4.33301 -98.667 13 -132s21.334 -58.5 38.001 -75.5s37 -28.333 61 -34s51.333 -8.5 82 -8.5z
M161 691v15h252v-15h-252z" />
    <glyph glyph-name="Obreve" unicode="&#x14e;" horiz-adv-x="676" 
d="M338 -6c-44.667 0 -83.835 4.16699 -117.502 12.5s-61.667 24.833 -84 49.5s-39 61.5 -50 110.5s-16.5 113.833 -16.5 194.5c0 81.333 5.66699 146.833 17 196.5s28.333 87.5 51 113.5s50.667 43.667 84 53s72 14 116 14c46 0 85.833 -4.66699 119.5 -14
s61.5 -27 83.5 -53s38.333 -63.833 49 -113.5s16 -115.167 16 -196.5c0 -80.667 -5.5 -145.5 -16.5 -194.5s-27.667 -85.833 -50 -110.5s-50.166 -41.167 -83.499 -49.5s-72.666 -12.5 -117.999 -12.5zM337.999 16c42.667 0 79.5029 4 110.503 12s56.333 23.833 76 47.5
s34.167 58.334 43.5 104.001s14 106.167 14 181.5c0 79.333 -4.83301 142.666 -14.5 189.999s-24.334 82.833 -44.001 106.5s-44.834 39.334 -75.501 47.001s-67.334 11.5 -110.001 11.5c-39.333 0 -74.166 -3.83301 -104.499 -11.5s-55.833 -23.334 -76.5 -47.001
s-36.334 -59.167 -47.001 -106.5s-16 -110.666 -16 -189.999c0 -75.333 4.33301 -135.833 13 -181.5s22.667 -80.334 42 -104.001s44.5 -39.5 75.5 -47.5s68.833 -12 113.5 -12zM331.002 793c-20 0 -39.5 3.8291 -58.5 11.4961s-34.667 21.334 -47 41.001
s-18.5 46.834 -18.5 81.501h14c0 -44 10.833 -75.167 32.5 -93.5s47.5 -27.166 77.5 -26.499c32.667 0.666992 59.5 9.66699 80.5 27s31.5 48.333 31.5 93h14c0 -36 -6.33301 -63.667 -19 -83s-28.667 -32.666 -48 -39.999s-39 -11 -59 -11z" />
    <glyph glyph-name="obreve" unicode="&#x14f;" horiz-adv-x="578" 
d="M288 -6c-34 0 -64.5 3.5 -91.5 10.5s-50 20 -69 39s-33.333 46.5 -43 82.5s-14.5 82.667 -14.5 140s4.83301 103.833 14.5 139.5s24 63 43 82s42 32 69 39s57.5 10.5 91.5 10.5s64.667 -3.5 92 -10.5s50.5 -20 69.5 -39s33.5 -46.333 43.5 -82s15 -82.167 15 -139.5
s-5 -104 -15 -140s-24.5 -63.5 -43.5 -82.5s-42.167 -32 -69.5 -39s-58 -10.5 -92 -10.5zM288 16c30.667 0 58.167 2.83301 82.5 8.5s44.833 17 61.5 34s29.5 42.167 38.5 75.5s13.5 77.333 13.5 132c0 55.333 -4.5 99.5 -13.5 132.5s-21.833 57.833 -38.5 74.5
s-37.167 27.834 -61.5 33.501s-51.833 8.5 -82.5 8.5s-58 -2.83301 -82 -8.5s-44.333 -16.834 -61 -33.501s-29.334 -41.5 -38.001 -74.5s-13 -77.167 -13 -132.5c0 -54.667 4.33301 -98.667 13 -132s21.334 -58.5 38.001 -75.5s37 -28.333 61 -34s51.333 -8.5 82 -8.5z
M281 633c-20 0 -39.5 3.8291 -58.5 11.4961s-34.667 21.334 -47 41.001s-18.5 46.834 -18.5 81.501h14c0 -44 10.833 -75.167 32.5 -93.5s47.5 -27.166 77.5 -26.499c32.667 0.666992 59.5 9.66699 80.5 27s31.5 48.333 31.5 93h14c0 -36 -6.33301 -63.667 -19 -83
s-28.667 -32.666 -48 -39.999s-39 -11 -59 -11z" />
    <glyph glyph-name="Ohungarumlaut" unicode="&#x150;" horiz-adv-x="676" 
d="M338 -6c-44.667 0 -83.835 4.16699 -117.502 12.5s-61.667 24.833 -84 49.5s-39 61.5 -50 110.5s-16.5 113.833 -16.5 194.5c0 81.333 5.66699 146.833 17 196.5s28.333 87.5 51 113.5s50.667 43.667 84 53s72 14 116 14c46 0 85.833 -4.66699 119.5 -14
s61.5 -27 83.5 -53s38.333 -63.833 49 -113.5s16 -115.167 16 -196.5c0 -80.667 -5.5 -145.5 -16.5 -194.5s-27.667 -85.833 -50 -110.5s-50.166 -41.167 -83.499 -49.5s-72.666 -12.5 -117.999 -12.5zM337.999 16c42.667 0 79.5029 4 110.503 12s56.333 23.833 76 47.5
s34.167 58.334 43.5 104.001s14 106.167 14 181.5c0 79.333 -4.83301 142.666 -14.5 189.999s-24.334 82.833 -44.001 106.5s-44.834 39.334 -75.501 47.001s-67.334 11.5 -110.001 11.5c-39.333 0 -74.166 -3.83301 -104.499 -11.5s-55.833 -23.334 -76.5 -47.001
s-36.334 -59.167 -47.001 -106.5s-16 -110.666 -16 -189.999c0 -75.333 4.33301 -135.833 13 -181.5s22.667 -80.334 42 -104.001s44.5 -39.5 75.5 -47.5s68.833 -12 113.5 -12zM373.002 791l121 133h26l-133 -133h-14zM234.002 791l121 133h26l-133 -133h-14z" />
    <glyph glyph-name="ohungarumlaut" unicode="&#x151;" horiz-adv-x="578" 
d="M288 -6c-34 0 -64.5 3.5 -91.5 10.5s-50 20 -69 39s-33.333 46.5 -43 82.5s-14.5 82.667 -14.5 140s4.83301 103.833 14.5 139.5s24 63 43 82s42 32 69 39s57.5 10.5 91.5 10.5s64.667 -3.5 92 -10.5s50.5 -20 69.5 -39s33.5 -46.333 43.5 -82s15 -82.167 15 -139.5
s-5 -104 -15 -140s-24.5 -63.5 -43.5 -82.5s-42.167 -32 -69.5 -39s-58 -10.5 -92 -10.5zM288 16c30.667 0 58.167 2.83301 82.5 8.5s44.833 17 61.5 34s29.5 42.167 38.5 75.5s13.5 77.333 13.5 132c0 55.333 -4.5 99.5 -13.5 132.5s-21.833 57.833 -38.5 74.5
s-37.167 27.834 -61.5 33.501s-51.833 8.5 -82.5 8.5s-58 -2.83301 -82 -8.5s-44.333 -16.834 -61 -33.501s-29.334 -41.5 -38.001 -74.5s-13 -77.167 -13 -132.5c0 -54.667 4.33301 -98.667 13 -132s21.334 -58.5 38.001 -75.5s37 -28.333 61 -34s51.333 -8.5 82 -8.5z
M323 631l121 133h26l-133 -133h-14zM184 631l121 133h26l-133 -133h-14z" />
    <glyph glyph-name="OE" unicode="&#x152;" horiz-adv-x="1073" 
d="M338 -6c-44.667 0 -83.835 4.16699 -117.502 12.5s-61.667 24.833 -84 49.5s-39 61.5 -50 110.5s-16.5 113.833 -16.5 194.5c0 81.333 5.66699 146.833 17 196.5s28.333 87.5 51 113.5s50.667 43.667 84 53s72 14 116 14c46 0 85.833 -4.66699 119.5 -14
s61.5 -27 83.5 -53s38.333 -63.833 49 -113.5s16 -115.167 16 -196.5c0 -80.667 -5.5 -145.5 -16.5 -194.5s-27.667 -85.833 -50 -110.5s-50.166 -41.167 -83.499 -49.5s-72.666 -12.5 -117.999 -12.5zM337.999 16c42.667 0 79.5029 4 110.503 12s56.333 23.833 76 47.5
s34.167 58.334 43.5 104.001s14 106.167 14 181.5c0 79.333 -4.83301 142.666 -14.5 189.999s-24.334 82.833 -44.001 106.5s-44.834 39.334 -75.501 47.001s-67.334 11.5 -110.001 11.5c-39.333 0 -74.166 -3.83301 -104.499 -11.5s-55.833 -23.334 -76.5 -47.001
s-36.334 -59.167 -47.001 -106.5s-16 -110.666 -16 -189.999c0 -75.333 4.33301 -135.833 13 -181.5s22.667 -80.334 42 -104.001s44.5 -39.5 75.5 -47.5s68.833 -12 113.5 -12zM719.002 -3c-16.667 0 -32.999 1.33203 -48.999 3.99902s-30.667 8.16699 -44 16.5
s-24 21 -32 38s-12 39.5 -12 67.5v479c0 24.667 3.5 45.334 10.5 62.001s16.5 30 28.5 40s25.5 17.167 40.5 21.5s30.5 6.5 46.5 6.5l99.5 -2l99 -2l98.5 -2v-16h-297c-30.667 0 -55.334 -8.5 -74.001 -25.5s-28 -44.5 -28 -82.5v-228l359 -3v-16l-359 -3v-229
c0 -31.333 5.5 -54.333 16.5 -69s25.167 -24.167 42.5 -28.5s35 -6.5 53 -6.5h287v-16l-95 -2l-95.5 -2z" />
    <glyph glyph-name="oe" unicode="&#x153;" horiz-adv-x="956" 
d="M285 -6c-34 0 -64.167 3.5 -90.5 10.5s-48.833 20 -67.5 39s-32.834 46.5 -42.501 82.5s-14.5 82.667 -14.5 140s4.83301 103.833 14.5 139.5s24 63 43 82s42 32 69 39s57.5 10.5 91.5 10.5c33.333 0 63.333 -3.5 90 -10.5s49.334 -20 68.001 -39s33 -46.333 43 -82
s15 -82.167 15 -139.5s-5 -104 -15 -140s-24.5 -63.5 -43.5 -82.5s-42 -32 -69 -39s-57.5 -10.5 -91.5 -10.5zM288 16c30.667 0 58.167 2.83301 82.5 8.5s44.833 17 61.5 34s29.5 42.167 38.5 75.5s13.5 77.333 13.5 132c0 55.333 -4.5 99.5 -13.5 132.5
s-21.833 57.833 -38.5 74.5s-37.167 27.834 -61.5 33.501s-51.833 8.5 -82.5 8.5s-58 -2.83301 -82 -8.5s-44.333 -16.834 -61 -33.501s-29.334 -41.5 -38.001 -74.5s-13 -77.167 -13 -132.5c0 -54.667 4.33301 -98.667 13 -132s21.334 -58.5 38.001 -75.5
s37 -28.333 61 -34s51.333 -8.5 82 -8.5zM690 -6c-45.333 0 -83.1689 8.66504 -113.502 25.998s-53 46 -68 86s-22.5 94 -22.5 162c0 64 6.5 115.833 19.5 155.5s33.833 68.5 62.5 86.5s67.334 27 116.001 27c40.667 0 76 -4.16699 106 -12.5s53.5 -24.666 70.5 -48.999
s25.5 -60.5 25.5 -108.5c0 -27.333 -5.33301 -49.666 -16 -66.999s-26 -29.833 -46 -37.5s-43.667 -11.5 -71 -11.5h-247c0 -82.667 14.833 -142.5 44.5 -179.5s76.834 -55.5 141.501 -55.5h184v-16c-31.333 -2 -61.5 -3.5 -90.5 -4.5s-60.833 -1.5 -95.5 -1.5z
M505.997 272.998l243.997 -0.000976562c22 0 41.333 2.33301 58 7s29.834 13.834 39.501 27.501s14.5 33.5 14.5 59.5c0 44 -6.66699 76.5 -20 97.5s-33.166 34.667 -59.499 41s-59.166 9.5 -98.499 9.5c-46 0 -82 -8.5 -108 -25.5s-44.167 -43.333 -54.5 -79
s-15.5 -81.5 -15.5 -137.5z" />
    <glyph glyph-name="Racute" unicode="&#x154;" horiz-adv-x="592" 
d="M88 0l-0.00195312 731.997h276c20 0 40.167 -2.16699 60.5 -6.5s39.333 -13.166 57 -26.499s31.834 -33.333 42.501 -60s16 -62.334 16 -107.001s-5.16699 -80.667 -15.5 -108s-23.666 -48.166 -39.999 -62.499s-33.666 -24.166 -51.999 -29.499s-35.5 -8.33301 -51.5 -9
l161 -323h-24l-162 323c-13.333 0 -30.333 0.333008 -51 1s-42.834 1.16699 -66.501 1.5s-46.667 0.833008 -69 1.5s-41.5 1.33398 -57.5 2.00098v-329h-24zM111.998 344.997l252.001 0.000976562c20 0 39 2.16699 57 6.5s34.167 13 48.5 26s25.666 31.833 33.999 56.5
s12.5 57.334 12.5 98.001c0 38.667 -4.33301 69.667 -13 93s-20.167 41.166 -34.5 53.499s-30.5 20.666 -48.5 24.999s-36.667 6.5 -56 6.5h-252v-365zM283.999 790.998l121 133h26l-133 -133h-14z" />
    <glyph glyph-name="racute" unicode="&#x155;" horiz-adv-x="404" 
d="M91 0v531.002h16l8 -101c28 31.333 58.833 57 92.5 77s72.167 30 115.5 30c10.667 0 20.5 -0.5 29.5 -1.5s17.167 -2.5 24.5 -4.5v-24c-7.33301 1.33301 -15.5 2.66602 -24.5 3.99902s-18.833 2 -29.5 2c-28.667 0 -54 -3.83301 -76 -11.5s-43.5 -18.834 -64.5 -33.501
s-43.5 -32.667 -67.5 -54v-414h-24zM176 631.002l121 133h26l-133 -133h-14z" />
    <glyph glyph-name="uni0156" unicode="&#x156;" horiz-adv-x="592" 
d="M88 0l-0.00195312 731.997h276c20 0 40.167 -2.16699 60.5 -6.5s39.333 -13.166 57 -26.499s31.834 -33.333 42.501 -60s16 -62.334 16 -107.001s-5.16699 -80.667 -15.5 -108s-23.666 -48.166 -39.999 -62.499s-33.666 -24.166 -51.999 -29.499s-35.5 -8.33301 -51.5 -9
l161 -323h-24l-162 323c-13.333 0 -30.333 0.333008 -51 1s-42.834 1.16699 -66.501 1.5s-46.667 0.833008 -69 1.5s-41.5 1.33398 -57.5 2.00098v-329h-24zM111.998 344.997l252.001 0.000976562c20 0 39 2.16699 57 6.5s34.167 13 48.5 26s25.666 31.833 33.999 56.5
s12.5 57.334 12.5 98.001c0 38.667 -4.33301 69.667 -13 93s-20.167 41.166 -34.5 53.499s-30.5 20.666 -48.5 24.999s-36.667 6.5 -56 6.5h-252v-365zM207.999 -191.002l0.00195312 10l32 3c18 2 33.167 5.66699 45.5 11s21.666 16.333 27.999 33s9.16602 43 8.49902 79h17
c0 -33.333 -2.66699 -60 -8 -80s-15.5 -34.333 -30.5 -43s-36.833 -13 -65.5 -13h-27z" />
    <glyph glyph-name="uni0157" unicode="&#x157;" horiz-adv-x="404" 
d="M91 0v531.002h16l8 -101c28 31.333 58.833 57 92.5 77s72.167 30 115.5 30c10.667 0 20.5 -0.5 29.5 -1.5s17.167 -2.5 24.5 -4.5v-24c-7.33301 1.33301 -15.5 2.66602 -24.5 3.99902s-18.833 2 -29.5 2c-28.667 0 -54 -3.83301 -76 -11.5s-43.5 -18.834 -64.5 -33.501
s-43.5 -32.667 -67.5 -54v-414h-24zM23 -190.998l0.00195312 10l32 3c18 2 33.167 5.66699 45.5 11s21.666 16.333 27.999 33s9.16602 43 8.49902 79h17c0 -33.333 -2.66699 -60 -8 -80s-15.5 -34.333 -30.5 -43s-36.833 -13 -65.5 -13h-27z" />
    <glyph glyph-name="Rcaron" unicode="&#x158;" horiz-adv-x="592" 
d="M88 0l-0.00195312 731.997h276c20 0 40.167 -2.16699 60.5 -6.5s39.333 -13.166 57 -26.499s31.834 -33.333 42.501 -60s16 -62.334 16 -107.001s-5.16699 -80.667 -15.5 -108s-23.666 -48.166 -39.999 -62.499s-33.666 -24.166 -51.999 -29.499s-35.5 -8.33301 -51.5 -9
l161 -323h-24l-162 323c-13.333 0 -30.333 0.333008 -51 1s-42.834 1.16699 -66.501 1.5s-46.667 0.833008 -69 1.5s-41.5 1.33398 -57.5 2.00098v-329h-24zM111.998 344.997l252.001 0.000976562c20 0 39 2.16699 57 6.5s34.167 13 48.5 26s25.666 31.833 33.999 56.5
s12.5 57.334 12.5 98.001c0 38.667 -4.33301 69.667 -13 93s-20.167 41.166 -34.5 53.499s-30.5 20.666 -48.5 24.999s-36.667 6.5 -56 6.5h-252v-365zM277.999 790.998l-120 130h18l112 -115l124 115h18l-132 -130h-20z" />
    <glyph glyph-name="rcaron" unicode="&#x159;" horiz-adv-x="404" 
d="M91 0v531.002h16l8 -101c28 31.333 58.833 57 92.5 77s72.167 30 115.5 30c10.667 0 20.5 -0.5 29.5 -1.5s17.167 -2.5 24.5 -4.5v-24c-7.33301 1.33301 -15.5 2.66602 -24.5 3.99902s-18.833 2 -29.5 2c-28.667 0 -54 -3.83301 -76 -11.5s-43.5 -18.834 -64.5 -33.501
s-43.5 -32.667 -67.5 -54v-414h-24zM190 631.002l-120 130h18l112 -115l124 115h18l-132 -130h-20z" />
    <glyph glyph-name="Sacute" unicode="&#x15a;" horiz-adv-x="569" 
d="M285 -6c-11.333 0 -26.8369 0.333008 -46.5039 1s-40.5 1.66699 -62.5 3s-42.5 2.66602 -61.5 3.99902s-33.833 3 -44.5 5v16c13.333 -1.33301 31.5 -2.5 54.5 -3.5s48.5 -1.83301 76.5 -2.5s56 -1 84 -1c34 0 65.333 3.5 94 10.5s51.834 20.667 69.501 41
s26.5 49.833 26.5 88.5v68c0 42.667 -10.5 75.5 -31.5 98.5s-56.5 34.5 -106.5 34.5h-92c-52.667 0 -94.667 11.5 -126 34.5s-47 63.833 -47 122.5v46c0 67.333 17 113.833 51 139.5s81.333 38.5 142 38.5c16.667 0 38 -0.833008 64 -2.5s51.833 -3.66699 77.5 -6
s45.834 -4.83301 60.501 -7.5v-16l-97.5 6.5c-36.333 2.33301 -71.166 3.5 -104.499 3.5c-35.333 0 -65.666 -4.5 -90.999 -13.5s-44.666 -24.667 -57.999 -47s-20 -54.166 -20 -95.499v-46c0 -52 13.167 -87.167 39.5 -105.5s62.166 -27.5 107.499 -27.5h94
c38 0 68.833 -6.66699 92.5 -20s41.167 -31.833 52.5 -55.5s17 -50.834 17 -81.501v-68c0 -42.667 -10.333 -75.667 -31 -99s-47.167 -39.666 -79.5 -48.999s-66.833 -14 -103.5 -14zM273.996 791l121 133h26l-133 -133h-14z" />
    <glyph glyph-name="sacute" unicode="&#x15b;" horiz-adv-x="496" 
d="M266 -6c-10 0 -24.8271 0.166992 -44.4941 0.5s-40.5 0.833008 -62.5 1.5s-41.833 1.33398 -59.5 2.00098s-30.167 1.33398 -37.5 2.00098v16h204c28 0 53 2.16699 75 6.5s39.333 14.166 52 29.499s19 39 19 71v29c0 31.333 -10.333 55.833 -31 73.5
s-52.334 26.5 -95.001 26.5h-68c-32.667 0 -60.834 3.5 -84.501 10.5s-41.834 19.333 -54.501 37s-19 42.167 -19 73.5v26c0 32.667 6.33301 59 19 79s31.334 34.667 56.001 44s55 14 91 14c16 0 35.833 -0.166992 59.5 -0.5s47.667 -1 72 -2s44.166 -2.5 59.499 -4.5v-16
h-191c-45.333 0 -80.333 -7.83301 -105 -23.5s-37 -45.834 -37 -90.501v-26c0 -28 5.66699 -49 17 -63s27.166 -23.167 47.499 -27.5s43.5 -6.5 69.5 -6.5h68c44 0 80 -10.333 108 -31s42 -51.667 42 -93v-29c0 -36 -7.83301 -63.167 -23.5 -81.5
s-36.334 -30.833 -62.001 -37.5s-53.834 -10 -84.501 -10zM211.006 631l121 133h26l-133 -133h-14z" />
    <glyph glyph-name="Scircumflex" unicode="&#x15c;" horiz-adv-x="569" 
d="M285 -6c-11.333 0 -26.8369 0.333008 -46.5039 1s-40.5 1.66699 -62.5 3s-42.5 2.66602 -61.5 3.99902s-33.833 3 -44.5 5v16c13.333 -1.33301 31.5 -2.5 54.5 -3.5s48.5 -1.83301 76.5 -2.5s56 -1 84 -1c34 0 65.333 3.5 94 10.5s51.834 20.667 69.501 41
s26.5 49.833 26.5 88.5v68c0 42.667 -10.5 75.5 -31.5 98.5s-56.5 34.5 -106.5 34.5h-92c-52.667 0 -94.667 11.5 -126 34.5s-47 63.833 -47 122.5v46c0 67.333 17 113.833 51 139.5s81.333 38.5 142 38.5c16.667 0 38 -0.833008 64 -2.5s51.833 -3.66699 77.5 -6
s45.834 -4.83301 60.501 -7.5v-16l-97.5 6.5c-36.333 2.33301 -71.166 3.5 -104.499 3.5c-35.333 0 -65.666 -4.5 -90.999 -13.5s-44.666 -24.667 -57.999 -47s-20 -54.166 -20 -95.499v-46c0 -52 13.167 -87.167 39.5 -105.5s62.166 -27.5 107.499 -27.5h94
c38 0 68.833 -6.66699 92.5 -20s41.167 -31.833 52.5 -55.5s17 -50.834 17 -81.501v-68c0 -42.667 -10.333 -75.667 -31 -99s-47.167 -39.666 -79.5 -48.999s-66.833 -14 -103.5 -14zM137.996 791l132 130h20l120 -130h-18l-112 115l-124 -115h-18z" />
    <glyph glyph-name="scircumflex" unicode="&#x15d;" horiz-adv-x="496" 
d="M266 -6c-10 0 -24.8271 0.166992 -44.4941 0.5s-40.5 0.833008 -62.5 1.5s-41.833 1.33398 -59.5 2.00098s-30.167 1.33398 -37.5 2.00098v16h204c28 0 53 2.16699 75 6.5s39.333 14.166 52 29.499s19 39 19 71v29c0 31.333 -10.333 55.833 -31 73.5
s-52.334 26.5 -95.001 26.5h-68c-32.667 0 -60.834 3.5 -84.501 10.5s-41.834 19.333 -54.501 37s-19 42.167 -19 73.5v26c0 32.667 6.33301 59 19 79s31.334 34.667 56.001 44s55 14 91 14c16 0 35.833 -0.166992 59.5 -0.5s47.667 -1 72 -2s44.166 -2.5 59.499 -4.5v-16
h-191c-45.333 0 -80.333 -7.83301 -105 -23.5s-37 -45.834 -37 -90.501v-26c0 -28 5.66699 -49 17 -63s27.166 -23.167 47.499 -27.5s43.5 -6.5 69.5 -6.5h68c44 0 80 -10.333 108 -31s42 -51.667 42 -93v-29c0 -36 -7.83301 -63.167 -23.5 -81.5
s-36.334 -30.833 -62.001 -37.5s-53.834 -10 -84.501 -10zM95.0059 631l132 130h20l120 -130h-18l-112 115l-124 -115h-18z" />
    <glyph glyph-name="Scedilla" unicode="&#x15e;" horiz-adv-x="569" 
d="M285 -6c-11.333 0 -26.8369 0.333008 -46.5039 1s-40.5 1.66699 -62.5 3s-42.5 2.66602 -61.5 3.99902s-33.833 3 -44.5 5v16c13.333 -1.33301 31.5 -2.5 54.5 -3.5s48.5 -1.83301 76.5 -2.5s56 -1 84 -1c34 0 65.333 3.5 94 10.5s51.834 20.667 69.501 41
s26.5 49.833 26.5 88.5v68c0 42.667 -10.5 75.5 -31.5 98.5s-56.5 34.5 -106.5 34.5h-92c-52.667 0 -94.667 11.5 -126 34.5s-47 63.833 -47 122.5v46c0 67.333 17 113.833 51 139.5s81.333 38.5 142 38.5c16.667 0 38 -0.833008 64 -2.5s51.833 -3.66699 77.5 -6
s45.834 -4.83301 60.501 -7.5v-16l-97.5 6.5c-36.333 2.33301 -71.166 3.5 -104.499 3.5c-35.333 0 -65.666 -4.5 -90.999 -13.5s-44.666 -24.667 -57.999 -47s-20 -54.166 -20 -95.499v-46c0 -52 13.167 -87.167 39.5 -105.5s62.166 -27.5 107.499 -27.5h94
c38 0 68.833 -6.66699 92.5 -20s41.167 -31.833 52.5 -55.5s17 -50.834 17 -81.501v-68c0 -42.667 -10.333 -75.667 -31 -99s-47.167 -39.666 -79.5 -48.999s-66.833 -14 -103.5 -14zM212.996 -183v10.001l26 2c21.333 1.33301 37.833 6.16602 49.5 14.499
s17.5 21.5 17.5 39.5c0 13.333 -5.16699 24.833 -15.5 34.5s-32.833 14.5 -67.5 14.5l14 10c32 0 54 -5.33301 66 -16s18 -25.667 18 -45c0 -20.667 -7.83301 -36.5 -23.5 -47.5s-37.167 -16.5 -64.5 -16.5h-20zM222.996 -67.999l53 78h14l-53 -78h-14z" />
    <glyph glyph-name="scedilla" unicode="&#x15f;" horiz-adv-x="496" 
d="M266 -6c-10 0 -24.8271 0.166992 -44.4941 0.5s-40.5 0.833008 -62.5 1.5s-41.833 1.33398 -59.5 2.00098s-30.167 1.33398 -37.5 2.00098v16h204c28 0 53 2.16699 75 6.5s39.333 14.166 52 29.499s19 39 19 71v29c0 31.333 -10.333 55.833 -31 73.5
s-52.334 26.5 -95.001 26.5h-68c-32.667 0 -60.834 3.5 -84.501 10.5s-41.834 19.333 -54.501 37s-19 42.167 -19 73.5v26c0 32.667 6.33301 59 19 79s31.334 34.667 56.001 44s55 14 91 14c16 0 35.833 -0.166992 59.5 -0.5s47.667 -1 72 -2s44.166 -2.5 59.499 -4.5v-16
h-191c-45.333 0 -80.333 -7.83301 -105 -23.5s-37 -45.834 -37 -90.501v-26c0 -28 5.66699 -49 17 -63s27.166 -23.167 47.499 -27.5s43.5 -6.5 69.5 -6.5h68c44 0 80 -10.333 108 -31s42 -51.667 42 -93v-29c0 -36 -7.83301 -63.167 -23.5 -81.5
s-36.334 -30.833 -62.001 -37.5s-53.834 -10 -84.501 -10zM170.006 -183v10.001l26 2c21.333 1.33301 37.833 6.16602 49.5 14.499s17.5 21.5 17.5 39.5c0 13.333 -5.16699 24.833 -15.5 34.5s-32.833 14.5 -67.5 14.5l14 10c32 0 54 -5.33301 66 -16s18 -25.667 18 -45
c0 -20.667 -7.83301 -36.5 -23.5 -47.5s-37.167 -16.5 -64.5 -16.5h-20zM180.006 -67.999l53 78h14l-53 -78h-14z" />
    <glyph glyph-name="Scaron" unicode="&#x160;" horiz-adv-x="569" 
d="M285 -6c-11.333 0 -26.8369 0.333008 -46.5039 1s-40.5 1.66699 -62.5 3s-42.5 2.66602 -61.5 3.99902s-33.833 3 -44.5 5v16c13.333 -1.33301 31.5 -2.5 54.5 -3.5s48.5 -1.83301 76.5 -2.5s56 -1 84 -1c34 0 65.333 3.5 94 10.5s51.834 20.667 69.501 41
s26.5 49.833 26.5 88.5v68c0 42.667 -10.5 75.5 -31.5 98.5s-56.5 34.5 -106.5 34.5h-92c-52.667 0 -94.667 11.5 -126 34.5s-47 63.833 -47 122.5v46c0 67.333 17 113.833 51 139.5s81.333 38.5 142 38.5c16.667 0 38 -0.833008 64 -2.5s51.833 -3.66699 77.5 -6
s45.834 -4.83301 60.501 -7.5v-16l-97.5 6.5c-36.333 2.33301 -71.166 3.5 -104.499 3.5c-35.333 0 -65.666 -4.5 -90.999 -13.5s-44.666 -24.667 -57.999 -47s-20 -54.166 -20 -95.499v-46c0 -52 13.167 -87.167 39.5 -105.5s62.166 -27.5 107.499 -27.5h94
c38 0 68.833 -6.66699 92.5 -20s41.167 -31.833 52.5 -55.5s17 -50.834 17 -81.501v-68c0 -42.667 -10.333 -75.667 -31 -99s-47.167 -39.666 -79.5 -48.999s-66.833 -14 -103.5 -14zM267.996 791l-120 130h18l112 -115l124 115h18l-132 -130h-20z" />
    <glyph glyph-name="scaron" unicode="&#x161;" horiz-adv-x="496" 
d="M266 -6c-10 0 -24.8271 0.166992 -44.4941 0.5s-40.5 0.833008 -62.5 1.5s-41.833 1.33398 -59.5 2.00098s-30.167 1.33398 -37.5 2.00098v16h204c28 0 53 2.16699 75 6.5s39.333 14.166 52 29.499s19 39 19 71v29c0 31.333 -10.333 55.833 -31 73.5
s-52.334 26.5 -95.001 26.5h-68c-32.667 0 -60.834 3.5 -84.501 10.5s-41.834 19.333 -54.501 37s-19 42.167 -19 73.5v26c0 32.667 6.33301 59 19 79s31.334 34.667 56.001 44s55 14 91 14c16 0 35.833 -0.166992 59.5 -0.5s47.667 -1 72 -2s44.166 -2.5 59.499 -4.5v-16
h-191c-45.333 0 -80.333 -7.83301 -105 -23.5s-37 -45.834 -37 -90.501v-26c0 -28 5.66699 -49 17 -63s27.166 -23.167 47.499 -27.5s43.5 -6.5 69.5 -6.5h68c44 0 80 -10.333 108 -31s42 -51.667 42 -93v-29c0 -36 -7.83301 -63.167 -23.5 -81.5
s-36.334 -30.833 -62.001 -37.5s-53.834 -10 -84.501 -10zM225.006 631l-120 130h18l112 -115l124 115h18l-132 -130h-20z" />
    <glyph glyph-name="uni0162" unicode="&#x162;" horiz-adv-x="550" 
d="M263 0v710h-247v22h518v-22h-247v-710h-24zM210 -183v10.001l26 2c21.333 1.33301 37.833 6.16602 49.5 14.499s17.5 21.5 17.5 39.5c0 13.333 -5.16699 24.833 -15.5 34.5s-32.833 14.5 -67.5 14.5l14 10c32 0 54 -5.33301 66 -16s18 -25.667 18 -45
c0 -20.667 -7.83301 -36.5 -23.5 -47.5s-37.167 -16.5 -64.5 -16.5h-20zM220 -67.999l53 78h14l-53 -78h-14z" />
    <glyph glyph-name="uni0163" unicode="&#x163;" horiz-adv-x="350" 
d="M246 0c-28.667 0 -53.1699 5.5 -73.5029 16.5s-35.666 28.167 -45.999 51.5s-15.5 53.333 -15.5 90l2 351h-86v16l84 6l8 149h16v-149h175v-22h-175v-351c0 -30 3.33301 -53.833 10 -71.5s15.334 -31 26.001 -40s21.834 -15.167 33.501 -18.5s22.5 -5.33301 32.5 -6
l64 -6v-16h-55zM114.997 -183v10.001l26 2c21.333 1.33301 37.833 6.16602 49.5 14.499s17.5 21.5 17.5 39.5c0 13.333 -5.16699 24.833 -15.5 34.5s-32.833 14.5 -67.5 14.5l14 10c32 0 54 -5.33301 66 -16s18 -25.667 18 -45c0 -20.667 -7.83301 -36.5 -23.5 -47.5
s-37.167 -16.5 -64.5 -16.5h-20zM124.997 -67.999l53 78h14l-53 -78h-14z" />
    <glyph glyph-name="Tcaron" unicode="&#x164;" horiz-adv-x="550" 
d="M263 0v710h-247v22h518v-22h-247v-710h-24zM265 791l-120 130h18l112 -115l124 115h18l-132 -130h-20z" />
    <glyph glyph-name="tcaron" unicode="&#x165;" horiz-adv-x="350" 
d="M246 0c-28.667 0 -53.1699 5.5 -73.5029 16.5s-35.666 28.167 -45.999 51.5s-15.5 53.333 -15.5 90l2 351h-86v16l84 6l8 149h16v-149h175v-22h-175v-351c0 -30 3.33301 -53.833 10 -71.5s15.334 -31 26.001 -40s21.834 -15.167 33.501 -18.5s22.5 -5.33301 32.5 -6
l64 -6v-16h-55zM218.997 582l-4 144v57h24v-57l-4 -144h-16z" />
    <glyph glyph-name="Tbar" unicode="&#x166;" horiz-adv-x="550" 
d="M77 381v22h395v-22h-395zM263 0v710h-247v22h518v-22h-247v-710h-24z" />
    <glyph glyph-name="tbar" unicode="&#x167;" horiz-adv-x="350" 
d="M27 318v16h263v-16h-263zM246 0c-28.667 0 -53.1699 5.5 -73.5029 16.5s-35.666 28.167 -45.999 51.5s-15.5 53.333 -15.5 90l2 351h-86v16l84 6l8 149h16v-149h175v-22h-175v-351c0 -30 3.33301 -53.833 10 -71.5s15.334 -31 26.001 -40s21.834 -15.167 33.501 -18.5
s22.5 -5.33301 32.5 -6l64 -6v-16h-55z" />
    <glyph glyph-name="Utilde" unicode="&#x168;" horiz-adv-x="668" 
d="M334 -6c-41.333 0 -78.002 3.83301 -110.002 11.5s-58.833 20.167 -80.5 37.5s-38 40.5 -49 69.5s-16.5 64.833 -16.5 107.5v512h24v-512c0 -54 9.16699 -95.667 27.5 -125s44.833 -49.833 79.5 -61.5s76.334 -17.5 125.001 -17.5s90.334 5.83301 125.001 17.5
s61.167 32.167 79.5 61.5s27.5 71 27.5 125v512h24v-512c0 -42.667 -5.5 -78.5 -16.5 -107.5s-27.333 -52.167 -49 -69.5s-48.5 -29.833 -80.5 -37.5s-68.667 -11.5 -110 -11.5zM174.998 821c0 22.667 4.49805 40.332 13.498 52.999s20.333 21.834 34 27.501
s27.167 8.5 40.5 8.5c15.333 0 30 -3.66699 44 -11s27.667 -15.833 41 -25.5s26.333 -18.167 39 -25.5s25.667 -11 39 -11c20.667 0 38.334 6.16699 53.001 18.5s22 30.5 22 54.5h14c0 -26 -8 -47.333 -24 -64s-38.333 -25 -67 -25c-14.667 0 -28.667 3.66699 -42 11
s-26.666 15.833 -39.999 25.5s-26.666 18.167 -39.999 25.5s-27 11 -41 11c-18.667 0 -35.334 -5.5 -50.001 -16.5s-22 -29.833 -22 -56.5h-14z" />
    <glyph glyph-name="utilde" unicode="&#x169;" horiz-adv-x="582" 
d="M255 -6c-52.667 0 -93.167 12.5 -121.5 37.5s-42.5 67.5 -42.5 127.5v372h24v-372c0 -56 12.5 -93.833 37.5 -113.5s61.167 -29.5 108.5 -29.5c41.333 0 77.5 5 108.5 15s64.833 25 101.5 45v455h24v-531h-14l-10 62c-28.667 -18.667 -61.667 -34.667 -99 -48
s-76.333 -20 -117 -20zM127 661c0 22.667 4.49805 40.332 13.498 52.999s20.333 21.834 34 27.501s27.167 8.5 40.5 8.5c15.333 0 30 -3.66699 44 -11s27.667 -15.833 41 -25.5s26.333 -18.167 39 -25.5s25.667 -11 39 -11c20.667 0 38.334 6.16699 53.001 18.5
s22 30.5 22 54.5h14c0 -26 -8 -47.333 -24 -64s-38.333 -25 -67 -25c-14.667 0 -28.667 3.66699 -42 11s-26.666 15.833 -39.999 25.5s-26.666 18.167 -39.999 25.5s-27 11 -41 11c-18.667 0 -35.334 -5.5 -50.001 -16.5s-22 -29.833 -22 -56.5h-14z" />
    <glyph glyph-name="Umacron" unicode="&#x16a;" horiz-adv-x="668" 
d="M334 -6c-41.333 0 -78.002 3.83301 -110.002 11.5s-58.833 20.167 -80.5 37.5s-38 40.5 -49 69.5s-16.5 64.833 -16.5 107.5v512h24v-512c0 -54 9.16699 -95.667 27.5 -125s44.833 -49.833 79.5 -61.5s76.334 -17.5 125.001 -17.5s90.334 5.83301 125.001 17.5
s61.167 32.167 79.5 61.5s27.5 71 27.5 125v512h24v-512c0 -42.667 -5.5 -78.5 -16.5 -107.5s-27.333 -52.167 -49 -69.5s-48.5 -29.833 -80.5 -37.5s-68.667 -11.5 -110 -11.5zM200.998 851v15h252v-15h-252z" />
    <glyph glyph-name="umacron" unicode="&#x16b;" horiz-adv-x="582" 
d="M255 -6c-52.667 0 -93.167 12.5 -121.5 37.5s-42.5 67.5 -42.5 127.5v372h24v-372c0 -56 12.5 -93.833 37.5 -113.5s61.167 -29.5 108.5 -29.5c41.333 0 77.5 5 108.5 15s64.833 25 101.5 45v455h24v-531h-14l-10 62c-28.667 -18.667 -61.667 -34.667 -99 -48
s-76.333 -20 -117 -20zM153 691v15h252v-15h-252z" />
    <glyph glyph-name="Ubreve" unicode="&#x16c;" horiz-adv-x="668" 
d="M334 -6c-41.333 0 -78.002 3.83301 -110.002 11.5s-58.833 20.167 -80.5 37.5s-38 40.5 -49 69.5s-16.5 64.833 -16.5 107.5v512h24v-512c0 -54 9.16699 -95.667 27.5 -125s44.833 -49.833 79.5 -61.5s76.334 -17.5 125.001 -17.5s90.334 5.83301 125.001 17.5
s61.167 32.167 79.5 61.5s27.5 71 27.5 125v512h24v-512c0 -42.667 -5.5 -78.5 -16.5 -107.5s-27.333 -52.167 -49 -69.5s-48.5 -29.833 -80.5 -37.5s-68.667 -11.5 -110 -11.5zM326.998 793c-20 0 -39.5 3.8291 -58.5 11.4961s-34.667 21.334 -47 41.001
s-18.5 46.834 -18.5 81.501h14c0 -44 10.833 -75.167 32.5 -93.5s47.5 -27.166 77.5 -26.499c32.667 0.666992 59.5 9.66699 80.5 27s31.5 48.333 31.5 93h14c0 -36 -6.33301 -63.667 -19 -83s-28.667 -32.666 -48 -39.999s-39 -11 -59 -11z" />
    <glyph glyph-name="ubreve" unicode="&#x16d;" horiz-adv-x="582" 
d="M255 -6c-52.667 0 -93.167 12.5 -121.5 37.5s-42.5 67.5 -42.5 127.5v372h24v-372c0 -56 12.5 -93.833 37.5 -113.5s61.167 -29.5 108.5 -29.5c41.333 0 77.5 5 108.5 15s64.833 25 101.5 45v455h24v-531h-14l-10 62c-28.667 -18.667 -61.667 -34.667 -99 -48
s-76.333 -20 -117 -20zM273 633c-20 0 -39.5 3.8291 -58.5 11.4961s-34.667 21.334 -47 41.001s-18.5 46.834 -18.5 81.501h14c0 -44 10.833 -75.167 32.5 -93.5s47.5 -27.166 77.5 -26.499c32.667 0.666992 59.5 9.66699 80.5 27s31.5 48.333 31.5 93h14
c0 -36 -6.33301 -63.667 -19 -83s-28.667 -32.666 -48 -39.999s-39 -11 -59 -11z" />
    <glyph glyph-name="Uring" unicode="&#x16e;" horiz-adv-x="668" 
d="M334 -6c-41.333 0 -78.002 3.83301 -110.002 11.5s-58.833 20.167 -80.5 37.5s-38 40.5 -49 69.5s-16.5 64.833 -16.5 107.5v512h24v-512c0 -54 9.16699 -95.667 27.5 -125s44.833 -49.833 79.5 -61.5s76.334 -17.5 125.001 -17.5s90.334 5.83301 125.001 17.5
s61.167 32.167 79.5 61.5s27.5 71 27.5 125v512h24v-512c0 -42.667 -5.5 -78.5 -16.5 -107.5s-27.333 -52.167 -49 -69.5s-48.5 -29.833 -80.5 -37.5s-68.667 -11.5 -110 -11.5zM333.998 760c-32.667 0 -57.834 7.33301 -75.501 22s-26.5 41.334 -26.5 80.001
s8.83301 65.5 26.5 80.5s42.834 22.5 75.501 22.5c33.333 0 58.333 -7.5 75 -22.5s25 -41.833 25 -80.5s-8.33301 -65.334 -25 -80.001s-41.667 -22 -75 -22zM333.998 776c29.333 0 50.666 5.83301 63.999 17.5s20 34.5 20 68.5s-6.66699 57 -20 69s-34.666 18 -63.999 18
c-28.667 0 -50.167 -6 -64.5 -18s-21.5 -35 -21.5 -69s7.16699 -56.833 21.5 -68.5s35.833 -17.5 64.5 -17.5z" />
    <glyph glyph-name="uring" unicode="&#x16f;" horiz-adv-x="582" 
d="M255 -6c-52.667 0 -93.167 12.5 -121.5 37.5s-42.5 67.5 -42.5 127.5v372h24v-372c0 -56 12.5 -93.833 37.5 -113.5s61.167 -29.5 108.5 -29.5c41.333 0 77.5 5 108.5 15s64.833 25 101.5 45v455h24v-531h-14l-10 62c-28.667 -18.667 -61.667 -34.667 -99 -48
s-76.333 -20 -117 -20zM280 600c-32.667 0 -57.834 7.33301 -75.501 22s-26.5 41.334 -26.5 80.001s8.83301 65.5 26.5 80.5s42.834 22.5 75.501 22.5c33.333 0 58.333 -7.5 75 -22.5s25 -41.833 25 -80.5s-8.33301 -65.334 -25 -80.001s-41.667 -22 -75 -22zM280 616
c29.333 0 50.666 5.83301 63.999 17.5s20 34.5 20 68.5s-6.66699 57 -20 69s-34.666 18 -63.999 18c-28.667 0 -50.167 -6 -64.5 -18s-21.5 -35 -21.5 -69s7.16699 -56.833 21.5 -68.5s35.833 -17.5 64.5 -17.5z" />
    <glyph glyph-name="Uhungarumlaut" unicode="&#x170;" horiz-adv-x="668" 
d="M334 -6c-41.333 0 -78.002 3.83301 -110.002 11.5s-58.833 20.167 -80.5 37.5s-38 40.5 -49 69.5s-16.5 64.833 -16.5 107.5v512h24v-512c0 -54 9.16699 -95.667 27.5 -125s44.833 -49.833 79.5 -61.5s76.334 -17.5 125.001 -17.5s90.334 5.83301 125.001 17.5
s61.167 32.167 79.5 61.5s27.5 71 27.5 125v512h24v-512c0 -42.667 -5.5 -78.5 -16.5 -107.5s-27.333 -52.167 -49 -69.5s-48.5 -29.833 -80.5 -37.5s-68.667 -11.5 -110 -11.5zM368.998 791l121 133h26l-133 -133h-14zM229.998 791l121 133h26l-133 -133h-14z" />
    <glyph glyph-name="uhungarumlaut" unicode="&#x171;" horiz-adv-x="582" 
d="M255 -6c-52.667 0 -93.167 12.5 -121.5 37.5s-42.5 67.5 -42.5 127.5v372h24v-372c0 -56 12.5 -93.833 37.5 -113.5s61.167 -29.5 108.5 -29.5c41.333 0 77.5 5 108.5 15s64.833 25 101.5 45v455h24v-531h-14l-10 62c-28.667 -18.667 -61.667 -34.667 -99 -48
s-76.333 -20 -117 -20zM315 631l121 133h26l-133 -133h-14zM176 631l121 133h26l-133 -133h-14z" />
    <glyph glyph-name="Uogonek" unicode="&#x172;" horiz-adv-x="668" 
d="M334 -6c-41.333 0 -78.002 3.83301 -110.002 11.5s-58.833 20.167 -80.5 37.5s-38 40.5 -49 69.5s-16.5 64.833 -16.5 107.5v512h24v-512c0 -54 9.16699 -95.667 27.5 -125s44.833 -49.833 79.5 -61.5s76.334 -17.5 125.001 -17.5s90.334 5.83301 125.001 17.5
s61.167 32.167 79.5 61.5s27.5 71 27.5 125v512h24v-512c0 -42.667 -5.5 -78.5 -16.5 -107.5s-27.333 -52.167 -49 -69.5s-48.5 -29.833 -80.5 -37.5s-68.667 -11.5 -110 -11.5zM427.998 -182c-20 0 -38 3.5 -54 10.5s-28.5 17 -37.5 30s-13.5 28.5 -13.5 46.5
c0 16.667 6.33301 33.5 19 50.5s33.667 31.833 63 44.5h12c-24 -12 -42.5 -25.833 -55.5 -41.5s-19.5 -32.167 -19.5 -49.5c0 -24 8.5 -42.667 25.5 -56s42.5 -20 76.5 -20h5v-14c-4 -0.666992 -7.66699 -1 -11 -1h-10z" />
    <glyph glyph-name="uogonek" unicode="&#x173;" horiz-adv-x="582" 
d="M255 -6c-52.667 0 -93.167 12.5 -121.5 37.5s-42.5 67.5 -42.5 127.5v372h24v-372c0 -56 12.5 -93.833 37.5 -113.5s61.167 -29.5 108.5 -29.5c41.333 0 77.5 5 108.5 15s64.833 25 101.5 45v455h24v-531h-14l-10 62c-28.667 -18.667 -61.667 -34.667 -99 -48
s-76.333 -20 -117 -20zM506 -182c-20 0 -38 3.5 -54 10.5s-28.5 17 -37.5 30s-13.5 28.5 -13.5 46.5c0 16.667 6.33301 33.5 19 50.5s33.667 31.833 63 44.5h12c-24 -12 -42.5 -25.833 -55.5 -41.5s-19.5 -32.167 -19.5 -49.5c0 -24 8.5 -42.667 25.5 -56s42.5 -20 76.5 -20
h5v-14c-4 -0.666992 -7.66699 -1 -11 -1h-10z" />
    <glyph glyph-name="Wcircumflex" unicode="&#x174;" horiz-adv-x="991" 
d="M246 0l-198 732h25l190 -711l216 711h34l215 -711l191 711h24l-198 -732h-34l-215 708l-216 -708h-34zM352 791l132 130h20l120 -130h-18l-112 115l-124 -115h-18z" />
    <glyph glyph-name="wcircumflex" unicode="&#x175;" horiz-adv-x="774" 
d="M202 0l-178 531h24l167 -508l159 508h26l159 -508l167 508h24l-178 -531h-26l-159 508l-159 -508h-26zM250 631l132 130h20l120 -130h-18l-112 115l-124 -115h-18z" />
    <glyph glyph-name="Ycircumflex" unicode="&#x176;" horiz-adv-x="610" 
d="M293 0v260l-243 472h26l229 -449l229 449h26l-243 -472v-260h-24zM165 791l132 130h20l120 -130h-18l-112 115l-124 -115h-18z" />
    <glyph glyph-name="ycircumflex" unicode="&#x177;" horiz-adv-x="519" 
d="M215 -237l76 237.003c-6.66699 0.666992 -17.167 3.16699 -31.5 7.5s-29.166 14.166 -44.499 29.499s-29 39.666 -41 72.999l-150 421h26l148 -415c9.33301 -26 19.666 -45.333 30.999 -58s22.333 -21.334 33 -26.001s19.5 -7 26.5 -7h10.5l171 506h25l-223 -669l-45 -99
h-12zM120 631.003l132 130h20l120 -130h-18l-112 115l-124 -115h-18z" />
    <glyph glyph-name="Ydieresis" unicode="&#x178;" horiz-adv-x="610" 
d="M293 0v260l-243 472h26l229 -449l229 449h26l-243 -472v-260h-24zM418 826c-8 0 -12 3.99902 -12 11.999v62c0 8 4 12 12 12h11c4 0 7 -1.16699 9 -3.5s3 -5.16602 3 -8.49902v-62c0 -8 -4 -12 -12 -12h-11zM164 825.999c-8 0 -12 3.99902 -12 11.999v62c0 8 4 12 12 12
h11c4 0 7 -1.16699 9 -3.5s3 -5.16602 3 -8.49902v-62c0 -8 -4 -12 -12 -12h-11z" />
    <glyph glyph-name="Zacute" unicode="&#x179;" horiz-adv-x="549" 
d="M47 0v22l434 688h-434v22h463v-22l-434 -688h434v-22h-463zM271 791l121 133h26l-133 -133h-14z" />
    <glyph glyph-name="zacute" unicode="&#x17a;" horiz-adv-x="486" 
d="M56 0v22l351 487h-357v22h386v-22l-353 -487h353v-22h-380zM206 631l121 133h26l-133 -133h-14z" />
    <glyph glyph-name="Zdotaccent" unicode="&#x17b;" horiz-adv-x="549" 
d="M47 0v22l434 688h-434v22h463v-22l-434 -688h434v-22h-463zM269 833c-8 0 -12 3.99902 -12 11.999v62c0 8 4 12 12 12h11c4 0 7 -1.16699 9 -3.5s3 -5.16602 3 -8.49902v-62c0 -8 -4 -12 -12 -12h-11z" />
    <glyph glyph-name="zdotaccent" unicode="&#x17c;" horiz-adv-x="486" 
d="M56 0v22l351 487h-357v22h386v-22l-353 -487h353v-22h-380zM224 673c-8 0 -12 3.99902 -12 11.999v62c0 8 4 12 12 12h11c4 0 7 -1.16699 9 -3.5s3 -5.16602 3 -8.49902v-62c0 -8 -4 -12 -12 -12h-11z" />
    <glyph glyph-name="Zcaron" unicode="&#x17d;" horiz-adv-x="549" 
d="M47 0v22l434 688h-434v22h463v-22l-434 -688h434v-22h-463zM265 791l-120 130h18l112 -115l124 115h18l-132 -130h-20z" />
    <glyph glyph-name="zcaron" unicode="&#x17e;" horiz-adv-x="486" 
d="M56 0v22l351 487h-357v22h386v-22l-353 -487h353v-22h-380zM220 631l-120 130h18l112 -115l124 115h18l-132 -130h-20z" />
    <glyph glyph-name="uni018F" unicode="&#x18f;" horiz-adv-x="599" 
d="M299 -6c-53.333 0 -96.333 11.168 -129 33.501s-56.167 58.666 -70.5 108.999s-21.5 117.166 -21.5 200.499v27h426c0 72.667 -3.66699 132 -11 178s-20.166 81.667 -38.499 107s-43.666 42.833 -75.999 52.5s-73.833 14.5 -124.5 14.5c-38.667 0 -70 -1.83301 -94 -5.5
s-43.333 -6.5 -58 -8.5v16c21.333 4.66699 46.166 9.16699 74.499 13.5s59.166 6.5 92.499 6.5c47.333 0 87.5 -4.83301 120.5 -14.5s59.833 -27.5 80.5 -53.5s35.667 -63.167 45 -111.5s14 -111.166 14 -188.499c0 -74.667 -5.16699 -136.5 -15.5 -185.5
s-25.5 -87.333 -45.5 -115s-44.167 -47.167 -72.5 -58.5s-60.5 -17 -96.5 -17zM296 16.001c33.333 0 62.8311 4.66699 88.498 14s47.334 26 65.001 50s31 57.167 40 99.5s13.5 96.5 13.5 162.5h-402c0 -80 5.83301 -143.833 17.5 -191.5s31.834 -82 60.501 -103
s67.667 -31.5 117 -31.5z" />
    <glyph glyph-name="florin" unicode="&#x192;" horiz-adv-x="609" 
d="M100 -204c-12 0 -25.001 0.503906 -39.001 1.50391s-25.667 2.5 -35 4.5l4 16h75c26.667 0 49.167 8 67.5 24s34.166 43.667 47.499 83s25.333 93.666 36 162.999l53 335h-102l3 23h102l18 110c10 61.333 21.167 109.666 33.5 144.999s28.5 60.333 48.5 75s47 22 81 22
c22 0 39.5 -0.833008 52.5 -2.5s22.5 -2.83398 28.5 -3.50098l-3 -16h-78c-28 0 -50.667 -6.66699 -68 -20s-31.166 -35.5 -41.499 -66.5s-19.833 -73.5 -28.5 -127.5l-19 -117h144l-3 -22h-144l-53 -335c-11.333 -72 -24.166 -129.333 -38.499 -172
s-32.5 -73.334 -54.5 -92.001s-51 -28 -87 -28z" />
    <glyph glyph-name="Ohorn" unicode="&#x1a0;" horiz-adv-x="676" 
d="M381 716v16h128c24 0 44 8.5 60 25.5s24 47.167 24 90.5h22c0 -36 -5.33301 -63.5 -16 -82.5s-24.167 -32 -40.5 -39s-32.833 -10.5 -49.5 -10.5h-128zM338 -6c-44.667 0 -83.835 4.16699 -117.502 12.5s-61.667 24.833 -84 49.5s-39 61.5 -50 110.5
s-16.5 113.833 -16.5 194.5c0 81.333 5.66699 146.833 17 196.5s28.333 87.5 51 113.5s50.667 43.667 84 53s72 14 116 14c46 0 85.833 -4.66699 119.5 -14s61.5 -27 83.5 -53s38.333 -63.833 49 -113.5s16 -115.167 16 -196.5c0 -80.667 -5.5 -145.5 -16.5 -194.5
s-27.667 -85.833 -50 -110.5s-50.166 -41.167 -83.499 -49.5s-72.666 -12.5 -117.999 -12.5zM337.999 16c42.667 0 79.5029 4 110.503 12s56.333 23.833 76 47.5s34.167 58.334 43.5 104.001s14 106.167 14 181.5c0 79.333 -4.83301 142.666 -14.5 189.999
s-24.334 82.833 -44.001 106.5s-44.834 39.334 -75.501 47.001s-67.334 11.5 -110.001 11.5c-39.333 0 -74.166 -3.83301 -104.499 -11.5s-55.833 -23.334 -76.5 -47.001s-36.334 -59.167 -47.001 -106.5s-16 -110.666 -16 -189.999c0 -75.333 4.33301 -135.833 13 -181.5
s22.667 -80.334 42 -104.001s44.5 -39.5 75.5 -47.5s68.833 -12 113.5 -12z" />
    <glyph glyph-name="ohorn" unicode="&#x1a1;" horiz-adv-x="578" 
d="M288 -6c-34 0 -64.5 3.5 -91.5 10.5s-50 20 -69 39s-33.333 46.5 -43 82.5s-14.5 82.667 -14.5 140s4.83301 103.833 14.5 139.5s24 63 43 82s42 32 69 39s57.5 10.5 91.5 10.5s64.667 -3.5 92 -10.5s50.5 -20 69.5 -39s33.5 -46.333 43.5 -82s15 -82.167 15 -139.5
s-5 -104 -15 -140s-24.5 -63.5 -43.5 -82.5s-42.167 -32 -69.5 -39s-58 -10.5 -92 -10.5zM288 16c30.667 0 58.167 2.83301 82.5 8.5s44.833 17 61.5 34s29.5 42.167 38.5 75.5s13.5 77.333 13.5 132c0 55.333 -4.5 99.5 -13.5 132.5s-21.833 57.833 -38.5 74.5
s-37.167 27.834 -61.5 33.501s-51.833 8.5 -82.5 8.5s-58 -2.83301 -82 -8.5s-44.333 -16.834 -61 -33.501s-29.334 -41.5 -38.001 -74.5s-13 -77.167 -13 -132.5c0 -54.667 4.33301 -98.667 13 -132s21.334 -58.5 38.001 -75.5s37 -28.333 61 -34s51.333 -8.5 82 -8.5z
M331 515v16h104c24 0 44 8.5 60 25.5s24 47.167 24 90.5h22c0 -36 -5.33301 -63.5 -16 -82.5s-24.167 -32 -40.5 -39s-32.833 -10.5 -49.5 -10.5h-104z" />
    <glyph glyph-name="Uhorn" unicode="&#x1af;" horiz-adv-x="668" 
d="M570 716v16h17c24 0 44 8.5 60 25.5s24 47.167 24 90.5h22c0 -36 -5.33301 -63.5 -16 -82.5s-24.167 -32 -40.5 -39s-32.833 -10.5 -49.5 -10.5h-17zM334 -6c-41.333 0 -78.002 3.83301 -110.002 11.5s-58.833 20.167 -80.5 37.5s-38 40.5 -49 69.5
s-16.5 64.833 -16.5 107.5v512h24v-512c0 -54 9.16699 -95.667 27.5 -125s44.833 -49.833 79.5 -61.5s76.334 -17.5 125.001 -17.5s90.334 5.83301 125.001 17.5s61.167 32.167 79.5 61.5s27.5 71 27.5 125v512h24v-512c0 -42.667 -5.5 -78.5 -16.5 -107.5
s-27.333 -52.167 -49 -69.5s-48.5 -29.833 -80.5 -37.5s-68.667 -11.5 -110 -11.5z" />
    <glyph glyph-name="uhorn" unicode="&#x1b0;" horiz-adv-x="582" 
d="M480 515v16h9c24 0 44 8.5 60 25.5s24 47.167 24 90.5h22c0 -36 -5.33301 -63.5 -16 -82.5s-24.167 -32 -40.5 -39s-32.833 -10.5 -49.5 -10.5h-9zM255 -6c-52.667 0 -93.167 12.5 -121.5 37.5s-42.5 67.5 -42.5 127.5v372h24v-372c0 -56 12.5 -93.833 37.5 -113.5
s61.167 -29.5 108.5 -29.5c41.333 0 77.5 5 108.5 15s64.833 25 101.5 45v455h24v-531h-14l-10 62c-28.667 -18.667 -61.667 -34.667 -99 -48s-76.333 -20 -117 -20z" />
    <glyph glyph-name="Gcaron" unicode="&#x1e6;" horiz-adv-x="642" 
d="M313 -5c-47.333 -0.666992 -86.6729 5.33398 -118.006 18.001s-56.166 33.5 -74.499 62.5s-31.333 67.667 -39 116s-11.5 107.833 -11.5 178.5c0 64.667 3.83301 120.334 11.5 167.001s20.334 84.834 38.001 114.501s41.334 51.5 71.001 65.5s66.167 21 109.5 21
c19.333 0 42.833 -0.833008 70.5 -2.5s55.334 -4 83.001 -7s52.167 -6.5 73.5 -10.5v-16c-12.667 1.33301 -31.5 3.16602 -56.5 5.49902s-52.5 4.33301 -82.5 6s-59.333 2.5 -88 2.5c-52.667 0 -94 -12 -124 -36s-51.167 -61.5 -63.5 -112.5s-18.5 -117.5 -18.5 -199.5
c0 -66.667 3.33301 -122.5 10 -167.5s18 -81 34 -108s38.167 -46.333 66.5 -58s64.5 -17.5 108.5 -17.5c35.333 0 72.833 5.5 112.5 16.5s74.5 22.833 104.5 35.5v275h-214v14c12 2 26.333 3.66699 43 5s34.834 2.5 54.501 3.5s40.5 1.5 62.5 1.5
c14.667 0 28.834 -0.333008 42.501 -1s25.5 -2 35.5 -4v-363h-16l-6 53c-27.333 -12.667 -60.333 -25.334 -99 -38.001s-78.667 -19.334 -120 -20.001zM319.993 791.001l-120 130h18l112 -115l124 115h18l-132 -130h-20z" />
    <glyph glyph-name="gcaron" unicode="&#x1e7;" horiz-adv-x="571" 
d="M216 -243c-35.333 0 -66.167 4.83594 -92.5 14.5029s-46.833 24.5 -61.5 44.5s-22 45.333 -22 76v30c0 32.667 8.66699 59.334 26 80.001s39 36 65 46s52 15 78 15v-20c-24 0 -47.167 -4 -69.5 -12s-40.833 -20.833 -55.5 -38.5s-22 -41.167 -22 -70.5v-30
c0 -42.667 14.167 -72.167 42.5 -88.5s65.5 -24.5 111.5 -24.5h140c52.667 0 93.834 10 123.501 30s44.5 51 44.5 93v25c0 23.333 -4.33301 43.666 -13 60.999s-24 30.833 -46 40.5s-53.333 14.5 -94 14.5h-194c-26.667 0 -49 6.83301 -67 20.5s-27 32.834 -27 57.501
c0 26 8 45.667 24 59s38.667 22.666 68 27.999c-28 9.33301 -49.5 22.666 -64.5 39.999s-25.333 36.166 -31 56.499s-8.5 40.166 -8.5 59.499c0 42.667 8.66699 76.334 26 101.001s40.666 42.167 69.999 52.5s61.333 15.5 96 15.5h282v-16l-151 -6
c10.667 -5.33301 23.167 -13 37.5 -23s26.833 -25.333 37.5 -46s16 -50 16 -88c0 -24.667 -5.33301 -49.334 -16 -74.001s-29.5 -45.334 -56.5 -62.001s-64.5 -25 -112.5 -25h-77c-36.667 0 -65.167 -5.16699 -85.5 -15.5s-30.5 -29.166 -30.5 -56.499
c0 -20 7 -34.333 21 -43s28.333 -13 43 -13h200c41.333 0 74.833 -5.33301 100.5 -16s44.5 -26 56.5 -46s18 -44.333 18 -73v-28c0 -45.333 -16.333 -80.833 -49 -106.5s-79.667 -38.5 -141 -38.5h-140zM235.999 215.003h61.998c44.667 0 78.667 6.83301 102 20.5
s39.333 31 48 52s13 43.167 13 66.5c0 38.667 -6.66699 69.5 -20 92.5s-31.166 39.5 -53.499 49.5s-47.833 15 -76.5 15h-58c-48 0 -86.333 -11 -115 -33s-43 -60 -43 -114c0 -52.667 12.833 -90.667 38.5 -114s59.834 -35 102.501 -35zM277.997 631.003l-120 130h18
l112 -115l124 115h18l-132 -130h-20z" />
    <glyph glyph-name="uni01EA" unicode="&#x1ea;" horiz-adv-x="676" 
d="M338 -6c-44.667 0 -83.835 4.16699 -117.502 12.5s-61.667 24.833 -84 49.5s-39 61.5 -50 110.5s-16.5 113.833 -16.5 194.5c0 81.333 5.66699 146.833 17 196.5s28.333 87.5 51 113.5s50.667 43.667 84 53s72 14 116 14c46 0 85.833 -4.66699 119.5 -14
s61.5 -27 83.5 -53s38.333 -63.833 49 -113.5s16 -115.167 16 -196.5c0 -80.667 -5.5 -145.5 -16.5 -194.5s-27.667 -85.833 -50 -110.5s-50.166 -41.167 -83.499 -49.5s-72.666 -12.5 -117.999 -12.5zM337.999 16c42.667 0 79.5029 4 110.503 12s56.333 23.833 76 47.5
s34.167 58.334 43.5 104.001s14 106.167 14 181.5c0 79.333 -4.83301 142.666 -14.5 189.999s-24.334 82.833 -44.001 106.5s-44.834 39.334 -75.501 47.001s-67.334 11.5 -110.001 11.5c-39.333 0 -74.166 -3.83301 -104.499 -11.5s-55.833 -23.334 -76.5 -47.001
s-36.334 -59.167 -47.001 -106.5s-16 -110.666 -16 -189.999c0 -75.333 4.33301 -135.833 13 -181.5s22.667 -80.334 42 -104.001s44.5 -39.5 75.5 -47.5s68.833 -12 113.5 -12zM419.002 -182c-20 0 -38 3.5 -54 10.5s-28.5 17 -37.5 30s-13.5 28.5 -13.5 46.5
c0 16.667 6.33301 33.5 19 50.5s33.667 31.833 63 44.5h12c-24 -12 -42.5 -25.833 -55.5 -41.5s-19.5 -32.167 -19.5 -49.5c0 -24 8.5 -42.667 25.5 -56s42.5 -20 76.5 -20h5v-14c-4 -0.666992 -7.66699 -1 -11 -1h-10z" />
    <glyph glyph-name="uni01EB" unicode="&#x1eb;" horiz-adv-x="578" 
d="M288 -6c-34 0 -64.5 3.5 -91.5 10.5s-50 20 -69 39s-33.333 46.5 -43 82.5s-14.5 82.667 -14.5 140s4.83301 103.833 14.5 139.5s24 63 43 82s42 32 69 39s57.5 10.5 91.5 10.5s64.667 -3.5 92 -10.5s50.5 -20 69.5 -39s33.5 -46.333 43.5 -82s15 -82.167 15 -139.5
s-5 -104 -15 -140s-24.5 -63.5 -43.5 -82.5s-42.167 -32 -69.5 -39s-58 -10.5 -92 -10.5zM288 16c30.667 0 58.167 2.83301 82.5 8.5s44.833 17 61.5 34s29.5 42.167 38.5 75.5s13.5 77.333 13.5 132c0 55.333 -4.5 99.5 -13.5 132.5s-21.833 57.833 -38.5 74.5
s-37.167 27.834 -61.5 33.501s-51.833 8.5 -82.5 8.5s-58 -2.83301 -82 -8.5s-44.333 -16.834 -61 -33.501s-29.334 -41.5 -38.001 -74.5s-13 -77.167 -13 -132.5c0 -54.667 4.33301 -98.667 13 -132s21.334 -58.5 38.001 -75.5s37 -28.333 61 -34s51.333 -8.5 82 -8.5z
M343 -182c-20 0 -38 3.5 -54 10.5s-28.5 17 -37.5 30s-13.5 28.5 -13.5 46.5c0 16.667 6.33301 33.5 19 50.5s33.667 31.833 63 44.5h12c-24 -12 -42.5 -25.833 -55.5 -41.5s-19.5 -32.167 -19.5 -49.5c0 -24 8.5 -42.667 25.5 -56s42.5 -20 76.5 -20h5v-14
c-4 -0.666992 -7.66699 -1 -11 -1h-10z" />
    <glyph glyph-name="Aringacute" unicode="&#x1fa;" horiz-adv-x="666" 
d="M48 0l268 732h34l268 -732h-26l-94 255h-331l-93 -255h-26zM174 277h315l-156 431zM333 760c-32.667 0 -57.834 7.33301 -75.501 22s-26.5 41.334 -26.5 80.001s8.83301 65.5 26.5 80.5s42.834 22.5 75.501 22.5c33.333 0 58.333 -7.5 75 -22.5s25 -41.833 25 -80.5
s-8.33301 -65.334 -25 -80.001s-41.667 -22 -75 -22zM333 776c29.333 0 50.666 5.83301 63.999 17.5s20 34.5 20 68.5s-6.66699 57 -20 69s-34.666 18 -63.999 18c-28.667 0 -50.167 -6 -64.5 -18s-21.5 -35 -21.5 -69s7.16699 -56.833 21.5 -68.5s35.833 -17.5 64.5 -17.5z
M329 953l121 133h26l-133 -133h-14z" />
    <glyph glyph-name="aringacute" unicode="&#x1fb;" horiz-adv-x="540" 
d="M187 -6c-38 0 -69.665 11.3301 -94.998 33.9971s-38 55.334 -38 98.001v31c0 42.667 13.5 76.834 40.5 102.501s66.5 38.5 118.5 38.5h216v89c0 26.667 -4.5 49.834 -13.5 69.501s-24.667 35 -47 46s-53.833 16.5 -94.5 16.5h-170v16
c20.667 0.666992 45.334 1.66699 74.001 3s61.334 2.33301 98.001 3c42.667 0.666992 77 -5 103 -17s44.833 -29.5 56.5 -52.5s17.5 -51.167 17.5 -84.5v-387h-16l-8 64c-0.666992 0 -8.83398 -3.5 -24.501 -10.5s-35.834 -15.167 -60.501 -24.5
s-50.834 -17.5 -78.501 -24.5s-53.834 -10.5 -78.501 -10.5zM187.002 17.9971c16 -0.666992 34.498 1.16895 55.498 5.50195s42.333 9.5 64 15.5s41.834 12.167 60.501 18.5s33.667 11.666 45 15.999l17 6.5v202l-222 -7c-47.333 -1.33301 -80.666 -13.166 -99.999 -35.499
s-29 -49.833 -29 -82.5v-26c0 -28 5.66699 -50.333 17 -67s25.5 -28.334 42.5 -35.001s33.5 -10.334 49.5 -11.001zM270 600c-32.667 0 -57.834 7.33301 -75.501 22s-26.5 41.334 -26.5 80.001s8.83301 65.5 26.5 80.5s42.834 22.5 75.501 22.5
c33.333 0 58.333 -7.5 75 -22.5s25 -41.833 25 -80.5s-8.33301 -65.334 -25 -80.001s-41.667 -22 -75 -22zM270 616c29.333 0 50.666 5.83301 63.999 17.5s20 34.5 20 68.5s-6.66699 57 -20 69s-34.666 18 -63.999 18c-28.667 0 -50.167 -6 -64.5 -18s-21.5 -35 -21.5 -69
s7.16699 -56.833 21.5 -68.5s35.833 -17.5 64.5 -17.5zM257 791l121 133h26l-133 -133h-14z" />
    <glyph glyph-name="AEacute" unicode="&#x1fc;" horiz-adv-x="950" 
d="M624 -3c-42 -0.666992 -75.167 8.16504 -99.5 26.498s-36.5 50.833 -36.5 97.5v132h-255l-159 -253h-26l401 643c11.333 17.333 23.666 32.833 36.999 46.5s29.333 24.334 48 32.001s40.667 11.167 66 10.5c47.333 -0.666992 94.5 -1.5 141.5 -2.5
s93.833 -2.16699 140.5 -3.5v-16h-288c-30.667 0 -52 -6 -64 -18s-18 -31 -18 -57v-261l330 -3v-16l-330 -3v-229c0 -24 4.16699 -43.667 12.5 -59s20.833 -26.666 37.5 -33.999s37.334 -11 62.001 -11h258v-16c-42.667 -0.666992 -85.5 -1.5 -128.5 -2.5
s-86.167 -2.16699 -129.5 -3.5zM246 274.999h242v382zM524 790.999l121 133h26l-133 -133h-14z" />
    </font>
</defs>
</svg>
